M48
INCH,TZ
T01C0.011800
T02C0.039200
T03C0.043300
%
T01
X710Y5359
X710Y4966
X710Y4572
X710Y3674
X710Y3274
X11179Y2348
X11179Y1954
X11179Y1560
X11179Y1166
X647Y2829
X722Y5759
X766Y4089
X766Y723
X999Y913
X1055Y2193
X1055Y2504
X1209Y5527
X1437Y3936
X1529Y4634
X1592Y2006
X1729Y1073
X2021Y801
X2124Y5841
X2170Y5204
X2212Y4827
X2287Y3520
X2291Y2283
X2567Y762
X2648Y2848
X2773Y1559
X2833Y3508
X2842Y4555
X2951Y2798
X3049Y723
X3846Y5846
X4014Y1530
X4304Y3335
X4534Y4274
X4535Y2774
X4536Y3567
X4742Y3810
X4762Y624
X4820Y3469
X5127Y4846
X5335Y2711
X5424Y4795
X5549Y654
X5565Y4148
X5734Y4801
X5752Y1368
X5825Y2750
X5884Y3750
X6037Y4425
X6041Y1451
X6342Y2184
X6360Y5150
X6368Y5451
X6740Y644
X6947Y5282
X6972Y5867
X6981Y4983
X7238Y5648
X7376Y4006
X7422Y3159
X7492Y2646
X7492Y1746
X7492Y1445
X7492Y1144
X7492Y843
X7496Y2238
X7872Y3774
X8128Y3557
X10203Y602
X10420Y2351
X10460Y5604
X10608Y5191
X10707Y2258
X10746Y4610
X10746Y4335
X10746Y4059
X10923Y5171
X10943Y595
X11051Y4610
X11051Y4335
X11248Y5585
X710Y5290
X710Y4896
X710Y4502
X710Y3604
X710Y3204
X11179Y2278
X11179Y1884
X11179Y1490
X11179Y1097
T02
X8033Y1608
X8821Y2790
X9608Y1608
X907Y1530
X2907Y1930
X2907Y1130
T03
X7856Y5417
X8856Y5417
X9856Y5417
M30
