G75*
G70*
%OFA0B0*%
%FSLAX25Y25*%
%IPPOS*%
%LPD*%
%AMOC8*
5,1,8,0,0,1.08239X$1,22.5*
%
%ADD19C,0.00787*%
%ADD38C,0.00472*%
%ADD39C,0.01181*%
X0000000Y0000000D02*
%LPD*%
G01*
D19*
X0113563Y0060296D02*
X0005295Y0060296D01*
X0005295Y0005571D01*
X0113563Y0005571D01*
X0113563Y0060296D01*
X0004902Y0004469D02*
%LPD*%
G01*
D38*
X0027481Y0035769D02*
X0027481Y0034488D01*
X0023465Y0035769D02*
X0023465Y0034488D01*
X0012835Y0040709D02*
X0012835Y0037048D01*
X0012835Y0028268D02*
X0021339Y0028268D01*
X0012835Y0028268D02*
X0012835Y0031930D01*
X0012835Y0040709D02*
X0018583Y0040709D01*
X0075689Y0037619D02*
X0075689Y0041949D01*
X0101792Y0031713D02*
X0101792Y0037619D01*
X0074626Y0037619D02*
X0075689Y0037619D01*
X0074626Y0031713D02*
X0074626Y0037619D01*
X0100729Y0037619D02*
X0100729Y0047579D01*
X0101792Y0037619D02*
X0100729Y0037619D01*
X0052245Y0007087D02*
X0061241Y0007087D01*
X0061241Y0007087D02*
X0061241Y0012875D01*
X0061241Y0012875D02*
X0052245Y0012875D01*
X0102796Y0018347D02*
X0102796Y0009351D01*
X0108583Y0009351D02*
X0108583Y0018347D01*
X0102796Y0009351D02*
X0108583Y0009351D01*
X0037835Y0012875D02*
X0037835Y0007087D01*
X0046831Y0012875D02*
X0037835Y0012875D01*
X0037835Y0007087D02*
X0046831Y0007087D01*
X0063800Y0050571D02*
X0063800Y0049390D01*
X0035374Y0022146D02*
X0035374Y0023327D01*
X0036556Y0022146D02*
X0035374Y0022146D01*
X0063800Y0023327D02*
X0068977Y0023327D01*
X0062619Y0022146D02*
X0063800Y0022146D01*
X0063800Y0022146D02*
X0063800Y0023327D01*
X0035374Y0050571D02*
X0035374Y0049390D01*
X0062619Y0050571D02*
X0063800Y0050571D01*
X0036556Y0050571D02*
X0035374Y0050571D01*
X0009410Y0055099D02*
X0009410Y0046595D01*
X0021851Y0055099D02*
X0018189Y0055099D01*
X0021851Y0055099D02*
X0021851Y0049351D01*
X0009410Y0055099D02*
X0013071Y0055099D01*
X0022944Y0058465D02*
X0022944Y0049469D01*
X0028731Y0058465D02*
X0022944Y0058465D01*
X0028731Y0049469D02*
X0028731Y0058465D01*
D19*
X0113563Y0059587D02*
X0005296Y0059587D01*
X0005296Y0059587D02*
X0005296Y0004863D01*
X0005296Y0004863D02*
X0113563Y0004863D01*
X0113563Y0004863D02*
X0113563Y0059587D01*
D38*
X0014075Y0010296D02*
X0011575Y0010296D01*
X0011575Y0010296D02*
X0011575Y0012796D01*
D39*
X0102894Y0049449D02*
X0074154Y0049449D01*
D38*
X0102894Y0058504D02*
X0074154Y0058504D01*
X0074154Y0049449D02*
X0074154Y0058504D01*
X0102894Y0049449D02*
X0102894Y0058504D01*
M02*
