G75*
G70*
%OFA0B0*%
%FSLAX25Y25*%
%IPPOS*%
%LPD*%
%AMOC8*
5,1,8,0,0,1.08239X$1,22.5*
%
%ADD23R,0.03543X0.03150*%
%ADD24R,0.04724X0.08661*%
%ADD25C,0.05118*%
%ADD26R,0.22835X0.25197*%
%ADD27R,0.03150X0.03543*%
%ADD28C,0.03100*%
%ADD29R,0.07500X0.07874*%
%ADD30O,0.07500X0.07874*%
%ADD36C,0.03900*%
X0000000Y0000000D02*
%LPD*%
G01*
X0004902Y0004469D02*
%LPD*%
G01*
G36*
G01*
X0072510Y0040178D02*
X0071152Y0040178D01*
G75*
G02*
X0070571Y0040758I0000000J0000581D01*
G01*
X0070571Y0041920D01*
G75*
G02*
X0071152Y0042500I0000581J0000000D01*
G01*
X0072510Y0042500D01*
G75*
G02*
X0073091Y0041920I0000000J-000581D01*
G01*
X0073091Y0040758D01*
G75*
G02*
X0072510Y0040178I-000581J0000000D01*
G01*
G37*
G36*
G01*
X0072510Y0043997D02*
X0071152Y0043997D01*
G75*
G02*
X0070571Y0044577I0000000J0000581D01*
G01*
X0070571Y0045739D01*
G75*
G02*
X0071152Y0046319I0000581J0000000D01*
G01*
X0072510Y0046319D01*
G75*
G02*
X0073091Y0045739I0000000J-000581D01*
G01*
X0073091Y0044577D01*
G75*
G02*
X0072510Y0043997I-000581J0000000D01*
G01*
G37*
G36*
G01*
X0013937Y0024754D02*
X0013937Y0026113D01*
G75*
G02*
X0014518Y0026693I0000581J0000000D01*
G01*
X0015680Y0026693D01*
G75*
G02*
X0016260Y0026113I0000000J-000581D01*
G01*
X0016260Y0024754D01*
G75*
G02*
X0015680Y0024174I-000581J0000000D01*
G01*
X0014518Y0024174D01*
G75*
G02*
X0013937Y0024754I0000000J0000581D01*
G01*
G37*
G36*
G01*
X0017756Y0024754D02*
X0017756Y0026113D01*
G75*
G02*
X0018337Y0026693I0000581J0000000D01*
G01*
X0019498Y0026693D01*
G75*
G02*
X0020079Y0026113I0000000J-000581D01*
G01*
X0020079Y0024754D01*
G75*
G02*
X0019498Y0024174I-000581J0000000D01*
G01*
X0018337Y0024174D01*
G75*
G02*
X0017756Y0024754I0000000J0000581D01*
G01*
G37*
G36*
G01*
X0024464Y0039951D02*
X0026482Y0039951D01*
G75*
G02*
X0027343Y0039090I0000000J-000861D01*
G01*
X0027343Y0037368D01*
G75*
G02*
X0026482Y0036506I-000861J0000000D01*
G01*
X0024464Y0036506D01*
G75*
G02*
X0023603Y0037368I0000000J0000861D01*
G01*
X0023603Y0039090D01*
G75*
G02*
X0024464Y0039951I0000861J0000000D01*
G01*
G37*
G36*
G01*
X0024464Y0033750D02*
X0026482Y0033750D01*
G75*
G02*
X0027343Y0032889I0000000J-000861D01*
G01*
X0027343Y0031167D01*
G75*
G02*
X0026482Y0030306I-000861J0000000D01*
G01*
X0024464Y0030306D01*
G75*
G02*
X0023603Y0031167I0000000J0000861D01*
G01*
X0023603Y0032889D01*
G75*
G02*
X0024464Y0033750I0000861J0000000D01*
G01*
G37*
G36*
G01*
X0070955Y0014922D02*
X0072313Y0014922D01*
G75*
G02*
X0072894Y0014341I0000000J-000581D01*
G01*
X0072894Y0013180D01*
G75*
G02*
X0072313Y0012599I-000581J0000000D01*
G01*
X0070955Y0012599D01*
G75*
G02*
X0070374Y0013180I0000000J0000581D01*
G01*
X0070374Y0014341D01*
G75*
G02*
X0070955Y0014922I0000581J0000000D01*
G01*
G37*
G36*
G01*
X0070955Y0011103D02*
X0072313Y0011103D01*
G75*
G02*
X0072894Y0010522I0000000J-000581D01*
G01*
X0072894Y0009361D01*
G75*
G02*
X0072313Y0008780I-000581J0000000D01*
G01*
X0070955Y0008780D01*
G75*
G02*
X0070374Y0009361I0000000J0000581D01*
G01*
X0070374Y0010522D01*
G75*
G02*
X0070955Y0011103I0000581J0000000D01*
G01*
G37*
D23*
X0019764Y0030749D03*
X0019764Y0038229D03*
X0011890Y0034489D03*
G36*
G01*
X0066772Y0014922D02*
X0068130Y0014922D01*
G75*
G02*
X0068711Y0014341I0000000J-000581D01*
G01*
X0068711Y0013180D01*
G75*
G02*
X0068130Y0012599I-000581J0000000D01*
G01*
X0066772Y0012599D01*
G75*
G02*
X0066191Y0013180I0000000J0000581D01*
G01*
X0066191Y0014341D01*
G75*
G02*
X0066772Y0014922I0000581J0000000D01*
G01*
G37*
G36*
G01*
X0066772Y0011103D02*
X0068130Y0011103D01*
G75*
G02*
X0068711Y0010522I0000000J-000581D01*
G01*
X0068711Y0009361D01*
G75*
G02*
X0068130Y0008780I-000581J0000000D01*
G01*
X0066772Y0008780D01*
G75*
G02*
X0066191Y0009361I0000000J0000581D01*
G01*
X0066191Y0010522D01*
G75*
G02*
X0066772Y0011103I0000581J0000000D01*
G01*
G37*
G36*
G01*
X0071152Y0038839D02*
X0072510Y0038839D01*
G75*
G02*
X0073091Y0038258I0000000J-000581D01*
G01*
X0073091Y0037097D01*
G75*
G02*
X0072510Y0036516I-000581J0000000D01*
G01*
X0071152Y0036516D01*
G75*
G02*
X0070571Y0037097I0000000J0000581D01*
G01*
X0070571Y0038258D01*
G75*
G02*
X0071152Y0038839I0000581J0000000D01*
G01*
G37*
G36*
G01*
X0071152Y0035020D02*
X0072510Y0035020D01*
G75*
G02*
X0073091Y0034439I0000000J-000581D01*
G01*
X0073091Y0033278D01*
G75*
G02*
X0072510Y0032697I-000581J0000000D01*
G01*
X0071152Y0032697D01*
G75*
G02*
X0070571Y0033278I0000000J0000581D01*
G01*
X0070571Y0034439D01*
G75*
G02*
X0071152Y0035020I0000581J0000000D01*
G01*
G37*
G36*
G01*
X0067392Y0051103D02*
X0066034Y0051103D01*
G75*
G02*
X0065453Y0051684I0000000J0000581D01*
G01*
X0065453Y0052845D01*
G75*
G02*
X0066034Y0053426I0000581J0000000D01*
G01*
X0067392Y0053426D01*
G75*
G02*
X0067973Y0052845I0000000J-000581D01*
G01*
X0067973Y0051684D01*
G75*
G02*
X0067392Y0051103I-000581J0000000D01*
G01*
G37*
G36*
G01*
X0067392Y0054922D02*
X0066034Y0054922D01*
G75*
G02*
X0065453Y0055502I0000000J0000581D01*
G01*
X0065453Y0056664D01*
G75*
G02*
X0066034Y0057245I0000581J0000000D01*
G01*
X0067392Y0057245D01*
G75*
G02*
X0067973Y0056664I0000000J-000581D01*
G01*
X0067973Y0055502D01*
G75*
G02*
X0067392Y0054922I-000581J0000000D01*
G01*
G37*
G36*
G01*
X0072510Y0024331D02*
X0071152Y0024331D01*
G75*
G02*
X0070571Y0024912I0000000J0000581D01*
G01*
X0070571Y0026073D01*
G75*
G02*
X0071152Y0026654I0000581J0000000D01*
G01*
X0072510Y0026654D01*
G75*
G02*
X0073091Y0026073I0000000J-000581D01*
G01*
X0073091Y0024912D01*
G75*
G02*
X0072510Y0024331I-000581J0000000D01*
G01*
G37*
G36*
G01*
X0072510Y0028150D02*
X0071152Y0028150D01*
G75*
G02*
X0070571Y0028731I0000000J0000581D01*
G01*
X0070571Y0029892D01*
G75*
G02*
X0071152Y0030473I0000581J0000000D01*
G01*
X0072510Y0030473D01*
G75*
G02*
X0073091Y0029892I0000000J-000581D01*
G01*
X0073091Y0028731D01*
G75*
G02*
X0072510Y0028150I-000581J0000000D01*
G01*
G37*
G36*
G01*
X0032746Y0051103D02*
X0031388Y0051103D01*
G75*
G02*
X0030808Y0051684I0000000J0000581D01*
G01*
X0030808Y0052845D01*
G75*
G02*
X0031388Y0053426I0000581J0000000D01*
G01*
X0032746Y0053426D01*
G75*
G02*
X0033327Y0052845I0000000J-000581D01*
G01*
X0033327Y0051684D01*
G75*
G02*
X0032746Y0051103I-000581J0000000D01*
G01*
G37*
G36*
G01*
X0032746Y0054922D02*
X0031388Y0054922D01*
G75*
G02*
X0030808Y0055502I0000000J0000581D01*
G01*
X0030808Y0056664D01*
G75*
G02*
X0031388Y0057245I0000581J0000000D01*
G01*
X0032746Y0057245D01*
G75*
G02*
X0033327Y0056664I0000000J-000581D01*
G01*
X0033327Y0055502D01*
G75*
G02*
X0032746Y0054922I-000581J0000000D01*
G01*
G37*
D24*
X0097185Y0044430D03*
D25*
X0096083Y0016083D03*
X0088209Y0027894D03*
X0080335Y0016083D03*
D26*
X0088209Y0019626D03*
D24*
X0079233Y0044430D03*
G36*
G01*
X0021713Y0024656D02*
X0021713Y0026014D01*
G75*
G02*
X0022294Y0026595I0000581J0000000D01*
G01*
X0023455Y0026595D01*
G75*
G02*
X0024036Y0026014I0000000J-000581D01*
G01*
X0024036Y0024656D01*
G75*
G02*
X0023455Y0024075I-000581J0000000D01*
G01*
X0022294Y0024075D01*
G75*
G02*
X0021713Y0024656I0000000J0000581D01*
G01*
G37*
G36*
G01*
X0025532Y0024656D02*
X0025532Y0026014D01*
G75*
G02*
X0026113Y0026595I0000581J0000000D01*
G01*
X0027274Y0026595D01*
G75*
G02*
X0027855Y0026014I0000000J-000581D01*
G01*
X0027855Y0024656D01*
G75*
G02*
X0027274Y0024075I-000581J0000000D01*
G01*
X0026113Y0024075D01*
G75*
G02*
X0025532Y0024656I0000000J0000581D01*
G01*
G37*
G36*
G01*
X0060217Y0010990D02*
X0060217Y0008972D01*
G75*
G02*
X0059356Y0008111I-000861J0000000D01*
G01*
X0057633Y0008111D01*
G75*
G02*
X0056772Y0008972I0000000J0000861D01*
G01*
X0056772Y0010990D01*
G75*
G02*
X0057633Y0011851I0000861J0000000D01*
G01*
X0059356Y0011851D01*
G75*
G02*
X0060217Y0010990I0000000J-000861D01*
G01*
G37*
G36*
G01*
X0054016Y0010990D02*
X0054016Y0008972D01*
G75*
G02*
X0053155Y0008111I-000861J0000000D01*
G01*
X0051433Y0008111D01*
G75*
G02*
X0050571Y0008972I0000000J0000861D01*
G01*
X0050571Y0010990D01*
G75*
G02*
X0051433Y0011851I0000861J0000000D01*
G01*
X0053155Y0011851D01*
G75*
G02*
X0054016Y0010990I0000000J-000861D01*
G01*
G37*
G36*
G01*
X0062589Y0014922D02*
X0063947Y0014922D01*
G75*
G02*
X0064528Y0014341I0000000J-000581D01*
G01*
X0064528Y0013180D01*
G75*
G02*
X0063947Y0012599I-000581J0000000D01*
G01*
X0062589Y0012599D01*
G75*
G02*
X0062008Y0013180I0000000J0000581D01*
G01*
X0062008Y0014341D01*
G75*
G02*
X0062589Y0014922I0000581J0000000D01*
G01*
G37*
G36*
G01*
X0062589Y0011103D02*
X0063947Y0011103D01*
G75*
G02*
X0064528Y0010522I0000000J-000581D01*
G01*
X0064528Y0009361D01*
G75*
G02*
X0063947Y0008780I-000581J0000000D01*
G01*
X0062589Y0008780D01*
G75*
G02*
X0062008Y0009361I0000000J0000581D01*
G01*
X0062008Y0010522D01*
G75*
G02*
X0062589Y0011103I0000581J0000000D01*
G01*
G37*
G36*
G01*
X0106698Y0010375D02*
X0104681Y0010375D01*
G75*
G02*
X0103819Y0011236I0000000J0000861D01*
G01*
X0103819Y0012958D01*
G75*
G02*
X0104681Y0013819I0000861J0000000D01*
G01*
X0106698Y0013819D01*
G75*
G02*
X0107559Y0012958I0000000J-000861D01*
G01*
X0107559Y0011236D01*
G75*
G02*
X0106698Y0010375I-000861J0000000D01*
G01*
G37*
G36*
G01*
X0106698Y0016575D02*
X0104681Y0016575D01*
G75*
G02*
X0103819Y0017437I0000000J0000861D01*
G01*
X0103819Y0019159D01*
G75*
G02*
X0104681Y0020020I0000861J0000000D01*
G01*
X0106698Y0020020D01*
G75*
G02*
X0107559Y0019159I0000000J-000861D01*
G01*
X0107559Y0017437D01*
G75*
G02*
X0106698Y0016575I-000861J0000000D01*
G01*
G37*
G36*
G01*
X0038859Y0008972D02*
X0038859Y0010990D01*
G75*
G02*
X0039720Y0011851I0000861J0000000D01*
G01*
X0041442Y0011851D01*
G75*
G02*
X0042304Y0010990I0000000J-000861D01*
G01*
X0042304Y0008972D01*
G75*
G02*
X0041442Y0008111I-000861J0000000D01*
G01*
X0039720Y0008111D01*
G75*
G02*
X0038859Y0008972I0000000J0000861D01*
G01*
G37*
G36*
G01*
X0045059Y0008972D02*
X0045059Y0010990D01*
G75*
G02*
X0045921Y0011851I0000861J0000000D01*
G01*
X0047643Y0011851D01*
G75*
G02*
X0048504Y0010990I0000000J-000861D01*
G01*
X0048504Y0008972D01*
G75*
G02*
X0047643Y0008111I-000861J0000000D01*
G01*
X0045921Y0008111D01*
G75*
G02*
X0045059Y0008972I0000000J0000861D01*
G01*
G37*
G36*
G01*
X0034538Y0013150D02*
X0035896Y0013150D01*
G75*
G02*
X0036477Y0012569I0000000J-000581D01*
G01*
X0036477Y0011408D01*
G75*
G02*
X0035896Y0010827I-000581J0000000D01*
G01*
X0034538Y0010827D01*
G75*
G02*
X0033957Y0011408I0000000J0000581D01*
G01*
X0033957Y0012569D01*
G75*
G02*
X0034538Y0013150I0000581J0000000D01*
G01*
G37*
G36*
G01*
X0034538Y0009331D02*
X0035896Y0009331D01*
G75*
G02*
X0036477Y0008750I0000000J-000581D01*
G01*
X0036477Y0007589D01*
G75*
G02*
X0035896Y0007008I-000581J0000000D01*
G01*
X0034538Y0007008D01*
G75*
G02*
X0033957Y0007589I0000000J0000581D01*
G01*
X0033957Y0008750D01*
G75*
G02*
X0034538Y0009331I0000581J0000000D01*
G01*
G37*
G36*
G01*
X0068977Y0025827D02*
X0068977Y0024843D01*
G75*
G02*
X0068485Y0024351I-000492J0000000D01*
G01*
X0063563Y0024351D01*
G75*
G02*
X0063071Y0024843I0000000J0000492D01*
G01*
X0063071Y0025827D01*
G75*
G02*
X0063563Y0026319I0000492J0000000D01*
G01*
X0068485Y0026319D01*
G75*
G02*
X0068977Y0025827I0000000J-000492D01*
G01*
G37*
G36*
G01*
X0068977Y0028977D02*
X0068977Y0027993D01*
G75*
G02*
X0068485Y0027500I-000492J0000000D01*
G01*
X0063563Y0027500D01*
G75*
G02*
X0063071Y0027993I0000000J0000492D01*
G01*
X0063071Y0028977D01*
G75*
G02*
X0063563Y0029469I0000492J0000000D01*
G01*
X0068485Y0029469D01*
G75*
G02*
X0068977Y0028977I0000000J-000492D01*
G01*
G37*
G36*
G01*
X0068977Y0032126D02*
X0068977Y0031142D01*
G75*
G02*
X0068485Y0030650I-000492J0000000D01*
G01*
X0063563Y0030650D01*
G75*
G02*
X0063071Y0031142I0000000J0000492D01*
G01*
X0063071Y0032126D01*
G75*
G02*
X0063563Y0032619I0000492J0000000D01*
G01*
X0068485Y0032619D01*
G75*
G02*
X0068977Y0032126I0000000J-000492D01*
G01*
G37*
G36*
G01*
X0068977Y0035276D02*
X0068977Y0034292D01*
G75*
G02*
X0068485Y0033800I-000492J0000000D01*
G01*
X0063563Y0033800D01*
G75*
G02*
X0063071Y0034292I0000000J0000492D01*
G01*
X0063071Y0035276D01*
G75*
G02*
X0063563Y0035768I0000492J0000000D01*
G01*
X0068485Y0035768D01*
G75*
G02*
X0068977Y0035276I0000000J-000492D01*
G01*
G37*
G36*
G01*
X0068977Y0038426D02*
X0068977Y0037441D01*
G75*
G02*
X0068485Y0036949I-000492J0000000D01*
G01*
X0063563Y0036949D01*
G75*
G02*
X0063071Y0037441I0000000J0000492D01*
G01*
X0063071Y0038426D01*
G75*
G02*
X0063563Y0038918I0000492J0000000D01*
G01*
X0068485Y0038918D01*
G75*
G02*
X0068977Y0038426I0000000J-000492D01*
G01*
G37*
G36*
G01*
X0068977Y0041575D02*
X0068977Y0040591D01*
G75*
G02*
X0068485Y0040099I-000492J0000000D01*
G01*
X0063563Y0040099D01*
G75*
G02*
X0063071Y0040591I0000000J0000492D01*
G01*
X0063071Y0041575D01*
G75*
G02*
X0063563Y0042067I0000492J0000000D01*
G01*
X0068485Y0042067D01*
G75*
G02*
X0068977Y0041575I0000000J-000492D01*
G01*
G37*
G36*
G01*
X0068977Y0044725D02*
X0068977Y0043741D01*
G75*
G02*
X0068485Y0043249I-000492J0000000D01*
G01*
X0063563Y0043249D01*
G75*
G02*
X0063071Y0043741I0000000J0000492D01*
G01*
X0063071Y0044725D01*
G75*
G02*
X0063563Y0045217I0000492J0000000D01*
G01*
X0068485Y0045217D01*
G75*
G02*
X0068977Y0044725I0000000J-000492D01*
G01*
G37*
G36*
G01*
X0068977Y0047875D02*
X0068977Y0046890D01*
G75*
G02*
X0068485Y0046398I-000492J0000000D01*
G01*
X0063563Y0046398D01*
G75*
G02*
X0063071Y0046890I0000000J0000492D01*
G01*
X0063071Y0047875D01*
G75*
G02*
X0063563Y0048367I0000492J0000000D01*
G01*
X0068485Y0048367D01*
G75*
G02*
X0068977Y0047875I0000000J-000492D01*
G01*
G37*
G36*
G01*
X0061595Y0055256D02*
X0061595Y0050335D01*
G75*
G02*
X0061103Y0049843I-000492J0000000D01*
G01*
X0060119Y0049843D01*
G75*
G02*
X0059626Y0050335I0000000J0000492D01*
G01*
X0059626Y0055256D01*
G75*
G02*
X0060119Y0055749I0000492J0000000D01*
G01*
X0061103Y0055749D01*
G75*
G02*
X0061595Y0055256I0000000J-000492D01*
G01*
G37*
G36*
G01*
X0058445Y0055256D02*
X0058445Y0050335D01*
G75*
G02*
X0057953Y0049843I-000492J0000000D01*
G01*
X0056969Y0049843D01*
G75*
G02*
X0056477Y0050335I0000000J0000492D01*
G01*
X0056477Y0055256D01*
G75*
G02*
X0056969Y0055749I0000492J0000000D01*
G01*
X0057953Y0055749D01*
G75*
G02*
X0058445Y0055256I0000000J-000492D01*
G01*
G37*
G36*
G01*
X0055296Y0055256D02*
X0055296Y0050335D01*
G75*
G02*
X0054804Y0049843I-000492J0000000D01*
G01*
X0053819Y0049843D01*
G75*
G02*
X0053327Y0050335I0000000J0000492D01*
G01*
X0053327Y0055256D01*
G75*
G02*
X0053819Y0055749I0000492J0000000D01*
G01*
X0054804Y0055749D01*
G75*
G02*
X0055296Y0055256I0000000J-000492D01*
G01*
G37*
G36*
G01*
X0052146Y0055256D02*
X0052146Y0050335D01*
G75*
G02*
X0051654Y0049843I-000492J0000000D01*
G01*
X0050670Y0049843D01*
G75*
G02*
X0050178Y0050335I0000000J0000492D01*
G01*
X0050178Y0055256D01*
G75*
G02*
X0050670Y0055749I0000492J0000000D01*
G01*
X0051654Y0055749D01*
G75*
G02*
X0052146Y0055256I0000000J-000492D01*
G01*
G37*
G36*
G01*
X0048996Y0055256D02*
X0048996Y0050335D01*
G75*
G02*
X0048504Y0049843I-000492J0000000D01*
G01*
X0047520Y0049843D01*
G75*
G02*
X0047028Y0050335I0000000J0000492D01*
G01*
X0047028Y0055256D01*
G75*
G02*
X0047520Y0055749I0000492J0000000D01*
G01*
X0048504Y0055749D01*
G75*
G02*
X0048996Y0055256I0000000J-000492D01*
G01*
G37*
G36*
G01*
X0045847Y0055256D02*
X0045847Y0050335D01*
G75*
G02*
X0045355Y0049843I-000492J0000000D01*
G01*
X0044371Y0049843D01*
G75*
G02*
X0043878Y0050335I0000000J0000492D01*
G01*
X0043878Y0055256D01*
G75*
G02*
X0044371Y0055749I0000492J0000000D01*
G01*
X0045355Y0055749D01*
G75*
G02*
X0045847Y0055256I0000000J-000492D01*
G01*
G37*
G36*
G01*
X0042697Y0055256D02*
X0042697Y0050335D01*
G75*
G02*
X0042205Y0049843I-000492J0000000D01*
G01*
X0041221Y0049843D01*
G75*
G02*
X0040729Y0050335I0000000J0000492D01*
G01*
X0040729Y0055256D01*
G75*
G02*
X0041221Y0055749I0000492J0000000D01*
G01*
X0042205Y0055749D01*
G75*
G02*
X0042697Y0055256I0000000J-000492D01*
G01*
G37*
G36*
G01*
X0039548Y0055256D02*
X0039548Y0050335D01*
G75*
G02*
X0039056Y0049843I-000492J0000000D01*
G01*
X0038071Y0049843D01*
G75*
G02*
X0037579Y0050335I0000000J0000492D01*
G01*
X0037579Y0055256D01*
G75*
G02*
X0038071Y0055749I0000492J0000000D01*
G01*
X0039056Y0055749D01*
G75*
G02*
X0039548Y0055256I0000000J-000492D01*
G01*
G37*
G36*
G01*
X0036103Y0047875D02*
X0036103Y0046890D01*
G75*
G02*
X0035611Y0046398I-000492J0000000D01*
G01*
X0030689Y0046398D01*
G75*
G02*
X0030197Y0046890I0000000J0000492D01*
G01*
X0030197Y0047875D01*
G75*
G02*
X0030689Y0048367I0000492J0000000D01*
G01*
X0035611Y0048367D01*
G75*
G02*
X0036103Y0047875I0000000J-000492D01*
G01*
G37*
G36*
G01*
X0036103Y0044725D02*
X0036103Y0043741D01*
G75*
G02*
X0035611Y0043249I-000492J0000000D01*
G01*
X0030689Y0043249D01*
G75*
G02*
X0030197Y0043741I0000000J0000492D01*
G01*
X0030197Y0044725D01*
G75*
G02*
X0030689Y0045217I0000492J0000000D01*
G01*
X0035611Y0045217D01*
G75*
G02*
X0036103Y0044725I0000000J-000492D01*
G01*
G37*
G36*
G01*
X0036103Y0041575D02*
X0036103Y0040591D01*
G75*
G02*
X0035611Y0040099I-000492J0000000D01*
G01*
X0030689Y0040099D01*
G75*
G02*
X0030197Y0040591I0000000J0000492D01*
G01*
X0030197Y0041575D01*
G75*
G02*
X0030689Y0042067I0000492J0000000D01*
G01*
X0035611Y0042067D01*
G75*
G02*
X0036103Y0041575I0000000J-000492D01*
G01*
G37*
G36*
G01*
X0036103Y0038426D02*
X0036103Y0037441D01*
G75*
G02*
X0035611Y0036949I-000492J0000000D01*
G01*
X0030689Y0036949D01*
G75*
G02*
X0030197Y0037441I0000000J0000492D01*
G01*
X0030197Y0038426D01*
G75*
G02*
X0030689Y0038918I0000492J0000000D01*
G01*
X0035611Y0038918D01*
G75*
G02*
X0036103Y0038426I0000000J-000492D01*
G01*
G37*
G36*
G01*
X0036103Y0035276D02*
X0036103Y0034292D01*
G75*
G02*
X0035611Y0033800I-000492J0000000D01*
G01*
X0030689Y0033800D01*
G75*
G02*
X0030197Y0034292I0000000J0000492D01*
G01*
X0030197Y0035276D01*
G75*
G02*
X0030689Y0035768I0000492J0000000D01*
G01*
X0035611Y0035768D01*
G75*
G02*
X0036103Y0035276I0000000J-000492D01*
G01*
G37*
G36*
G01*
X0036103Y0032126D02*
X0036103Y0031142D01*
G75*
G02*
X0035611Y0030650I-000492J0000000D01*
G01*
X0030689Y0030650D01*
G75*
G02*
X0030197Y0031142I0000000J0000492D01*
G01*
X0030197Y0032126D01*
G75*
G02*
X0030689Y0032619I0000492J0000000D01*
G01*
X0035611Y0032619D01*
G75*
G02*
X0036103Y0032126I0000000J-000492D01*
G01*
G37*
G36*
G01*
X0036103Y0028977D02*
X0036103Y0027993D01*
G75*
G02*
X0035611Y0027500I-000492J0000000D01*
G01*
X0030689Y0027500D01*
G75*
G02*
X0030197Y0027993I0000000J0000492D01*
G01*
X0030197Y0028977D01*
G75*
G02*
X0030689Y0029469I0000492J0000000D01*
G01*
X0035611Y0029469D01*
G75*
G02*
X0036103Y0028977I0000000J-000492D01*
G01*
G37*
G36*
G01*
X0036103Y0025827D02*
X0036103Y0024843D01*
G75*
G02*
X0035611Y0024351I-000492J0000000D01*
G01*
X0030689Y0024351D01*
G75*
G02*
X0030197Y0024843I0000000J0000492D01*
G01*
X0030197Y0025827D01*
G75*
G02*
X0030689Y0026319I0000492J0000000D01*
G01*
X0035611Y0026319D01*
G75*
G02*
X0036103Y0025827I0000000J-000492D01*
G01*
G37*
G36*
G01*
X0039548Y0022382D02*
X0039548Y0017461D01*
G75*
G02*
X0039056Y0016969I-000492J0000000D01*
G01*
X0038071Y0016969D01*
G75*
G02*
X0037579Y0017461I0000000J0000492D01*
G01*
X0037579Y0022382D01*
G75*
G02*
X0038071Y0022875I0000492J0000000D01*
G01*
X0039056Y0022875D01*
G75*
G02*
X0039548Y0022382I0000000J-000492D01*
G01*
G37*
G36*
G01*
X0042697Y0022382D02*
X0042697Y0017461D01*
G75*
G02*
X0042205Y0016969I-000492J0000000D01*
G01*
X0041221Y0016969D01*
G75*
G02*
X0040729Y0017461I0000000J0000492D01*
G01*
X0040729Y0022382D01*
G75*
G02*
X0041221Y0022875I0000492J0000000D01*
G01*
X0042205Y0022875D01*
G75*
G02*
X0042697Y0022382I0000000J-000492D01*
G01*
G37*
G36*
G01*
X0045847Y0022382D02*
X0045847Y0017461D01*
G75*
G02*
X0045355Y0016969I-000492J0000000D01*
G01*
X0044371Y0016969D01*
G75*
G02*
X0043878Y0017461I0000000J0000492D01*
G01*
X0043878Y0022382D01*
G75*
G02*
X0044371Y0022875I0000492J0000000D01*
G01*
X0045355Y0022875D01*
G75*
G02*
X0045847Y0022382I0000000J-000492D01*
G01*
G37*
G36*
G01*
X0048996Y0022382D02*
X0048996Y0017461D01*
G75*
G02*
X0048504Y0016969I-000492J0000000D01*
G01*
X0047520Y0016969D01*
G75*
G02*
X0047028Y0017461I0000000J0000492D01*
G01*
X0047028Y0022382D01*
G75*
G02*
X0047520Y0022875I0000492J0000000D01*
G01*
X0048504Y0022875D01*
G75*
G02*
X0048996Y0022382I0000000J-000492D01*
G01*
G37*
G36*
G01*
X0052146Y0022382D02*
X0052146Y0017461D01*
G75*
G02*
X0051654Y0016969I-000492J0000000D01*
G01*
X0050670Y0016969D01*
G75*
G02*
X0050178Y0017461I0000000J0000492D01*
G01*
X0050178Y0022382D01*
G75*
G02*
X0050670Y0022875I0000492J0000000D01*
G01*
X0051654Y0022875D01*
G75*
G02*
X0052146Y0022382I0000000J-000492D01*
G01*
G37*
G36*
G01*
X0055296Y0022382D02*
X0055296Y0017461D01*
G75*
G02*
X0054804Y0016969I-000492J0000000D01*
G01*
X0053819Y0016969D01*
G75*
G02*
X0053327Y0017461I0000000J0000492D01*
G01*
X0053327Y0022382D01*
G75*
G02*
X0053819Y0022875I0000492J0000000D01*
G01*
X0054804Y0022875D01*
G75*
G02*
X0055296Y0022382I0000000J-000492D01*
G01*
G37*
G36*
G01*
X0058445Y0022382D02*
X0058445Y0017461D01*
G75*
G02*
X0057953Y0016969I-000492J0000000D01*
G01*
X0056969Y0016969D01*
G75*
G02*
X0056477Y0017461I0000000J0000492D01*
G01*
X0056477Y0022382D01*
G75*
G02*
X0056969Y0022875I0000492J0000000D01*
G01*
X0057953Y0022875D01*
G75*
G02*
X0058445Y0022382I0000000J-000492D01*
G01*
G37*
G36*
G01*
X0061595Y0022382D02*
X0061595Y0017461D01*
G75*
G02*
X0061103Y0016969I-000492J0000000D01*
G01*
X0060119Y0016969D01*
G75*
G02*
X0059626Y0017461I0000000J0000492D01*
G01*
X0059626Y0022382D01*
G75*
G02*
X0060119Y0022875I0000492J0000000D01*
G01*
X0061103Y0022875D01*
G75*
G02*
X0061595Y0022382I0000000J-000492D01*
G01*
G37*
G36*
G01*
X0026969Y0043928D02*
X0026969Y0042569D01*
G75*
G02*
X0026388Y0041989I-000581J0000000D01*
G01*
X0025227Y0041989D01*
G75*
G02*
X0024646Y0042569I0000000J0000581D01*
G01*
X0024646Y0043928D01*
G75*
G02*
X0025227Y0044508I0000581J0000000D01*
G01*
X0026388Y0044508D01*
G75*
G02*
X0026969Y0043928I0000000J-000581D01*
G01*
G37*
G36*
G01*
X0023150Y0043928D02*
X0023150Y0042569D01*
G75*
G02*
X0022569Y0041989I-000581J0000000D01*
G01*
X0021408Y0041989D01*
G75*
G02*
X0020827Y0042569I0000000J0000581D01*
G01*
X0020827Y0043928D01*
G75*
G02*
X0021408Y0044508I0000581J0000000D01*
G01*
X0022569Y0044508D01*
G75*
G02*
X0023150Y0043928I0000000J-000581D01*
G01*
G37*
G36*
G01*
X0034046Y0020532D02*
X0035404Y0020532D01*
G75*
G02*
X0035985Y0019951I0000000J-000581D01*
G01*
X0035985Y0018790D01*
G75*
G02*
X0035404Y0018209I-000581J0000000D01*
G01*
X0034046Y0018209D01*
G75*
G02*
X0033465Y0018790I0000000J0000581D01*
G01*
X0033465Y0019951D01*
G75*
G02*
X0034046Y0020532I0000581J0000000D01*
G01*
G37*
G36*
G01*
X0034046Y0016713D02*
X0035404Y0016713D01*
G75*
G02*
X0035985Y0016132I0000000J-000581D01*
G01*
X0035985Y0014971D01*
G75*
G02*
X0035404Y0014390I-000581J0000000D01*
G01*
X0034046Y0014390D01*
G75*
G02*
X0033465Y0014971I0000000J0000581D01*
G01*
X0033465Y0016132D01*
G75*
G02*
X0034046Y0016713I0000581J0000000D01*
G01*
G37*
G36*
G01*
X0010402Y0042569D02*
X0010402Y0043928D01*
G75*
G02*
X0010983Y0044508I0000581J0000000D01*
G01*
X0012144Y0044508D01*
G75*
G02*
X0012725Y0043928I0000000J-000581D01*
G01*
X0012725Y0042569D01*
G75*
G02*
X0012144Y0041989I-000581J0000000D01*
G01*
X0010983Y0041989D01*
G75*
G02*
X0010402Y0042569I0000000J0000581D01*
G01*
G37*
G36*
G01*
X0014221Y0042569D02*
X0014221Y0043928D01*
G75*
G02*
X0014802Y0044508I0000581J0000000D01*
G01*
X0015963Y0044508D01*
G75*
G02*
X0016544Y0043928I0000000J-000581D01*
G01*
X0016544Y0042569D01*
G75*
G02*
X0015963Y0041989I-000581J0000000D01*
G01*
X0014802Y0041989D01*
G75*
G02*
X0014221Y0042569I0000000J0000581D01*
G01*
G37*
D27*
X0011890Y0048170D03*
X0019371Y0048170D03*
X0015630Y0056044D03*
G36*
G01*
X0070955Y0022402D02*
X0072313Y0022402D01*
G75*
G02*
X0072894Y0021821I0000000J-000581D01*
G01*
X0072894Y0020660D01*
G75*
G02*
X0072313Y0020079I-000581J0000000D01*
G01*
X0070955Y0020079D01*
G75*
G02*
X0070374Y0020660I0000000J0000581D01*
G01*
X0070374Y0021821D01*
G75*
G02*
X0070955Y0022402I0000581J0000000D01*
G01*
G37*
G36*
G01*
X0070955Y0018583D02*
X0072313Y0018583D01*
G75*
G02*
X0072894Y0018002I0000000J-000581D01*
G01*
X0072894Y0016841D01*
G75*
G02*
X0072313Y0016260I-000581J0000000D01*
G01*
X0070955Y0016260D01*
G75*
G02*
X0070374Y0016841I0000000J0000581D01*
G01*
X0070374Y0018002D01*
G75*
G02*
X0070955Y0018583I0000581J0000000D01*
G01*
G37*
G36*
G01*
X0024828Y0057441D02*
X0026846Y0057441D01*
G75*
G02*
X0027707Y0056580I0000000J-000861D01*
G01*
X0027707Y0054858D01*
G75*
G02*
X0026846Y0053997I-000861J0000000D01*
G01*
X0024828Y0053997D01*
G75*
G02*
X0023967Y0054858I0000000J0000861D01*
G01*
X0023967Y0056580D01*
G75*
G02*
X0024828Y0057441I0000861J0000000D01*
G01*
G37*
G36*
G01*
X0024828Y0051241D02*
X0026846Y0051241D01*
G75*
G02*
X0027707Y0050379I0000000J-000861D01*
G01*
X0027707Y0048657D01*
G75*
G02*
X0026846Y0047796I-000861J0000000D01*
G01*
X0024828Y0047796D01*
G75*
G02*
X0023967Y0048657I0000000J0000861D01*
G01*
X0023967Y0050379D01*
G75*
G02*
X0024828Y0051241I0000861J0000000D01*
G01*
G37*
D36*
X0009075Y0015296D03*
X0029075Y0011296D03*
X0029075Y0019296D03*
D28*
X0014075Y0012796D03*
X0014075Y0017796D03*
X0019075Y0012796D03*
X0019075Y0017796D03*
X0024075Y0012796D03*
X0024075Y0017796D03*
D29*
X0098563Y0054174D03*
D30*
X0088563Y0054174D03*
X0078563Y0054174D03*
M02*
