G75*
G70*
%OFA0B0*%
%FSLAX25Y25*%
%IPPOS*%
%LPD*%
%AMOC8*
5,1,8,0,0,1.08239X$1,22.5*
%
%ADD10C,0.02756*%
%ADD13R,0.00984X0.04331*%
%ADD14R,0.00984X0.03858*%
%ADD16R,1.08661X0.00984*%
%ADD18R,0.00984X0.03740*%
%ADD20R,0.00984X0.24803*%
%ADD21R,0.00984X0.34449*%
%ADD25C,0.05118*%
%ADD29R,0.07500X0.07874*%
%ADD30O,0.07500X0.07874*%
%ADD31C,0.02362*%
X0000000Y0000000D02*
%LPD*%
G01*
D10*
X0111791Y0011674D03*
X0111791Y0023485D03*
X0111791Y0019548D03*
X0111791Y0015611D03*
D13*
X0005591Y0058327D03*
X0005591Y0058327D03*
D14*
X0005591Y0041240D03*
D20*
X0005591Y0017776D03*
D16*
X0059429Y0060000D03*
X0059429Y0005866D03*
D21*
X0113268Y0043268D03*
D18*
X0113268Y0007244D03*
D10*
X0007102Y0049666D03*
X0007102Y0045729D03*
X0007102Y0032752D03*
X0007102Y0036752D03*
X0007102Y0053603D03*
X0004902Y0004469D02*
%LPD*%
G01*
D25*
X0096083Y0016083D03*
X0088209Y0027894D03*
X0080335Y0016083D03*
D10*
X0111792Y0010965D03*
X0111792Y0022776D03*
X0111792Y0018839D03*
X0111792Y0014902D03*
D21*
X0113268Y0042560D03*
D16*
X0059430Y0005158D03*
D13*
X0005591Y0057619D03*
D18*
X0113268Y0006536D03*
D16*
X0059430Y0059292D03*
D14*
X0005591Y0040532D03*
D20*
X0005591Y0017067D03*
D13*
X0005591Y0057619D03*
D10*
X0007102Y0048957D03*
X0007102Y0045020D03*
X0007102Y0032044D03*
X0007102Y0036044D03*
X0007102Y0052894D03*
D29*
X0098563Y0054174D03*
D30*
X0088563Y0054174D03*
X0078563Y0054174D03*
D31*
X0007658Y0040886D03*
X0067402Y0006438D03*
X0104203Y0023506D03*
X0038465Y0058463D03*
X0021241Y0058406D03*
X0047422Y0038095D03*
X0007658Y0007225D03*
X0006477Y0028288D03*
X0078721Y0037737D03*
X0014377Y0039356D03*
X0022914Y0022834D03*
X0104607Y0056044D03*
X0074923Y0017461D03*
X0112481Y0055847D03*
X0025670Y0007619D03*
X0109430Y0005945D03*
X0060414Y0014510D03*
X0102028Y0006017D03*
X0030493Y0007225D03*
X0069472Y0052819D03*
X0058248Y0027500D03*
X0022873Y0035198D03*
X0040138Y0015296D03*
X0047619Y0006241D03*
X0028327Y0035079D03*
X0055493Y0006536D03*
X0057343Y0048014D03*
X0069724Y0058664D03*
X0021701Y0052040D03*
X0007221Y0057590D03*
X0055650Y0041475D03*
X0063682Y0054510D03*
X0054240Y0047953D03*
X0027737Y0015591D03*
X0012089Y0055265D03*
X0020215Y0008012D03*
X0074963Y0022382D03*
X0028426Y0045553D03*
X0053354Y0027107D03*
X0010551Y0025040D03*
X0017295Y0010727D03*
X0074923Y0014451D03*
X0074923Y0026459D03*
X0058839Y0037500D03*
X0074923Y0011441D03*
X0081280Y0035571D03*
X0060374Y0044253D03*
X0063600Y0051501D03*
X0048204Y0034685D03*
X0109233Y0051713D03*
X0107067Y0022579D03*
X0074225Y0031585D03*
X0051272Y0048455D03*
X0074923Y0008430D03*
X0057521Y0013678D03*
X0043038Y0033351D03*
X0045360Y0035672D03*
X0106083Y0051910D03*
X0072381Y0056475D03*
X0045356Y0027738D03*
X0026478Y0028476D03*
X0045337Y0042739D03*
X0015293Y0046338D03*
X0010549Y0021930D03*
X0029508Y0027974D03*
X0015927Y0020055D03*
X0073763Y0040058D03*
X0022126Y0048268D03*
X0063426Y0021838D03*
X0110512Y0046103D03*
X0107461Y0043347D03*
X0107461Y0046103D03*
X0107461Y0040591D03*
X0110512Y0043347D03*
X0009988Y0009131D03*
X0069815Y0049828D03*
G36*
X0072160Y0059117D02*
G01*
X0072301Y0058922D01*
X0072301Y0058681D01*
X0072160Y0058486D01*
X0072038Y0058427D01*
X0071595Y0058300D01*
X0071595Y0058300D01*
X0071568Y0058293D01*
X0071091Y0057992D01*
X0071072Y0057971D01*
X0071072Y0057971D01*
X0070735Y0057589D01*
X0070735Y0057589D01*
X0070717Y0057568D01*
X0070477Y0057058D01*
X0070473Y0057030D01*
X0070473Y0057030D01*
X0070428Y0056745D01*
X0070390Y0056500D01*
X0070394Y0056472D01*
X0070394Y0056472D01*
X0070440Y0056121D01*
X0070464Y0055940D01*
X0070475Y0055915D01*
X0070475Y0055915D01*
X0070621Y0055582D01*
X0070691Y0055424D01*
X0070824Y0055265D01*
X0071036Y0055013D01*
X0071036Y0055013D01*
X0071054Y0054991D01*
X0071524Y0054679D01*
X0071864Y0054572D01*
X0072036Y0054519D01*
X0072036Y0054519D01*
X0072063Y0054510D01*
X0072345Y0054505D01*
X0072599Y0054501D01*
X0072599Y0054501D01*
X0072627Y0054500D01*
X0072654Y0054507D01*
X0072654Y0054507D01*
X0073123Y0054635D01*
X0073172Y0054648D01*
X0073372Y0054772D01*
X0073430Y0054807D01*
X0073665Y0054864D01*
X0073887Y0054772D01*
X0074013Y0054567D01*
X0074024Y0054475D01*
X0074024Y0053775D01*
X0074081Y0053156D01*
X0074307Y0052353D01*
X0074676Y0051605D01*
X0075176Y0050936D01*
X0075189Y0050924D01*
X0075769Y0050388D01*
X0075788Y0050370D01*
X0075803Y0050360D01*
X0075803Y0050360D01*
X0076255Y0050075D01*
X0076494Y0049925D01*
X0077269Y0049616D01*
X0078087Y0049453D01*
X0078498Y0049447D01*
X0078903Y0049442D01*
X0078903Y0049442D01*
X0078921Y0049442D01*
X0078939Y0049445D01*
X0078939Y0049445D01*
X0079726Y0049580D01*
X0079726Y0049580D01*
X0079743Y0049583D01*
X0080163Y0049738D01*
X0080509Y0049866D01*
X0080509Y0049866D01*
X0080526Y0049872D01*
X0080550Y0049886D01*
X0080977Y0050140D01*
X0081243Y0050299D01*
X0081256Y0050310D01*
X0081256Y0050310D01*
X0081857Y0050837D01*
X0081870Y0050849D01*
X0082387Y0051504D01*
X0082505Y0051728D01*
X0082767Y0052226D01*
X0082767Y0052226D01*
X0082775Y0052242D01*
X0082986Y0052920D01*
X0083017Y0053022D01*
X0083017Y0053022D01*
X0083023Y0053039D01*
X0083103Y0053716D01*
X0083103Y0054572D01*
X0083046Y0055192D01*
X0082819Y0055994D01*
X0082450Y0056743D01*
X0081951Y0057411D01*
X0081339Y0057977D01*
X0081316Y0057992D01*
X0080648Y0058413D01*
X0080633Y0058423D01*
X0080590Y0058440D01*
X0080405Y0058594D01*
X0080346Y0058827D01*
X0080435Y0059051D01*
X0080639Y0059179D01*
X0080735Y0059191D01*
X0086387Y0059191D01*
X0086616Y0059117D01*
X0086758Y0058922D01*
X0086758Y0058681D01*
X0086616Y0058486D01*
X0086586Y0058467D01*
X0085884Y0058049D01*
X0085870Y0058037D01*
X0085870Y0058037D01*
X0085360Y0057589D01*
X0085257Y0057499D01*
X0084740Y0056844D01*
X0084732Y0056828D01*
X0084732Y0056828D01*
X0084455Y0056302D01*
X0084352Y0056105D01*
X0084312Y0055977D01*
X0084121Y0055362D01*
X0084104Y0055309D01*
X0084024Y0054631D01*
X0084024Y0053775D01*
X0084081Y0053156D01*
X0084307Y0052353D01*
X0084676Y0051605D01*
X0085176Y0050936D01*
X0085189Y0050924D01*
X0085769Y0050388D01*
X0085788Y0050370D01*
X0085803Y0050360D01*
X0085803Y0050360D01*
X0086255Y0050075D01*
X0086494Y0049925D01*
X0087269Y0049616D01*
X0088087Y0049453D01*
X0088498Y0049447D01*
X0088903Y0049442D01*
X0088903Y0049442D01*
X0088921Y0049442D01*
X0088939Y0049445D01*
X0088939Y0049445D01*
X0089726Y0049580D01*
X0089726Y0049580D01*
X0089743Y0049583D01*
X0090163Y0049738D01*
X0090509Y0049866D01*
X0090509Y0049866D01*
X0090526Y0049872D01*
X0090550Y0049886D01*
X0090977Y0050140D01*
X0091243Y0050299D01*
X0091256Y0050310D01*
X0091256Y0050310D01*
X0091857Y0050837D01*
X0091870Y0050849D01*
X0092387Y0051504D01*
X0092505Y0051728D01*
X0092767Y0052226D01*
X0092767Y0052226D01*
X0092775Y0052242D01*
X0092986Y0052920D01*
X0093017Y0053022D01*
X0093017Y0053022D01*
X0093023Y0053039D01*
X0093103Y0053716D01*
X0093103Y0054572D01*
X0093046Y0055192D01*
X0092819Y0055994D01*
X0092450Y0056743D01*
X0091951Y0057411D01*
X0091339Y0057977D01*
X0091316Y0057992D01*
X0090648Y0058413D01*
X0090633Y0058423D01*
X0090590Y0058440D01*
X0090405Y0058594D01*
X0090346Y0058827D01*
X0090435Y0059051D01*
X0090639Y0059179D01*
X0090735Y0059191D01*
X0093857Y0059191D01*
X0094086Y0059117D01*
X0094228Y0058922D01*
X0094228Y0058681D01*
X0094181Y0058585D01*
X0094070Y0058419D01*
X0094024Y0058188D01*
X0094024Y0050159D01*
X0094041Y0050076D01*
X0094062Y0049969D01*
X0094070Y0049929D01*
X0094244Y0049668D01*
X0094505Y0049493D01*
X0094543Y0049486D01*
X0094543Y0049486D01*
X0094632Y0049468D01*
X0094736Y0049447D01*
X0102391Y0049447D01*
X0102495Y0049468D01*
X0102584Y0049486D01*
X0102584Y0049486D01*
X0102621Y0049493D01*
X0102883Y0049668D01*
X0103057Y0049929D01*
X0103065Y0049969D01*
X0103086Y0050076D01*
X0103103Y0050159D01*
X0103103Y0051934D01*
X0104093Y0051934D01*
X0104096Y0051907D01*
X0104096Y0051907D01*
X0104154Y0051467D01*
X0104166Y0051375D01*
X0104177Y0051349D01*
X0104177Y0051349D01*
X0104364Y0050923D01*
X0104393Y0050858D01*
X0104575Y0050642D01*
X0104738Y0050447D01*
X0104738Y0050447D01*
X0104756Y0050426D01*
X0104779Y0050411D01*
X0104779Y0050411D01*
X0104815Y0050387D01*
X0105226Y0050113D01*
X0105503Y0050027D01*
X0105738Y0049953D01*
X0105738Y0049953D01*
X0105765Y0049945D01*
X0106047Y0049940D01*
X0106301Y0049935D01*
X0106301Y0049935D01*
X0106329Y0049934D01*
X0106356Y0049942D01*
X0106356Y0049942D01*
X0106754Y0050050D01*
X0106874Y0050083D01*
X0107034Y0050181D01*
X0107349Y0050375D01*
X0107583Y0050431D01*
X0107806Y0050339D01*
X0107852Y0050294D01*
X0107888Y0050250D01*
X0107888Y0050250D01*
X0107906Y0050229D01*
X0107929Y0050214D01*
X0107929Y0050214D01*
X0107977Y0050181D01*
X0108376Y0049916D01*
X0108751Y0049799D01*
X0108888Y0049756D01*
X0108888Y0049756D01*
X0108914Y0049748D01*
X0109197Y0049743D01*
X0109451Y0049738D01*
X0109451Y0049738D01*
X0109479Y0049738D01*
X0109506Y0049745D01*
X0109506Y0049745D01*
X0109949Y0049866D01*
X0110023Y0049886D01*
X0110504Y0050181D01*
X0110534Y0050214D01*
X0110864Y0050579D01*
X0110883Y0050600D01*
X0111129Y0051108D01*
X0111167Y0051333D01*
X0111220Y0051650D01*
X0111220Y0051650D01*
X0111223Y0051664D01*
X0111223Y0051713D01*
X0111143Y0052272D01*
X0110988Y0052615D01*
X0110921Y0052760D01*
X0110921Y0052760D01*
X0110910Y0052786D01*
X0110606Y0053139D01*
X0110560Y0053192D01*
X0110559Y0053192D01*
X0110541Y0053213D01*
X0110068Y0053520D01*
X0109527Y0053682D01*
X0109199Y0053684D01*
X0108990Y0053685D01*
X0108990Y0053685D01*
X0108963Y0053685D01*
X0108936Y0053678D01*
X0108936Y0053678D01*
X0108447Y0053538D01*
X0108447Y0053538D01*
X0108420Y0053530D01*
X0108396Y0053515D01*
X0108396Y0053515D01*
X0107971Y0053247D01*
X0107737Y0053188D01*
X0107514Y0053277D01*
X0107468Y0053322D01*
X0107410Y0053389D01*
X0107410Y0053389D01*
X0107392Y0053410D01*
X0106918Y0053717D01*
X0106377Y0053879D01*
X0106050Y0053881D01*
X0105841Y0053882D01*
X0105841Y0053882D01*
X0105813Y0053882D01*
X0105786Y0053875D01*
X0105786Y0053875D01*
X0105297Y0053735D01*
X0105297Y0053735D01*
X0105270Y0053727D01*
X0104793Y0053426D01*
X0104774Y0053405D01*
X0104774Y0053405D01*
X0104438Y0053024D01*
X0104438Y0053024D01*
X0104419Y0053003D01*
X0104179Y0052492D01*
X0104175Y0052465D01*
X0104175Y0052465D01*
X0104143Y0052259D01*
X0104093Y0051934D01*
X0103103Y0051934D01*
X0103103Y0058188D01*
X0103057Y0058419D01*
X0102946Y0058585D01*
X0102880Y0058817D01*
X0102964Y0059043D01*
X0103164Y0059177D01*
X0103270Y0059191D01*
X0112778Y0059191D01*
X0113007Y0059117D01*
X0113149Y0058922D01*
X0113168Y0058802D01*
X0113168Y0046822D01*
X0113093Y0046593D01*
X0112898Y0046451D01*
X0112658Y0046451D01*
X0112463Y0046593D01*
X0112428Y0046664D01*
X0112423Y0046662D01*
X0112201Y0047150D01*
X0112201Y0047150D01*
X0112189Y0047175D01*
X0111821Y0047603D01*
X0111347Y0047910D01*
X0110806Y0048072D01*
X0110479Y0048074D01*
X0110270Y0048075D01*
X0110270Y0048075D01*
X0110242Y0048075D01*
X0110215Y0048068D01*
X0110215Y0048068D01*
X0109726Y0047928D01*
X0109726Y0047928D01*
X0109699Y0047920D01*
X0109222Y0047619D01*
X0109221Y0047621D01*
X0109017Y0047537D01*
X0108783Y0047594D01*
X0108770Y0047603D01*
X0108770Y0047603D01*
X0108415Y0047833D01*
X0108296Y0047910D01*
X0107755Y0048072D01*
X0107428Y0048074D01*
X0107219Y0048075D01*
X0107219Y0048075D01*
X0107191Y0048075D01*
X0107164Y0048068D01*
X0107164Y0048068D01*
X0106675Y0047928D01*
X0106675Y0047928D01*
X0106648Y0047920D01*
X0106171Y0047619D01*
X0106152Y0047598D01*
X0106152Y0047598D01*
X0105816Y0047217D01*
X0105816Y0047217D01*
X0105797Y0047196D01*
X0105785Y0047171D01*
X0105785Y0047171D01*
X0105761Y0047119D01*
X0105557Y0046685D01*
X0105553Y0046657D01*
X0105553Y0046657D01*
X0105506Y0046352D01*
X0105470Y0046127D01*
X0105544Y0045568D01*
X0105555Y0045542D01*
X0105555Y0045542D01*
X0105657Y0045311D01*
X0105771Y0045051D01*
X0105818Y0044995D01*
X0105831Y0044980D01*
X0105921Y0044756D01*
X0105863Y0044523D01*
X0105825Y0044471D01*
X0105797Y0044440D01*
X0105785Y0044415D01*
X0105785Y0044415D01*
X0105764Y0044369D01*
X0105557Y0043929D01*
X0105553Y0043902D01*
X0105553Y0043902D01*
X0105503Y0043578D01*
X0105470Y0043371D01*
X0105474Y0043344D01*
X0105474Y0043344D01*
X0105532Y0042904D01*
X0105544Y0042812D01*
X0105555Y0042786D01*
X0105555Y0042786D01*
X0105713Y0042426D01*
X0105771Y0042295D01*
X0105789Y0042274D01*
X0105789Y0042274D01*
X0105831Y0042224D01*
X0105921Y0042001D01*
X0105863Y0041767D01*
X0105825Y0041715D01*
X0105797Y0041684D01*
X0105785Y0041659D01*
X0105785Y0041659D01*
X0105752Y0041589D01*
X0105557Y0041173D01*
X0105553Y0041146D01*
X0105553Y0041146D01*
X0105496Y0040782D01*
X0105470Y0040615D01*
X0105474Y0040588D01*
X0105474Y0040588D01*
X0105504Y0040362D01*
X0105544Y0040056D01*
X0105555Y0040030D01*
X0105555Y0040030D01*
X0105726Y0039641D01*
X0105771Y0039539D01*
X0105840Y0039457D01*
X0106116Y0039128D01*
X0106116Y0039128D01*
X0106134Y0039107D01*
X0106157Y0039092D01*
X0106157Y0039092D01*
X0106282Y0039009D01*
X0106604Y0038794D01*
X0107000Y0038670D01*
X0107116Y0038634D01*
X0107116Y0038634D01*
X0107143Y0038626D01*
X0107425Y0038621D01*
X0107679Y0038616D01*
X0107679Y0038616D01*
X0107707Y0038616D01*
X0107734Y0038623D01*
X0107734Y0038623D01*
X0108030Y0038704D01*
X0108252Y0038764D01*
X0108733Y0039059D01*
X0108762Y0039092D01*
X0109093Y0039457D01*
X0109111Y0039478D01*
X0109358Y0039986D01*
X0109369Y0040055D01*
X0109449Y0040528D01*
X0109449Y0040528D01*
X0109451Y0040542D01*
X0109452Y0040591D01*
X0109386Y0041050D01*
X0109427Y0041287D01*
X0109600Y0041455D01*
X0109839Y0041489D01*
X0109888Y0041477D01*
X0110167Y0041390D01*
X0110167Y0041390D01*
X0110194Y0041382D01*
X0110476Y0041377D01*
X0110731Y0041372D01*
X0110731Y0041372D01*
X0110758Y0041371D01*
X0110785Y0041379D01*
X0110785Y0041379D01*
X0111127Y0041472D01*
X0111303Y0041520D01*
X0111784Y0041815D01*
X0111836Y0041873D01*
X0112144Y0042213D01*
X0112163Y0042234D01*
X0112409Y0042742D01*
X0112411Y0042754D01*
X0112547Y0042944D01*
X0112776Y0043019D01*
X0113005Y0042946D01*
X0113148Y0042752D01*
X0113168Y0042630D01*
X0113168Y0025725D01*
X0113093Y0025496D01*
X0112898Y0025354D01*
X0112778Y0025335D01*
X0110906Y0025335D01*
X0110906Y0025010D01*
X0110832Y0024781D01*
X0110715Y0024676D01*
X0110699Y0024669D01*
X0110679Y0024654D01*
X0110678Y0024654D01*
X0110416Y0024452D01*
X0110246Y0024322D01*
X0109899Y0023869D01*
X0109680Y0023342D01*
X0109677Y0023317D01*
X0109670Y0023292D01*
X0109660Y0023295D01*
X0109576Y0023119D01*
X0109364Y0023004D01*
X0109125Y0023035D01*
X0108951Y0023201D01*
X0108938Y0023226D01*
X0108756Y0023626D01*
X0108756Y0023627D01*
X0108744Y0023652D01*
X0108376Y0024079D01*
X0107902Y0024386D01*
X0107362Y0024548D01*
X0107034Y0024550D01*
X0106825Y0024551D01*
X0106825Y0024551D01*
X0106797Y0024552D01*
X0106771Y0024544D01*
X0106770Y0024544D01*
X0106281Y0024404D01*
X0106281Y0024404D01*
X0106254Y0024396D01*
X0105777Y0024095D01*
X0105759Y0024074D01*
X0105759Y0024074D01*
X0105422Y0023693D01*
X0105422Y0023693D01*
X0105403Y0023672D01*
X0105164Y0023161D01*
X0105159Y0023134D01*
X0105159Y0023134D01*
X0105125Y0022914D01*
X0105077Y0022604D01*
X0105080Y0022576D01*
X0105080Y0022576D01*
X0105095Y0022461D01*
X0105150Y0022044D01*
X0105161Y0022018D01*
X0105161Y0022018D01*
X0105358Y0021571D01*
X0105377Y0021527D01*
X0105525Y0021352D01*
X0105723Y0021116D01*
X0105723Y0021116D01*
X0105740Y0021095D01*
X0105764Y0021080D01*
X0105764Y0021080D01*
X0105812Y0021048D01*
X0106210Y0020782D01*
X0106461Y0020704D01*
X0106723Y0020622D01*
X0106723Y0020622D01*
X0106749Y0020614D01*
X0107031Y0020609D01*
X0107286Y0020604D01*
X0107286Y0020604D01*
X0107313Y0020604D01*
X0107340Y0020611D01*
X0107340Y0020611D01*
X0107682Y0020704D01*
X0107858Y0020752D01*
X0108339Y0021048D01*
X0108368Y0021080D01*
X0108699Y0021445D01*
X0108718Y0021466D01*
X0108964Y0021974D01*
X0108974Y0022034D01*
X0109085Y0022247D01*
X0109301Y0022355D01*
X0109539Y0022315D01*
X0109707Y0022143D01*
X0109718Y0022118D01*
X0109899Y0021683D01*
X0109914Y0021663D01*
X0110157Y0021346D01*
X0110246Y0021230D01*
X0110266Y0021215D01*
X0110266Y0021215D01*
X0110394Y0021117D01*
X0110530Y0020918D01*
X0110524Y0020677D01*
X0110394Y0020498D01*
X0110266Y0020400D01*
X0110266Y0020400D01*
X0110246Y0020385D01*
X0109899Y0019932D01*
X0109680Y0019405D01*
X0109677Y0019380D01*
X0109677Y0019380D01*
X0109631Y0019028D01*
X0109606Y0018839D01*
X0109609Y0018814D01*
X0109676Y0018307D01*
X0109680Y0018273D01*
X0109899Y0017746D01*
X0110246Y0017293D01*
X0110266Y0017278D01*
X0110266Y0017278D01*
X0110394Y0017180D01*
X0110530Y0016981D01*
X0110524Y0016740D01*
X0110394Y0016561D01*
X0110266Y0016463D01*
X0110266Y0016463D01*
X0110246Y0016448D01*
X0109899Y0015995D01*
X0109680Y0015468D01*
X0109677Y0015443D01*
X0109677Y0015443D01*
X0109642Y0015178D01*
X0109606Y0014902D01*
X0109609Y0014877D01*
X0109672Y0014402D01*
X0109680Y0014336D01*
X0109899Y0013809D01*
X0110246Y0013356D01*
X0110266Y0013341D01*
X0110266Y0013341D01*
X0110394Y0013243D01*
X0110530Y0013044D01*
X0110524Y0012803D01*
X0110394Y0012624D01*
X0110266Y0012526D01*
X0110266Y0012526D01*
X0110246Y0012511D01*
X0109899Y0012058D01*
X0109680Y0011531D01*
X0109677Y0011506D01*
X0109677Y0011506D01*
X0109644Y0011259D01*
X0109606Y0010965D01*
X0109609Y0010940D01*
X0109648Y0010646D01*
X0109680Y0010399D01*
X0109899Y0009872D01*
X0110246Y0009419D01*
X0110266Y0009404D01*
X0110678Y0009087D01*
X0110679Y0009087D01*
X0110699Y0009072D01*
X0110714Y0009066D01*
X0110872Y0008890D01*
X0110906Y0008731D01*
X0110906Y0008406D01*
X0112778Y0008406D01*
X0113007Y0008332D01*
X0113149Y0008137D01*
X0113168Y0008016D01*
X0113168Y0005648D01*
X0113093Y0005419D01*
X0112898Y0005277D01*
X0112778Y0005258D01*
X0020462Y0005258D01*
X0020432Y0005268D01*
X0020400Y0005258D01*
X0006081Y0005258D01*
X0005852Y0005333D01*
X0005710Y0005528D01*
X0005691Y0005648D01*
X0005691Y0009155D01*
X0007997Y0009155D01*
X0008001Y0009128D01*
X0008001Y0009128D01*
X0008006Y0009087D01*
X0008070Y0008596D01*
X0008081Y0008570D01*
X0008081Y0008570D01*
X0008272Y0008137D01*
X0008298Y0008079D01*
X0008395Y0007964D01*
X0008643Y0007668D01*
X0008643Y0007668D01*
X0008661Y0007647D01*
X0008684Y0007632D01*
X0008684Y0007632D01*
X0008732Y0007599D01*
X0009131Y0007334D01*
X0009527Y0007211D01*
X0009643Y0007174D01*
X0009643Y0007174D01*
X0009669Y0007166D01*
X0009952Y0007161D01*
X0010206Y0007156D01*
X0010206Y0007156D01*
X0010234Y0007156D01*
X0010261Y0007163D01*
X0010261Y0007163D01*
X0010557Y0007244D01*
X0010778Y0007304D01*
X0011259Y0007599D01*
X0011289Y0007632D01*
X0011619Y0007997D01*
X0011638Y0008018D01*
X0011884Y0008526D01*
X0011889Y0008556D01*
X0011975Y0009068D01*
X0011975Y0009068D01*
X0011978Y0009082D01*
X0011978Y0009131D01*
X0011898Y0009690D01*
X0011665Y0010204D01*
X0011296Y0010631D01*
X0011111Y0010752D01*
X0015304Y0010752D01*
X0015308Y0010724D01*
X0015308Y0010724D01*
X0015362Y0010307D01*
X0015377Y0010192D01*
X0015388Y0010167D01*
X0015388Y0010166D01*
X0015580Y0009730D01*
X0015604Y0009675D01*
X0015732Y0009524D01*
X0015950Y0009264D01*
X0015950Y0009264D01*
X0015968Y0009243D01*
X0015991Y0009228D01*
X0015991Y0009228D01*
X0016114Y0009146D01*
X0016438Y0008930D01*
X0016791Y0008820D01*
X0016950Y0008770D01*
X0016950Y0008770D01*
X0016976Y0008762D01*
X0017258Y0008757D01*
X0017513Y0008752D01*
X0017513Y0008752D01*
X0017541Y0008752D01*
X0017791Y0008820D01*
X0018032Y0008809D01*
X0018220Y0008658D01*
X0018283Y0008425D01*
X0018279Y0008384D01*
X0018225Y0008037D01*
X0018228Y0008009D01*
X0018228Y0008009D01*
X0018256Y0007800D01*
X0018298Y0007477D01*
X0018309Y0007452D01*
X0018309Y0007452D01*
X0018436Y0007163D01*
X0018525Y0006960D01*
X0018594Y0006879D01*
X0018871Y0006550D01*
X0018871Y0006550D01*
X0018888Y0006528D01*
X0018912Y0006513D01*
X0018912Y0006513D01*
X0018988Y0006462D01*
X0019358Y0006215D01*
X0019754Y0006092D01*
X0019871Y0006055D01*
X0019871Y0006055D01*
X0019897Y0006047D01*
X0020398Y0006038D01*
X0020407Y0006038D01*
X0020415Y0006035D01*
X0020434Y0006037D01*
X0020461Y0006037D01*
X0020488Y0006044D01*
X0020488Y0006044D01*
X0020784Y0006125D01*
X0021006Y0006185D01*
X0021446Y0006455D01*
X0021463Y0006466D01*
X0021487Y0006481D01*
X0021516Y0006513D01*
X0021847Y0006879D01*
X0021866Y0006899D01*
X0022058Y0007297D01*
X0022100Y0007382D01*
X0022112Y0007407D01*
X0022128Y0007505D01*
X0022203Y0007949D01*
X0022203Y0007949D01*
X0022206Y0007964D01*
X0022206Y0008012D01*
X0022143Y0008455D01*
X0072933Y0008455D01*
X0072936Y0008427D01*
X0072936Y0008427D01*
X0072978Y0008105D01*
X0073006Y0007895D01*
X0073017Y0007870D01*
X0073017Y0007870D01*
X0073209Y0007434D01*
X0073233Y0007378D01*
X0073302Y0007297D01*
X0073578Y0006968D01*
X0073579Y0006968D01*
X0073596Y0006946D01*
X0073619Y0006931D01*
X0073619Y0006931D01*
X0073744Y0006848D01*
X0074066Y0006634D01*
X0074453Y0006513D01*
X0074578Y0006474D01*
X0074578Y0006474D01*
X0074605Y0006465D01*
X0074887Y0006460D01*
X0075142Y0006455D01*
X0075142Y0006455D01*
X0075169Y0006455D01*
X0075196Y0006462D01*
X0075196Y0006462D01*
X0075516Y0006550D01*
X0075714Y0006603D01*
X0076195Y0006899D01*
X0076224Y0006931D01*
X0076555Y0007297D01*
X0076574Y0007317D01*
X0076820Y0007825D01*
X0076836Y0007923D01*
X0076911Y0008367D01*
X0076911Y0008367D01*
X0076913Y0008382D01*
X0076914Y0008430D01*
X0076834Y0008989D01*
X0076748Y0009178D01*
X0076612Y0009478D01*
X0076612Y0009478D01*
X0076600Y0009503D01*
X0076448Y0009680D01*
X0076355Y0009902D01*
X0076410Y0010136D01*
X0076454Y0010196D01*
X0076555Y0010307D01*
X0076574Y0010327D01*
X0076820Y0010835D01*
X0076835Y0010923D01*
X0076911Y0011377D01*
X0076911Y0011377D01*
X0076913Y0011392D01*
X0076914Y0011441D01*
X0076834Y0011999D01*
X0076600Y0012513D01*
X0076448Y0012690D01*
X0076355Y0012912D01*
X0076410Y0013147D01*
X0076454Y0013206D01*
X0076555Y0013317D01*
X0076574Y0013338D01*
X0076820Y0013846D01*
X0076852Y0014038D01*
X0076964Y0014252D01*
X0077179Y0014359D01*
X0077417Y0014319D01*
X0077574Y0014169D01*
X0077601Y0014122D01*
X0077601Y0014122D01*
X0077611Y0014104D01*
X0078082Y0013581D01*
X0078652Y0013167D01*
X0078803Y0013100D01*
X0079276Y0012889D01*
X0079276Y0012889D01*
X0079295Y0012881D01*
X0079315Y0012877D01*
X0079315Y0012877D01*
X0079376Y0012864D01*
X0079983Y0012735D01*
X0080687Y0012735D01*
X0081294Y0012864D01*
X0081356Y0012877D01*
X0081356Y0012877D01*
X0081375Y0012881D01*
X0081394Y0012889D01*
X0081394Y0012889D01*
X0081867Y0013100D01*
X0082019Y0013167D01*
X0082588Y0013581D01*
X0083059Y0014104D01*
X0083144Y0014252D01*
X0083401Y0014696D01*
X0083401Y0014696D01*
X0083411Y0014714D01*
X0083421Y0014746D01*
X0083622Y0015364D01*
X0083622Y0015364D01*
X0083628Y0015383D01*
X0083702Y0016083D01*
X0092716Y0016083D01*
X0092790Y0015383D01*
X0092796Y0015364D01*
X0092796Y0015364D01*
X0092997Y0014746D01*
X0093007Y0014714D01*
X0093018Y0014696D01*
X0093018Y0014696D01*
X0093274Y0014252D01*
X0093359Y0014104D01*
X0093830Y0013581D01*
X0094400Y0013167D01*
X0094551Y0013100D01*
X0095024Y0012889D01*
X0095024Y0012889D01*
X0095043Y0012881D01*
X0095063Y0012877D01*
X0095063Y0012877D01*
X0095124Y0012864D01*
X0095731Y0012735D01*
X0096435Y0012735D01*
X0097042Y0012864D01*
X0097104Y0012877D01*
X0097104Y0012877D01*
X0097124Y0012881D01*
X0097142Y0012889D01*
X0097142Y0012889D01*
X0097615Y0013100D01*
X0097767Y0013167D01*
X0098336Y0013581D01*
X0098807Y0014104D01*
X0098892Y0014252D01*
X0099149Y0014696D01*
X0099149Y0014696D01*
X0099159Y0014714D01*
X0099169Y0014746D01*
X0099370Y0015364D01*
X0099370Y0015364D01*
X0099376Y0015383D01*
X0099450Y0016083D01*
X0099376Y0016783D01*
X0099370Y0016803D01*
X0099370Y0016803D01*
X0099165Y0017433D01*
X0099165Y0017433D01*
X0099159Y0017453D01*
X0099008Y0017714D01*
X0098817Y0018044D01*
X0098817Y0018044D01*
X0098807Y0018062D01*
X0098336Y0018585D01*
X0097767Y0018999D01*
X0097445Y0019142D01*
X0097142Y0019277D01*
X0097142Y0019277D01*
X0097124Y0019285D01*
X0097104Y0019289D01*
X0097104Y0019289D01*
X0096970Y0019318D01*
X0096435Y0019432D01*
X0095731Y0019432D01*
X0095196Y0019318D01*
X0095063Y0019289D01*
X0095063Y0019289D01*
X0095043Y0019285D01*
X0095024Y0019277D01*
X0095024Y0019277D01*
X0094418Y0019007D01*
X0094418Y0019007D01*
X0094400Y0018999D01*
X0093830Y0018585D01*
X0093817Y0018570D01*
X0093817Y0018570D01*
X0093502Y0018221D01*
X0093359Y0018062D01*
X0093349Y0018044D01*
X0093349Y0018044D01*
X0093158Y0017714D01*
X0093007Y0017453D01*
X0093001Y0017433D01*
X0093001Y0017433D01*
X0092796Y0016803D01*
X0092796Y0016803D01*
X0092790Y0016783D01*
X0092716Y0016083D01*
X0083702Y0016083D01*
X0083628Y0016783D01*
X0083622Y0016803D01*
X0083622Y0016803D01*
X0083417Y0017433D01*
X0083417Y0017433D01*
X0083411Y0017453D01*
X0083260Y0017714D01*
X0083069Y0018044D01*
X0083069Y0018044D01*
X0083059Y0018062D01*
X0082588Y0018585D01*
X0082019Y0018999D01*
X0081697Y0019142D01*
X0081394Y0019277D01*
X0081394Y0019277D01*
X0081375Y0019285D01*
X0081356Y0019289D01*
X0081356Y0019289D01*
X0081222Y0019318D01*
X0080687Y0019432D01*
X0079983Y0019432D01*
X0079448Y0019318D01*
X0079315Y0019289D01*
X0079315Y0019289D01*
X0079295Y0019285D01*
X0079276Y0019277D01*
X0079276Y0019277D01*
X0078670Y0019007D01*
X0078670Y0019007D01*
X0078652Y0018999D01*
X0078082Y0018585D01*
X0078069Y0018570D01*
X0078069Y0018570D01*
X0077754Y0018221D01*
X0077611Y0018062D01*
X0077601Y0018044D01*
X0077601Y0018044D01*
X0077410Y0017714D01*
X0077259Y0017453D01*
X0077253Y0017433D01*
X0077253Y0017433D01*
X0077048Y0016803D01*
X0077048Y0016803D01*
X0077042Y0016783D01*
X0076975Y0016146D01*
X0076970Y0016101D01*
X0076872Y0015881D01*
X0076663Y0015760D01*
X0076424Y0015785D01*
X0076287Y0015887D01*
X0076250Y0015930D01*
X0076250Y0015930D01*
X0076232Y0015951D01*
X0075758Y0016258D01*
X0075218Y0016420D01*
X0074890Y0016422D01*
X0074681Y0016423D01*
X0074681Y0016423D01*
X0074653Y0016423D01*
X0074626Y0016416D01*
X0074626Y0016416D01*
X0074137Y0016276D01*
X0074137Y0016276D01*
X0074110Y0016268D01*
X0073633Y0015967D01*
X0073615Y0015946D01*
X0073615Y0015946D01*
X0073278Y0015565D01*
X0073278Y0015565D01*
X0073259Y0015544D01*
X0073248Y0015519D01*
X0073248Y0015519D01*
X0073212Y0015443D01*
X0073020Y0015033D01*
X0073015Y0015005D01*
X0073015Y0015005D01*
X0072972Y0014725D01*
X0072933Y0014475D01*
X0072936Y0014448D01*
X0072936Y0014448D01*
X0072983Y0014089D01*
X0073006Y0013916D01*
X0073017Y0013890D01*
X0073017Y0013890D01*
X0073146Y0013596D01*
X0073233Y0013399D01*
X0073403Y0013197D01*
X0073493Y0012974D01*
X0073435Y0012740D01*
X0073396Y0012689D01*
X0073278Y0012554D01*
X0073278Y0012554D01*
X0073259Y0012534D01*
X0073020Y0012023D01*
X0073015Y0011995D01*
X0073015Y0011995D01*
X0072960Y0011642D01*
X0072933Y0011465D01*
X0072936Y0011437D01*
X0072936Y0011437D01*
X0072942Y0011392D01*
X0073006Y0010905D01*
X0073017Y0010880D01*
X0073017Y0010880D01*
X0073136Y0010610D01*
X0073233Y0010389D01*
X0073403Y0010187D01*
X0073493Y0009964D01*
X0073435Y0009730D01*
X0073396Y0009678D01*
X0073278Y0009544D01*
X0073278Y0009544D01*
X0073259Y0009523D01*
X0073020Y0009012D01*
X0073015Y0008985D01*
X0073015Y0008985D01*
X0072958Y0008616D01*
X0072933Y0008455D01*
X0022143Y0008455D01*
X0022126Y0008571D01*
X0021963Y0008930D01*
X0021904Y0009060D01*
X0021904Y0009060D01*
X0021892Y0009085D01*
X0021604Y0009419D01*
X0021542Y0009491D01*
X0021542Y0009491D01*
X0021524Y0009512D01*
X0021050Y0009819D01*
X0020510Y0009981D01*
X0020182Y0009983D01*
X0019973Y0009984D01*
X0019973Y0009984D01*
X0019945Y0009985D01*
X0019919Y0009977D01*
X0019723Y0009921D01*
X0019482Y0009930D01*
X0019292Y0010078D01*
X0019226Y0010310D01*
X0019231Y0010360D01*
X0019234Y0010376D01*
X0019285Y0010679D01*
X0019285Y0010727D01*
X0019205Y0011286D01*
X0019013Y0011710D01*
X0018983Y0011775D01*
X0018983Y0011775D01*
X0018972Y0011800D01*
X0018603Y0012227D01*
X0018130Y0012534D01*
X0017589Y0012696D01*
X0017261Y0012698D01*
X0017052Y0012699D01*
X0017052Y0012699D01*
X0017024Y0012700D01*
X0016998Y0012692D01*
X0016998Y0012692D01*
X0016508Y0012552D01*
X0016508Y0012552D01*
X0016482Y0012544D01*
X0016004Y0012243D01*
X0015986Y0012222D01*
X0015986Y0012222D01*
X0015649Y0011841D01*
X0015649Y0011841D01*
X0015631Y0011820D01*
X0015619Y0011795D01*
X0015619Y0011795D01*
X0015580Y0011712D01*
X0015391Y0011309D01*
X0015387Y0011282D01*
X0015387Y0011282D01*
X0015357Y0011092D01*
X0015304Y0010752D01*
X0011111Y0010752D01*
X0010823Y0010938D01*
X0010282Y0011100D01*
X0009954Y0011102D01*
X0009745Y0011103D01*
X0009745Y0011103D01*
X0009718Y0011103D01*
X0009691Y0011096D01*
X0009691Y0011096D01*
X0009202Y0010956D01*
X0009202Y0010956D01*
X0009175Y0010948D01*
X0008697Y0010647D01*
X0008679Y0010626D01*
X0008679Y0010626D01*
X0008342Y0010245D01*
X0008342Y0010245D01*
X0008324Y0010224D01*
X0008084Y0009713D01*
X0008080Y0009686D01*
X0008080Y0009686D01*
X0008038Y0009419D01*
X0007997Y0009155D01*
X0005691Y0009155D01*
X0005691Y0014362D01*
X0005766Y0014591D01*
X0005961Y0014733D01*
X0006202Y0014733D01*
X0006396Y0014591D01*
X0006460Y0014453D01*
X0006489Y0014334D01*
X0006598Y0014122D01*
X0006760Y0013809D01*
X0006793Y0013745D01*
X0007229Y0013245D01*
X0007248Y0013232D01*
X0007248Y0013232D01*
X0007735Y0012889D01*
X0007771Y0012864D01*
X0007815Y0012847D01*
X0008222Y0012688D01*
X0008389Y0012623D01*
X0008412Y0012620D01*
X0008412Y0012620D01*
X0008644Y0012589D01*
X0008895Y0012556D01*
X0009241Y0012556D01*
X0009308Y0012564D01*
X0009710Y0012613D01*
X0009710Y0012613D01*
X0009733Y0012616D01*
X0009775Y0012632D01*
X0010063Y0012740D01*
X0010354Y0012850D01*
X0010373Y0012864D01*
X0010373Y0012864D01*
X0010881Y0013213D01*
X0010900Y0013226D01*
X0011341Y0013721D01*
X0011651Y0014307D01*
X0011795Y0014877D01*
X0011807Y0014927D01*
X0011807Y0014927D01*
X0011813Y0014950D01*
X0011816Y0015468D01*
X0011816Y0015589D01*
X0011816Y0015589D01*
X0011816Y0015613D01*
X0011816Y0015615D01*
X0025746Y0015615D01*
X0025750Y0015588D01*
X0025750Y0015588D01*
X0025804Y0015173D01*
X0025819Y0015056D01*
X0025830Y0015030D01*
X0025830Y0015030D01*
X0025970Y0014714D01*
X0026047Y0014539D01*
X0026198Y0014359D01*
X0026392Y0014128D01*
X0026392Y0014128D01*
X0026410Y0014107D01*
X0026880Y0013794D01*
X0026906Y0013786D01*
X0026931Y0013774D01*
X0026927Y0013765D01*
X0027088Y0013651D01*
X0027165Y0013423D01*
X0027093Y0013193D01*
X0027066Y0013159D01*
X0026809Y0012871D01*
X0026499Y0012285D01*
X0026426Y0011995D01*
X0026353Y0011703D01*
X0026338Y0011642D01*
X0026334Y0010979D01*
X0026422Y0010610D01*
X0026479Y0010376D01*
X0026489Y0010334D01*
X0026598Y0010122D01*
X0026727Y0009872D01*
X0026793Y0009745D01*
X0027229Y0009245D01*
X0027248Y0009232D01*
X0027248Y0009232D01*
X0027688Y0008922D01*
X0027771Y0008864D01*
X0028057Y0008752D01*
X0028300Y0008658D01*
X0028389Y0008623D01*
X0028412Y0008620D01*
X0028412Y0008620D01*
X0028882Y0008558D01*
X0028895Y0008556D01*
X0029241Y0008556D01*
X0029255Y0008558D01*
X0029710Y0008613D01*
X0029710Y0008613D01*
X0029733Y0008616D01*
X0029775Y0008632D01*
X0029944Y0008696D01*
X0030354Y0008850D01*
X0030373Y0008864D01*
X0030373Y0008864D01*
X0030881Y0009213D01*
X0030900Y0009226D01*
X0031341Y0009721D01*
X0031651Y0010307D01*
X0031741Y0010662D01*
X0031807Y0010927D01*
X0031807Y0010927D01*
X0031813Y0010950D01*
X0031815Y0011426D01*
X0031816Y0011589D01*
X0031816Y0011589D01*
X0031816Y0011613D01*
X0031662Y0012258D01*
X0031483Y0012604D01*
X0031368Y0012826D01*
X0031368Y0012826D01*
X0031358Y0012847D01*
X0030922Y0013346D01*
X0030605Y0013569D01*
X0030416Y0013702D01*
X0055530Y0013702D01*
X0055534Y0013674D01*
X0055534Y0013674D01*
X0055590Y0013243D01*
X0055604Y0013142D01*
X0055615Y0013117D01*
X0055615Y0013117D01*
X0055802Y0012692D01*
X0055831Y0012626D01*
X0055947Y0012488D01*
X0056176Y0012215D01*
X0056176Y0012215D01*
X0056194Y0012194D01*
X0056217Y0012178D01*
X0056217Y0012178D01*
X0056266Y0012146D01*
X0056664Y0011881D01*
X0057004Y0011775D01*
X0057176Y0011721D01*
X0057176Y0011721D01*
X0057203Y0011713D01*
X0057485Y0011707D01*
X0057739Y0011703D01*
X0057739Y0011703D01*
X0057767Y0011702D01*
X0057794Y0011710D01*
X0057794Y0011710D01*
X0058125Y0011800D01*
X0058312Y0011851D01*
X0058793Y0012146D01*
X0058822Y0012178D01*
X0059153Y0012544D01*
X0059171Y0012564D01*
X0059366Y0012967D01*
X0059405Y0013047D01*
X0059418Y0013072D01*
X0059432Y0013159D01*
X0059509Y0013614D01*
X0059509Y0013614D01*
X0059511Y0013629D01*
X0059512Y0013678D01*
X0059432Y0014236D01*
X0059311Y0014503D01*
X0059210Y0014725D01*
X0059210Y0014725D01*
X0059198Y0014750D01*
X0058830Y0015178D01*
X0058356Y0015485D01*
X0057815Y0015647D01*
X0057488Y0015649D01*
X0057279Y0015650D01*
X0057279Y0015650D01*
X0057251Y0015650D01*
X0057224Y0015642D01*
X0057224Y0015642D01*
X0056735Y0015503D01*
X0056735Y0015503D01*
X0056708Y0015495D01*
X0056231Y0015194D01*
X0056212Y0015173D01*
X0056212Y0015173D01*
X0055876Y0014791D01*
X0055876Y0014791D01*
X0055857Y0014771D01*
X0055845Y0014746D01*
X0055845Y0014746D01*
X0055836Y0014725D01*
X0055617Y0014260D01*
X0055613Y0014232D01*
X0055613Y0014232D01*
X0055589Y0014079D01*
X0055530Y0013702D01*
X0030416Y0013702D01*
X0030398Y0013714D01*
X0030398Y0013714D01*
X0030379Y0013728D01*
X0029898Y0013916D01*
X0029783Y0013960D01*
X0029783Y0013960D01*
X0029761Y0013969D01*
X0029713Y0013975D01*
X0029495Y0014079D01*
X0029380Y0014290D01*
X0029413Y0014531D01*
X0029621Y0014961D01*
X0029621Y0014961D01*
X0029633Y0014986D01*
X0029641Y0015033D01*
X0029724Y0015528D01*
X0029724Y0015528D01*
X0029727Y0015542D01*
X0029727Y0015591D01*
X0029647Y0016150D01*
X0029636Y0016175D01*
X0029631Y0016192D01*
X0029638Y0016433D01*
X0029785Y0016624D01*
X0029867Y0016666D01*
X0030176Y0016783D01*
X0030354Y0016850D01*
X0030373Y0016864D01*
X0030373Y0016864D01*
X0030881Y0017213D01*
X0030900Y0017226D01*
X0031341Y0017721D01*
X0031355Y0017746D01*
X0031472Y0017967D01*
X0031651Y0018307D01*
X0031785Y0018839D01*
X0031807Y0018927D01*
X0031807Y0018927D01*
X0031813Y0018950D01*
X0031815Y0019405D01*
X0031816Y0019589D01*
X0031816Y0019589D01*
X0031816Y0019613D01*
X0031662Y0020258D01*
X0031478Y0020614D01*
X0031368Y0020826D01*
X0031368Y0020826D01*
X0031358Y0020847D01*
X0030922Y0021346D01*
X0030890Y0021369D01*
X0030398Y0021714D01*
X0030398Y0021714D01*
X0030379Y0021728D01*
X0030034Y0021862D01*
X0061435Y0021862D01*
X0061439Y0021835D01*
X0061439Y0021835D01*
X0061503Y0021346D01*
X0061509Y0021303D01*
X0061520Y0021277D01*
X0061520Y0021277D01*
X0061723Y0020816D01*
X0061736Y0020786D01*
X0061840Y0020662D01*
X0062081Y0020375D01*
X0062081Y0020375D01*
X0062099Y0020354D01*
X0062122Y0020339D01*
X0062122Y0020339D01*
X0062171Y0020306D01*
X0062569Y0020041D01*
X0062918Y0019932D01*
X0063081Y0019881D01*
X0063081Y0019881D01*
X0063108Y0019873D01*
X0063390Y0019868D01*
X0063644Y0019863D01*
X0063644Y0019863D01*
X0063672Y0019862D01*
X0063699Y0019870D01*
X0063699Y0019870D01*
X0064145Y0019991D01*
X0064217Y0020011D01*
X0064698Y0020306D01*
X0064727Y0020339D01*
X0065058Y0020704D01*
X0065076Y0020725D01*
X0065323Y0021233D01*
X0065329Y0021269D01*
X0065414Y0021774D01*
X0065414Y0021774D01*
X0065416Y0021789D01*
X0065416Y0021805D01*
X0065417Y0021823D01*
X0065417Y0021838D01*
X0065337Y0022397D01*
X0065103Y0022910D01*
X0064735Y0023338D01*
X0064261Y0023645D01*
X0063720Y0023807D01*
X0063393Y0023809D01*
X0063184Y0023810D01*
X0063184Y0023810D01*
X0063156Y0023810D01*
X0063129Y0023803D01*
X0063129Y0023803D01*
X0062640Y0023663D01*
X0062640Y0023663D01*
X0062613Y0023655D01*
X0062136Y0023354D01*
X0062117Y0023333D01*
X0062117Y0023333D01*
X0061781Y0022952D01*
X0061781Y0022952D01*
X0061762Y0022931D01*
X0061522Y0022420D01*
X0061518Y0022393D01*
X0061518Y0022393D01*
X0061495Y0022247D01*
X0061435Y0021862D01*
X0030034Y0021862D01*
X0029900Y0021915D01*
X0029783Y0021960D01*
X0029783Y0021960D01*
X0029761Y0021969D01*
X0029738Y0021972D01*
X0029738Y0021972D01*
X0029268Y0022033D01*
X0029256Y0022035D01*
X0028909Y0022035D01*
X0028897Y0022034D01*
X0028897Y0022034D01*
X0028440Y0021978D01*
X0028440Y0021978D01*
X0028417Y0021976D01*
X0028395Y0021967D01*
X0028395Y0021967D01*
X0028296Y0021930D01*
X0027797Y0021741D01*
X0027777Y0021728D01*
X0027777Y0021728D01*
X0027485Y0021527D01*
X0027250Y0021366D01*
X0026809Y0020871D01*
X0026798Y0020850D01*
X0026798Y0020850D01*
X0026763Y0020782D01*
X0026499Y0020285D01*
X0026338Y0019642D01*
X0026334Y0018979D01*
X0026489Y0018334D01*
X0026754Y0017820D01*
X0026792Y0017746D01*
X0026831Y0017509D01*
X0026723Y0017293D01*
X0026654Y0017238D01*
X0026535Y0017163D01*
X0026446Y0017107D01*
X0026428Y0017086D01*
X0026428Y0017086D01*
X0026091Y0016705D01*
X0026091Y0016705D01*
X0026073Y0016684D01*
X0026061Y0016659D01*
X0026061Y0016659D01*
X0026023Y0016578D01*
X0025833Y0016173D01*
X0025829Y0016146D01*
X0025829Y0016146D01*
X0025798Y0015951D01*
X0025746Y0015615D01*
X0011816Y0015615D01*
X0011662Y0016258D01*
X0011494Y0016582D01*
X0011368Y0016826D01*
X0011368Y0016826D01*
X0011358Y0016847D01*
X0010922Y0017346D01*
X0010875Y0017379D01*
X0010398Y0017714D01*
X0010398Y0017714D01*
X0010379Y0017728D01*
X0009761Y0017969D01*
X0009738Y0017972D01*
X0009738Y0017972D01*
X0009268Y0018033D01*
X0009256Y0018035D01*
X0008909Y0018035D01*
X0008897Y0018034D01*
X0008897Y0018034D01*
X0008440Y0017978D01*
X0008440Y0017978D01*
X0008417Y0017976D01*
X0008395Y0017967D01*
X0008395Y0017967D01*
X0008206Y0017896D01*
X0007797Y0017741D01*
X0007777Y0017728D01*
X0007777Y0017728D01*
X0007742Y0017703D01*
X0007250Y0017366D01*
X0006809Y0016871D01*
X0006499Y0016285D01*
X0006493Y0016262D01*
X0006493Y0016262D01*
X0006459Y0016126D01*
X0006331Y0015922D01*
X0006108Y0015832D01*
X0005874Y0015891D01*
X0005719Y0016076D01*
X0005691Y0016221D01*
X0005691Y0021954D01*
X0008558Y0021954D01*
X0008562Y0021926D01*
X0008562Y0021926D01*
X0008619Y0021491D01*
X0008631Y0021394D01*
X0008643Y0021369D01*
X0008643Y0021369D01*
X0008841Y0020918D01*
X0008859Y0020878D01*
X0008981Y0020732D01*
X0009204Y0020467D01*
X0009204Y0020467D01*
X0009222Y0020446D01*
X0009245Y0020430D01*
X0009245Y0020430D01*
X0009269Y0020414D01*
X0009692Y0020133D01*
X0010049Y0020021D01*
X0010204Y0019973D01*
X0010204Y0019973D01*
X0010231Y0019965D01*
X0010513Y0019959D01*
X0010767Y0019955D01*
X0010767Y0019955D01*
X0010795Y0019954D01*
X0010822Y0019962D01*
X0010822Y0019962D01*
X0011219Y0020070D01*
X0011253Y0020079D01*
X0013936Y0020079D01*
X0013940Y0020052D01*
X0013940Y0020052D01*
X0013951Y0019964D01*
X0014010Y0019519D01*
X0014021Y0019494D01*
X0014021Y0019494D01*
X0014060Y0019405D01*
X0014237Y0019003D01*
X0014375Y0018839D01*
X0014582Y0018592D01*
X0014582Y0018592D01*
X0014600Y0018571D01*
X0014623Y0018555D01*
X0014623Y0018555D01*
X0014672Y0018523D01*
X0015070Y0018258D01*
X0015466Y0018134D01*
X0015582Y0018098D01*
X0015582Y0018098D01*
X0015609Y0018090D01*
X0015891Y0018085D01*
X0016145Y0018080D01*
X0016145Y0018080D01*
X0016173Y0018079D01*
X0016200Y0018087D01*
X0016200Y0018087D01*
X0016496Y0018167D01*
X0016718Y0018228D01*
X0017199Y0018523D01*
X0017228Y0018555D01*
X0017559Y0018921D01*
X0017577Y0018942D01*
X0017823Y0019450D01*
X0017840Y0019547D01*
X0017915Y0019991D01*
X0017915Y0019991D01*
X0017917Y0020006D01*
X0017918Y0020055D01*
X0017838Y0020614D01*
X0017720Y0020871D01*
X0017616Y0021102D01*
X0017616Y0021102D01*
X0017604Y0021127D01*
X0017236Y0021555D01*
X0016762Y0021862D01*
X0016221Y0022024D01*
X0015893Y0022026D01*
X0015685Y0022027D01*
X0015685Y0022027D01*
X0015657Y0022027D01*
X0015630Y0022020D01*
X0015630Y0022020D01*
X0015141Y0021880D01*
X0015141Y0021880D01*
X0015114Y0021872D01*
X0014637Y0021571D01*
X0014618Y0021550D01*
X0014618Y0021550D01*
X0014281Y0021169D01*
X0014281Y0021169D01*
X0014263Y0021148D01*
X0014023Y0020637D01*
X0014019Y0020609D01*
X0014019Y0020609D01*
X0013984Y0020385D01*
X0013936Y0020079D01*
X0011253Y0020079D01*
X0011339Y0020103D01*
X0011820Y0020398D01*
X0011850Y0020430D01*
X0012181Y0020796D01*
X0012199Y0020816D01*
X0012410Y0021251D01*
X0012433Y0021299D01*
X0012445Y0021324D01*
X0012454Y0021379D01*
X0012536Y0021866D01*
X0012536Y0021866D01*
X0012539Y0021881D01*
X0012540Y0021930D01*
X0012460Y0022488D01*
X0012258Y0022932D01*
X0012237Y0022977D01*
X0012237Y0022977D01*
X0012226Y0023002D01*
X0012030Y0023229D01*
X0011937Y0023451D01*
X0011993Y0023686D01*
X0012037Y0023745D01*
X0012201Y0023927D01*
X0012383Y0024301D01*
X0012435Y0024410D01*
X0012447Y0024435D01*
X0012464Y0024532D01*
X0012538Y0024976D01*
X0012538Y0024976D01*
X0012541Y0024991D01*
X0012541Y0025010D01*
X0012541Y0025025D01*
X0012542Y0025040D01*
X0012461Y0025599D01*
X0012280Y0025999D01*
X0012239Y0026087D01*
X0012239Y0026087D01*
X0012228Y0026112D01*
X0011942Y0026444D01*
X0011878Y0026519D01*
X0011878Y0026519D01*
X0011859Y0026540D01*
X0011386Y0026847D01*
X0010845Y0027009D01*
X0010517Y0027011D01*
X0010308Y0027012D01*
X0010308Y0027012D01*
X0010281Y0027012D01*
X0010254Y0027005D01*
X0010254Y0027005D01*
X0009765Y0026865D01*
X0009765Y0026865D01*
X0009738Y0026857D01*
X0009630Y0026789D01*
X0009338Y0026605D01*
X0009261Y0026556D01*
X0009242Y0026535D01*
X0009242Y0026535D01*
X0008905Y0026154D01*
X0008905Y0026154D01*
X0008887Y0026133D01*
X0008875Y0026108D01*
X0008875Y0026108D01*
X0008829Y0026009D01*
X0008647Y0025622D01*
X0008643Y0025594D01*
X0008643Y0025594D01*
X0008600Y0025319D01*
X0008560Y0025064D01*
X0008564Y0025037D01*
X0008564Y0025037D01*
X0008569Y0024996D01*
X0008633Y0024505D01*
X0008645Y0024479D01*
X0008645Y0024479D01*
X0008830Y0024058D01*
X0008861Y0023988D01*
X0008879Y0023967D01*
X0008879Y0023967D01*
X0009072Y0023736D01*
X0009163Y0023513D01*
X0009104Y0023279D01*
X0009066Y0023228D01*
X0008903Y0023043D01*
X0008903Y0023043D01*
X0008885Y0023023D01*
X0008645Y0022512D01*
X0008641Y0022484D01*
X0008641Y0022484D01*
X0008598Y0022210D01*
X0008558Y0021954D01*
X0005691Y0021954D01*
X0005691Y0028501D01*
X0024488Y0028501D01*
X0024491Y0028473D01*
X0024491Y0028473D01*
X0024524Y0028221D01*
X0024561Y0027941D01*
X0024572Y0027916D01*
X0024572Y0027916D01*
X0024752Y0027506D01*
X0024788Y0027425D01*
X0024970Y0027208D01*
X0025134Y0027014D01*
X0025134Y0027014D01*
X0025151Y0026992D01*
X0025621Y0026680D01*
X0025968Y0026571D01*
X0026133Y0026520D01*
X0026133Y0026520D01*
X0026160Y0026511D01*
X0026442Y0026506D01*
X0026697Y0026502D01*
X0026697Y0026502D01*
X0026724Y0026501D01*
X0026751Y0026508D01*
X0026751Y0026508D01*
X0027104Y0026605D01*
X0027269Y0026649D01*
X0027496Y0026789D01*
X0027730Y0026845D01*
X0027953Y0026753D01*
X0027998Y0026708D01*
X0028164Y0026511D01*
X0028164Y0026511D01*
X0028181Y0026490D01*
X0028205Y0026475D01*
X0028205Y0026475D01*
X0028253Y0026442D01*
X0028651Y0026177D01*
X0028962Y0026080D01*
X0029164Y0026017D01*
X0029164Y0026017D01*
X0029190Y0026009D01*
X0029472Y0026004D01*
X0029727Y0025999D01*
X0029727Y0025999D01*
X0029754Y0025999D01*
X0029781Y0026006D01*
X0029781Y0026006D01*
X0030172Y0026112D01*
X0030299Y0026147D01*
X0030780Y0026442D01*
X0030809Y0026475D01*
X0031140Y0026840D01*
X0031159Y0026861D01*
X0031330Y0027214D01*
X0031393Y0027344D01*
X0031405Y0027369D01*
X0031414Y0027425D01*
X0031471Y0027763D01*
X0043366Y0027763D01*
X0043369Y0027735D01*
X0043369Y0027735D01*
X0043379Y0027661D01*
X0043439Y0027203D01*
X0043450Y0027178D01*
X0043450Y0027178D01*
X0043637Y0026753D01*
X0043666Y0026686D01*
X0043799Y0026529D01*
X0044012Y0026275D01*
X0044012Y0026275D01*
X0044029Y0026254D01*
X0044053Y0026239D01*
X0044053Y0026239D01*
X0044101Y0026207D01*
X0044499Y0025941D01*
X0044861Y0025829D01*
X0045012Y0025781D01*
X0045012Y0025781D01*
X0045038Y0025773D01*
X0045320Y0025768D01*
X0045575Y0025763D01*
X0045575Y0025763D01*
X0045602Y0025763D01*
X0045629Y0025770D01*
X0045629Y0025770D01*
X0045935Y0025854D01*
X0046147Y0025911D01*
X0046628Y0026207D01*
X0046657Y0026239D01*
X0046988Y0026605D01*
X0047007Y0026625D01*
X0047177Y0026977D01*
X0047241Y0027108D01*
X0047252Y0027131D01*
X0051363Y0027131D01*
X0051367Y0027104D01*
X0051367Y0027104D01*
X0051399Y0026857D01*
X0051437Y0026571D01*
X0051448Y0026546D01*
X0051448Y0026546D01*
X0051641Y0026108D01*
X0051664Y0026055D01*
X0051781Y0025915D01*
X0052009Y0025644D01*
X0052009Y0025644D01*
X0052027Y0025623D01*
X0052050Y0025607D01*
X0052050Y0025607D01*
X0052099Y0025575D01*
X0052497Y0025310D01*
X0052893Y0025186D01*
X0053009Y0025150D01*
X0053009Y0025150D01*
X0053036Y0025142D01*
X0053318Y0025136D01*
X0053572Y0025132D01*
X0053572Y0025132D01*
X0053600Y0025131D01*
X0053627Y0025139D01*
X0053627Y0025139D01*
X0053923Y0025219D01*
X0054145Y0025280D01*
X0054626Y0025575D01*
X0054647Y0025599D01*
X0054986Y0025973D01*
X0055004Y0025994D01*
X0055242Y0026483D01*
X0072933Y0026483D01*
X0072936Y0026456D01*
X0072936Y0026456D01*
X0072978Y0026133D01*
X0073006Y0025923D01*
X0073017Y0025898D01*
X0073017Y0025898D01*
X0073166Y0025561D01*
X0073233Y0025407D01*
X0073328Y0025294D01*
X0073578Y0024996D01*
X0073579Y0024996D01*
X0073596Y0024975D01*
X0073619Y0024959D01*
X0073619Y0024959D01*
X0073963Y0024731D01*
X0074112Y0024542D01*
X0074122Y0024301D01*
X0073989Y0024101D01*
X0073955Y0024077D01*
X0073814Y0023988D01*
X0073672Y0023898D01*
X0073654Y0023878D01*
X0073654Y0023878D01*
X0073317Y0023496D01*
X0073317Y0023496D01*
X0073299Y0023475D01*
X0073059Y0022964D01*
X0073055Y0022937D01*
X0073055Y0022937D01*
X0073047Y0022885D01*
X0072972Y0022407D01*
X0072976Y0022379D01*
X0072976Y0022379D01*
X0073022Y0022027D01*
X0073045Y0021847D01*
X0073056Y0021822D01*
X0073056Y0021822D01*
X0073107Y0021707D01*
X0073273Y0021330D01*
X0073409Y0021169D01*
X0073618Y0020920D01*
X0073618Y0020920D01*
X0073636Y0020898D01*
X0073659Y0020883D01*
X0073659Y0020883D01*
X0073721Y0020841D01*
X0074106Y0020586D01*
X0074385Y0020498D01*
X0074618Y0020426D01*
X0074618Y0020426D01*
X0074644Y0020417D01*
X0074927Y0020412D01*
X0075181Y0020407D01*
X0075181Y0020407D01*
X0075209Y0020407D01*
X0075235Y0020414D01*
X0075235Y0020414D01*
X0075605Y0020515D01*
X0075753Y0020555D01*
X0076234Y0020851D01*
X0076259Y0020878D01*
X0076594Y0021249D01*
X0076613Y0021269D01*
X0076859Y0021777D01*
X0076869Y0021835D01*
X0076950Y0022319D01*
X0076950Y0022319D01*
X0076953Y0022334D01*
X0076953Y0022382D01*
X0076873Y0022941D01*
X0076714Y0023292D01*
X0076651Y0023430D01*
X0076651Y0023430D01*
X0076640Y0023455D01*
X0076334Y0023810D01*
X0076289Y0023861D01*
X0076289Y0023861D01*
X0076271Y0023883D01*
X0075925Y0024107D01*
X0075773Y0024294D01*
X0075760Y0024535D01*
X0075891Y0024737D01*
X0075933Y0024766D01*
X0076171Y0024913D01*
X0076195Y0024927D01*
X0076224Y0024959D01*
X0076555Y0025325D01*
X0076574Y0025346D01*
X0076820Y0025854D01*
X0076828Y0025900D01*
X0076911Y0026395D01*
X0076911Y0026395D01*
X0076913Y0026410D01*
X0076914Y0026459D01*
X0076834Y0027017D01*
X0076662Y0027396D01*
X0076612Y0027506D01*
X0076612Y0027506D01*
X0076600Y0027531D01*
X0076288Y0027894D01*
X0084842Y0027894D01*
X0084916Y0027194D01*
X0084922Y0027175D01*
X0084922Y0027175D01*
X0085107Y0026605D01*
X0085133Y0026525D01*
X0085144Y0026507D01*
X0085144Y0026507D01*
X0085437Y0025999D01*
X0085485Y0025915D01*
X0085956Y0025392D01*
X0085973Y0025380D01*
X0085973Y0025380D01*
X0086079Y0025303D01*
X0086526Y0024978D01*
X0086847Y0024835D01*
X0087150Y0024700D01*
X0087150Y0024700D01*
X0087169Y0024692D01*
X0087189Y0024688D01*
X0087189Y0024688D01*
X0087256Y0024674D01*
X0087857Y0024546D01*
X0088561Y0024546D01*
X0089162Y0024674D01*
X0089230Y0024688D01*
X0089230Y0024688D01*
X0089250Y0024692D01*
X0089268Y0024700D01*
X0089268Y0024700D01*
X0089571Y0024835D01*
X0089893Y0024978D01*
X0090339Y0025303D01*
X0090445Y0025380D01*
X0090445Y0025380D01*
X0090462Y0025392D01*
X0090933Y0025915D01*
X0090981Y0025999D01*
X0091275Y0026507D01*
X0091275Y0026507D01*
X0091285Y0026525D01*
X0091311Y0026605D01*
X0091496Y0027175D01*
X0091496Y0027175D01*
X0091502Y0027194D01*
X0091576Y0027894D01*
X0091569Y0027959D01*
X0091537Y0028261D01*
X0091502Y0028594D01*
X0091496Y0028614D01*
X0091496Y0028614D01*
X0091291Y0029244D01*
X0091291Y0029244D01*
X0091285Y0029264D01*
X0091155Y0029489D01*
X0090943Y0029856D01*
X0090943Y0029856D01*
X0090933Y0029873D01*
X0090462Y0030396D01*
X0089893Y0030810D01*
X0089450Y0031007D01*
X0089268Y0031088D01*
X0089268Y0031088D01*
X0089250Y0031096D01*
X0089230Y0031101D01*
X0089230Y0031101D01*
X0089096Y0031129D01*
X0088561Y0031243D01*
X0087857Y0031243D01*
X0087322Y0031129D01*
X0087189Y0031101D01*
X0087189Y0031101D01*
X0087169Y0031096D01*
X0087150Y0031088D01*
X0087150Y0031088D01*
X0086544Y0030818D01*
X0086544Y0030818D01*
X0086526Y0030810D01*
X0085956Y0030396D01*
X0085943Y0030381D01*
X0085943Y0030381D01*
X0085677Y0030086D01*
X0085485Y0029873D01*
X0085475Y0029856D01*
X0085475Y0029856D01*
X0085264Y0029489D01*
X0085133Y0029264D01*
X0085127Y0029244D01*
X0085127Y0029244D01*
X0084922Y0028614D01*
X0084922Y0028614D01*
X0084916Y0028594D01*
X0084881Y0028261D01*
X0084849Y0027959D01*
X0084842Y0027894D01*
X0076288Y0027894D01*
X0076269Y0027916D01*
X0076250Y0027938D01*
X0076250Y0027938D01*
X0076232Y0027959D01*
X0075758Y0028266D01*
X0075218Y0028428D01*
X0074890Y0028430D01*
X0074681Y0028431D01*
X0074681Y0028431D01*
X0074653Y0028431D01*
X0074626Y0028423D01*
X0074626Y0028423D01*
X0074137Y0028284D01*
X0074137Y0028284D01*
X0074110Y0028276D01*
X0073633Y0027975D01*
X0073615Y0027954D01*
X0073615Y0027954D01*
X0073278Y0027573D01*
X0073278Y0027573D01*
X0073259Y0027552D01*
X0073020Y0027041D01*
X0073015Y0027013D01*
X0073015Y0027013D01*
X0072968Y0026712D01*
X0072933Y0026483D01*
X0055242Y0026483D01*
X0055250Y0026502D01*
X0055259Y0026555D01*
X0055342Y0027043D01*
X0055342Y0027043D01*
X0055344Y0027058D01*
X0055345Y0027107D01*
X0055265Y0027666D01*
X0055134Y0027954D01*
X0055043Y0028154D01*
X0055043Y0028154D01*
X0055031Y0028179D01*
X0054754Y0028501D01*
X0054681Y0028586D01*
X0054681Y0028586D01*
X0054663Y0028607D01*
X0054189Y0028914D01*
X0053648Y0029076D01*
X0053320Y0029078D01*
X0053112Y0029079D01*
X0053112Y0029079D01*
X0053084Y0029079D01*
X0053057Y0029071D01*
X0053057Y0029071D01*
X0052568Y0028932D01*
X0052568Y0028932D01*
X0052541Y0028924D01*
X0052064Y0028623D01*
X0052045Y0028602D01*
X0052045Y0028602D01*
X0051708Y0028221D01*
X0051708Y0028221D01*
X0051690Y0028200D01*
X0051450Y0027689D01*
X0051446Y0027661D01*
X0051446Y0027661D01*
X0051396Y0027344D01*
X0051363Y0027131D01*
X0047252Y0027131D01*
X0047253Y0027133D01*
X0047269Y0027230D01*
X0047344Y0027675D01*
X0047344Y0027675D01*
X0047346Y0027690D01*
X0047347Y0027738D01*
X0047267Y0028297D01*
X0047033Y0028811D01*
X0046665Y0029238D01*
X0046191Y0029545D01*
X0045651Y0029707D01*
X0045323Y0029709D01*
X0045114Y0029710D01*
X0045114Y0029710D01*
X0045086Y0029711D01*
X0045059Y0029703D01*
X0045059Y0029703D01*
X0044570Y0029563D01*
X0044570Y0029563D01*
X0044543Y0029556D01*
X0044066Y0029254D01*
X0044048Y0029234D01*
X0044048Y0029234D01*
X0043711Y0028852D01*
X0043711Y0028852D01*
X0043692Y0028831D01*
X0043453Y0028320D01*
X0043448Y0028293D01*
X0043448Y0028293D01*
X0043430Y0028175D01*
X0043366Y0027763D01*
X0031471Y0027763D01*
X0031496Y0027911D01*
X0031496Y0027911D01*
X0031498Y0027925D01*
X0031499Y0027974D01*
X0031419Y0028533D01*
X0031246Y0028914D01*
X0031197Y0029021D01*
X0031197Y0029021D01*
X0031185Y0029047D01*
X0030817Y0029474D01*
X0030343Y0029781D01*
X0029803Y0029943D01*
X0029475Y0029945D01*
X0029266Y0029946D01*
X0029266Y0029946D01*
X0029238Y0029946D01*
X0029211Y0029939D01*
X0029211Y0029939D01*
X0028722Y0029799D01*
X0028722Y0029799D01*
X0028695Y0029791D01*
X0028494Y0029664D01*
X0028261Y0029605D01*
X0028037Y0029694D01*
X0027991Y0029740D01*
X0027963Y0029773D01*
X0027828Y0029929D01*
X0027805Y0029956D01*
X0027805Y0029956D01*
X0027787Y0029977D01*
X0027313Y0030284D01*
X0026773Y0030445D01*
X0026445Y0030447D01*
X0026236Y0030449D01*
X0026236Y0030449D01*
X0026208Y0030449D01*
X0026181Y0030441D01*
X0026181Y0030441D01*
X0025692Y0030301D01*
X0025692Y0030301D01*
X0025665Y0030294D01*
X0025188Y0029993D01*
X0025170Y0029972D01*
X0025170Y0029972D01*
X0024833Y0029590D01*
X0024833Y0029590D01*
X0024814Y0029569D01*
X0024575Y0029059D01*
X0024570Y0029031D01*
X0024570Y0029031D01*
X0024532Y0028786D01*
X0024488Y0028501D01*
X0005691Y0028501D01*
X0005691Y0029699D01*
X0005766Y0029928D01*
X0005961Y0030070D01*
X0006202Y0030070D01*
X0006230Y0030059D01*
X0006355Y0030007D01*
X0006536Y0029932D01*
X0006562Y0029929D01*
X0006562Y0029929D01*
X0007077Y0029861D01*
X0007102Y0029858D01*
X0007127Y0029861D01*
X0007642Y0029929D01*
X0007642Y0029929D01*
X0007668Y0029932D01*
X0008195Y0030151D01*
X0008515Y0030396D01*
X0008627Y0030482D01*
X0008648Y0030498D01*
X0008995Y0030951D01*
X0009214Y0031478D01*
X0009219Y0031517D01*
X0009285Y0032018D01*
X0009288Y0032044D01*
X0009214Y0032610D01*
X0008995Y0033137D01*
X0008812Y0033375D01*
X0041048Y0033375D01*
X0041052Y0033348D01*
X0041052Y0033348D01*
X0041074Y0033174D01*
X0041121Y0032815D01*
X0041132Y0032790D01*
X0041132Y0032790D01*
X0041223Y0032584D01*
X0041348Y0032299D01*
X0041459Y0032167D01*
X0041694Y0031888D01*
X0041694Y0031888D01*
X0041712Y0031867D01*
X0041735Y0031851D01*
X0041735Y0031851D01*
X0041783Y0031819D01*
X0042181Y0031554D01*
X0042578Y0031430D01*
X0042694Y0031394D01*
X0042694Y0031394D01*
X0042720Y0031386D01*
X0043002Y0031381D01*
X0043257Y0031376D01*
X0043257Y0031376D01*
X0043285Y0031375D01*
X0043311Y0031383D01*
X0043311Y0031383D01*
X0043661Y0031478D01*
X0043829Y0031524D01*
X0043968Y0031609D01*
X0072235Y0031609D01*
X0072238Y0031582D01*
X0072238Y0031582D01*
X0072252Y0031478D01*
X0072308Y0031050D01*
X0072319Y0031024D01*
X0072319Y0031024D01*
X0072410Y0030818D01*
X0072535Y0030533D01*
X0072663Y0030381D01*
X0072881Y0030122D01*
X0072881Y0030122D01*
X0072898Y0030101D01*
X0072922Y0030086D01*
X0072922Y0030086D01*
X0072970Y0030053D01*
X0073368Y0029788D01*
X0073669Y0029694D01*
X0073881Y0029628D01*
X0073881Y0029628D01*
X0073907Y0029620D01*
X0074189Y0029615D01*
X0074444Y0029610D01*
X0074444Y0029610D01*
X0074471Y0029610D01*
X0074498Y0029617D01*
X0074498Y0029617D01*
X0074814Y0029703D01*
X0075016Y0029758D01*
X0075497Y0030053D01*
X0075526Y0030086D01*
X0075857Y0030451D01*
X0075876Y0030472D01*
X0076122Y0030980D01*
X0076138Y0031077D01*
X0076213Y0031522D01*
X0076213Y0031522D01*
X0076216Y0031536D01*
X0076216Y0031585D01*
X0076136Y0032144D01*
X0075902Y0032658D01*
X0075534Y0033085D01*
X0075060Y0033392D01*
X0074520Y0033554D01*
X0074192Y0033556D01*
X0073983Y0033557D01*
X0073983Y0033557D01*
X0073955Y0033557D01*
X0073929Y0033550D01*
X0073929Y0033550D01*
X0073439Y0033410D01*
X0073439Y0033410D01*
X0073413Y0033402D01*
X0072935Y0033101D01*
X0072917Y0033080D01*
X0072917Y0033080D01*
X0072580Y0032699D01*
X0072580Y0032699D01*
X0072562Y0032678D01*
X0072322Y0032167D01*
X0072317Y0032140D01*
X0072317Y0032140D01*
X0072267Y0031819D01*
X0072235Y0031609D01*
X0043968Y0031609D01*
X0044310Y0031819D01*
X0044339Y0031851D01*
X0044670Y0032217D01*
X0044689Y0032238D01*
X0044902Y0032678D01*
X0044923Y0032721D01*
X0044935Y0032746D01*
X0044951Y0032843D01*
X0045026Y0033287D01*
X0045026Y0033287D01*
X0045029Y0033302D01*
X0045029Y0033317D01*
X0045030Y0033332D01*
X0045034Y0033332D01*
X0045106Y0033543D01*
X0045303Y0033682D01*
X0045426Y0033700D01*
X0045473Y0033699D01*
X0045578Y0033697D01*
X0045578Y0033697D01*
X0045606Y0033697D01*
X0045633Y0033704D01*
X0045633Y0033704D01*
X0046072Y0033824D01*
X0046313Y0033812D01*
X0046504Y0033655D01*
X0046514Y0033633D01*
X0046531Y0033612D01*
X0046531Y0033612D01*
X0046859Y0033223D01*
X0046859Y0033223D01*
X0046877Y0033201D01*
X0046900Y0033186D01*
X0046900Y0033186D01*
X0047005Y0033116D01*
X0047347Y0032889D01*
X0047662Y0032790D01*
X0047859Y0032729D01*
X0047859Y0032729D01*
X0047885Y0032720D01*
X0048168Y0032715D01*
X0048422Y0032710D01*
X0048422Y0032710D01*
X0048450Y0032710D01*
X0048477Y0032717D01*
X0048477Y0032717D01*
X0048837Y0032815D01*
X0048994Y0032858D01*
X0049475Y0033154D01*
X0049504Y0033186D01*
X0049835Y0033552D01*
X0049854Y0033572D01*
X0050041Y0033958D01*
X0050088Y0034055D01*
X0050100Y0034080D01*
X0050112Y0034151D01*
X0050191Y0034622D01*
X0050191Y0034622D01*
X0050194Y0034637D01*
X0050194Y0034685D01*
X0050114Y0035244D01*
X0049966Y0035571D01*
X0049892Y0035733D01*
X0049892Y0035733D01*
X0049881Y0035758D01*
X0049540Y0036153D01*
X0049530Y0036164D01*
X0049530Y0036164D01*
X0049512Y0036186D01*
X0049039Y0036493D01*
X0048498Y0036654D01*
X0048170Y0036656D01*
X0047961Y0036658D01*
X0047961Y0036658D01*
X0047934Y0036658D01*
X0047498Y0036533D01*
X0047257Y0036542D01*
X0047062Y0036698D01*
X0047048Y0036719D01*
X0047037Y0036745D01*
X0046742Y0037087D01*
X0046687Y0037151D01*
X0046687Y0037151D01*
X0046668Y0037172D01*
X0046195Y0037479D01*
X0046042Y0037525D01*
X0056848Y0037525D01*
X0056852Y0037497D01*
X0056852Y0037497D01*
X0056908Y0037072D01*
X0056922Y0036965D01*
X0056933Y0036940D01*
X0056933Y0036940D01*
X0057112Y0036533D01*
X0057149Y0036449D01*
X0057200Y0036387D01*
X0057494Y0036038D01*
X0057494Y0036038D01*
X0057512Y0036016D01*
X0057535Y0036001D01*
X0057535Y0036001D01*
X0057584Y0035969D01*
X0057982Y0035704D01*
X0058240Y0035623D01*
X0058494Y0035544D01*
X0058494Y0035544D01*
X0058521Y0035535D01*
X0058803Y0035530D01*
X0059057Y0035526D01*
X0059057Y0035526D01*
X0059085Y0035525D01*
X0059112Y0035532D01*
X0059112Y0035532D01*
X0059344Y0035596D01*
X0079289Y0035596D01*
X0079293Y0035568D01*
X0079293Y0035568D01*
X0079297Y0035535D01*
X0079363Y0035036D01*
X0079374Y0035011D01*
X0079374Y0035011D01*
X0079517Y0034685D01*
X0079590Y0034519D01*
X0079695Y0034394D01*
X0079935Y0034109D01*
X0079935Y0034109D01*
X0079953Y0034087D01*
X0079976Y0034072D01*
X0079976Y0034072D01*
X0080018Y0034044D01*
X0080423Y0033775D01*
X0080810Y0033654D01*
X0080935Y0033615D01*
X0080935Y0033615D01*
X0080962Y0033606D01*
X0081244Y0033601D01*
X0081498Y0033596D01*
X0081498Y0033596D01*
X0081526Y0033596D01*
X0081553Y0033603D01*
X0081553Y0033603D01*
X0081897Y0033697D01*
X0082071Y0033744D01*
X0082552Y0034040D01*
X0082581Y0034072D01*
X0082912Y0034438D01*
X0082930Y0034458D01*
X0083176Y0034966D01*
X0083193Y0035064D01*
X0083268Y0035508D01*
X0083268Y0035508D01*
X0083270Y0035523D01*
X0083271Y0035571D01*
X0083191Y0036130D01*
X0083062Y0036412D01*
X0082969Y0036619D01*
X0082969Y0036619D01*
X0082957Y0036644D01*
X0082589Y0037072D01*
X0082115Y0037379D01*
X0081574Y0037540D01*
X0081246Y0037542D01*
X0081038Y0037544D01*
X0081038Y0037544D01*
X0081010Y0037544D01*
X0080983Y0037536D01*
X0080983Y0037536D01*
X0080494Y0037396D01*
X0080494Y0037396D01*
X0080467Y0037389D01*
X0080228Y0037238D01*
X0080091Y0037151D01*
X0079990Y0037087D01*
X0079971Y0037067D01*
X0079971Y0037067D01*
X0079634Y0036685D01*
X0079634Y0036685D01*
X0079616Y0036664D01*
X0079376Y0036153D01*
X0079372Y0036126D01*
X0079372Y0036126D01*
X0079345Y0035954D01*
X0079289Y0035596D01*
X0059344Y0035596D01*
X0059445Y0035623D01*
X0059630Y0035673D01*
X0060111Y0035969D01*
X0060140Y0036001D01*
X0060471Y0036367D01*
X0060489Y0036387D01*
X0060736Y0036895D01*
X0060752Y0036993D01*
X0060827Y0037437D01*
X0060827Y0037437D01*
X0060829Y0037452D01*
X0060830Y0037500D01*
X0060750Y0038059D01*
X0060516Y0038573D01*
X0060148Y0039001D01*
X0059674Y0039308D01*
X0059133Y0039469D01*
X0058806Y0039471D01*
X0058597Y0039473D01*
X0058597Y0039473D01*
X0058569Y0039473D01*
X0058542Y0039465D01*
X0058542Y0039465D01*
X0058053Y0039325D01*
X0058053Y0039325D01*
X0058026Y0039318D01*
X0057549Y0039017D01*
X0057530Y0038996D01*
X0057530Y0038996D01*
X0057194Y0038614D01*
X0057194Y0038614D01*
X0057175Y0038593D01*
X0056935Y0038083D01*
X0056931Y0038055D01*
X0056931Y0038055D01*
X0056875Y0037693D01*
X0056848Y0037525D01*
X0046042Y0037525D01*
X0045654Y0037641D01*
X0045326Y0037643D01*
X0045117Y0037644D01*
X0045117Y0037644D01*
X0045090Y0037644D01*
X0045063Y0037637D01*
X0045063Y0037637D01*
X0044574Y0037497D01*
X0044574Y0037497D01*
X0044547Y0037489D01*
X0044070Y0037188D01*
X0044051Y0037167D01*
X0044051Y0037167D01*
X0043714Y0036786D01*
X0043714Y0036786D01*
X0043696Y0036765D01*
X0043456Y0036254D01*
X0043452Y0036227D01*
X0043452Y0036227D01*
X0043409Y0035954D01*
X0043369Y0035696D01*
X0043369Y0035695D01*
X0043296Y0035479D01*
X0043099Y0035339D01*
X0042981Y0035322D01*
X0042796Y0035323D01*
X0042796Y0035323D01*
X0042768Y0035323D01*
X0042742Y0035316D01*
X0042742Y0035316D01*
X0042252Y0035176D01*
X0042252Y0035176D01*
X0042226Y0035168D01*
X0041748Y0034867D01*
X0041730Y0034846D01*
X0041730Y0034846D01*
X0041393Y0034465D01*
X0041393Y0034465D01*
X0041375Y0034444D01*
X0041135Y0033933D01*
X0041130Y0033905D01*
X0041130Y0033905D01*
X0041078Y0033569D01*
X0041048Y0033375D01*
X0008812Y0033375D01*
X0008648Y0033590D01*
X0008627Y0033605D01*
X0008627Y0033605D01*
X0008459Y0033735D01*
X0008322Y0033933D01*
X0008329Y0034174D01*
X0008459Y0034353D01*
X0008627Y0034482D01*
X0008627Y0034482D01*
X0008648Y0034498D01*
X0008995Y0034951D01*
X0009214Y0035478D01*
X0009225Y0035568D01*
X0009285Y0036018D01*
X0009288Y0036044D01*
X0009246Y0036367D01*
X0009217Y0036584D01*
X0009217Y0036584D01*
X0009214Y0036610D01*
X0008995Y0037137D01*
X0008648Y0037590D01*
X0008195Y0037937D01*
X0007668Y0038155D01*
X0007642Y0038159D01*
X0007642Y0038159D01*
X0007211Y0038215D01*
X0007102Y0038230D01*
X0006993Y0038215D01*
X0006562Y0038159D01*
X0006562Y0038159D01*
X0006536Y0038155D01*
X0006489Y0038136D01*
X0006230Y0038029D01*
X0005990Y0038010D01*
X0005785Y0038136D01*
X0005693Y0038358D01*
X0005691Y0038389D01*
X0005691Y0042675D01*
X0005720Y0042763D01*
X0043347Y0042763D01*
X0043350Y0042736D01*
X0043350Y0042736D01*
X0043356Y0042690D01*
X0043420Y0042204D01*
X0043431Y0042178D01*
X0043431Y0042178D01*
X0043582Y0041836D01*
X0043647Y0041687D01*
X0043813Y0041490D01*
X0043993Y0041276D01*
X0043993Y0041276D01*
X0044010Y0041255D01*
X0044034Y0041240D01*
X0044034Y0041240D01*
X0044082Y0041207D01*
X0044480Y0040942D01*
X0044711Y0040870D01*
X0044993Y0040782D01*
X0044993Y0040782D01*
X0045019Y0040774D01*
X0045301Y0040769D01*
X0045556Y0040764D01*
X0045556Y0040764D01*
X0045583Y0040764D01*
X0045610Y0040771D01*
X0045610Y0040771D01*
X0045974Y0040870D01*
X0046128Y0040912D01*
X0046609Y0041207D01*
X0046638Y0041240D01*
X0046874Y0041500D01*
X0053659Y0041500D01*
X0053663Y0041472D01*
X0053663Y0041472D01*
X0053669Y0041427D01*
X0053733Y0040940D01*
X0053744Y0040915D01*
X0053744Y0040915D01*
X0053893Y0040576D01*
X0053960Y0040423D01*
X0054011Y0040362D01*
X0054305Y0040013D01*
X0054305Y0040013D01*
X0054323Y0039991D01*
X0054346Y0039976D01*
X0054346Y0039976D01*
X0054395Y0039944D01*
X0054793Y0039678D01*
X0055158Y0039564D01*
X0055305Y0039518D01*
X0055305Y0039518D01*
X0055332Y0039510D01*
X0055614Y0039505D01*
X0055868Y0039500D01*
X0055868Y0039500D01*
X0055896Y0039500D01*
X0055923Y0039507D01*
X0055923Y0039507D01*
X0056219Y0039588D01*
X0056441Y0039648D01*
X0056922Y0039944D01*
X0056951Y0039976D01*
X0057047Y0040082D01*
X0071773Y0040082D01*
X0071776Y0040055D01*
X0071776Y0040055D01*
X0071782Y0040013D01*
X0071846Y0039523D01*
X0071857Y0039497D01*
X0071857Y0039497D01*
X0072041Y0039080D01*
X0072073Y0039006D01*
X0072125Y0038945D01*
X0072419Y0038595D01*
X0072419Y0038595D01*
X0072436Y0038574D01*
X0072460Y0038559D01*
X0072460Y0038559D01*
X0072508Y0038526D01*
X0072906Y0038261D01*
X0073302Y0038137D01*
X0073419Y0038101D01*
X0073419Y0038101D01*
X0073445Y0038093D01*
X0073727Y0038088D01*
X0073982Y0038083D01*
X0073982Y0038083D01*
X0074009Y0038083D01*
X0074036Y0038090D01*
X0074036Y0038090D01*
X0074332Y0038171D01*
X0074554Y0038231D01*
X0075035Y0038526D01*
X0075064Y0038559D01*
X0075395Y0038924D01*
X0075414Y0038945D01*
X0075660Y0039453D01*
X0075668Y0039500D01*
X0075751Y0039994D01*
X0075751Y0039995D01*
X0075754Y0040009D01*
X0075754Y0040058D01*
X0075674Y0040617D01*
X0075539Y0040915D01*
X0075452Y0041105D01*
X0075452Y0041105D01*
X0075440Y0041131D01*
X0075161Y0041455D01*
X0075090Y0041537D01*
X0075090Y0041537D01*
X0075072Y0041558D01*
X0074598Y0041865D01*
X0074058Y0042027D01*
X0073730Y0042029D01*
X0073521Y0042030D01*
X0073521Y0042030D01*
X0073493Y0042030D01*
X0073467Y0042023D01*
X0073467Y0042023D01*
X0072977Y0041883D01*
X0072977Y0041883D01*
X0072950Y0041875D01*
X0072473Y0041574D01*
X0072455Y0041553D01*
X0072455Y0041553D01*
X0072118Y0041172D01*
X0072118Y0041172D01*
X0072100Y0041151D01*
X0071860Y0040640D01*
X0071855Y0040613D01*
X0071855Y0040613D01*
X0071826Y0040423D01*
X0071773Y0040082D01*
X0057047Y0040082D01*
X0057282Y0040342D01*
X0057300Y0040362D01*
X0057547Y0040870D01*
X0057556Y0040927D01*
X0057638Y0041412D01*
X0057638Y0041412D01*
X0057640Y0041427D01*
X0057641Y0041475D01*
X0057561Y0042034D01*
X0057471Y0042231D01*
X0057339Y0042523D01*
X0057339Y0042523D01*
X0057327Y0042548D01*
X0057076Y0042839D01*
X0056977Y0042954D01*
X0056977Y0042954D01*
X0056959Y0042975D01*
X0056485Y0043282D01*
X0055944Y0043444D01*
X0055617Y0043446D01*
X0055408Y0043447D01*
X0055408Y0043447D01*
X0055380Y0043448D01*
X0055353Y0043440D01*
X0055353Y0043440D01*
X0054864Y0043300D01*
X0054864Y0043300D01*
X0054837Y0043293D01*
X0054360Y0042991D01*
X0054341Y0042971D01*
X0054341Y0042971D01*
X0054005Y0042589D01*
X0054005Y0042589D01*
X0053986Y0042568D01*
X0053746Y0042057D01*
X0053742Y0042030D01*
X0053742Y0042030D01*
X0053701Y0041767D01*
X0053659Y0041500D01*
X0046874Y0041500D01*
X0046969Y0041605D01*
X0046988Y0041626D01*
X0047234Y0042134D01*
X0047249Y0042224D01*
X0047325Y0042676D01*
X0047325Y0042676D01*
X0047328Y0042690D01*
X0047328Y0042739D01*
X0047248Y0043298D01*
X0047043Y0043748D01*
X0047026Y0043786D01*
X0047026Y0043786D01*
X0047014Y0043812D01*
X0046689Y0044190D01*
X0046664Y0044218D01*
X0046664Y0044218D01*
X0046646Y0044239D01*
X0046587Y0044278D01*
X0058384Y0044278D01*
X0058387Y0044250D01*
X0058387Y0044250D01*
X0058392Y0044218D01*
X0058457Y0043718D01*
X0058468Y0043692D01*
X0058468Y0043692D01*
X0058655Y0043267D01*
X0058684Y0043201D01*
X0058734Y0043143D01*
X0059030Y0042790D01*
X0059030Y0042790D01*
X0059048Y0042769D01*
X0059071Y0042754D01*
X0059071Y0042754D01*
X0059119Y0042722D01*
X0059517Y0042456D01*
X0059913Y0042333D01*
X0060030Y0042296D01*
X0060030Y0042296D01*
X0060056Y0042288D01*
X0060338Y0042283D01*
X0060593Y0042278D01*
X0060593Y0042278D01*
X0060621Y0042278D01*
X0060647Y0042285D01*
X0060647Y0042285D01*
X0060943Y0042366D01*
X0061165Y0042426D01*
X0061646Y0042722D01*
X0061675Y0042754D01*
X0062006Y0043119D01*
X0062025Y0043140D01*
X0062271Y0043648D01*
X0062283Y0043719D01*
X0062362Y0044190D01*
X0062362Y0044190D01*
X0062365Y0044205D01*
X0062365Y0044253D01*
X0062285Y0044812D01*
X0062098Y0045224D01*
X0062063Y0045301D01*
X0062063Y0045301D01*
X0062052Y0045326D01*
X0061683Y0045753D01*
X0061209Y0046060D01*
X0060669Y0046222D01*
X0060341Y0046224D01*
X0060132Y0046225D01*
X0060132Y0046225D01*
X0060104Y0046226D01*
X0060078Y0046218D01*
X0060078Y0046218D01*
X0059588Y0046078D01*
X0059588Y0046078D01*
X0059562Y0046070D01*
X0059084Y0045769D01*
X0059066Y0045748D01*
X0059066Y0045748D01*
X0058729Y0045367D01*
X0058729Y0045367D01*
X0058711Y0045346D01*
X0058699Y0045321D01*
X0058699Y0045321D01*
X0058672Y0045264D01*
X0058471Y0044835D01*
X0058466Y0044808D01*
X0058466Y0044808D01*
X0058422Y0044525D01*
X0058384Y0044278D01*
X0046587Y0044278D01*
X0046172Y0044546D01*
X0045632Y0044708D01*
X0045304Y0044710D01*
X0045095Y0044711D01*
X0045095Y0044711D01*
X0045067Y0044711D01*
X0045041Y0044704D01*
X0045041Y0044704D01*
X0044551Y0044564D01*
X0044551Y0044564D01*
X0044525Y0044556D01*
X0044047Y0044255D01*
X0044029Y0044234D01*
X0044029Y0044234D01*
X0043692Y0043853D01*
X0043692Y0043853D01*
X0043674Y0043832D01*
X0043662Y0043807D01*
X0043662Y0043807D01*
X0043638Y0043756D01*
X0043434Y0043321D01*
X0043429Y0043294D01*
X0043429Y0043294D01*
X0043372Y0042922D01*
X0043347Y0042763D01*
X0005720Y0042763D01*
X0005766Y0042904D01*
X0005961Y0043046D01*
X0006202Y0043046D01*
X0006230Y0043035D01*
X0006338Y0042991D01*
X0006536Y0042909D01*
X0006562Y0042905D01*
X0006562Y0042905D01*
X0007077Y0042837D01*
X0007102Y0042834D01*
X0007127Y0042837D01*
X0007642Y0042905D01*
X0007642Y0042905D01*
X0007668Y0042909D01*
X0008195Y0043127D01*
X0008648Y0043474D01*
X0008995Y0043927D01*
X0009214Y0044454D01*
X0009217Y0044480D01*
X0009285Y0044995D01*
X0009288Y0045020D01*
X0009248Y0045326D01*
X0009217Y0045561D01*
X0009217Y0045561D01*
X0009214Y0045586D01*
X0008995Y0046113D01*
X0008804Y0046362D01*
X0013303Y0046362D01*
X0013306Y0046334D01*
X0013306Y0046334D01*
X0013353Y0045977D01*
X0013376Y0045802D01*
X0013387Y0045777D01*
X0013387Y0045777D01*
X0013513Y0045490D01*
X0013603Y0045286D01*
X0013655Y0045224D01*
X0013948Y0044875D01*
X0013948Y0044875D01*
X0013966Y0044853D01*
X0013989Y0044838D01*
X0013989Y0044838D01*
X0014029Y0044812D01*
X0014436Y0044541D01*
X0014824Y0044419D01*
X0014948Y0044381D01*
X0014948Y0044381D01*
X0014975Y0044372D01*
X0015257Y0044367D01*
X0015511Y0044363D01*
X0015511Y0044363D01*
X0015539Y0044362D01*
X0015566Y0044369D01*
X0015566Y0044369D01*
X0015862Y0044450D01*
X0016084Y0044510D01*
X0016565Y0044806D01*
X0016594Y0044838D01*
X0016925Y0045204D01*
X0016944Y0045224D01*
X0017115Y0045578D01*
X0026435Y0045578D01*
X0026439Y0045550D01*
X0026439Y0045550D01*
X0026460Y0045386D01*
X0026508Y0045018D01*
X0026519Y0044992D01*
X0026519Y0044992D01*
X0026722Y0044531D01*
X0026736Y0044501D01*
X0026900Y0044305D01*
X0027081Y0044090D01*
X0027081Y0044090D01*
X0027099Y0044069D01*
X0027122Y0044054D01*
X0027122Y0044054D01*
X0027170Y0044022D01*
X0027569Y0043756D01*
X0027965Y0043633D01*
X0028081Y0043596D01*
X0028081Y0043596D01*
X0028107Y0043588D01*
X0028390Y0043583D01*
X0028644Y0043578D01*
X0028644Y0043578D01*
X0028672Y0043578D01*
X0028698Y0043585D01*
X0028698Y0043585D01*
X0029092Y0043692D01*
X0029216Y0043726D01*
X0029697Y0044022D01*
X0029726Y0044054D01*
X0030057Y0044419D01*
X0030076Y0044440D01*
X0030322Y0044948D01*
X0030329Y0044990D01*
X0030413Y0045490D01*
X0030413Y0045490D01*
X0030416Y0045505D01*
X0030416Y0045553D01*
X0030336Y0046112D01*
X0030169Y0046480D01*
X0030114Y0046601D01*
X0030114Y0046601D01*
X0030103Y0046626D01*
X0029805Y0046971D01*
X0029752Y0047032D01*
X0029752Y0047032D01*
X0029734Y0047053D01*
X0029261Y0047360D01*
X0028720Y0047522D01*
X0028392Y0047524D01*
X0028183Y0047525D01*
X0028183Y0047525D01*
X0028155Y0047526D01*
X0028129Y0047518D01*
X0028129Y0047518D01*
X0027639Y0047378D01*
X0027639Y0047378D01*
X0027613Y0047370D01*
X0027537Y0047322D01*
X0027311Y0047180D01*
X0027135Y0047069D01*
X0027117Y0047048D01*
X0027117Y0047048D01*
X0026780Y0046667D01*
X0026780Y0046667D01*
X0026762Y0046646D01*
X0026522Y0046135D01*
X0026518Y0046108D01*
X0026518Y0046108D01*
X0026466Y0045775D01*
X0026435Y0045578D01*
X0017115Y0045578D01*
X0017190Y0045732D01*
X0017206Y0045830D01*
X0017281Y0046274D01*
X0017281Y0046274D01*
X0017283Y0046289D01*
X0017284Y0046338D01*
X0017204Y0046896D01*
X0017086Y0047155D01*
X0016982Y0047385D01*
X0016982Y0047385D01*
X0016970Y0047410D01*
X0016602Y0047838D01*
X0016128Y0048145D01*
X0015634Y0048293D01*
X0020136Y0048293D01*
X0020139Y0048265D01*
X0020139Y0048265D01*
X0020178Y0047968D01*
X0020209Y0047733D01*
X0020220Y0047707D01*
X0020220Y0047707D01*
X0020396Y0047308D01*
X0020436Y0047216D01*
X0020573Y0047053D01*
X0020782Y0046805D01*
X0020782Y0046805D01*
X0020800Y0046784D01*
X0020823Y0046769D01*
X0020823Y0046769D01*
X0020862Y0046742D01*
X0021269Y0046471D01*
X0021620Y0046362D01*
X0021782Y0046311D01*
X0021782Y0046311D01*
X0021808Y0046303D01*
X0022090Y0046298D01*
X0022345Y0046293D01*
X0022345Y0046293D01*
X0022372Y0046293D01*
X0022399Y0046300D01*
X0022399Y0046300D01*
X0022695Y0046381D01*
X0022917Y0046441D01*
X0023398Y0046737D01*
X0023427Y0046769D01*
X0023758Y0047134D01*
X0023777Y0047155D01*
X0024023Y0047663D01*
X0024039Y0047760D01*
X0024114Y0048205D01*
X0024114Y0048205D01*
X0024117Y0048220D01*
X0024117Y0048268D01*
X0024087Y0048479D01*
X0049281Y0048479D01*
X0049285Y0048452D01*
X0049285Y0048452D01*
X0049341Y0048023D01*
X0049355Y0047920D01*
X0049366Y0047894D01*
X0049366Y0047894D01*
X0049569Y0047431D01*
X0049582Y0047403D01*
X0049756Y0047196D01*
X0049927Y0046992D01*
X0049927Y0046992D01*
X0049945Y0046971D01*
X0049968Y0046956D01*
X0049968Y0046956D01*
X0050093Y0046872D01*
X0050415Y0046658D01*
X0050660Y0046581D01*
X0050927Y0046498D01*
X0050927Y0046498D01*
X0050954Y0046490D01*
X0051236Y0046485D01*
X0051490Y0046480D01*
X0051490Y0046480D01*
X0051518Y0046480D01*
X0051545Y0046487D01*
X0051545Y0046487D01*
X0051962Y0046601D01*
X0052063Y0046628D01*
X0052249Y0046742D01*
X0052483Y0046799D01*
X0052706Y0046707D01*
X0052751Y0046661D01*
X0052763Y0046647D01*
X0052895Y0046490D01*
X0052895Y0046490D01*
X0052913Y0046469D01*
X0052936Y0046453D01*
X0052936Y0046453D01*
X0052954Y0046441D01*
X0053383Y0046156D01*
X0053663Y0046068D01*
X0053895Y0045996D01*
X0053895Y0045996D01*
X0053922Y0045988D01*
X0054204Y0045982D01*
X0054458Y0045978D01*
X0054458Y0045978D01*
X0054486Y0045977D01*
X0054513Y0045985D01*
X0054513Y0045985D01*
X0054828Y0046070D01*
X0055031Y0046126D01*
X0055512Y0046421D01*
X0055541Y0046453D01*
X0055872Y0046819D01*
X0055890Y0046839D01*
X0056136Y0047347D01*
X0056142Y0047382D01*
X0056228Y0047889D01*
X0056228Y0047889D01*
X0056230Y0047904D01*
X0056230Y0047920D01*
X0056230Y0047938D01*
X0056231Y0047953D01*
X0056151Y0048511D01*
X0055997Y0048850D01*
X0055929Y0049000D01*
X0055929Y0049000D01*
X0055917Y0049025D01*
X0055549Y0049453D01*
X0055075Y0049760D01*
X0054534Y0049922D01*
X0054206Y0049924D01*
X0053998Y0049925D01*
X0053998Y0049925D01*
X0053970Y0049925D01*
X0053943Y0049917D01*
X0053943Y0049917D01*
X0053454Y0049778D01*
X0053454Y0049778D01*
X0053427Y0049770D01*
X0053404Y0049755D01*
X0053404Y0049755D01*
X0053266Y0049668D01*
X0053033Y0049609D01*
X0052809Y0049698D01*
X0052763Y0049744D01*
X0052762Y0049745D01*
X0052652Y0049872D01*
X0052599Y0049934D01*
X0052599Y0049934D01*
X0052581Y0049955D01*
X0052107Y0050262D01*
X0051566Y0050424D01*
X0051236Y0050426D01*
X0051029Y0050427D01*
X0051029Y0050427D01*
X0051002Y0050427D01*
X0050975Y0050420D01*
X0050975Y0050420D01*
X0050486Y0050280D01*
X0050486Y0050280D01*
X0050459Y0050272D01*
X0049982Y0049971D01*
X0049963Y0049950D01*
X0049963Y0049950D01*
X0049626Y0049569D01*
X0049626Y0049569D01*
X0049608Y0049548D01*
X0049368Y0049037D01*
X0049364Y0049010D01*
X0049364Y0049010D01*
X0049324Y0048755D01*
X0049281Y0048479D01*
X0024087Y0048479D01*
X0024037Y0048827D01*
X0023837Y0049267D01*
X0023815Y0049315D01*
X0023815Y0049315D01*
X0023804Y0049341D01*
X0023517Y0049674D01*
X0023453Y0049747D01*
X0023453Y0049747D01*
X0023435Y0049768D01*
X0022961Y0050075D01*
X0022421Y0050237D01*
X0022093Y0050239D01*
X0021884Y0050240D01*
X0021884Y0050240D01*
X0021856Y0050241D01*
X0021830Y0050233D01*
X0021830Y0050233D01*
X0021340Y0050093D01*
X0021340Y0050093D01*
X0021314Y0050085D01*
X0020836Y0049784D01*
X0020818Y0049763D01*
X0020818Y0049763D01*
X0020481Y0049382D01*
X0020481Y0049382D01*
X0020463Y0049361D01*
X0020451Y0049336D01*
X0020451Y0049336D01*
X0020441Y0049315D01*
X0020223Y0048850D01*
X0020218Y0048823D01*
X0020218Y0048823D01*
X0020174Y0048537D01*
X0020136Y0048293D01*
X0015634Y0048293D01*
X0015587Y0048306D01*
X0015260Y0048308D01*
X0015051Y0048310D01*
X0015051Y0048310D01*
X0015023Y0048310D01*
X0014996Y0048302D01*
X0014996Y0048302D01*
X0014507Y0048162D01*
X0014507Y0048162D01*
X0014480Y0048155D01*
X0014003Y0047854D01*
X0013985Y0047833D01*
X0013985Y0047833D01*
X0013648Y0047451D01*
X0013648Y0047451D01*
X0013629Y0047430D01*
X0013389Y0046920D01*
X0013385Y0046892D01*
X0013385Y0046892D01*
X0013334Y0046566D01*
X0013303Y0046362D01*
X0008804Y0046362D01*
X0008648Y0046566D01*
X0008627Y0046581D01*
X0008627Y0046581D01*
X0008500Y0046679D01*
X0008363Y0046878D01*
X0008370Y0047119D01*
X0008500Y0047298D01*
X0008627Y0047396D01*
X0008627Y0047396D01*
X0008648Y0047411D01*
X0008995Y0047864D01*
X0009214Y0048391D01*
X0009225Y0048479D01*
X0009285Y0048932D01*
X0009288Y0048957D01*
X0009235Y0049361D01*
X0009217Y0049498D01*
X0009217Y0049498D01*
X0009214Y0049523D01*
X0008995Y0050050D01*
X0008691Y0050447D01*
X0008663Y0050483D01*
X0008648Y0050503D01*
X0008627Y0050518D01*
X0008627Y0050519D01*
X0008500Y0050616D01*
X0008363Y0050815D01*
X0008370Y0051056D01*
X0008500Y0051235D01*
X0008627Y0051333D01*
X0008627Y0051333D01*
X0008648Y0051348D01*
X0008783Y0051525D01*
X0061610Y0051525D01*
X0061613Y0051498D01*
X0061613Y0051498D01*
X0061664Y0051108D01*
X0061683Y0050965D01*
X0061694Y0050940D01*
X0061694Y0050940D01*
X0061895Y0050483D01*
X0061910Y0050449D01*
X0062060Y0050270D01*
X0062255Y0050038D01*
X0062255Y0050038D01*
X0062273Y0050017D01*
X0062296Y0050001D01*
X0062296Y0050001D01*
X0062373Y0049950D01*
X0062743Y0049704D01*
X0063110Y0049589D01*
X0063255Y0049544D01*
X0063255Y0049544D01*
X0063282Y0049536D01*
X0063564Y0049531D01*
X0063819Y0049526D01*
X0063819Y0049526D01*
X0063846Y0049525D01*
X0063873Y0049533D01*
X0063873Y0049533D01*
X0064290Y0049646D01*
X0064391Y0049674D01*
X0064682Y0049852D01*
X0067824Y0049852D01*
X0067828Y0049825D01*
X0067828Y0049825D01*
X0067860Y0049580D01*
X0067898Y0049293D01*
X0067909Y0049267D01*
X0067909Y0049267D01*
X0068104Y0048823D01*
X0068125Y0048776D01*
X0068176Y0048715D01*
X0068470Y0048365D01*
X0068470Y0048365D01*
X0068488Y0048344D01*
X0068511Y0048329D01*
X0068511Y0048329D01*
X0068579Y0048283D01*
X0068958Y0048031D01*
X0069317Y0047919D01*
X0069470Y0047871D01*
X0069470Y0047871D01*
X0069497Y0047863D01*
X0069779Y0047858D01*
X0070033Y0047853D01*
X0070033Y0047853D01*
X0070061Y0047853D01*
X0070088Y0047860D01*
X0070088Y0047860D01*
X0070483Y0047968D01*
X0070606Y0048001D01*
X0071087Y0048296D01*
X0071116Y0048329D01*
X0071447Y0048694D01*
X0071465Y0048715D01*
X0071711Y0049223D01*
X0071728Y0049320D01*
X0071803Y0049765D01*
X0071803Y0049765D01*
X0071805Y0049779D01*
X0071806Y0049828D01*
X0071726Y0050387D01*
X0071492Y0050901D01*
X0071124Y0051328D01*
X0070650Y0051635D01*
X0070109Y0051797D01*
X0069781Y0051799D01*
X0069573Y0051800D01*
X0069573Y0051800D01*
X0069545Y0051800D01*
X0069518Y0051793D01*
X0069518Y0051793D01*
X0069029Y0051653D01*
X0069029Y0051653D01*
X0069002Y0051645D01*
X0068525Y0051344D01*
X0068506Y0051323D01*
X0068506Y0051323D01*
X0068169Y0050942D01*
X0068169Y0050942D01*
X0068151Y0050921D01*
X0068139Y0050896D01*
X0068139Y0050896D01*
X0068133Y0050883D01*
X0067911Y0050410D01*
X0067907Y0050383D01*
X0067907Y0050383D01*
X0067865Y0050113D01*
X0067824Y0049852D01*
X0064682Y0049852D01*
X0064872Y0049969D01*
X0064901Y0050001D01*
X0065232Y0050367D01*
X0065251Y0050388D01*
X0065479Y0050858D01*
X0065485Y0050871D01*
X0065497Y0050896D01*
X0065513Y0050993D01*
X0065588Y0051437D01*
X0065588Y0051437D01*
X0065590Y0051452D01*
X0065591Y0051501D01*
X0065511Y0052060D01*
X0065277Y0052573D01*
X0065259Y0052594D01*
X0065259Y0052594D01*
X0065165Y0052704D01*
X0065072Y0052926D01*
X0065127Y0053160D01*
X0065171Y0053219D01*
X0065313Y0053376D01*
X0065332Y0053397D01*
X0065578Y0053905D01*
X0065594Y0054002D01*
X0065669Y0054446D01*
X0065669Y0054446D01*
X0065672Y0054461D01*
X0065672Y0054510D01*
X0065592Y0055069D01*
X0065491Y0055291D01*
X0065370Y0055557D01*
X0065370Y0055557D01*
X0065359Y0055582D01*
X0064990Y0056010D01*
X0064517Y0056317D01*
X0063976Y0056479D01*
X0063648Y0056481D01*
X0063439Y0056482D01*
X0063439Y0056482D01*
X0063411Y0056482D01*
X0063385Y0056475D01*
X0063385Y0056475D01*
X0062895Y0056335D01*
X0062895Y0056335D01*
X0062869Y0056327D01*
X0062391Y0056026D01*
X0062373Y0056005D01*
X0062373Y0056005D01*
X0062036Y0055624D01*
X0062036Y0055624D01*
X0062018Y0055603D01*
X0061778Y0055092D01*
X0061774Y0055065D01*
X0061774Y0055065D01*
X0061717Y0054705D01*
X0061691Y0054534D01*
X0061695Y0054507D01*
X0061695Y0054507D01*
X0061699Y0054475D01*
X0061764Y0053975D01*
X0061775Y0053949D01*
X0061775Y0053949D01*
X0061971Y0053505D01*
X0061991Y0053458D01*
X0062009Y0053437D01*
X0062009Y0053437D01*
X0062121Y0053304D01*
X0062211Y0053081D01*
X0062153Y0052847D01*
X0062114Y0052795D01*
X0062084Y0052760D01*
X0061936Y0052594D01*
X0061696Y0052083D01*
X0061692Y0052055D01*
X0061692Y0052055D01*
X0061649Y0051781D01*
X0061610Y0051525D01*
X0008783Y0051525D01*
X0008995Y0051801D01*
X0009214Y0052328D01*
X0009288Y0052894D01*
X0009253Y0053160D01*
X0009217Y0053435D01*
X0009217Y0053435D01*
X0009214Y0053460D01*
X0008995Y0053987D01*
X0008648Y0054440D01*
X0008195Y0054787D01*
X0007668Y0055006D01*
X0007642Y0055009D01*
X0007642Y0055009D01*
X0007127Y0055077D01*
X0007102Y0055080D01*
X0007077Y0055077D01*
X0006562Y0055009D01*
X0006562Y0055009D01*
X0006536Y0055006D01*
X0006502Y0054991D01*
X0006230Y0054879D01*
X0005990Y0054860D01*
X0005785Y0054986D01*
X0005693Y0055209D01*
X0005691Y0055239D01*
X0005691Y0055290D01*
X0010098Y0055290D01*
X0010102Y0055262D01*
X0010102Y0055262D01*
X0010143Y0054944D01*
X0010171Y0054730D01*
X0010182Y0054705D01*
X0010182Y0054705D01*
X0010272Y0054501D01*
X0010399Y0054214D01*
X0010450Y0054152D01*
X0010744Y0053803D01*
X0010744Y0053803D01*
X0010762Y0053781D01*
X0010785Y0053766D01*
X0010785Y0053766D01*
X0010860Y0053716D01*
X0011232Y0053469D01*
X0011628Y0053345D01*
X0011744Y0053309D01*
X0011744Y0053309D01*
X0011770Y0053300D01*
X0012053Y0053295D01*
X0012307Y0053291D01*
X0012307Y0053291D01*
X0012335Y0053290D01*
X0012361Y0053297D01*
X0012361Y0053297D01*
X0012818Y0053422D01*
X0012879Y0053438D01*
X0013360Y0053734D01*
X0013389Y0053766D01*
X0013720Y0054132D01*
X0013739Y0054152D01*
X0013966Y0054620D01*
X0013973Y0054635D01*
X0013985Y0054660D01*
X0014002Y0054758D01*
X0014076Y0055202D01*
X0014076Y0055202D01*
X0014079Y0055217D01*
X0014079Y0055265D01*
X0013999Y0055824D01*
X0013766Y0056338D01*
X0013397Y0056766D01*
X0012924Y0057073D01*
X0012383Y0057234D01*
X0012055Y0057236D01*
X0011846Y0057238D01*
X0011846Y0057238D01*
X0011818Y0057238D01*
X0011792Y0057230D01*
X0011792Y0057230D01*
X0011302Y0057090D01*
X0011302Y0057090D01*
X0011276Y0057083D01*
X0010798Y0056782D01*
X0010780Y0056761D01*
X0010780Y0056761D01*
X0010443Y0056379D01*
X0010443Y0056379D01*
X0010425Y0056358D01*
X0010185Y0055848D01*
X0010181Y0055820D01*
X0010181Y0055820D01*
X0010143Y0055578D01*
X0010098Y0055290D01*
X0005691Y0055290D01*
X0005691Y0058802D01*
X0005766Y0059031D01*
X0005961Y0059172D01*
X0006081Y0059191D01*
X0071931Y0059191D01*
X0072160Y0059117D01*
G37*
M02*
