G75*
G70*
%OFA0B0*%
%FSLAX25Y25*%
%IPPOS*%
%LPD*%
%AMOC8*
5,1,8,0,0,1.08239X$1,22.5*
%
%ADD40R,0.05709X0.01772*%
%ADD41R,0.04803X0.02559*%
X0000000Y0000000D02*
%LPD*%
G01*
X0004902Y0004469D02*
%LPD*%
G01*
G36*
G01*
X0084607Y0011828D02*
X0084607Y0013186D01*
G75*
G02*
X0085187Y0013767I0000581J0000000D01*
G01*
X0086349Y0013767D01*
G75*
G02*
X0086930Y0013186I0000000J-000581D01*
G01*
X0086930Y0011828D01*
G75*
G02*
X0086349Y0011247I-000581J0000000D01*
G01*
X0085187Y0011247D01*
G75*
G02*
X0084607Y0011828I0000000J0000581D01*
G01*
G37*
G36*
G01*
X0088426Y0011828D02*
X0088426Y0013186D01*
G75*
G02*
X0089006Y0013767I0000581J0000000D01*
G01*
X0090168Y0013767D01*
G75*
G02*
X0090748Y0013186I0000000J-000581D01*
G01*
X0090748Y0011828D01*
G75*
G02*
X0090168Y0011247I-000581J0000000D01*
G01*
X0089006Y0011247D01*
G75*
G02*
X0088426Y0011828I0000000J0000581D01*
G01*
G37*
G36*
G01*
X0099075Y0027117D02*
X0099075Y0028475D01*
G75*
G02*
X0099656Y0029056I0000581J0000000D01*
G01*
X0100817Y0029056D01*
G75*
G02*
X0101398Y0028475I0000000J-000581D01*
G01*
X0101398Y0027117D01*
G75*
G02*
X0100817Y0026536I-000581J0000000D01*
G01*
X0099656Y0026536D01*
G75*
G02*
X0099075Y0027117I0000000J0000581D01*
G01*
G37*
G36*
G01*
X0102894Y0027117D02*
X0102894Y0028475D01*
G75*
G02*
X0103475Y0029056I0000581J0000000D01*
G01*
X0104636Y0029056D01*
G75*
G02*
X0105217Y0028475I0000000J-000581D01*
G01*
X0105217Y0027117D01*
G75*
G02*
X0104636Y0026536I-000581J0000000D01*
G01*
X0103475Y0026536D01*
G75*
G02*
X0102894Y0027117I0000000J0000581D01*
G01*
G37*
G36*
G01*
X0049193Y0053313D02*
X0049193Y0051295D01*
G75*
G02*
X0048332Y0050434I-000861J0000000D01*
G01*
X0046610Y0050434D01*
G75*
G02*
X0045748Y0051295I0000000J0000861D01*
G01*
X0045748Y0053313D01*
G75*
G02*
X0046610Y0054174I0000861J0000000D01*
G01*
X0048332Y0054174D01*
G75*
G02*
X0049193Y0053313I0000000J-000861D01*
G01*
G37*
G36*
G01*
X0042993Y0053313D02*
X0042993Y0051295D01*
G75*
G02*
X0042131Y0050434I-000861J0000000D01*
G01*
X0040409Y0050434D01*
G75*
G02*
X0039548Y0051295I0000000J0000861D01*
G01*
X0039548Y0053313D01*
G75*
G02*
X0040409Y0054174I0000861J0000000D01*
G01*
X0042131Y0054174D01*
G75*
G02*
X0042993Y0053313I0000000J-000861D01*
G01*
G37*
G36*
G01*
X0090748Y0008987D02*
X0090748Y0007628D01*
G75*
G02*
X0090168Y0007048I-000581J0000000D01*
G01*
X0089006Y0007048D01*
G75*
G02*
X0088426Y0007628I0000000J0000581D01*
G01*
X0088426Y0008987D01*
G75*
G02*
X0089006Y0009567I0000581J0000000D01*
G01*
X0090168Y0009567D01*
G75*
G02*
X0090748Y0008987I0000000J-000581D01*
G01*
G37*
G36*
G01*
X0086930Y0008987D02*
X0086930Y0007628D01*
G75*
G02*
X0086349Y0007048I-000581J0000000D01*
G01*
X0085187Y0007048D01*
G75*
G02*
X0084607Y0007628I0000000J0000581D01*
G01*
X0084607Y0008987D01*
G75*
G02*
X0085187Y0009567I0000581J0000000D01*
G01*
X0086349Y0009567D01*
G75*
G02*
X0086930Y0008987I0000000J-000581D01*
G01*
G37*
G36*
G01*
X0031047Y0047983D02*
X0031047Y0049341D01*
G75*
G02*
X0031627Y0049922I0000581J0000000D01*
G01*
X0032789Y0049922D01*
G75*
G02*
X0033369Y0049341I0000000J-000581D01*
G01*
X0033369Y0047983D01*
G75*
G02*
X0032789Y0047402I-000581J0000000D01*
G01*
X0031627Y0047402D01*
G75*
G02*
X0031047Y0047983I0000000J0000581D01*
G01*
G37*
G36*
G01*
X0034865Y0047983D02*
X0034865Y0049341D01*
G75*
G02*
X0035446Y0049922I0000581J0000000D01*
G01*
X0036608Y0049922D01*
G75*
G02*
X0037188Y0049341I0000000J-000581D01*
G01*
X0037188Y0047983D01*
G75*
G02*
X0036608Y0047402I-000581J0000000D01*
G01*
X0035446Y0047402D01*
G75*
G02*
X0034865Y0047983I0000000J0000581D01*
G01*
G37*
G36*
G01*
X0039134Y0046113D02*
X0039134Y0047471D01*
G75*
G02*
X0039715Y0048052I0000581J0000000D01*
G01*
X0040876Y0048052D01*
G75*
G02*
X0041457Y0047471I0000000J-000581D01*
G01*
X0041457Y0046113D01*
G75*
G02*
X0040876Y0045532I-000581J0000000D01*
G01*
X0039715Y0045532D01*
G75*
G02*
X0039134Y0046113I0000000J0000581D01*
G01*
G37*
G36*
G01*
X0042953Y0046113D02*
X0042953Y0047471D01*
G75*
G02*
X0043534Y0048052I0000581J0000000D01*
G01*
X0044695Y0048052D01*
G75*
G02*
X0045276Y0047471I0000000J-000581D01*
G01*
X0045276Y0046113D01*
G75*
G02*
X0044695Y0045532I-000581J0000000D01*
G01*
X0043534Y0045532D01*
G75*
G02*
X0042953Y0046113I0000000J0000581D01*
G01*
G37*
G36*
G01*
X0010522Y0053445D02*
X0011880Y0053445D01*
G75*
G02*
X0012461Y0052865I0000000J-000581D01*
G01*
X0012461Y0051703D01*
G75*
G02*
X0011880Y0051123I-000581J0000000D01*
G01*
X0010522Y0051123D01*
G75*
G02*
X0009941Y0051703I0000000J0000581D01*
G01*
X0009941Y0052865D01*
G75*
G02*
X0010522Y0053445I0000581J0000000D01*
G01*
G37*
G36*
G01*
X0010522Y0049626D02*
X0011880Y0049626D01*
G75*
G02*
X0012461Y0049046I0000000J-000581D01*
G01*
X0012461Y0047884D01*
G75*
G02*
X0011880Y0047304I-000581J0000000D01*
G01*
X0010522Y0047304D01*
G75*
G02*
X0009941Y0047884I0000000J0000581D01*
G01*
X0009941Y0049046D01*
G75*
G02*
X0010522Y0049626I0000581J0000000D01*
G01*
G37*
G36*
G01*
X0060040Y0035857D02*
X0060040Y0034499D01*
G75*
G02*
X0059459Y0033918I-000581J0000000D01*
G01*
X0058298Y0033918D01*
G75*
G02*
X0057717Y0034499I0000000J0000581D01*
G01*
X0057717Y0035857D01*
G75*
G02*
X0058298Y0036438I0000581J0000000D01*
G01*
X0059459Y0036438D01*
G75*
G02*
X0060040Y0035857I0000000J-000581D01*
G01*
G37*
G36*
G01*
X0056221Y0035857D02*
X0056221Y0034499D01*
G75*
G02*
X0055640Y0033918I-000581J0000000D01*
G01*
X0054479Y0033918D01*
G75*
G02*
X0053898Y0034499I0000000J0000581D01*
G01*
X0053898Y0035857D01*
G75*
G02*
X0054479Y0036438I0000581J0000000D01*
G01*
X0055640Y0036438D01*
G75*
G02*
X0056221Y0035857I0000000J-000581D01*
G01*
G37*
G36*
G01*
X0053898Y0030562D02*
X0053898Y0031920D01*
G75*
G02*
X0054479Y0032500I0000581J0000000D01*
G01*
X0055640Y0032500D01*
G75*
G02*
X0056221Y0031920I0000000J-000581D01*
G01*
X0056221Y0030562D01*
G75*
G02*
X0055640Y0029981I-000581J0000000D01*
G01*
X0054479Y0029981D01*
G75*
G02*
X0053898Y0030562I0000000J0000581D01*
G01*
G37*
G36*
G01*
X0057717Y0030562D02*
X0057717Y0031920D01*
G75*
G02*
X0058298Y0032500I0000581J0000000D01*
G01*
X0059459Y0032500D01*
G75*
G02*
X0060040Y0031920I0000000J-000581D01*
G01*
X0060040Y0030562D01*
G75*
G02*
X0059459Y0029981I-000581J0000000D01*
G01*
X0058298Y0029981D01*
G75*
G02*
X0057717Y0030562I0000000J0000581D01*
G01*
G37*
G36*
G01*
X0101378Y0033002D02*
X0101378Y0031644D01*
G75*
G02*
X0100798Y0031063I-000581J0000000D01*
G01*
X0099636Y0031063D01*
G75*
G02*
X0099056Y0031644I0000000J0000581D01*
G01*
X0099056Y0033002D01*
G75*
G02*
X0099636Y0033583I0000581J0000000D01*
G01*
X0100798Y0033583D01*
G75*
G02*
X0101378Y0033002I0000000J-000581D01*
G01*
G37*
G36*
G01*
X0097559Y0033002D02*
X0097559Y0031644D01*
G75*
G02*
X0096979Y0031063I-000581J0000000D01*
G01*
X0095817Y0031063D01*
G75*
G02*
X0095237Y0031644I0000000J0000581D01*
G01*
X0095237Y0033002D01*
G75*
G02*
X0095817Y0033583I0000581J0000000D01*
G01*
X0096979Y0033583D01*
G75*
G02*
X0097559Y0033002I0000000J-000581D01*
G01*
G37*
D40*
X0047028Y0009587D03*
X0047028Y0012146D03*
X0047028Y0014705D03*
X0047028Y0017264D03*
X0047028Y0019823D03*
X0047028Y0022382D03*
X0047028Y0024941D03*
X0070256Y0024941D03*
X0070256Y0022382D03*
X0070256Y0019823D03*
X0070256Y0017264D03*
X0070256Y0014705D03*
X0070256Y0012146D03*
X0070256Y0009587D03*
G36*
G01*
X0037205Y0053081D02*
X0037205Y0051723D01*
G75*
G02*
X0036624Y0051142I-000581J0000000D01*
G01*
X0035463Y0051142D01*
G75*
G02*
X0034882Y0051723I0000000J0000581D01*
G01*
X0034882Y0053081D01*
G75*
G02*
X0035463Y0053662I0000581J0000000D01*
G01*
X0036624Y0053662D01*
G75*
G02*
X0037205Y0053081I0000000J-000581D01*
G01*
G37*
G36*
G01*
X0033386Y0053081D02*
X0033386Y0051723D01*
G75*
G02*
X0032806Y0051142I-000581J0000000D01*
G01*
X0031644Y0051142D01*
G75*
G02*
X0031063Y0051723I0000000J0000581D01*
G01*
X0031063Y0053081D01*
G75*
G02*
X0031644Y0053662I0000581J0000000D01*
G01*
X0032806Y0053662D01*
G75*
G02*
X0033386Y0053081I0000000J-000581D01*
G01*
G37*
G36*
G01*
X0031063Y0055463D02*
X0031063Y0056821D01*
G75*
G02*
X0031644Y0057402I0000581J0000000D01*
G01*
X0032806Y0057402D01*
G75*
G02*
X0033386Y0056821I0000000J-000581D01*
G01*
X0033386Y0055463D01*
G75*
G02*
X0032806Y0054882I-000581J0000000D01*
G01*
X0031644Y0054882D01*
G75*
G02*
X0031063Y0055463I0000000J0000581D01*
G01*
G37*
G36*
G01*
X0034882Y0055463D02*
X0034882Y0056821D01*
G75*
G02*
X0035463Y0057402I0000581J0000000D01*
G01*
X0036624Y0057402D01*
G75*
G02*
X0037205Y0056821I0000000J-000581D01*
G01*
X0037205Y0055463D01*
G75*
G02*
X0036624Y0054882I-000581J0000000D01*
G01*
X0035463Y0054882D01*
G75*
G02*
X0034882Y0055463I0000000J0000581D01*
G01*
G37*
G36*
G01*
X0091300Y0046014D02*
X0091300Y0047373D01*
G75*
G02*
X0091880Y0047953I0000581J0000000D01*
G01*
X0093042Y0047953D01*
G75*
G02*
X0093622Y0047373I0000000J-000581D01*
G01*
X0093622Y0046014D01*
G75*
G02*
X0093042Y0045434I-000581J0000000D01*
G01*
X0091880Y0045434D01*
G75*
G02*
X0091300Y0046014I0000000J0000581D01*
G01*
G37*
G36*
G01*
X0095119Y0046014D02*
X0095119Y0047373D01*
G75*
G02*
X0095699Y0047953I0000581J0000000D01*
G01*
X0096861Y0047953D01*
G75*
G02*
X0097441Y0047373I0000000J-000581D01*
G01*
X0097441Y0046014D01*
G75*
G02*
X0096861Y0045434I-000581J0000000D01*
G01*
X0095699Y0045434D01*
G75*
G02*
X0095119Y0046014I0000000J0000581D01*
G01*
G37*
G36*
G01*
X0084607Y0016716D02*
X0084607Y0018075D01*
G75*
G02*
X0085187Y0018655I0000581J0000000D01*
G01*
X0086349Y0018655D01*
G75*
G02*
X0086930Y0018075I0000000J-000581D01*
G01*
X0086930Y0016716D01*
G75*
G02*
X0086349Y0016136I-000581J0000000D01*
G01*
X0085187Y0016136D01*
G75*
G02*
X0084607Y0016716I0000000J0000581D01*
G01*
G37*
G36*
G01*
X0088426Y0016716D02*
X0088426Y0018075D01*
G75*
G02*
X0089006Y0018655I0000581J0000000D01*
G01*
X0090168Y0018655D01*
G75*
G02*
X0090748Y0018075I0000000J-000581D01*
G01*
X0090748Y0016716D01*
G75*
G02*
X0090168Y0016136I-000581J0000000D01*
G01*
X0089006Y0016136D01*
G75*
G02*
X0088426Y0016716I0000000J0000581D01*
G01*
G37*
G36*
G01*
X0056792Y0039794D02*
X0056792Y0038436D01*
G75*
G02*
X0056211Y0037855I-000581J0000000D01*
G01*
X0055050Y0037855D01*
G75*
G02*
X0054469Y0038436I0000000J0000581D01*
G01*
X0054469Y0039794D01*
G75*
G02*
X0055050Y0040375I0000581J0000000D01*
G01*
X0056211Y0040375D01*
G75*
G02*
X0056792Y0039794I0000000J-000581D01*
G01*
G37*
G36*
G01*
X0052973Y0039794D02*
X0052973Y0038436D01*
G75*
G02*
X0052392Y0037855I-000581J0000000D01*
G01*
X0051231Y0037855D01*
G75*
G02*
X0050650Y0038436I0000000J0000581D01*
G01*
X0050650Y0039794D01*
G75*
G02*
X0051231Y0040375I0000581J0000000D01*
G01*
X0052392Y0040375D01*
G75*
G02*
X0052973Y0039794I0000000J-000581D01*
G01*
G37*
G36*
G01*
X0105119Y0047373D02*
X0105119Y0046014D01*
G75*
G02*
X0104538Y0045434I-000581J0000000D01*
G01*
X0103376Y0045434D01*
G75*
G02*
X0102796Y0046014I0000000J0000581D01*
G01*
X0102796Y0047373D01*
G75*
G02*
X0103376Y0047953I0000581J0000000D01*
G01*
X0104538Y0047953D01*
G75*
G02*
X0105119Y0047373I0000000J-000581D01*
G01*
G37*
G36*
G01*
X0101300Y0047373D02*
X0101300Y0046014D01*
G75*
G02*
X0100719Y0045434I-000581J0000000D01*
G01*
X0099558Y0045434D01*
G75*
G02*
X0098977Y0046014I0000000J0000581D01*
G01*
X0098977Y0047373D01*
G75*
G02*
X0099558Y0047953I0000581J0000000D01*
G01*
X0100719Y0047953D01*
G75*
G02*
X0101300Y0047373I0000000J-000581D01*
G01*
G37*
G36*
G01*
X0052658Y0031920D02*
X0052658Y0030562D01*
G75*
G02*
X0052077Y0029981I-000581J0000000D01*
G01*
X0050916Y0029981D01*
G75*
G02*
X0050335Y0030562I0000000J0000581D01*
G01*
X0050335Y0031920D01*
G75*
G02*
X0050916Y0032500I0000581J0000000D01*
G01*
X0052077Y0032500D01*
G75*
G02*
X0052658Y0031920I0000000J-000581D01*
G01*
G37*
G36*
G01*
X0048839Y0031920D02*
X0048839Y0030562D01*
G75*
G02*
X0048258Y0029981I-000581J0000000D01*
G01*
X0047097Y0029981D01*
G75*
G02*
X0046516Y0030562I0000000J0000581D01*
G01*
X0046516Y0031920D01*
G75*
G02*
X0047097Y0032500I0000581J0000000D01*
G01*
X0048258Y0032500D01*
G75*
G02*
X0048839Y0031920I0000000J-000581D01*
G01*
G37*
G36*
G01*
X0041408Y0007304D02*
X0040050Y0007304D01*
G75*
G02*
X0039469Y0007884I0000000J0000581D01*
G01*
X0039469Y0009046D01*
G75*
G02*
X0040050Y0009626I0000581J0000000D01*
G01*
X0041408Y0009626D01*
G75*
G02*
X0041989Y0009046I0000000J-000581D01*
G01*
X0041989Y0007884D01*
G75*
G02*
X0041408Y0007304I-000581J0000000D01*
G01*
G37*
G36*
G01*
X0041408Y0011123D02*
X0040050Y0011123D01*
G75*
G02*
X0039469Y0011703I0000000J0000581D01*
G01*
X0039469Y0012865D01*
G75*
G02*
X0040050Y0013445I0000581J0000000D01*
G01*
X0041408Y0013445D01*
G75*
G02*
X0041989Y0012865I0000000J-000581D01*
G01*
X0041989Y0011703D01*
G75*
G02*
X0041408Y0011123I-000581J0000000D01*
G01*
G37*
G36*
G01*
X0067520Y0035857D02*
X0067520Y0034499D01*
G75*
G02*
X0066939Y0033918I-000581J0000000D01*
G01*
X0065778Y0033918D01*
G75*
G02*
X0065197Y0034499I0000000J0000581D01*
G01*
X0065197Y0035857D01*
G75*
G02*
X0065778Y0036438I0000581J0000000D01*
G01*
X0066939Y0036438D01*
G75*
G02*
X0067520Y0035857I0000000J-000581D01*
G01*
G37*
G36*
G01*
X0063701Y0035857D02*
X0063701Y0034499D01*
G75*
G02*
X0063121Y0033918I-000581J0000000D01*
G01*
X0061959Y0033918D01*
G75*
G02*
X0061378Y0034499I0000000J0000581D01*
G01*
X0061378Y0035857D01*
G75*
G02*
X0061959Y0036438I0000581J0000000D01*
G01*
X0063121Y0036438D01*
G75*
G02*
X0063701Y0035857I0000000J-000581D01*
G01*
G37*
G36*
G01*
X0068859Y0034499D02*
X0068859Y0035857D01*
G75*
G02*
X0069439Y0036438I0000581J0000000D01*
G01*
X0070601Y0036438D01*
G75*
G02*
X0071182Y0035857I0000000J-000581D01*
G01*
X0071182Y0034499D01*
G75*
G02*
X0070601Y0033918I-000581J0000000D01*
G01*
X0069439Y0033918D01*
G75*
G02*
X0068859Y0034499I0000000J0000581D01*
G01*
G37*
G36*
G01*
X0072678Y0034499D02*
X0072678Y0035857D01*
G75*
G02*
X0073258Y0036438I0000581J0000000D01*
G01*
X0074420Y0036438D01*
G75*
G02*
X0075000Y0035857I0000000J-000581D01*
G01*
X0075000Y0034499D01*
G75*
G02*
X0074420Y0033918I-000581J0000000D01*
G01*
X0073258Y0033918D01*
G75*
G02*
X0072678Y0034499I0000000J0000581D01*
G01*
G37*
G36*
G01*
X0037668Y0007304D02*
X0036309Y0007304D01*
G75*
G02*
X0035729Y0007884I0000000J0000581D01*
G01*
X0035729Y0009046D01*
G75*
G02*
X0036309Y0009626I0000581J0000000D01*
G01*
X0037668Y0009626D01*
G75*
G02*
X0038248Y0009046I0000000J-000581D01*
G01*
X0038248Y0007884D01*
G75*
G02*
X0037668Y0007304I-000581J0000000D01*
G01*
G37*
G36*
G01*
X0037668Y0011123D02*
X0036309Y0011123D01*
G75*
G02*
X0035729Y0011703I0000000J0000581D01*
G01*
X0035729Y0012865D01*
G75*
G02*
X0036309Y0013445I0000581J0000000D01*
G01*
X0037668Y0013445D01*
G75*
G02*
X0038248Y0012865I0000000J-000581D01*
G01*
X0038248Y0011703D01*
G75*
G02*
X0037668Y0011123I-000581J0000000D01*
G01*
G37*
D41*
X0026989Y0056142D03*
X0026989Y0052402D03*
X0026989Y0048662D03*
X0016674Y0048662D03*
X0016674Y0056142D03*
G36*
G01*
X0061477Y0038436D02*
X0061477Y0039794D01*
G75*
G02*
X0062058Y0040375I0000581J0000000D01*
G01*
X0063219Y0040375D01*
G75*
G02*
X0063800Y0039794I0000000J-000581D01*
G01*
X0063800Y0038436D01*
G75*
G02*
X0063219Y0037855I-000581J0000000D01*
G01*
X0062058Y0037855D01*
G75*
G02*
X0061477Y0038436I0000000J0000581D01*
G01*
G37*
G36*
G01*
X0065296Y0038436D02*
X0065296Y0039794D01*
G75*
G02*
X0065876Y0040375I0000581J0000000D01*
G01*
X0067038Y0040375D01*
G75*
G02*
X0067619Y0039794I0000000J-000581D01*
G01*
X0067619Y0038436D01*
G75*
G02*
X0067038Y0037855I-000581J0000000D01*
G01*
X0065876Y0037855D01*
G75*
G02*
X0065296Y0038436I0000000J0000581D01*
G01*
G37*
G36*
G01*
X0048888Y0042540D02*
X0047530Y0042540D01*
G75*
G02*
X0046949Y0043121I0000000J0000581D01*
G01*
X0046949Y0044282D01*
G75*
G02*
X0047530Y0044863I0000581J0000000D01*
G01*
X0048888Y0044863D01*
G75*
G02*
X0049469Y0044282I0000000J-000581D01*
G01*
X0049469Y0043121D01*
G75*
G02*
X0048888Y0042540I-000581J0000000D01*
G01*
G37*
G36*
G01*
X0048888Y0046359D02*
X0047530Y0046359D01*
G75*
G02*
X0046949Y0046939I0000000J0000581D01*
G01*
X0046949Y0048101D01*
G75*
G02*
X0047530Y0048682I0000581J0000000D01*
G01*
X0048888Y0048682D01*
G75*
G02*
X0049469Y0048101I0000000J-000581D01*
G01*
X0049469Y0046939D01*
G75*
G02*
X0048888Y0046359I-000581J0000000D01*
G01*
G37*
G36*
G01*
X0040050Y0022107D02*
X0041408Y0022107D01*
G75*
G02*
X0041989Y0021526I0000000J-000581D01*
G01*
X0041989Y0020365D01*
G75*
G02*
X0041408Y0019784I-000581J0000000D01*
G01*
X0040050Y0019784D01*
G75*
G02*
X0039469Y0020365I0000000J0000581D01*
G01*
X0039469Y0021526D01*
G75*
G02*
X0040050Y0022107I0000581J0000000D01*
G01*
G37*
G36*
G01*
X0040050Y0018288D02*
X0041408Y0018288D01*
G75*
G02*
X0041989Y0017707I0000000J-000581D01*
G01*
X0041989Y0016546D01*
G75*
G02*
X0041408Y0015965I-000581J0000000D01*
G01*
X0040050Y0015965D01*
G75*
G02*
X0039469Y0016546I0000000J0000581D01*
G01*
X0039469Y0017707D01*
G75*
G02*
X0040050Y0018288I0000581J0000000D01*
G01*
G37*
G36*
G01*
X0083170Y0023062D02*
X0083170Y0021703D01*
G75*
G02*
X0082589Y0021123I-000581J0000000D01*
G01*
X0081428Y0021123D01*
G75*
G02*
X0080847Y0021703I0000000J0000581D01*
G01*
X0080847Y0023062D01*
G75*
G02*
X0081428Y0023642I0000581J0000000D01*
G01*
X0082589Y0023642D01*
G75*
G02*
X0083170Y0023062I0000000J-000581D01*
G01*
G37*
G36*
G01*
X0079351Y0023062D02*
X0079351Y0021703D01*
G75*
G02*
X0078770Y0021123I-000581J0000000D01*
G01*
X0077609Y0021123D01*
G75*
G02*
X0077028Y0021703I0000000J0000581D01*
G01*
X0077028Y0023062D01*
G75*
G02*
X0077609Y0023642I0000581J0000000D01*
G01*
X0078770Y0023642D01*
G75*
G02*
X0079351Y0023062I0000000J-000581D01*
G01*
G37*
G36*
G01*
X0090748Y0023062D02*
X0090748Y0021703D01*
G75*
G02*
X0090168Y0021123I-000581J0000000D01*
G01*
X0089006Y0021123D01*
G75*
G02*
X0088426Y0021703I0000000J0000581D01*
G01*
X0088426Y0023062D01*
G75*
G02*
X0089006Y0023642I0000581J0000000D01*
G01*
X0090168Y0023642D01*
G75*
G02*
X0090748Y0023062I0000000J-000581D01*
G01*
G37*
G36*
G01*
X0086930Y0023062D02*
X0086930Y0021703D01*
G75*
G02*
X0086349Y0021123I-000581J0000000D01*
G01*
X0085187Y0021123D01*
G75*
G02*
X0084607Y0021703I0000000J0000581D01*
G01*
X0084607Y0023062D01*
G75*
G02*
X0085187Y0023642I0000581J0000000D01*
G01*
X0086349Y0023642D01*
G75*
G02*
X0086930Y0023062I0000000J-000581D01*
G01*
G37*
G36*
G01*
X0036309Y0022107D02*
X0037668Y0022107D01*
G75*
G02*
X0038248Y0021526I0000000J-000581D01*
G01*
X0038248Y0020365D01*
G75*
G02*
X0037668Y0019784I-000581J0000000D01*
G01*
X0036309Y0019784D01*
G75*
G02*
X0035729Y0020365I0000000J0000581D01*
G01*
X0035729Y0021526D01*
G75*
G02*
X0036309Y0022107I0000581J0000000D01*
G01*
G37*
G36*
G01*
X0036309Y0018288D02*
X0037668Y0018288D01*
G75*
G02*
X0038248Y0017707I0000000J-000581D01*
G01*
X0038248Y0016546D01*
G75*
G02*
X0037668Y0015965I-000581J0000000D01*
G01*
X0036309Y0015965D01*
G75*
G02*
X0035729Y0016546I0000000J0000581D01*
G01*
X0035729Y0017707D01*
G75*
G02*
X0036309Y0018288I0000581J0000000D01*
G01*
G37*
G36*
G01*
X0070670Y0031920D02*
X0070670Y0030562D01*
G75*
G02*
X0070089Y0029981I-000581J0000000D01*
G01*
X0068928Y0029981D01*
G75*
G02*
X0068347Y0030562I0000000J0000581D01*
G01*
X0068347Y0031920D01*
G75*
G02*
X0068928Y0032500I0000581J0000000D01*
G01*
X0070089Y0032500D01*
G75*
G02*
X0070670Y0031920I0000000J-000581D01*
G01*
G37*
G36*
G01*
X0066851Y0031920D02*
X0066851Y0030562D01*
G75*
G02*
X0066270Y0029981I-000581J0000000D01*
G01*
X0065109Y0029981D01*
G75*
G02*
X0064528Y0030562I0000000J0000581D01*
G01*
X0064528Y0031920D01*
G75*
G02*
X0065109Y0032500I0000581J0000000D01*
G01*
X0066270Y0032500D01*
G75*
G02*
X0066851Y0031920I0000000J-000581D01*
G01*
G37*
G36*
G01*
X0032569Y0022107D02*
X0033928Y0022107D01*
G75*
G02*
X0034508Y0021526I0000000J-000581D01*
G01*
X0034508Y0020365D01*
G75*
G02*
X0033928Y0019784I-000581J0000000D01*
G01*
X0032569Y0019784D01*
G75*
G02*
X0031989Y0020365I0000000J0000581D01*
G01*
X0031989Y0021526D01*
G75*
G02*
X0032569Y0022107I0000581J0000000D01*
G01*
G37*
G36*
G01*
X0032569Y0018288D02*
X0033928Y0018288D01*
G75*
G02*
X0034508Y0017707I0000000J-000581D01*
G01*
X0034508Y0016546D01*
G75*
G02*
X0033928Y0015965I-000581J0000000D01*
G01*
X0032569Y0015965D01*
G75*
G02*
X0031989Y0016546I0000000J0000581D01*
G01*
X0031989Y0017707D01*
G75*
G02*
X0032569Y0018288I0000581J0000000D01*
G01*
G37*
G36*
G01*
X0032569Y0013445D02*
X0033928Y0013445D01*
G75*
G02*
X0034508Y0012865I0000000J-000581D01*
G01*
X0034508Y0011703D01*
G75*
G02*
X0033928Y0011123I-000581J0000000D01*
G01*
X0032569Y0011123D01*
G75*
G02*
X0031989Y0011703I0000000J0000581D01*
G01*
X0031989Y0012865D01*
G75*
G02*
X0032569Y0013445I0000581J0000000D01*
G01*
G37*
G36*
G01*
X0032569Y0009626D02*
X0033928Y0009626D01*
G75*
G02*
X0034508Y0009046I0000000J-000581D01*
G01*
X0034508Y0007884D01*
G75*
G02*
X0033928Y0007304I-000581J0000000D01*
G01*
X0032569Y0007304D01*
G75*
G02*
X0031989Y0007884I0000000J0000581D01*
G01*
X0031989Y0009046D01*
G75*
G02*
X0032569Y0009626I0000581J0000000D01*
G01*
G37*
G36*
G01*
X0017756Y0019252D02*
X0017756Y0020591D01*
G75*
G02*
X0018307Y0021142I0000551J0000000D01*
G01*
X0019410Y0021142D01*
G75*
G02*
X0019961Y0020591I0000000J-000551D01*
G01*
X0019961Y0019252D01*
G75*
G02*
X0019410Y0018701I-000551J0000000D01*
G01*
X0018307Y0018701D01*
G75*
G02*
X0017756Y0019252I0000000J0000551D01*
G01*
G37*
G36*
G01*
X0021536Y0019252D02*
X0021536Y0020591D01*
G75*
G02*
X0022087Y0021142I0000551J0000000D01*
G01*
X0023189Y0021142D01*
G75*
G02*
X0023740Y0020591I0000000J-000551D01*
G01*
X0023740Y0019252D01*
G75*
G02*
X0023189Y0018701I-000551J0000000D01*
G01*
X0022087Y0018701D01*
G75*
G02*
X0021536Y0019252I0000000J0000551D01*
G01*
G37*
G36*
G01*
X0072697Y0045512D02*
X0072697Y0044056D01*
G75*
G02*
X0072166Y0043524I-000531J0000000D01*
G01*
X0071103Y0043524D01*
G75*
G02*
X0070571Y0044056I0000000J0000531D01*
G01*
X0070571Y0045512D01*
G75*
G02*
X0071103Y0046044I0000531J0000000D01*
G01*
X0072166Y0046044D01*
G75*
G02*
X0072697Y0045512I0000000J-000531D01*
G01*
G37*
G36*
G01*
X0068682Y0045512D02*
X0068682Y0044056D01*
G75*
G02*
X0068150Y0043524I-000531J0000000D01*
G01*
X0067087Y0043524D01*
G75*
G02*
X0066556Y0044056I0000000J0000531D01*
G01*
X0066556Y0045512D01*
G75*
G02*
X0067087Y0046044I0000531J0000000D01*
G01*
X0068150Y0046044D01*
G75*
G02*
X0068682Y0045512I0000000J-000531D01*
G01*
G37*
G36*
G01*
X0011969Y0030979D02*
X0010512Y0030979D01*
G75*
G02*
X0009981Y0031511I0000000J0000531D01*
G01*
X0009981Y0032574D01*
G75*
G02*
X0010512Y0033105I0000531J0000000D01*
G01*
X0011969Y0033105D01*
G75*
G02*
X0012500Y0032574I0000000J-000531D01*
G01*
X0012500Y0031511D01*
G75*
G02*
X0011969Y0030979I-000531J0000000D01*
G01*
G37*
G36*
G01*
X0011969Y0034995D02*
X0010512Y0034995D01*
G75*
G02*
X0009981Y0035527I0000000J0000531D01*
G01*
X0009981Y0036590D01*
G75*
G02*
X0010512Y0037121I0000531J0000000D01*
G01*
X0011969Y0037121D01*
G75*
G02*
X0012500Y0036590I0000000J-000531D01*
G01*
X0012500Y0035527D01*
G75*
G02*
X0011969Y0034995I-000531J0000000D01*
G01*
G37*
G36*
G01*
X0012579Y0007028D02*
X0012579Y0008209D01*
G75*
G02*
X0013170Y0008800I0000591J0000000D01*
G01*
X0017796Y0008800D01*
G75*
G02*
X0018386Y0008209I0000000J-000591D01*
G01*
X0018386Y0007028D01*
G75*
G02*
X0017796Y0006438I-000591J0000000D01*
G01*
X0013170Y0006438D01*
G75*
G02*
X0012579Y0007028I0000000J0000591D01*
G01*
G37*
G36*
G01*
X0012579Y0014508D02*
X0012579Y0015689D01*
G75*
G02*
X0013170Y0016280I0000591J0000000D01*
G01*
X0017796Y0016280D01*
G75*
G02*
X0018386Y0015689I0000000J-000591D01*
G01*
X0018386Y0014508D01*
G75*
G02*
X0017796Y0013918I-000591J0000000D01*
G01*
X0013170Y0013918D01*
G75*
G02*
X0012579Y0014508I0000000J0000591D01*
G01*
G37*
G36*
G01*
X0019961Y0010768D02*
X0019961Y0011949D01*
G75*
G02*
X0020552Y0012540I0000591J0000000D01*
G01*
X0025178Y0012540D01*
G75*
G02*
X0025768Y0011949I0000000J-000591D01*
G01*
X0025768Y0010768D01*
G75*
G02*
X0025178Y0010178I-000591J0000000D01*
G01*
X0020552Y0010178D01*
G75*
G02*
X0019961Y0010768I0000000J0000591D01*
G01*
G37*
G36*
G01*
X0010532Y0044960D02*
X0011871Y0044960D01*
G75*
G02*
X0012422Y0044408I0000000J-000551D01*
G01*
X0012422Y0043306D01*
G75*
G02*
X0011871Y0042755I-000551J0000000D01*
G01*
X0010532Y0042755D01*
G75*
G02*
X0009981Y0043306I0000000J0000551D01*
G01*
X0009981Y0044408D01*
G75*
G02*
X0010532Y0044960I0000551J0000000D01*
G01*
G37*
G36*
G01*
X0010532Y0041180D02*
X0011871Y0041180D01*
G75*
G02*
X0012422Y0040629I0000000J-000551D01*
G01*
X0012422Y0039527D01*
G75*
G02*
X0011871Y0038975I-000551J0000000D01*
G01*
X0010532Y0038975D01*
G75*
G02*
X0009981Y0039527I0000000J0000551D01*
G01*
X0009981Y0040629D01*
G75*
G02*
X0010532Y0041180I0000551J0000000D01*
G01*
G37*
G36*
G01*
X0041319Y0041889D02*
X0041319Y0040708D01*
G75*
G02*
X0040729Y0040117I-000591J0000000D01*
G01*
X0035020Y0040117D01*
G75*
G02*
X0034430Y0040708I0000000J0000591D01*
G01*
X0034430Y0041889D01*
G75*
G02*
X0035020Y0042479I0000591J0000000D01*
G01*
X0040729Y0042479D01*
G75*
G02*
X0041319Y0041889I0000000J-000591D01*
G01*
G37*
G36*
G01*
X0041319Y0036889D02*
X0041319Y0035708D01*
G75*
G02*
X0040729Y0035117I-000591J0000000D01*
G01*
X0035020Y0035117D01*
G75*
G02*
X0034430Y0035708I0000000J0000591D01*
G01*
X0034430Y0036889D01*
G75*
G02*
X0035020Y0037479I0000591J0000000D01*
G01*
X0040729Y0037479D01*
G75*
G02*
X0041319Y0036889I0000000J-000591D01*
G01*
G37*
G36*
G01*
X0041319Y0031889D02*
X0041319Y0030708D01*
G75*
G02*
X0040729Y0030117I-000591J0000000D01*
G01*
X0035020Y0030117D01*
G75*
G02*
X0034430Y0030708I0000000J0000591D01*
G01*
X0034430Y0031889D01*
G75*
G02*
X0035020Y0032479I0000591J0000000D01*
G01*
X0040729Y0032479D01*
G75*
G02*
X0041319Y0031889I0000000J-000591D01*
G01*
G37*
G36*
G01*
X0041319Y0026889D02*
X0041319Y0025708D01*
G75*
G02*
X0040729Y0025117I-000591J0000000D01*
G01*
X0035020Y0025117D01*
G75*
G02*
X0034430Y0025708I0000000J0000591D01*
G01*
X0034430Y0026889D01*
G75*
G02*
X0035020Y0027479I0000591J0000000D01*
G01*
X0040729Y0027479D01*
G75*
G02*
X0041319Y0026889I0000000J-000591D01*
G01*
G37*
G36*
G01*
X0021044Y0026889D02*
X0021044Y0025708D01*
G75*
G02*
X0020453Y0025117I-000591J0000000D01*
G01*
X0014745Y0025117D01*
G75*
G02*
X0014154Y0025708I0000000J0000591D01*
G01*
X0014154Y0026889D01*
G75*
G02*
X0014745Y0027479I0000591J0000000D01*
G01*
X0020453Y0027479D01*
G75*
G02*
X0021044Y0026889I0000000J-000591D01*
G01*
G37*
G36*
G01*
X0021044Y0031889D02*
X0021044Y0030708D01*
G75*
G02*
X0020453Y0030117I-000591J0000000D01*
G01*
X0014745Y0030117D01*
G75*
G02*
X0014154Y0030708I0000000J0000591D01*
G01*
X0014154Y0031889D01*
G75*
G02*
X0014745Y0032479I0000591J0000000D01*
G01*
X0020453Y0032479D01*
G75*
G02*
X0021044Y0031889I0000000J-000591D01*
G01*
G37*
G36*
G01*
X0021044Y0036889D02*
X0021044Y0035708D01*
G75*
G02*
X0020453Y0035117I-000591J0000000D01*
G01*
X0014745Y0035117D01*
G75*
G02*
X0014154Y0035708I0000000J0000591D01*
G01*
X0014154Y0036889D01*
G75*
G02*
X0014745Y0037479I0000591J0000000D01*
G01*
X0020453Y0037479D01*
G75*
G02*
X0021044Y0036889I0000000J-000591D01*
G01*
G37*
G36*
G01*
X0021044Y0041889D02*
X0021044Y0040708D01*
G75*
G02*
X0020453Y0040117I-000591J0000000D01*
G01*
X0014745Y0040117D01*
G75*
G02*
X0014154Y0040708I0000000J0000591D01*
G01*
X0014154Y0041889D01*
G75*
G02*
X0014745Y0042479I0000591J0000000D01*
G01*
X0020453Y0042479D01*
G75*
G02*
X0021044Y0041889I0000000J-000591D01*
G01*
G37*
M02*
