G75*
G70*
%OFA0B0*%
%FSLAX25Y25*%
%IPPOS*%
%LPD*%
%AMOC8*
5,1,8,0,0,1.08239X$1,22.5*
%
%ADD10C,0.02756*%
%ADD11C,0.11811*%
%ADD12R,0.00984X0.11811*%
%ADD13R,0.00984X0.04331*%
%ADD14R,0.00984X0.03858*%
%ADD15R,0.00984X0.05709*%
%ADD16R,1.08661X0.00984*%
%ADD17R,0.00984X0.07677*%
%ADD18R,0.00984X0.03740*%
%ADD23R,0.03543X0.03150*%
%ADD24R,0.04724X0.08661*%
%ADD25C,0.05118*%
%ADD26R,0.22835X0.25197*%
%ADD27R,0.03150X0.03543*%
%ADD28C,0.03100*%
%ADD29R,0.07500X0.07874*%
%ADD30O,0.07500X0.07874*%
%ADD31C,0.02362*%
%ADD32C,0.01969*%
%ADD33C,0.00984*%
%ADD34C,0.00800*%
%ADD35C,0.07874*%
X0000000Y0000000D02*
%LPD*%
G01*
D10*
X0111791Y0011674D03*
X0111791Y0023485D03*
X0111791Y0019548D03*
X0111791Y0015611D03*
D11*
X0106870Y0031949D03*
D12*
X0113268Y0045729D03*
D13*
X0005591Y0058327D03*
D14*
X0005591Y0041240D03*
X0005591Y0028248D03*
D15*
X0005591Y0008229D03*
D16*
X0059429Y0060000D03*
X0059429Y0005866D03*
D17*
X0113268Y0056654D03*
D18*
X0113268Y0007244D03*
G36*
G01*
X0042697Y0055965D02*
X0042697Y0051044D01*
G75*
G02*
X0042205Y0050552I-000492J0000000D01*
G01*
X0041220Y0050552D01*
G75*
G02*
X0040728Y0051044I0000000J0000492D01*
G01*
X0040728Y0055965D01*
G75*
G02*
X0041220Y0056457I0000492J0000000D01*
G01*
X0042205Y0056457D01*
G75*
G02*
X0042697Y0055965I0000000J-000492D01*
G01*
G37*
G36*
G01*
X0036102Y0045433D02*
X0036102Y0044449D01*
G75*
G02*
X0035610Y0043957I-000492J0000000D01*
G01*
X0030689Y0043957D01*
G75*
G02*
X0030197Y0044449I0000000J0000492D01*
G01*
X0030197Y0045433D01*
G75*
G02*
X0030689Y0045926I0000492J0000000D01*
G01*
X0035610Y0045926D01*
G75*
G02*
X0036102Y0045433I0000000J-000492D01*
G01*
G37*
G36*
G01*
X0039547Y0055965D02*
X0039547Y0051044D01*
G75*
G02*
X0039055Y0050552I-000492J0000000D01*
G01*
X0038071Y0050552D01*
G75*
G02*
X0037579Y0051044I0000000J0000492D01*
G01*
X0037579Y0055965D01*
G75*
G02*
X0038071Y0056457I0000492J0000000D01*
G01*
X0039055Y0056457D01*
G75*
G02*
X0039547Y0055965I0000000J-000492D01*
G01*
G37*
G36*
G01*
X0038268Y0045926D02*
X0039252Y0045926D01*
G75*
G02*
X0039744Y0045433I0000000J-000492D01*
G01*
X0039744Y0044449D01*
G75*
G02*
X0039252Y0043957I-000492J0000000D01*
G01*
X0038268Y0043957D01*
G75*
G02*
X0037776Y0044449I0000000J0000492D01*
G01*
X0037776Y0045433D01*
G75*
G02*
X0038268Y0045926I0000492J0000000D01*
G01*
G37*
G36*
G01*
X0042697Y0048583D02*
X0042697Y0047599D01*
G75*
G02*
X0042205Y0047107I-000492J0000000D01*
G01*
X0041220Y0047107D01*
G75*
G02*
X0040728Y0047599I0000000J0000492D01*
G01*
X0040728Y0048583D01*
G75*
G02*
X0041220Y0049075I0000492J0000000D01*
G01*
X0042205Y0049075D01*
G75*
G02*
X0042697Y0048583I0000000J-000492D01*
G01*
G37*
G36*
G01*
X0036102Y0048583D02*
X0036102Y0047599D01*
G75*
G02*
X0035610Y0047107I-000492J0000000D01*
G01*
X0030689Y0047107D01*
G75*
G02*
X0030197Y0047599I0000000J0000492D01*
G01*
X0030197Y0048583D01*
G75*
G02*
X0030689Y0049075I0000492J0000000D01*
G01*
X0035610Y0049075D01*
G75*
G02*
X0036102Y0048583I0000000J-000492D01*
G01*
G37*
D10*
X0007102Y0049666D03*
X0007102Y0045729D03*
X0007102Y0032752D03*
X0007102Y0036752D03*
G36*
G01*
X0005098Y0024863D02*
X0005098Y0024863D01*
G75*
G02*
X0005591Y0025355I0000492J0000000D01*
G01*
X0006575Y0025355D01*
G75*
G02*
X0007067Y0024863I0000000J-000492D01*
G01*
X0007067Y0024863D01*
G75*
G02*
X0006575Y0024370I-000492J0000000D01*
G01*
X0005591Y0024370D01*
G75*
G02*
X0005098Y0024863I0000000J0000492D01*
G01*
G37*
G36*
G01*
X0005098Y0022894D02*
X0005098Y0022894D01*
G75*
G02*
X0005591Y0023386I0000492J0000000D01*
G01*
X0006575Y0023386D01*
G75*
G02*
X0007067Y0022894I0000000J-000492D01*
G01*
X0007067Y0022894D01*
G75*
G02*
X0006575Y0022402I-000492J0000000D01*
G01*
X0005591Y0022402D01*
G75*
G02*
X0005098Y0022894I0000000J0000492D01*
G01*
G37*
G36*
G01*
X0005098Y0020926D02*
X0005098Y0020926D01*
G75*
G02*
X0005591Y0021418I0000492J0000000D01*
G01*
X0006575Y0021418D01*
G75*
G02*
X0007067Y0020926I0000000J-000492D01*
G01*
X0007067Y0020926D01*
G75*
G02*
X0006575Y0020433I-000492J0000000D01*
G01*
X0005591Y0020433D01*
G75*
G02*
X0005098Y0020926I0000000J0000492D01*
G01*
G37*
G36*
G01*
X0005098Y0012658D02*
X0005098Y0012658D01*
G75*
G02*
X0005591Y0013150I0000492J0000000D01*
G01*
X0006575Y0013150D01*
G75*
G02*
X0007067Y0012658I0000000J-000492D01*
G01*
X0007067Y0012658D01*
G75*
G02*
X0006575Y0012166I-000492J0000000D01*
G01*
X0005591Y0012166D01*
G75*
G02*
X0005098Y0012658I0000000J0000492D01*
G01*
G37*
X0007102Y0053603D03*
X0004902Y0004469D02*
%LPD*%
G01*
G36*
G01*
X0072510Y0040178D02*
X0071152Y0040178D01*
G75*
G02*
X0070571Y0040758I0000000J0000581D01*
G01*
X0070571Y0041920D01*
G75*
G02*
X0071152Y0042500I0000581J0000000D01*
G01*
X0072510Y0042500D01*
G75*
G02*
X0073091Y0041920I0000000J-000581D01*
G01*
X0073091Y0040758D01*
G75*
G02*
X0072510Y0040178I-000581J0000000D01*
G01*
G37*
G36*
G01*
X0072510Y0043997D02*
X0071152Y0043997D01*
G75*
G02*
X0070571Y0044577I0000000J0000581D01*
G01*
X0070571Y0045739D01*
G75*
G02*
X0071152Y0046319I0000581J0000000D01*
G01*
X0072510Y0046319D01*
G75*
G02*
X0073091Y0045739I0000000J-000581D01*
G01*
X0073091Y0044577D01*
G75*
G02*
X0072510Y0043997I-000581J0000000D01*
G01*
G37*
G36*
G01*
X0013937Y0024754D02*
X0013937Y0026113D01*
G75*
G02*
X0014518Y0026693I0000581J0000000D01*
G01*
X0015680Y0026693D01*
G75*
G02*
X0016260Y0026113I0000000J-000581D01*
G01*
X0016260Y0024754D01*
G75*
G02*
X0015680Y0024174I-000581J0000000D01*
G01*
X0014518Y0024174D01*
G75*
G02*
X0013937Y0024754I0000000J0000581D01*
G01*
G37*
G36*
G01*
X0017756Y0024754D02*
X0017756Y0026113D01*
G75*
G02*
X0018337Y0026693I0000581J0000000D01*
G01*
X0019498Y0026693D01*
G75*
G02*
X0020079Y0026113I0000000J-000581D01*
G01*
X0020079Y0024754D01*
G75*
G02*
X0019498Y0024174I-000581J0000000D01*
G01*
X0018337Y0024174D01*
G75*
G02*
X0017756Y0024754I0000000J0000581D01*
G01*
G37*
G36*
G01*
X0024464Y0039951D02*
X0026482Y0039951D01*
G75*
G02*
X0027343Y0039090I0000000J-000861D01*
G01*
X0027343Y0037368D01*
G75*
G02*
X0026482Y0036506I-000861J0000000D01*
G01*
X0024464Y0036506D01*
G75*
G02*
X0023603Y0037368I0000000J0000861D01*
G01*
X0023603Y0039090D01*
G75*
G02*
X0024464Y0039951I0000861J0000000D01*
G01*
G37*
G36*
G01*
X0024464Y0033750D02*
X0026482Y0033750D01*
G75*
G02*
X0027343Y0032889I0000000J-000861D01*
G01*
X0027343Y0031167D01*
G75*
G02*
X0026482Y0030306I-000861J0000000D01*
G01*
X0024464Y0030306D01*
G75*
G02*
X0023603Y0031167I0000000J0000861D01*
G01*
X0023603Y0032889D01*
G75*
G02*
X0024464Y0033750I0000861J0000000D01*
G01*
G37*
G36*
G01*
X0070955Y0014922D02*
X0072313Y0014922D01*
G75*
G02*
X0072894Y0014341I0000000J-000581D01*
G01*
X0072894Y0013180D01*
G75*
G02*
X0072313Y0012599I-000581J0000000D01*
G01*
X0070955Y0012599D01*
G75*
G02*
X0070374Y0013180I0000000J0000581D01*
G01*
X0070374Y0014341D01*
G75*
G02*
X0070955Y0014922I0000581J0000000D01*
G01*
G37*
G36*
G01*
X0070955Y0011103D02*
X0072313Y0011103D01*
G75*
G02*
X0072894Y0010522I0000000J-000581D01*
G01*
X0072894Y0009361D01*
G75*
G02*
X0072313Y0008780I-000581J0000000D01*
G01*
X0070955Y0008780D01*
G75*
G02*
X0070374Y0009361I0000000J0000581D01*
G01*
X0070374Y0010522D01*
G75*
G02*
X0070955Y0011103I0000581J0000000D01*
G01*
G37*
D23*
X0019764Y0030749D03*
X0019764Y0038229D03*
X0011890Y0034489D03*
G36*
G01*
X0066772Y0014922D02*
X0068130Y0014922D01*
G75*
G02*
X0068711Y0014341I0000000J-000581D01*
G01*
X0068711Y0013180D01*
G75*
G02*
X0068130Y0012599I-000581J0000000D01*
G01*
X0066772Y0012599D01*
G75*
G02*
X0066191Y0013180I0000000J0000581D01*
G01*
X0066191Y0014341D01*
G75*
G02*
X0066772Y0014922I0000581J0000000D01*
G01*
G37*
G36*
G01*
X0066772Y0011103D02*
X0068130Y0011103D01*
G75*
G02*
X0068711Y0010522I0000000J-000581D01*
G01*
X0068711Y0009361D01*
G75*
G02*
X0068130Y0008780I-000581J0000000D01*
G01*
X0066772Y0008780D01*
G75*
G02*
X0066191Y0009361I0000000J0000581D01*
G01*
X0066191Y0010522D01*
G75*
G02*
X0066772Y0011103I0000581J0000000D01*
G01*
G37*
G36*
G01*
X0071152Y0038839D02*
X0072510Y0038839D01*
G75*
G02*
X0073091Y0038258I0000000J-000581D01*
G01*
X0073091Y0037097D01*
G75*
G02*
X0072510Y0036516I-000581J0000000D01*
G01*
X0071152Y0036516D01*
G75*
G02*
X0070571Y0037097I0000000J0000581D01*
G01*
X0070571Y0038258D01*
G75*
G02*
X0071152Y0038839I0000581J0000000D01*
G01*
G37*
G36*
G01*
X0071152Y0035020D02*
X0072510Y0035020D01*
G75*
G02*
X0073091Y0034439I0000000J-000581D01*
G01*
X0073091Y0033278D01*
G75*
G02*
X0072510Y0032697I-000581J0000000D01*
G01*
X0071152Y0032697D01*
G75*
G02*
X0070571Y0033278I0000000J0000581D01*
G01*
X0070571Y0034439D01*
G75*
G02*
X0071152Y0035020I0000581J0000000D01*
G01*
G37*
G36*
G01*
X0067392Y0051103D02*
X0066034Y0051103D01*
G75*
G02*
X0065453Y0051684I0000000J0000581D01*
G01*
X0065453Y0052845D01*
G75*
G02*
X0066034Y0053426I0000581J0000000D01*
G01*
X0067392Y0053426D01*
G75*
G02*
X0067973Y0052845I0000000J-000581D01*
G01*
X0067973Y0051684D01*
G75*
G02*
X0067392Y0051103I-000581J0000000D01*
G01*
G37*
G36*
G01*
X0067392Y0054922D02*
X0066034Y0054922D01*
G75*
G02*
X0065453Y0055502I0000000J0000581D01*
G01*
X0065453Y0056664D01*
G75*
G02*
X0066034Y0057245I0000581J0000000D01*
G01*
X0067392Y0057245D01*
G75*
G02*
X0067973Y0056664I0000000J-000581D01*
G01*
X0067973Y0055502D01*
G75*
G02*
X0067392Y0054922I-000581J0000000D01*
G01*
G37*
G36*
G01*
X0072510Y0024331D02*
X0071152Y0024331D01*
G75*
G02*
X0070571Y0024912I0000000J0000581D01*
G01*
X0070571Y0026073D01*
G75*
G02*
X0071152Y0026654I0000581J0000000D01*
G01*
X0072510Y0026654D01*
G75*
G02*
X0073091Y0026073I0000000J-000581D01*
G01*
X0073091Y0024912D01*
G75*
G02*
X0072510Y0024331I-000581J0000000D01*
G01*
G37*
G36*
G01*
X0072510Y0028150D02*
X0071152Y0028150D01*
G75*
G02*
X0070571Y0028731I0000000J0000581D01*
G01*
X0070571Y0029892D01*
G75*
G02*
X0071152Y0030473I0000581J0000000D01*
G01*
X0072510Y0030473D01*
G75*
G02*
X0073091Y0029892I0000000J-000581D01*
G01*
X0073091Y0028731D01*
G75*
G02*
X0072510Y0028150I-000581J0000000D01*
G01*
G37*
G36*
G01*
X0032746Y0051103D02*
X0031388Y0051103D01*
G75*
G02*
X0030808Y0051684I0000000J0000581D01*
G01*
X0030808Y0052845D01*
G75*
G02*
X0031388Y0053426I0000581J0000000D01*
G01*
X0032746Y0053426D01*
G75*
G02*
X0033327Y0052845I0000000J-000581D01*
G01*
X0033327Y0051684D01*
G75*
G02*
X0032746Y0051103I-000581J0000000D01*
G01*
G37*
G36*
G01*
X0032746Y0054922D02*
X0031388Y0054922D01*
G75*
G02*
X0030808Y0055502I0000000J0000581D01*
G01*
X0030808Y0056664D01*
G75*
G02*
X0031388Y0057245I0000581J0000000D01*
G01*
X0032746Y0057245D01*
G75*
G02*
X0033327Y0056664I0000000J-000581D01*
G01*
X0033327Y0055502D01*
G75*
G02*
X0032746Y0054922I-000581J0000000D01*
G01*
G37*
D24*
X0097185Y0044430D03*
D25*
X0096083Y0016083D03*
X0088209Y0027894D03*
X0080335Y0016083D03*
D26*
X0088209Y0019626D03*
D24*
X0079233Y0044430D03*
G36*
G01*
X0021713Y0024656D02*
X0021713Y0026014D01*
G75*
G02*
X0022294Y0026595I0000581J0000000D01*
G01*
X0023455Y0026595D01*
G75*
G02*
X0024036Y0026014I0000000J-000581D01*
G01*
X0024036Y0024656D01*
G75*
G02*
X0023455Y0024075I-000581J0000000D01*
G01*
X0022294Y0024075D01*
G75*
G02*
X0021713Y0024656I0000000J0000581D01*
G01*
G37*
G36*
G01*
X0025532Y0024656D02*
X0025532Y0026014D01*
G75*
G02*
X0026113Y0026595I0000581J0000000D01*
G01*
X0027274Y0026595D01*
G75*
G02*
X0027855Y0026014I0000000J-000581D01*
G01*
X0027855Y0024656D01*
G75*
G02*
X0027274Y0024075I-000581J0000000D01*
G01*
X0026113Y0024075D01*
G75*
G02*
X0025532Y0024656I0000000J0000581D01*
G01*
G37*
G36*
G01*
X0060217Y0010990D02*
X0060217Y0008972D01*
G75*
G02*
X0059356Y0008111I-000861J0000000D01*
G01*
X0057633Y0008111D01*
G75*
G02*
X0056772Y0008972I0000000J0000861D01*
G01*
X0056772Y0010990D01*
G75*
G02*
X0057633Y0011851I0000861J0000000D01*
G01*
X0059356Y0011851D01*
G75*
G02*
X0060217Y0010990I0000000J-000861D01*
G01*
G37*
G36*
G01*
X0054016Y0010990D02*
X0054016Y0008972D01*
G75*
G02*
X0053155Y0008111I-000861J0000000D01*
G01*
X0051433Y0008111D01*
G75*
G02*
X0050571Y0008972I0000000J0000861D01*
G01*
X0050571Y0010990D01*
G75*
G02*
X0051433Y0011851I0000861J0000000D01*
G01*
X0053155Y0011851D01*
G75*
G02*
X0054016Y0010990I0000000J-000861D01*
G01*
G37*
G36*
G01*
X0062589Y0014922D02*
X0063947Y0014922D01*
G75*
G02*
X0064528Y0014341I0000000J-000581D01*
G01*
X0064528Y0013180D01*
G75*
G02*
X0063947Y0012599I-000581J0000000D01*
G01*
X0062589Y0012599D01*
G75*
G02*
X0062008Y0013180I0000000J0000581D01*
G01*
X0062008Y0014341D01*
G75*
G02*
X0062589Y0014922I0000581J0000000D01*
G01*
G37*
G36*
G01*
X0062589Y0011103D02*
X0063947Y0011103D01*
G75*
G02*
X0064528Y0010522I0000000J-000581D01*
G01*
X0064528Y0009361D01*
G75*
G02*
X0063947Y0008780I-000581J0000000D01*
G01*
X0062589Y0008780D01*
G75*
G02*
X0062008Y0009361I0000000J0000581D01*
G01*
X0062008Y0010522D01*
G75*
G02*
X0062589Y0011103I0000581J0000000D01*
G01*
G37*
G36*
G01*
X0106698Y0010375D02*
X0104681Y0010375D01*
G75*
G02*
X0103819Y0011236I0000000J0000861D01*
G01*
X0103819Y0012958D01*
G75*
G02*
X0104681Y0013819I0000861J0000000D01*
G01*
X0106698Y0013819D01*
G75*
G02*
X0107559Y0012958I0000000J-000861D01*
G01*
X0107559Y0011236D01*
G75*
G02*
X0106698Y0010375I-000861J0000000D01*
G01*
G37*
G36*
G01*
X0106698Y0016575D02*
X0104681Y0016575D01*
G75*
G02*
X0103819Y0017437I0000000J0000861D01*
G01*
X0103819Y0019159D01*
G75*
G02*
X0104681Y0020020I0000861J0000000D01*
G01*
X0106698Y0020020D01*
G75*
G02*
X0107559Y0019159I0000000J-000861D01*
G01*
X0107559Y0017437D01*
G75*
G02*
X0106698Y0016575I-000861J0000000D01*
G01*
G37*
G36*
G01*
X0038859Y0008972D02*
X0038859Y0010990D01*
G75*
G02*
X0039720Y0011851I0000861J0000000D01*
G01*
X0041442Y0011851D01*
G75*
G02*
X0042304Y0010990I0000000J-000861D01*
G01*
X0042304Y0008972D01*
G75*
G02*
X0041442Y0008111I-000861J0000000D01*
G01*
X0039720Y0008111D01*
G75*
G02*
X0038859Y0008972I0000000J0000861D01*
G01*
G37*
G36*
G01*
X0045059Y0008972D02*
X0045059Y0010990D01*
G75*
G02*
X0045921Y0011851I0000861J0000000D01*
G01*
X0047643Y0011851D01*
G75*
G02*
X0048504Y0010990I0000000J-000861D01*
G01*
X0048504Y0008972D01*
G75*
G02*
X0047643Y0008111I-000861J0000000D01*
G01*
X0045921Y0008111D01*
G75*
G02*
X0045059Y0008972I0000000J0000861D01*
G01*
G37*
G36*
G01*
X0034538Y0013150D02*
X0035896Y0013150D01*
G75*
G02*
X0036477Y0012569I0000000J-000581D01*
G01*
X0036477Y0011408D01*
G75*
G02*
X0035896Y0010827I-000581J0000000D01*
G01*
X0034538Y0010827D01*
G75*
G02*
X0033957Y0011408I0000000J0000581D01*
G01*
X0033957Y0012569D01*
G75*
G02*
X0034538Y0013150I0000581J0000000D01*
G01*
G37*
G36*
G01*
X0034538Y0009331D02*
X0035896Y0009331D01*
G75*
G02*
X0036477Y0008750I0000000J-000581D01*
G01*
X0036477Y0007589D01*
G75*
G02*
X0035896Y0007008I-000581J0000000D01*
G01*
X0034538Y0007008D01*
G75*
G02*
X0033957Y0007589I0000000J0000581D01*
G01*
X0033957Y0008750D01*
G75*
G02*
X0034538Y0009331I0000581J0000000D01*
G01*
G37*
G36*
G01*
X0068977Y0025827D02*
X0068977Y0024843D01*
G75*
G02*
X0068485Y0024351I-000492J0000000D01*
G01*
X0063563Y0024351D01*
G75*
G02*
X0063071Y0024843I0000000J0000492D01*
G01*
X0063071Y0025827D01*
G75*
G02*
X0063563Y0026319I0000492J0000000D01*
G01*
X0068485Y0026319D01*
G75*
G02*
X0068977Y0025827I0000000J-000492D01*
G01*
G37*
G36*
G01*
X0068977Y0028977D02*
X0068977Y0027993D01*
G75*
G02*
X0068485Y0027500I-000492J0000000D01*
G01*
X0063563Y0027500D01*
G75*
G02*
X0063071Y0027993I0000000J0000492D01*
G01*
X0063071Y0028977D01*
G75*
G02*
X0063563Y0029469I0000492J0000000D01*
G01*
X0068485Y0029469D01*
G75*
G02*
X0068977Y0028977I0000000J-000492D01*
G01*
G37*
G36*
G01*
X0068977Y0032126D02*
X0068977Y0031142D01*
G75*
G02*
X0068485Y0030650I-000492J0000000D01*
G01*
X0063563Y0030650D01*
G75*
G02*
X0063071Y0031142I0000000J0000492D01*
G01*
X0063071Y0032126D01*
G75*
G02*
X0063563Y0032619I0000492J0000000D01*
G01*
X0068485Y0032619D01*
G75*
G02*
X0068977Y0032126I0000000J-000492D01*
G01*
G37*
G36*
G01*
X0068977Y0035276D02*
X0068977Y0034292D01*
G75*
G02*
X0068485Y0033800I-000492J0000000D01*
G01*
X0063563Y0033800D01*
G75*
G02*
X0063071Y0034292I0000000J0000492D01*
G01*
X0063071Y0035276D01*
G75*
G02*
X0063563Y0035768I0000492J0000000D01*
G01*
X0068485Y0035768D01*
G75*
G02*
X0068977Y0035276I0000000J-000492D01*
G01*
G37*
G36*
G01*
X0068977Y0038426D02*
X0068977Y0037441D01*
G75*
G02*
X0068485Y0036949I-000492J0000000D01*
G01*
X0063563Y0036949D01*
G75*
G02*
X0063071Y0037441I0000000J0000492D01*
G01*
X0063071Y0038426D01*
G75*
G02*
X0063563Y0038918I0000492J0000000D01*
G01*
X0068485Y0038918D01*
G75*
G02*
X0068977Y0038426I0000000J-000492D01*
G01*
G37*
G36*
G01*
X0068977Y0041575D02*
X0068977Y0040591D01*
G75*
G02*
X0068485Y0040099I-000492J0000000D01*
G01*
X0063563Y0040099D01*
G75*
G02*
X0063071Y0040591I0000000J0000492D01*
G01*
X0063071Y0041575D01*
G75*
G02*
X0063563Y0042067I0000492J0000000D01*
G01*
X0068485Y0042067D01*
G75*
G02*
X0068977Y0041575I0000000J-000492D01*
G01*
G37*
G36*
G01*
X0068977Y0044725D02*
X0068977Y0043741D01*
G75*
G02*
X0068485Y0043249I-000492J0000000D01*
G01*
X0063563Y0043249D01*
G75*
G02*
X0063071Y0043741I0000000J0000492D01*
G01*
X0063071Y0044725D01*
G75*
G02*
X0063563Y0045217I0000492J0000000D01*
G01*
X0068485Y0045217D01*
G75*
G02*
X0068977Y0044725I0000000J-000492D01*
G01*
G37*
G36*
G01*
X0068977Y0047875D02*
X0068977Y0046890D01*
G75*
G02*
X0068485Y0046398I-000492J0000000D01*
G01*
X0063563Y0046398D01*
G75*
G02*
X0063071Y0046890I0000000J0000492D01*
G01*
X0063071Y0047875D01*
G75*
G02*
X0063563Y0048367I0000492J0000000D01*
G01*
X0068485Y0048367D01*
G75*
G02*
X0068977Y0047875I0000000J-000492D01*
G01*
G37*
G36*
G01*
X0061595Y0055256D02*
X0061595Y0050335D01*
G75*
G02*
X0061103Y0049843I-000492J0000000D01*
G01*
X0060119Y0049843D01*
G75*
G02*
X0059626Y0050335I0000000J0000492D01*
G01*
X0059626Y0055256D01*
G75*
G02*
X0060119Y0055749I0000492J0000000D01*
G01*
X0061103Y0055749D01*
G75*
G02*
X0061595Y0055256I0000000J-000492D01*
G01*
G37*
G36*
G01*
X0058445Y0055256D02*
X0058445Y0050335D01*
G75*
G02*
X0057953Y0049843I-000492J0000000D01*
G01*
X0056969Y0049843D01*
G75*
G02*
X0056477Y0050335I0000000J0000492D01*
G01*
X0056477Y0055256D01*
G75*
G02*
X0056969Y0055749I0000492J0000000D01*
G01*
X0057953Y0055749D01*
G75*
G02*
X0058445Y0055256I0000000J-000492D01*
G01*
G37*
G36*
G01*
X0055296Y0055256D02*
X0055296Y0050335D01*
G75*
G02*
X0054804Y0049843I-000492J0000000D01*
G01*
X0053819Y0049843D01*
G75*
G02*
X0053327Y0050335I0000000J0000492D01*
G01*
X0053327Y0055256D01*
G75*
G02*
X0053819Y0055749I0000492J0000000D01*
G01*
X0054804Y0055749D01*
G75*
G02*
X0055296Y0055256I0000000J-000492D01*
G01*
G37*
G36*
G01*
X0052146Y0055256D02*
X0052146Y0050335D01*
G75*
G02*
X0051654Y0049843I-000492J0000000D01*
G01*
X0050670Y0049843D01*
G75*
G02*
X0050178Y0050335I0000000J0000492D01*
G01*
X0050178Y0055256D01*
G75*
G02*
X0050670Y0055749I0000492J0000000D01*
G01*
X0051654Y0055749D01*
G75*
G02*
X0052146Y0055256I0000000J-000492D01*
G01*
G37*
G36*
G01*
X0048996Y0055256D02*
X0048996Y0050335D01*
G75*
G02*
X0048504Y0049843I-000492J0000000D01*
G01*
X0047520Y0049843D01*
G75*
G02*
X0047028Y0050335I0000000J0000492D01*
G01*
X0047028Y0055256D01*
G75*
G02*
X0047520Y0055749I0000492J0000000D01*
G01*
X0048504Y0055749D01*
G75*
G02*
X0048996Y0055256I0000000J-000492D01*
G01*
G37*
G36*
G01*
X0045847Y0055256D02*
X0045847Y0050335D01*
G75*
G02*
X0045355Y0049843I-000492J0000000D01*
G01*
X0044371Y0049843D01*
G75*
G02*
X0043878Y0050335I0000000J0000492D01*
G01*
X0043878Y0055256D01*
G75*
G02*
X0044371Y0055749I0000492J0000000D01*
G01*
X0045355Y0055749D01*
G75*
G02*
X0045847Y0055256I0000000J-000492D01*
G01*
G37*
G36*
G01*
X0042697Y0055256D02*
X0042697Y0050335D01*
G75*
G02*
X0042205Y0049843I-000492J0000000D01*
G01*
X0041221Y0049843D01*
G75*
G02*
X0040729Y0050335I0000000J0000492D01*
G01*
X0040729Y0055256D01*
G75*
G02*
X0041221Y0055749I0000492J0000000D01*
G01*
X0042205Y0055749D01*
G75*
G02*
X0042697Y0055256I0000000J-000492D01*
G01*
G37*
G36*
G01*
X0039548Y0055256D02*
X0039548Y0050335D01*
G75*
G02*
X0039056Y0049843I-000492J0000000D01*
G01*
X0038071Y0049843D01*
G75*
G02*
X0037579Y0050335I0000000J0000492D01*
G01*
X0037579Y0055256D01*
G75*
G02*
X0038071Y0055749I0000492J0000000D01*
G01*
X0039056Y0055749D01*
G75*
G02*
X0039548Y0055256I0000000J-000492D01*
G01*
G37*
G36*
G01*
X0036103Y0047875D02*
X0036103Y0046890D01*
G75*
G02*
X0035611Y0046398I-000492J0000000D01*
G01*
X0030689Y0046398D01*
G75*
G02*
X0030197Y0046890I0000000J0000492D01*
G01*
X0030197Y0047875D01*
G75*
G02*
X0030689Y0048367I0000492J0000000D01*
G01*
X0035611Y0048367D01*
G75*
G02*
X0036103Y0047875I0000000J-000492D01*
G01*
G37*
G36*
G01*
X0036103Y0044725D02*
X0036103Y0043741D01*
G75*
G02*
X0035611Y0043249I-000492J0000000D01*
G01*
X0030689Y0043249D01*
G75*
G02*
X0030197Y0043741I0000000J0000492D01*
G01*
X0030197Y0044725D01*
G75*
G02*
X0030689Y0045217I0000492J0000000D01*
G01*
X0035611Y0045217D01*
G75*
G02*
X0036103Y0044725I0000000J-000492D01*
G01*
G37*
G36*
G01*
X0036103Y0041575D02*
X0036103Y0040591D01*
G75*
G02*
X0035611Y0040099I-000492J0000000D01*
G01*
X0030689Y0040099D01*
G75*
G02*
X0030197Y0040591I0000000J0000492D01*
G01*
X0030197Y0041575D01*
G75*
G02*
X0030689Y0042067I0000492J0000000D01*
G01*
X0035611Y0042067D01*
G75*
G02*
X0036103Y0041575I0000000J-000492D01*
G01*
G37*
G36*
G01*
X0036103Y0038426D02*
X0036103Y0037441D01*
G75*
G02*
X0035611Y0036949I-000492J0000000D01*
G01*
X0030689Y0036949D01*
G75*
G02*
X0030197Y0037441I0000000J0000492D01*
G01*
X0030197Y0038426D01*
G75*
G02*
X0030689Y0038918I0000492J0000000D01*
G01*
X0035611Y0038918D01*
G75*
G02*
X0036103Y0038426I0000000J-000492D01*
G01*
G37*
G36*
G01*
X0036103Y0035276D02*
X0036103Y0034292D01*
G75*
G02*
X0035611Y0033800I-000492J0000000D01*
G01*
X0030689Y0033800D01*
G75*
G02*
X0030197Y0034292I0000000J0000492D01*
G01*
X0030197Y0035276D01*
G75*
G02*
X0030689Y0035768I0000492J0000000D01*
G01*
X0035611Y0035768D01*
G75*
G02*
X0036103Y0035276I0000000J-000492D01*
G01*
G37*
G36*
G01*
X0036103Y0032126D02*
X0036103Y0031142D01*
G75*
G02*
X0035611Y0030650I-000492J0000000D01*
G01*
X0030689Y0030650D01*
G75*
G02*
X0030197Y0031142I0000000J0000492D01*
G01*
X0030197Y0032126D01*
G75*
G02*
X0030689Y0032619I0000492J0000000D01*
G01*
X0035611Y0032619D01*
G75*
G02*
X0036103Y0032126I0000000J-000492D01*
G01*
G37*
G36*
G01*
X0036103Y0028977D02*
X0036103Y0027993D01*
G75*
G02*
X0035611Y0027500I-000492J0000000D01*
G01*
X0030689Y0027500D01*
G75*
G02*
X0030197Y0027993I0000000J0000492D01*
G01*
X0030197Y0028977D01*
G75*
G02*
X0030689Y0029469I0000492J0000000D01*
G01*
X0035611Y0029469D01*
G75*
G02*
X0036103Y0028977I0000000J-000492D01*
G01*
G37*
G36*
G01*
X0036103Y0025827D02*
X0036103Y0024843D01*
G75*
G02*
X0035611Y0024351I-000492J0000000D01*
G01*
X0030689Y0024351D01*
G75*
G02*
X0030197Y0024843I0000000J0000492D01*
G01*
X0030197Y0025827D01*
G75*
G02*
X0030689Y0026319I0000492J0000000D01*
G01*
X0035611Y0026319D01*
G75*
G02*
X0036103Y0025827I0000000J-000492D01*
G01*
G37*
G36*
G01*
X0039548Y0022382D02*
X0039548Y0017461D01*
G75*
G02*
X0039056Y0016969I-000492J0000000D01*
G01*
X0038071Y0016969D01*
G75*
G02*
X0037579Y0017461I0000000J0000492D01*
G01*
X0037579Y0022382D01*
G75*
G02*
X0038071Y0022875I0000492J0000000D01*
G01*
X0039056Y0022875D01*
G75*
G02*
X0039548Y0022382I0000000J-000492D01*
G01*
G37*
G36*
G01*
X0042697Y0022382D02*
X0042697Y0017461D01*
G75*
G02*
X0042205Y0016969I-000492J0000000D01*
G01*
X0041221Y0016969D01*
G75*
G02*
X0040729Y0017461I0000000J0000492D01*
G01*
X0040729Y0022382D01*
G75*
G02*
X0041221Y0022875I0000492J0000000D01*
G01*
X0042205Y0022875D01*
G75*
G02*
X0042697Y0022382I0000000J-000492D01*
G01*
G37*
G36*
G01*
X0045847Y0022382D02*
X0045847Y0017461D01*
G75*
G02*
X0045355Y0016969I-000492J0000000D01*
G01*
X0044371Y0016969D01*
G75*
G02*
X0043878Y0017461I0000000J0000492D01*
G01*
X0043878Y0022382D01*
G75*
G02*
X0044371Y0022875I0000492J0000000D01*
G01*
X0045355Y0022875D01*
G75*
G02*
X0045847Y0022382I0000000J-000492D01*
G01*
G37*
G36*
G01*
X0048996Y0022382D02*
X0048996Y0017461D01*
G75*
G02*
X0048504Y0016969I-000492J0000000D01*
G01*
X0047520Y0016969D01*
G75*
G02*
X0047028Y0017461I0000000J0000492D01*
G01*
X0047028Y0022382D01*
G75*
G02*
X0047520Y0022875I0000492J0000000D01*
G01*
X0048504Y0022875D01*
G75*
G02*
X0048996Y0022382I0000000J-000492D01*
G01*
G37*
G36*
G01*
X0052146Y0022382D02*
X0052146Y0017461D01*
G75*
G02*
X0051654Y0016969I-000492J0000000D01*
G01*
X0050670Y0016969D01*
G75*
G02*
X0050178Y0017461I0000000J0000492D01*
G01*
X0050178Y0022382D01*
G75*
G02*
X0050670Y0022875I0000492J0000000D01*
G01*
X0051654Y0022875D01*
G75*
G02*
X0052146Y0022382I0000000J-000492D01*
G01*
G37*
G36*
G01*
X0055296Y0022382D02*
X0055296Y0017461D01*
G75*
G02*
X0054804Y0016969I-000492J0000000D01*
G01*
X0053819Y0016969D01*
G75*
G02*
X0053327Y0017461I0000000J0000492D01*
G01*
X0053327Y0022382D01*
G75*
G02*
X0053819Y0022875I0000492J0000000D01*
G01*
X0054804Y0022875D01*
G75*
G02*
X0055296Y0022382I0000000J-000492D01*
G01*
G37*
G36*
G01*
X0058445Y0022382D02*
X0058445Y0017461D01*
G75*
G02*
X0057953Y0016969I-000492J0000000D01*
G01*
X0056969Y0016969D01*
G75*
G02*
X0056477Y0017461I0000000J0000492D01*
G01*
X0056477Y0022382D01*
G75*
G02*
X0056969Y0022875I0000492J0000000D01*
G01*
X0057953Y0022875D01*
G75*
G02*
X0058445Y0022382I0000000J-000492D01*
G01*
G37*
G36*
G01*
X0061595Y0022382D02*
X0061595Y0017461D01*
G75*
G02*
X0061103Y0016969I-000492J0000000D01*
G01*
X0060119Y0016969D01*
G75*
G02*
X0059626Y0017461I0000000J0000492D01*
G01*
X0059626Y0022382D01*
G75*
G02*
X0060119Y0022875I0000492J0000000D01*
G01*
X0061103Y0022875D01*
G75*
G02*
X0061595Y0022382I0000000J-000492D01*
G01*
G37*
G36*
G01*
X0026969Y0043928D02*
X0026969Y0042569D01*
G75*
G02*
X0026388Y0041989I-000581J0000000D01*
G01*
X0025227Y0041989D01*
G75*
G02*
X0024646Y0042569I0000000J0000581D01*
G01*
X0024646Y0043928D01*
G75*
G02*
X0025227Y0044508I0000581J0000000D01*
G01*
X0026388Y0044508D01*
G75*
G02*
X0026969Y0043928I0000000J-000581D01*
G01*
G37*
G36*
G01*
X0023150Y0043928D02*
X0023150Y0042569D01*
G75*
G02*
X0022569Y0041989I-000581J0000000D01*
G01*
X0021408Y0041989D01*
G75*
G02*
X0020827Y0042569I0000000J0000581D01*
G01*
X0020827Y0043928D01*
G75*
G02*
X0021408Y0044508I0000581J0000000D01*
G01*
X0022569Y0044508D01*
G75*
G02*
X0023150Y0043928I0000000J-000581D01*
G01*
G37*
G36*
G01*
X0034046Y0020532D02*
X0035404Y0020532D01*
G75*
G02*
X0035985Y0019951I0000000J-000581D01*
G01*
X0035985Y0018790D01*
G75*
G02*
X0035404Y0018209I-000581J0000000D01*
G01*
X0034046Y0018209D01*
G75*
G02*
X0033465Y0018790I0000000J0000581D01*
G01*
X0033465Y0019951D01*
G75*
G02*
X0034046Y0020532I0000581J0000000D01*
G01*
G37*
G36*
G01*
X0034046Y0016713D02*
X0035404Y0016713D01*
G75*
G02*
X0035985Y0016132I0000000J-000581D01*
G01*
X0035985Y0014971D01*
G75*
G02*
X0035404Y0014390I-000581J0000000D01*
G01*
X0034046Y0014390D01*
G75*
G02*
X0033465Y0014971I0000000J0000581D01*
G01*
X0033465Y0016132D01*
G75*
G02*
X0034046Y0016713I0000581J0000000D01*
G01*
G37*
G36*
G01*
X0010402Y0042569D02*
X0010402Y0043928D01*
G75*
G02*
X0010983Y0044508I0000581J0000000D01*
G01*
X0012144Y0044508D01*
G75*
G02*
X0012725Y0043928I0000000J-000581D01*
G01*
X0012725Y0042569D01*
G75*
G02*
X0012144Y0041989I-000581J0000000D01*
G01*
X0010983Y0041989D01*
G75*
G02*
X0010402Y0042569I0000000J0000581D01*
G01*
G37*
G36*
G01*
X0014221Y0042569D02*
X0014221Y0043928D01*
G75*
G02*
X0014802Y0044508I0000581J0000000D01*
G01*
X0015963Y0044508D01*
G75*
G02*
X0016544Y0043928I0000000J-000581D01*
G01*
X0016544Y0042569D01*
G75*
G02*
X0015963Y0041989I-000581J0000000D01*
G01*
X0014802Y0041989D01*
G75*
G02*
X0014221Y0042569I0000000J0000581D01*
G01*
G37*
D27*
X0011890Y0048170D03*
X0019371Y0048170D03*
X0015630Y0056044D03*
G36*
G01*
X0070955Y0022402D02*
X0072313Y0022402D01*
G75*
G02*
X0072894Y0021821I0000000J-000581D01*
G01*
X0072894Y0020660D01*
G75*
G02*
X0072313Y0020079I-000581J0000000D01*
G01*
X0070955Y0020079D01*
G75*
G02*
X0070374Y0020660I0000000J0000581D01*
G01*
X0070374Y0021821D01*
G75*
G02*
X0070955Y0022402I0000581J0000000D01*
G01*
G37*
G36*
G01*
X0070955Y0018583D02*
X0072313Y0018583D01*
G75*
G02*
X0072894Y0018002I0000000J-000581D01*
G01*
X0072894Y0016841D01*
G75*
G02*
X0072313Y0016260I-000581J0000000D01*
G01*
X0070955Y0016260D01*
G75*
G02*
X0070374Y0016841I0000000J0000581D01*
G01*
X0070374Y0018002D01*
G75*
G02*
X0070955Y0018583I0000581J0000000D01*
G01*
G37*
G36*
G01*
X0024828Y0057441D02*
X0026846Y0057441D01*
G75*
G02*
X0027707Y0056580I0000000J-000861D01*
G01*
X0027707Y0054858D01*
G75*
G02*
X0026846Y0053997I-000861J0000000D01*
G01*
X0024828Y0053997D01*
G75*
G02*
X0023967Y0054858I0000000J0000861D01*
G01*
X0023967Y0056580D01*
G75*
G02*
X0024828Y0057441I0000861J0000000D01*
G01*
G37*
G36*
G01*
X0024828Y0051241D02*
X0026846Y0051241D01*
G75*
G02*
X0027707Y0050379I0000000J-000861D01*
G01*
X0027707Y0048657D01*
G75*
G02*
X0026846Y0047796I-000861J0000000D01*
G01*
X0024828Y0047796D01*
G75*
G02*
X0023967Y0048657I0000000J0000861D01*
G01*
X0023967Y0050379D01*
G75*
G02*
X0024828Y0051241I0000861J0000000D01*
G01*
G37*
D10*
X0111792Y0010965D03*
X0111792Y0022776D03*
X0111792Y0018839D03*
X0111792Y0014902D03*
D11*
X0106871Y0031241D03*
D12*
X0113268Y0045020D03*
D15*
X0005591Y0007520D03*
D14*
X0005591Y0040532D03*
D16*
X0059430Y0059292D03*
D13*
X0005591Y0057619D03*
D16*
X0059430Y0005158D03*
D17*
X0113268Y0055945D03*
D18*
X0113268Y0006536D03*
D14*
X0005591Y0027540D03*
G36*
G01*
X0042697Y0055256D02*
X0042697Y0050335D01*
G75*
G02*
X0042205Y0049843I-000492J0000000D01*
G01*
X0041221Y0049843D01*
G75*
G02*
X0040729Y0050335I0000000J0000492D01*
G01*
X0040729Y0055256D01*
G75*
G02*
X0041221Y0055749I0000492J0000000D01*
G01*
X0042205Y0055749D01*
G75*
G02*
X0042697Y0055256I0000000J-000492D01*
G01*
G37*
G36*
G01*
X0036103Y0044725D02*
X0036103Y0043741D01*
G75*
G02*
X0035611Y0043249I-000492J0000000D01*
G01*
X0030689Y0043249D01*
G75*
G02*
X0030197Y0043741I0000000J0000492D01*
G01*
X0030197Y0044725D01*
G75*
G02*
X0030689Y0045217I0000492J0000000D01*
G01*
X0035611Y0045217D01*
G75*
G02*
X0036103Y0044725I0000000J-000492D01*
G01*
G37*
G36*
G01*
X0039548Y0055256D02*
X0039548Y0050335D01*
G75*
G02*
X0039056Y0049843I-000492J0000000D01*
G01*
X0038071Y0049843D01*
G75*
G02*
X0037579Y0050335I0000000J0000492D01*
G01*
X0037579Y0055256D01*
G75*
G02*
X0038071Y0055749I0000492J0000000D01*
G01*
X0039056Y0055749D01*
G75*
G02*
X0039548Y0055256I0000000J-000492D01*
G01*
G37*
G36*
G01*
X0038268Y0045217D02*
X0039252Y0045217D01*
G75*
G02*
X0039745Y0044725I0000000J-000492D01*
G01*
X0039745Y0043741D01*
G75*
G02*
X0039252Y0043249I-000492J0000000D01*
G01*
X0038268Y0043249D01*
G75*
G02*
X0037776Y0043741I0000000J0000492D01*
G01*
X0037776Y0044725D01*
G75*
G02*
X0038268Y0045217I0000492J0000000D01*
G01*
G37*
G36*
G01*
X0042697Y0047875D02*
X0042697Y0046890D01*
G75*
G02*
X0042205Y0046398I-000492J0000000D01*
G01*
X0041221Y0046398D01*
G75*
G02*
X0040729Y0046890I0000000J0000492D01*
G01*
X0040729Y0047875D01*
G75*
G02*
X0041221Y0048367I0000492J0000000D01*
G01*
X0042205Y0048367D01*
G75*
G02*
X0042697Y0047875I0000000J-000492D01*
G01*
G37*
G36*
G01*
X0036103Y0047875D02*
X0036103Y0046890D01*
G75*
G02*
X0035611Y0046398I-000492J0000000D01*
G01*
X0030689Y0046398D01*
G75*
G02*
X0030197Y0046890I0000000J0000492D01*
G01*
X0030197Y0047875D01*
G75*
G02*
X0030689Y0048367I0000492J0000000D01*
G01*
X0035611Y0048367D01*
G75*
G02*
X0036103Y0047875I0000000J-000492D01*
G01*
G37*
D10*
X0007102Y0048957D03*
X0007102Y0045020D03*
X0007102Y0032044D03*
X0007102Y0036044D03*
G36*
G01*
X0005099Y0024154D02*
X0005099Y0024154D01*
G75*
G02*
X0005591Y0024646I0000492J0000000D01*
G01*
X0006575Y0024646D01*
G75*
G02*
X0007067Y0024154I0000000J-000492D01*
G01*
X0007067Y0024154D01*
G75*
G02*
X0006575Y0023662I-000492J0000000D01*
G01*
X0005591Y0023662D01*
G75*
G02*
X0005099Y0024154I0000000J0000492D01*
G01*
G37*
G36*
G01*
X0005099Y0022186D02*
X0005099Y0022186D01*
G75*
G02*
X0005591Y0022678I0000492J0000000D01*
G01*
X0006575Y0022678D01*
G75*
G02*
X0007067Y0022186I0000000J-000492D01*
G01*
X0007067Y0022186D01*
G75*
G02*
X0006575Y0021693I-000492J0000000D01*
G01*
X0005591Y0021693D01*
G75*
G02*
X0005099Y0022186I0000000J0000492D01*
G01*
G37*
G36*
G01*
X0005099Y0020217D02*
X0005099Y0020217D01*
G75*
G02*
X0005591Y0020709I0000492J0000000D01*
G01*
X0006575Y0020709D01*
G75*
G02*
X0007067Y0020217I0000000J-000492D01*
G01*
X0007067Y0020217D01*
G75*
G02*
X0006575Y0019725I-000492J0000000D01*
G01*
X0005591Y0019725D01*
G75*
G02*
X0005099Y0020217I0000000J0000492D01*
G01*
G37*
G36*
G01*
X0005099Y0011949D02*
X0005099Y0011949D01*
G75*
G02*
X0005591Y0012441I0000492J0000000D01*
G01*
X0006575Y0012441D01*
G75*
G02*
X0007067Y0011949I0000000J-000492D01*
G01*
X0007067Y0011949D01*
G75*
G02*
X0006575Y0011457I-000492J0000000D01*
G01*
X0005591Y0011457D01*
G75*
G02*
X0005099Y0011949I0000000J0000492D01*
G01*
G37*
X0007102Y0052894D03*
D28*
X0014075Y0012796D03*
X0014075Y0017796D03*
X0019075Y0012796D03*
X0019075Y0017796D03*
X0024075Y0012796D03*
X0024075Y0017796D03*
D29*
X0098563Y0054174D03*
D30*
X0088563Y0054174D03*
X0078563Y0054174D03*
D31*
X0007658Y0040886D03*
X0067402Y0006438D03*
X0104203Y0023506D03*
X0038465Y0058463D03*
X0021241Y0058406D03*
X0047422Y0038095D03*
X0007658Y0007225D03*
X0006477Y0028288D03*
X0078721Y0037737D03*
X0014377Y0039356D03*
X0022914Y0022834D03*
X0104607Y0056044D03*
X0074923Y0017461D03*
X0112481Y0055847D03*
X0025670Y0007619D03*
X0109430Y0005945D03*
X0060414Y0014510D03*
X0102028Y0006017D03*
X0030493Y0007225D03*
X0069472Y0052819D03*
X0058248Y0027500D03*
X0022873Y0035198D03*
X0040138Y0015296D03*
X0047619Y0006241D03*
X0028327Y0035079D03*
X0055493Y0006536D03*
X0057343Y0048014D03*
X0069724Y0058664D03*
X0021701Y0052040D03*
X0007221Y0057590D03*
X0055650Y0041475D03*
X0063682Y0054510D03*
X0054240Y0047953D03*
X0027737Y0015591D03*
X0012089Y0055265D03*
X0020215Y0008012D03*
X0074963Y0022382D03*
X0028426Y0045553D03*
X0053354Y0027107D03*
X0010551Y0025040D03*
X0017295Y0010727D03*
X0074923Y0014451D03*
X0074923Y0026459D03*
X0058839Y0037500D03*
X0074923Y0011441D03*
X0081280Y0035571D03*
X0060374Y0044253D03*
X0063600Y0051501D03*
X0048204Y0034685D03*
X0109233Y0051713D03*
X0107067Y0022579D03*
X0074225Y0031585D03*
X0051272Y0048455D03*
X0074923Y0008430D03*
X0057521Y0013678D03*
X0043038Y0033351D03*
X0045360Y0035672D03*
X0106083Y0051910D03*
X0072381Y0056475D03*
X0045356Y0027738D03*
X0026478Y0028476D03*
X0045337Y0042739D03*
X0015293Y0046338D03*
X0010549Y0021930D03*
X0029508Y0027974D03*
X0015927Y0020055D03*
X0073763Y0040058D03*
X0022126Y0048268D03*
X0063426Y0021838D03*
X0110512Y0046103D03*
X0107461Y0043347D03*
X0107461Y0046103D03*
X0107461Y0040591D03*
X0110512Y0043347D03*
X0009988Y0009131D03*
X0069815Y0049828D03*
D32*
X0022874Y0035197D02*
X0022874Y0025335D01*
X0019764Y0030749D02*
X0022323Y0030749D01*
X0022323Y0030749D02*
X0023603Y0032028D01*
X0023603Y0032028D02*
X0025965Y0032028D01*
D33*
X0055668Y0041458D02*
X0060906Y0041458D01*
X0060906Y0041458D02*
X0063682Y0044233D01*
X0063682Y0044233D02*
X0066024Y0044233D01*
X0055650Y0041475D02*
X0055668Y0041458D01*
D32*
X0007461Y0048760D02*
X0007363Y0048662D01*
X0011890Y0031142D02*
X0011890Y0034489D01*
X0011563Y0034815D02*
X0011563Y0043800D01*
X0011890Y0034489D02*
X0011563Y0034815D01*
X0015099Y0025434D02*
X0015099Y0027934D01*
X0011496Y0043867D02*
X0011496Y0048626D01*
X0015099Y0027934D02*
X0011890Y0031142D01*
X0011461Y0048662D02*
X0011363Y0048760D01*
X0011363Y0048760D02*
X0007461Y0048760D01*
X0022087Y0038465D02*
X0022087Y0043249D01*
D33*
X0029863Y0052264D02*
X0032067Y0052264D01*
X0032067Y0052264D02*
X0032067Y0048465D01*
X0074963Y0022382D02*
X0074745Y0022382D01*
X0016724Y0008012D02*
X0013913Y0010823D01*
X0028426Y0045553D02*
X0028426Y0040689D01*
X0033150Y0047382D02*
X0041713Y0047382D01*
X0028918Y0046045D02*
X0028918Y0051319D01*
X0028426Y0045553D02*
X0028918Y0046045D01*
X0013913Y0010823D02*
X0013913Y0012633D01*
X0074745Y0022382D02*
X0071634Y0025493D01*
D32*
X0019764Y0038229D02*
X0025965Y0038229D01*
D34*
X0006477Y0011949D02*
X0013229Y0011949D01*
D33*
X0032067Y0048465D02*
X0033150Y0047382D01*
X0070847Y0025335D02*
X0067265Y0025335D01*
X0028918Y0051319D02*
X0029863Y0052264D01*
X0020215Y0008012D02*
X0016724Y0008012D01*
X0028426Y0040689D02*
X0025965Y0038229D01*
X0053354Y0029889D02*
X0053524Y0030060D01*
X0017295Y0011015D02*
X0019075Y0012796D01*
X0053354Y0027107D02*
X0053354Y0029889D01*
D34*
X0009665Y0024154D02*
X0006477Y0024154D01*
D33*
X0061595Y0034784D02*
X0066024Y0034784D01*
X0034626Y0021497D02*
X0034626Y0019272D01*
D34*
X0010551Y0025040D02*
X0009665Y0024154D01*
D33*
X0043189Y0030060D02*
X0034626Y0021497D01*
X0053524Y0030060D02*
X0056871Y0030060D01*
X0053524Y0030060D02*
X0043189Y0030060D01*
X0056871Y0030060D02*
X0061595Y0034784D01*
X0067107Y0013268D02*
X0071107Y0013268D01*
X0074643Y0014170D02*
X0072465Y0014170D01*
X0071634Y0015000D02*
X0071634Y0013760D01*
X0074923Y0014451D02*
X0074643Y0014170D01*
X0071634Y0017422D02*
X0071634Y0015000D01*
X0060374Y0044253D02*
X0060611Y0044489D01*
X0060611Y0044489D02*
X0060611Y0052796D01*
X0063600Y0051501D02*
X0063600Y0047382D01*
X0063600Y0047382D02*
X0066024Y0047382D01*
X0063694Y0040868D02*
X0065809Y0040868D01*
X0057640Y0039823D02*
X0062650Y0039823D01*
X0052540Y0034685D02*
X0056516Y0038662D01*
X0062650Y0039823D02*
X0063694Y0040868D01*
X0056516Y0038662D02*
X0056516Y0038699D01*
X0056516Y0038699D02*
X0057640Y0039823D01*
X0048722Y0034685D02*
X0052540Y0034685D01*
X0107067Y0022579D02*
X0105689Y0021201D01*
X0105689Y0021201D02*
X0105689Y0018298D01*
X0063229Y0009981D02*
X0063268Y0009941D01*
X0058495Y0009981D02*
X0063229Y0009981D01*
X0051162Y0048565D02*
X0051162Y0052796D01*
X0051272Y0048455D02*
X0051162Y0048565D01*
X0057521Y0013678D02*
X0056914Y0013678D01*
X0054311Y0016280D02*
X0054311Y0019922D01*
X0056914Y0013678D02*
X0054311Y0016280D01*
X0041322Y0031634D02*
X0033150Y0031634D01*
X0043038Y0033351D02*
X0041322Y0031634D01*
X0039058Y0035672D02*
X0038170Y0034784D01*
X0045360Y0035672D02*
X0039058Y0035672D01*
X0038170Y0034784D02*
X0033150Y0034784D01*
X0049390Y0057126D02*
X0065670Y0057126D01*
X0071989Y0056083D02*
X0066713Y0056083D01*
X0072381Y0056475D02*
X0071989Y0056083D01*
X0048012Y0055749D02*
X0049390Y0057126D01*
X0048012Y0052796D02*
X0048012Y0055749D01*
X0065670Y0057126D02*
X0066713Y0056083D01*
X0035768Y0008721D02*
X0035217Y0008170D01*
X0039408Y0008721D02*
X0035768Y0008721D01*
X0025808Y0047914D02*
X0025837Y0047943D01*
X0025808Y0043249D02*
X0025808Y0047914D01*
X0096949Y0053052D02*
X0096949Y0045414D01*
X0026478Y0028476D02*
X0026693Y0028261D01*
X0048623Y0027738D02*
X0051715Y0024646D01*
X0026693Y0028261D02*
X0026693Y0025335D01*
X0051715Y0024646D02*
X0054851Y0024646D01*
X0057461Y0022036D02*
X0057461Y0019922D01*
X0045356Y0027738D02*
X0048623Y0027738D01*
X0054851Y0024646D02*
X0057461Y0022036D01*
X0047804Y0011782D02*
X0047804Y0017107D01*
X0051248Y0017402D02*
X0051248Y0011321D01*
D34*
X0011472Y0019701D02*
X0014058Y0022286D01*
X0006477Y0020217D02*
X0008962Y0020217D01*
X0017498Y0022286D02*
X0019174Y0020611D01*
X0008962Y0020217D02*
X0009479Y0019701D01*
D33*
X0025571Y0020512D02*
X0030394Y0025335D01*
D34*
X0014058Y0022286D02*
X0017498Y0022286D01*
X0009479Y0019701D02*
X0011472Y0019701D01*
D33*
X0019075Y0017796D02*
X0019075Y0020512D01*
X0019075Y0020512D02*
X0025571Y0020512D01*
X0030394Y0025335D02*
X0033150Y0025335D01*
X0014075Y0018203D02*
X0014075Y0017796D01*
X0032639Y0027974D02*
X0033150Y0028485D01*
X0029508Y0027974D02*
X0032639Y0027974D01*
D34*
X0010293Y0022186D02*
X0006477Y0022186D01*
X0010549Y0021930D02*
X0010293Y0022186D01*
D33*
X0015927Y0020055D02*
X0014075Y0018203D01*
D11*
X0089252Y0031241D02*
X0087185Y0029174D01*
X0107067Y0031241D02*
X0089252Y0031241D01*
D35*
X0089941Y0031142D02*
X0087973Y0029174D01*
X0088465Y0034095D02*
X0088465Y0054075D01*
X0088465Y0054075D02*
X0088563Y0054174D01*
D33*
X0022126Y0048268D02*
X0019808Y0048268D01*
X0064023Y0021241D02*
X0063426Y0021838D01*
X0071634Y0040058D02*
X0071634Y0037678D01*
X0073763Y0040058D02*
X0071634Y0040058D01*
X0071634Y0021241D02*
X0064023Y0021241D01*
X0071378Y0037934D02*
X0066024Y0037934D01*
D35*
X0078603Y0045020D02*
X0078603Y0054134D01*
G36*
X0112727Y0050847D02*
G01*
X0112910Y0050636D01*
X0112955Y0050430D01*
X0112955Y0039611D01*
X0112876Y0039343D01*
X0112665Y0039159D01*
X0112459Y0039115D01*
X0106382Y0039115D01*
X0106114Y0039193D01*
X0105931Y0039405D01*
X0105886Y0039611D01*
X0105886Y0049247D01*
X0105965Y0049515D01*
X0106176Y0049698D01*
X0106318Y0049739D01*
X0106621Y0049779D01*
X0106653Y0049783D01*
X0107184Y0050003D01*
X0107210Y0050023D01*
X0107210Y0050023D01*
X0107228Y0050036D01*
X0107488Y0050137D01*
X0107762Y0050081D01*
X0107832Y0050036D01*
X0108132Y0049806D01*
X0108663Y0049586D01*
X0109233Y0049511D01*
X0109265Y0049515D01*
X0109770Y0049582D01*
X0109803Y0049586D01*
X0110334Y0049806D01*
X0110590Y0050003D01*
X0110764Y0050136D01*
X0110764Y0050136D01*
X0110790Y0050156D01*
X0111140Y0050612D01*
X0111152Y0050642D01*
X0111168Y0050670D01*
X0111179Y0050664D01*
X0111318Y0050837D01*
X0111601Y0050926D01*
X0112459Y0050926D01*
X0112727Y0050847D01*
G37*
G36*
X0105540Y0024471D02*
G01*
X0105681Y0024276D01*
X0105681Y0024036D01*
X0105603Y0023898D01*
X0105422Y0023693D01*
X0105422Y0023693D01*
X0105403Y0023672D01*
X0105392Y0023647D01*
X0105392Y0023647D01*
X0105369Y0023599D01*
X0105164Y0023161D01*
X0105159Y0023134D01*
X0105159Y0023134D01*
X0105091Y0022695D01*
X0105077Y0022604D01*
X0105080Y0022576D01*
X0105080Y0022561D01*
X0105003Y0022333D01*
X0104966Y0022290D01*
X0104835Y0022159D01*
X0104810Y0022136D01*
X0104693Y0022038D01*
X0104641Y0021949D01*
X0104616Y0021905D01*
X0104598Y0021877D01*
X0104510Y0021751D01*
X0104501Y0021718D01*
X0104492Y0021697D01*
X0104484Y0021676D01*
X0104467Y0021646D01*
X0104461Y0021613D01*
X0104461Y0021613D01*
X0104440Y0021496D01*
X0104433Y0021463D01*
X0104393Y0021315D01*
X0104396Y0021281D01*
X0104406Y0021162D01*
X0104408Y0021128D01*
X0104408Y0021106D01*
X0104333Y0020877D01*
X0104162Y0020752D01*
X0104164Y0020748D01*
X0104137Y0020734D01*
X0104137Y0020734D01*
X0103726Y0020525D01*
X0103726Y0020525D01*
X0103698Y0020511D01*
X0103329Y0020141D01*
X0103315Y0020114D01*
X0103315Y0020114D01*
X0103190Y0019870D01*
X0103091Y0019675D01*
X0103086Y0019645D01*
X0103086Y0019645D01*
X0103035Y0019318D01*
X0103030Y0019289D01*
X0103030Y0017307D01*
X0103032Y0017291D01*
X0103032Y0017291D01*
X0103078Y0017002D01*
X0103091Y0016920D01*
X0103105Y0016893D01*
X0103105Y0016893D01*
X0103296Y0016518D01*
X0103329Y0016454D01*
X0103698Y0016085D01*
X0103726Y0016071D01*
X0103726Y0016071D01*
X0104137Y0015861D01*
X0104164Y0015847D01*
X0104194Y0015842D01*
X0104194Y0015842D01*
X0104535Y0015788D01*
X0104536Y0015788D01*
X0104551Y0015786D01*
X0106828Y0015786D01*
X0106843Y0015788D01*
X0106843Y0015788D01*
X0107184Y0015842D01*
X0107184Y0015842D01*
X0107215Y0015847D01*
X0107242Y0015861D01*
X0107653Y0016071D01*
X0107653Y0016071D01*
X0107681Y0016085D01*
X0108050Y0016454D01*
X0108083Y0016518D01*
X0108274Y0016893D01*
X0108274Y0016893D01*
X0108288Y0016920D01*
X0108301Y0017002D01*
X0108346Y0017291D01*
X0108346Y0017291D01*
X0108349Y0017307D01*
X0108349Y0019289D01*
X0108344Y0019318D01*
X0108292Y0019645D01*
X0108292Y0019645D01*
X0108288Y0019675D01*
X0108189Y0019870D01*
X0108064Y0020114D01*
X0108064Y0020114D01*
X0108050Y0020141D01*
X0107948Y0020244D01*
X0107838Y0020458D01*
X0107876Y0020696D01*
X0108020Y0020851D01*
X0108060Y0020877D01*
X0108339Y0021048D01*
X0108363Y0021075D01*
X0108699Y0021445D01*
X0108718Y0021466D01*
X0108932Y0021908D01*
X0108952Y0021949D01*
X0108964Y0021974D01*
X0108974Y0022034D01*
X0109085Y0022247D01*
X0109301Y0022355D01*
X0109539Y0022315D01*
X0109707Y0022143D01*
X0109718Y0022118D01*
X0109899Y0021683D01*
X0109914Y0021663D01*
X0110157Y0021346D01*
X0110246Y0021230D01*
X0110266Y0021215D01*
X0110266Y0021215D01*
X0110394Y0021117D01*
X0110530Y0020918D01*
X0110524Y0020677D01*
X0110394Y0020498D01*
X0110266Y0020400D01*
X0110266Y0020400D01*
X0110246Y0020385D01*
X0109899Y0019932D01*
X0109680Y0019405D01*
X0109677Y0019380D01*
X0109677Y0019380D01*
X0109644Y0019132D01*
X0109606Y0018839D01*
X0109609Y0018814D01*
X0109676Y0018307D01*
X0109680Y0018273D01*
X0109899Y0017746D01*
X0110246Y0017293D01*
X0110266Y0017278D01*
X0110266Y0017278D01*
X0110394Y0017180D01*
X0110530Y0016981D01*
X0110524Y0016740D01*
X0110394Y0016561D01*
X0110266Y0016463D01*
X0110266Y0016463D01*
X0110246Y0016448D01*
X0110230Y0016428D01*
X0110195Y0016381D01*
X0109899Y0015995D01*
X0109680Y0015468D01*
X0109677Y0015443D01*
X0109677Y0015443D01*
X0109638Y0015148D01*
X0109606Y0014902D01*
X0109609Y0014877D01*
X0109676Y0014369D01*
X0109680Y0014336D01*
X0109899Y0013809D01*
X0110246Y0013356D01*
X0110266Y0013341D01*
X0110266Y0013341D01*
X0110394Y0013243D01*
X0110530Y0013044D01*
X0110524Y0012803D01*
X0110394Y0012624D01*
X0110266Y0012526D01*
X0110266Y0012526D01*
X0110246Y0012511D01*
X0109899Y0012058D01*
X0109680Y0011531D01*
X0109677Y0011506D01*
X0109677Y0011506D01*
X0109628Y0011135D01*
X0109606Y0010965D01*
X0109614Y0010905D01*
X0109675Y0010438D01*
X0109680Y0010399D01*
X0109899Y0009872D01*
X0110246Y0009419D01*
X0110266Y0009404D01*
X0110678Y0009087D01*
X0110679Y0009087D01*
X0110699Y0009072D01*
X0110714Y0009066D01*
X0110872Y0008890D01*
X0110906Y0008731D01*
X0110906Y0008406D01*
X0112778Y0008406D01*
X0113007Y0008332D01*
X0113149Y0008137D01*
X0113168Y0008016D01*
X0113168Y0005648D01*
X0113093Y0005419D01*
X0112898Y0005277D01*
X0112778Y0005258D01*
X0020462Y0005258D01*
X0020432Y0005268D01*
X0020400Y0005258D01*
X0006081Y0005258D01*
X0005852Y0005333D01*
X0005710Y0005528D01*
X0005691Y0005648D01*
X0005691Y0010278D01*
X0005766Y0010507D01*
X0005961Y0010649D01*
X0006081Y0010668D01*
X0006693Y0010668D01*
X0006725Y0010668D01*
X0006738Y0010669D01*
X0006738Y0010669D01*
X0006882Y0010688D01*
X0006882Y0010689D01*
X0006912Y0010692D01*
X0006939Y0010705D01*
X0006939Y0010705D01*
X0006979Y0010723D01*
X0007143Y0010760D01*
X0007962Y0010760D01*
X0008191Y0010686D01*
X0008333Y0010491D01*
X0008333Y0010250D01*
X0008315Y0010205D01*
X0008084Y0009713D01*
X0008080Y0009686D01*
X0008080Y0009686D01*
X0008041Y0009436D01*
X0007997Y0009155D01*
X0008001Y0009128D01*
X0008001Y0009128D01*
X0008053Y0008731D01*
X0008070Y0008596D01*
X0008081Y0008570D01*
X0008081Y0008570D01*
X0008272Y0008137D01*
X0008298Y0008079D01*
X0008391Y0007968D01*
X0008643Y0007668D01*
X0008643Y0007668D01*
X0008661Y0007647D01*
X0008684Y0007632D01*
X0008684Y0007632D01*
X0008702Y0007620D01*
X0009131Y0007334D01*
X0009497Y0007220D01*
X0009643Y0007174D01*
X0009643Y0007174D01*
X0009669Y0007166D01*
X0009952Y0007161D01*
X0010206Y0007156D01*
X0010206Y0007156D01*
X0010234Y0007156D01*
X0010261Y0007163D01*
X0010261Y0007163D01*
X0010557Y0007244D01*
X0010778Y0007304D01*
X0011259Y0007599D01*
X0011289Y0007632D01*
X0011619Y0007997D01*
X0011638Y0008018D01*
X0011884Y0008526D01*
X0011889Y0008556D01*
X0011975Y0009068D01*
X0011975Y0009068D01*
X0011978Y0009082D01*
X0011978Y0009131D01*
X0011898Y0009690D01*
X0011665Y0010204D01*
X0011675Y0010208D01*
X0011627Y0010393D01*
X0011715Y0010618D01*
X0011918Y0010747D01*
X0012016Y0010760D01*
X0012296Y0010760D01*
X0012525Y0010686D01*
X0012666Y0010491D01*
X0012680Y0010438D01*
X0012690Y0010378D01*
X0012707Y0010349D01*
X0012715Y0010327D01*
X0012725Y0010306D01*
X0012733Y0010274D01*
X0012782Y0010204D01*
X0012821Y0010148D01*
X0012839Y0010120D01*
X0012916Y0009987D01*
X0012986Y0009928D01*
X0013033Y0009889D01*
X0013058Y0009866D01*
X0015766Y0007158D01*
X0015789Y0007133D01*
X0015888Y0007015D01*
X0016000Y0006950D01*
X0016020Y0006939D01*
X0016049Y0006921D01*
X0016174Y0006833D01*
X0016207Y0006824D01*
X0016228Y0006814D01*
X0016249Y0006807D01*
X0016279Y0006790D01*
X0016312Y0006784D01*
X0016312Y0006784D01*
X0016430Y0006763D01*
X0016463Y0006756D01*
X0016611Y0006716D01*
X0016763Y0006729D01*
X0016797Y0006731D01*
X0018537Y0006731D01*
X0018766Y0006656D01*
X0018835Y0006592D01*
X0018888Y0006528D01*
X0018912Y0006513D01*
X0018912Y0006513D01*
X0018988Y0006462D01*
X0019358Y0006215D01*
X0019754Y0006092D01*
X0019871Y0006055D01*
X0019871Y0006055D01*
X0019897Y0006047D01*
X0020398Y0006038D01*
X0020407Y0006038D01*
X0020415Y0006035D01*
X0020434Y0006037D01*
X0020461Y0006037D01*
X0020488Y0006044D01*
X0020488Y0006044D01*
X0020784Y0006125D01*
X0021006Y0006185D01*
X0021453Y0006460D01*
X0021463Y0006466D01*
X0021487Y0006481D01*
X0021516Y0006513D01*
X0021847Y0006879D01*
X0021866Y0006899D01*
X0022058Y0007297D01*
X0022100Y0007382D01*
X0022112Y0007407D01*
X0022144Y0007597D01*
X0022203Y0007949D01*
X0022203Y0007949D01*
X0022206Y0007964D01*
X0022206Y0008012D01*
X0022126Y0008571D01*
X0021986Y0008880D01*
X0021904Y0009060D01*
X0021904Y0009060D01*
X0021892Y0009085D01*
X0021590Y0009436D01*
X0021542Y0009491D01*
X0021542Y0009491D01*
X0021524Y0009512D01*
X0021050Y0009819D01*
X0020510Y0009981D01*
X0020448Y0009982D01*
X0020353Y0009982D01*
X0020124Y0010058D01*
X0019984Y0010254D01*
X0019985Y0010420D01*
X0023134Y0010420D01*
X0023150Y0010402D01*
X0023152Y0010401D01*
X0023704Y0010257D01*
X0023750Y0010250D01*
X0024320Y0010241D01*
X0024367Y0010246D01*
X0024922Y0010374D01*
X0024966Y0010389D01*
X0024978Y0010396D01*
X0025010Y0010427D01*
X0024990Y0010467D01*
X0024119Y0011338D01*
X0024072Y0011362D01*
X0024052Y0011359D01*
X0023155Y0010461D01*
X0023134Y0010420D01*
X0019985Y0010420D01*
X0019985Y0010495D01*
X0020128Y0010689D01*
X0020206Y0010732D01*
X0020255Y0010752D01*
X0020744Y0011127D01*
X0021119Y0011616D01*
X0021130Y0011644D01*
X0021139Y0011666D01*
X0021296Y0011849D01*
X0021530Y0011906D01*
X0021606Y0011892D01*
X0021708Y0011863D01*
X0021740Y0011875D01*
X0022488Y0012623D01*
X0022702Y0012732D01*
X0022763Y0012737D01*
X0024193Y0012737D01*
X0024193Y0013151D01*
X0024268Y0013380D01*
X0024463Y0013522D01*
X0024704Y0013522D01*
X0024859Y0013427D01*
X0026243Y0012043D01*
X0026352Y0011828D01*
X0026346Y0011688D01*
X0026346Y0011688D01*
X0026346Y0011683D01*
X0026345Y0011672D01*
X0026338Y0011642D01*
X0026337Y0011465D01*
X0026335Y0011120D01*
X0026334Y0010979D01*
X0026417Y0010631D01*
X0026479Y0010376D01*
X0026489Y0010334D01*
X0026585Y0010148D01*
X0026727Y0009872D01*
X0026793Y0009745D01*
X0027229Y0009245D01*
X0027248Y0009232D01*
X0027248Y0009232D01*
X0027493Y0009060D01*
X0027771Y0008864D01*
X0027827Y0008842D01*
X0028193Y0008699D01*
X0028389Y0008623D01*
X0028412Y0008620D01*
X0028412Y0008620D01*
X0028882Y0008558D01*
X0028895Y0008556D01*
X0029241Y0008556D01*
X0029255Y0008558D01*
X0029710Y0008613D01*
X0029710Y0008613D01*
X0029733Y0008616D01*
X0029775Y0008632D01*
X0029954Y0008699D01*
X0030354Y0008850D01*
X0030373Y0008864D01*
X0030373Y0008864D01*
X0030881Y0009213D01*
X0030900Y0009226D01*
X0031341Y0009721D01*
X0031651Y0010307D01*
X0031756Y0010723D01*
X0031807Y0010927D01*
X0031807Y0010927D01*
X0031811Y0010943D01*
X0033011Y0010943D01*
X0033030Y0010886D01*
X0033229Y0010495D01*
X0033265Y0010446D01*
X0033504Y0010206D01*
X0033614Y0009991D01*
X0033576Y0009753D01*
X0033505Y0009655D01*
X0033407Y0009557D01*
X0033207Y0009147D01*
X0033168Y0008880D01*
X0033168Y0007459D01*
X0033170Y0007445D01*
X0033170Y0007445D01*
X0033188Y0007321D01*
X0033207Y0007190D01*
X0033221Y0007163D01*
X0033221Y0007163D01*
X0033224Y0007156D01*
X0033408Y0006780D01*
X0033431Y0006758D01*
X0033708Y0006481D01*
X0033708Y0006481D01*
X0033731Y0006458D01*
X0034141Y0006258D01*
X0034327Y0006231D01*
X0034394Y0006221D01*
X0034394Y0006221D01*
X0034408Y0006219D01*
X0036026Y0006219D01*
X0036040Y0006221D01*
X0036040Y0006221D01*
X0036265Y0006254D01*
X0036265Y0006254D01*
X0036295Y0006259D01*
X0036333Y0006277D01*
X0036660Y0006438D01*
X0036705Y0006460D01*
X0036746Y0006501D01*
X0037004Y0006760D01*
X0037004Y0006760D01*
X0037027Y0006782D01*
X0037227Y0007192D01*
X0037232Y0007190D01*
X0037353Y0007361D01*
X0037586Y0007439D01*
X0038999Y0007439D01*
X0039146Y0007404D01*
X0039147Y0007406D01*
X0039175Y0007397D01*
X0039176Y0007397D01*
X0039203Y0007383D01*
X0039234Y0007378D01*
X0039234Y0007378D01*
X0039575Y0007324D01*
X0039575Y0007324D01*
X0039590Y0007321D01*
X0041572Y0007321D01*
X0041587Y0007324D01*
X0041587Y0007324D01*
X0041928Y0007378D01*
X0041928Y0007378D01*
X0041959Y0007383D01*
X0041986Y0007397D01*
X0042397Y0007606D01*
X0042397Y0007606D01*
X0042425Y0007620D01*
X0042794Y0007990D01*
X0042809Y0008018D01*
X0043018Y0008428D01*
X0043018Y0008428D01*
X0043032Y0008456D01*
X0043039Y0008501D01*
X0043091Y0008827D01*
X0043091Y0008827D01*
X0043093Y0008842D01*
X0043093Y0011120D01*
X0043060Y0011329D01*
X0043037Y0011476D01*
X0043037Y0011476D01*
X0043032Y0011506D01*
X0043018Y0011533D01*
X0042808Y0011945D01*
X0042808Y0011945D01*
X0042794Y0011972D01*
X0042425Y0012342D01*
X0042397Y0012356D01*
X0042397Y0012356D01*
X0041986Y0012565D01*
X0041986Y0012565D01*
X0041959Y0012579D01*
X0041928Y0012584D01*
X0041928Y0012584D01*
X0041587Y0012638D01*
X0041587Y0012638D01*
X0041572Y0012640D01*
X0039590Y0012640D01*
X0039575Y0012638D01*
X0039575Y0012638D01*
X0039234Y0012584D01*
X0039234Y0012584D01*
X0039203Y0012579D01*
X0039176Y0012565D01*
X0039176Y0012565D01*
X0038765Y0012356D01*
X0038765Y0012356D01*
X0038738Y0012342D01*
X0038368Y0011972D01*
X0038354Y0011945D01*
X0038354Y0011945D01*
X0038144Y0011533D01*
X0038131Y0011506D01*
X0038126Y0011476D01*
X0038126Y0011476D01*
X0038080Y0011187D01*
X0037971Y0010972D01*
X0037756Y0010863D01*
X0037518Y0010901D01*
X0037419Y0010972D01*
X0037409Y0010983D01*
X0037384Y0010989D01*
X0033066Y0010989D01*
X0033016Y0010972D01*
X0033013Y0010969D01*
X0033011Y0010943D01*
X0031811Y0010943D01*
X0031813Y0010950D01*
X0031816Y0011554D01*
X0031816Y0011589D01*
X0031816Y0011589D01*
X0031816Y0011613D01*
X0031662Y0012258D01*
X0031417Y0012732D01*
X0031368Y0012826D01*
X0031368Y0012826D01*
X0031358Y0012847D01*
X0030922Y0013346D01*
X0030874Y0013380D01*
X0030398Y0013714D01*
X0030398Y0013714D01*
X0030379Y0013728D01*
X0029761Y0013969D01*
X0029713Y0013975D01*
X0029495Y0014079D01*
X0029380Y0014290D01*
X0029410Y0014506D01*
X0032519Y0014506D01*
X0032538Y0014449D01*
X0032737Y0014058D01*
X0032773Y0014009D01*
X0033052Y0013729D01*
X0033162Y0013514D01*
X0033124Y0013276D01*
X0033030Y0013091D01*
X0033014Y0013044D01*
X0033022Y0012998D01*
X0033025Y0012995D01*
X0033050Y0012989D01*
X0034155Y0012989D01*
X0034205Y0013005D01*
X0034217Y0013021D01*
X0034217Y0013171D01*
X0034201Y0013221D01*
X0034185Y0013233D01*
X0034115Y0013233D01*
X0033886Y0013307D01*
X0033744Y0013502D01*
X0033725Y0013623D01*
X0033725Y0014369D01*
X0035725Y0014369D01*
X0035741Y0014319D01*
X0035757Y0014308D01*
X0035827Y0014308D01*
X0036056Y0014233D01*
X0036198Y0014038D01*
X0036217Y0013918D01*
X0036217Y0013050D01*
X0036233Y0013000D01*
X0036249Y0012989D01*
X0037368Y0012989D01*
X0037418Y0013005D01*
X0037421Y0013008D01*
X0037423Y0013034D01*
X0037404Y0013091D01*
X0037205Y0013483D01*
X0037169Y0013532D01*
X0036890Y0013811D01*
X0036780Y0014026D01*
X0036818Y0014264D01*
X0036912Y0014449D01*
X0036927Y0014496D01*
X0036920Y0014543D01*
X0036917Y0014546D01*
X0036892Y0014552D01*
X0035787Y0014552D01*
X0035737Y0014535D01*
X0035725Y0014519D01*
X0035725Y0014369D01*
X0033725Y0014369D01*
X0033725Y0014490D01*
X0033709Y0014540D01*
X0033692Y0014552D01*
X0032573Y0014552D01*
X0032523Y0014535D01*
X0032521Y0014532D01*
X0032519Y0014506D01*
X0029410Y0014506D01*
X0029413Y0014531D01*
X0029621Y0014961D01*
X0029621Y0014961D01*
X0029633Y0014986D01*
X0029662Y0015158D01*
X0029724Y0015528D01*
X0029724Y0015528D01*
X0029727Y0015542D01*
X0029727Y0015591D01*
X0029647Y0016150D01*
X0029636Y0016175D01*
X0029631Y0016192D01*
X0029638Y0016433D01*
X0029785Y0016624D01*
X0029867Y0016666D01*
X0030095Y0016753D01*
X0030354Y0016850D01*
X0030373Y0016864D01*
X0030373Y0016864D01*
X0030881Y0017213D01*
X0030900Y0017226D01*
X0031341Y0017721D01*
X0031355Y0017746D01*
X0031472Y0017967D01*
X0031651Y0018307D01*
X0031787Y0018846D01*
X0031807Y0018927D01*
X0031807Y0018927D01*
X0031813Y0018950D01*
X0031816Y0019508D01*
X0031816Y0019589D01*
X0031816Y0019589D01*
X0031816Y0019613D01*
X0031662Y0020258D01*
X0031445Y0020677D01*
X0031368Y0020826D01*
X0031368Y0020826D01*
X0031358Y0020847D01*
X0030922Y0021346D01*
X0030788Y0021441D01*
X0030398Y0021714D01*
X0030398Y0021714D01*
X0030379Y0021728D01*
X0029917Y0021908D01*
X0029783Y0021960D01*
X0029783Y0021960D01*
X0029761Y0021969D01*
X0029738Y0021972D01*
X0029731Y0021973D01*
X0029726Y0021975D01*
X0029715Y0021977D01*
X0029716Y0021980D01*
X0029513Y0022076D01*
X0029398Y0022288D01*
X0029430Y0022527D01*
X0029506Y0022635D01*
X0030319Y0023447D01*
X0030533Y0023557D01*
X0030594Y0023562D01*
X0030779Y0023562D01*
X0033938Y0023562D01*
X0034167Y0023487D01*
X0034309Y0023292D01*
X0034309Y0023051D01*
X0034214Y0022896D01*
X0033772Y0022454D01*
X0033747Y0022431D01*
X0033630Y0022333D01*
X0033580Y0022247D01*
X0033553Y0022200D01*
X0033535Y0022172D01*
X0033447Y0022046D01*
X0033438Y0022014D01*
X0033429Y0021993D01*
X0033421Y0021971D01*
X0033404Y0021942D01*
X0033398Y0021908D01*
X0033398Y0021908D01*
X0033377Y0021791D01*
X0033370Y0021758D01*
X0033330Y0021610D01*
X0033333Y0021576D01*
X0033343Y0021458D01*
X0033345Y0021424D01*
X0033345Y0021350D01*
X0033270Y0021121D01*
X0033231Y0021075D01*
X0032915Y0020758D01*
X0032715Y0020348D01*
X0032676Y0020081D01*
X0032676Y0018660D01*
X0032678Y0018646D01*
X0032678Y0018646D01*
X0032710Y0018426D01*
X0032715Y0018391D01*
X0032916Y0017981D01*
X0032939Y0017959D01*
X0033012Y0017886D01*
X0033121Y0017671D01*
X0033084Y0017433D01*
X0033012Y0017334D01*
X0032773Y0017095D01*
X0032737Y0017046D01*
X0032538Y0016654D01*
X0032522Y0016607D01*
X0032530Y0016561D01*
X0032533Y0016558D01*
X0032558Y0016552D01*
X0036938Y0016552D01*
X0036938Y0016550D01*
X0037110Y0016550D01*
X0037266Y0016454D01*
X0037325Y0016395D01*
X0037356Y0016381D01*
X0037356Y0016381D01*
X0037646Y0016246D01*
X0037734Y0016204D01*
X0037921Y0016180D01*
X0038563Y0016180D01*
X0039206Y0016180D01*
X0039218Y0016181D01*
X0039218Y0016181D01*
X0039363Y0016200D01*
X0039363Y0016200D01*
X0039392Y0016204D01*
X0039609Y0016305D01*
X0039771Y0016381D01*
X0039771Y0016381D01*
X0039802Y0016395D01*
X0039863Y0016456D01*
X0040077Y0016565D01*
X0040315Y0016528D01*
X0040414Y0016456D01*
X0040475Y0016395D01*
X0040505Y0016381D01*
X0040505Y0016381D01*
X0040796Y0016246D01*
X0040884Y0016204D01*
X0041071Y0016180D01*
X0041713Y0016180D01*
X0042355Y0016180D01*
X0042368Y0016181D01*
X0042368Y0016181D01*
X0042512Y0016200D01*
X0042512Y0016200D01*
X0042542Y0016204D01*
X0042759Y0016305D01*
X0042921Y0016381D01*
X0042921Y0016381D01*
X0042952Y0016395D01*
X0043012Y0016456D01*
X0043227Y0016565D01*
X0043465Y0016528D01*
X0043563Y0016456D01*
X0043624Y0016395D01*
X0043655Y0016381D01*
X0043655Y0016381D01*
X0043945Y0016246D01*
X0044034Y0016204D01*
X0044220Y0016180D01*
X0044863Y0016180D01*
X0045505Y0016180D01*
X0045518Y0016181D01*
X0045518Y0016181D01*
X0045662Y0016200D01*
X0045662Y0016200D01*
X0045692Y0016204D01*
X0045968Y0016333D01*
X0046207Y0016362D01*
X0046417Y0016246D01*
X0046519Y0016027D01*
X0046522Y0015980D01*
X0046522Y0013030D01*
X0046448Y0012801D01*
X0046253Y0012659D01*
X0046132Y0012640D01*
X0045791Y0012640D01*
X0045776Y0012638D01*
X0045776Y0012638D01*
X0045435Y0012584D01*
X0045435Y0012584D01*
X0045404Y0012579D01*
X0045377Y0012565D01*
X0045377Y0012565D01*
X0044966Y0012356D01*
X0044966Y0012356D01*
X0044938Y0012342D01*
X0044569Y0011972D01*
X0044555Y0011945D01*
X0044555Y0011945D01*
X0044345Y0011533D01*
X0044331Y0011506D01*
X0044327Y0011476D01*
X0044327Y0011476D01*
X0044303Y0011329D01*
X0044270Y0011120D01*
X0044270Y0008842D01*
X0044273Y0008827D01*
X0044273Y0008827D01*
X0044324Y0008501D01*
X0044331Y0008456D01*
X0044345Y0008428D01*
X0044345Y0008428D01*
X0044554Y0008018D01*
X0044569Y0007990D01*
X0044938Y0007620D01*
X0044966Y0007606D01*
X0044966Y0007606D01*
X0045377Y0007397D01*
X0045404Y0007383D01*
X0045435Y0007378D01*
X0045435Y0007378D01*
X0045776Y0007324D01*
X0045776Y0007324D01*
X0045791Y0007321D01*
X0047773Y0007321D01*
X0047788Y0007324D01*
X0047788Y0007324D01*
X0048129Y0007378D01*
X0048129Y0007378D01*
X0048160Y0007383D01*
X0048187Y0007397D01*
X0048598Y0007606D01*
X0048598Y0007606D01*
X0048625Y0007620D01*
X0048995Y0007990D01*
X0049010Y0008018D01*
X0049191Y0008373D01*
X0049361Y0008543D01*
X0049599Y0008581D01*
X0049813Y0008472D01*
X0049885Y0008373D01*
X0050066Y0008018D01*
X0050081Y0007990D01*
X0050450Y0007620D01*
X0050478Y0007606D01*
X0050478Y0007606D01*
X0050889Y0007397D01*
X0050916Y0007383D01*
X0050946Y0007378D01*
X0050946Y0007378D01*
X0051287Y0007324D01*
X0051287Y0007324D01*
X0051303Y0007321D01*
X0053285Y0007321D01*
X0053300Y0007324D01*
X0053300Y0007324D01*
X0053641Y0007378D01*
X0053641Y0007378D01*
X0053671Y0007383D01*
X0053699Y0007397D01*
X0054110Y0007606D01*
X0054110Y0007606D01*
X0054137Y0007620D01*
X0054507Y0007990D01*
X0054521Y0008018D01*
X0054730Y0008428D01*
X0054730Y0008428D01*
X0054744Y0008456D01*
X0054752Y0008501D01*
X0054803Y0008827D01*
X0054803Y0008827D01*
X0054806Y0008842D01*
X0054806Y0011120D01*
X0054772Y0011329D01*
X0054749Y0011476D01*
X0054749Y0011476D01*
X0054744Y0011506D01*
X0054730Y0011533D01*
X0054521Y0011945D01*
X0054521Y0011945D01*
X0054507Y0011972D01*
X0054137Y0012342D01*
X0054110Y0012356D01*
X0054110Y0012356D01*
X0053699Y0012565D01*
X0053699Y0012565D01*
X0053671Y0012579D01*
X0053641Y0012584D01*
X0053641Y0012584D01*
X0053300Y0012638D01*
X0053300Y0012638D01*
X0053285Y0012640D01*
X0052920Y0012640D01*
X0052691Y0012715D01*
X0052549Y0012910D01*
X0052530Y0013030D01*
X0052530Y0015348D01*
X0052604Y0015577D01*
X0052799Y0015719D01*
X0053040Y0015719D01*
X0053235Y0015577D01*
X0053257Y0015543D01*
X0053315Y0015444D01*
X0053428Y0015348D01*
X0053432Y0015345D01*
X0053457Y0015322D01*
X0055526Y0013253D01*
X0055607Y0013135D01*
X0055792Y0012715D01*
X0055831Y0012626D01*
X0056118Y0012285D01*
X0056153Y0012243D01*
X0056243Y0012020D01*
X0056201Y0011815D01*
X0056058Y0011533D01*
X0056044Y0011506D01*
X0056039Y0011476D01*
X0056039Y0011476D01*
X0056016Y0011329D01*
X0055983Y0011120D01*
X0055983Y0008842D01*
X0055985Y0008827D01*
X0055985Y0008827D01*
X0056037Y0008501D01*
X0056044Y0008456D01*
X0056058Y0008428D01*
X0056058Y0008428D01*
X0056267Y0008018D01*
X0056281Y0007990D01*
X0056651Y0007620D01*
X0056678Y0007606D01*
X0056678Y0007606D01*
X0057089Y0007397D01*
X0057117Y0007383D01*
X0057147Y0007378D01*
X0057147Y0007378D01*
X0057488Y0007324D01*
X0057488Y0007324D01*
X0057503Y0007321D01*
X0059486Y0007321D01*
X0059501Y0007324D01*
X0059501Y0007324D01*
X0059842Y0007378D01*
X0059842Y0007378D01*
X0059872Y0007383D01*
X0059900Y0007397D01*
X0060311Y0007606D01*
X0060311Y0007606D01*
X0060338Y0007620D01*
X0060708Y0007990D01*
X0060722Y0008018D01*
X0060908Y0008382D01*
X0061078Y0008553D01*
X0061316Y0008590D01*
X0061531Y0008481D01*
X0061782Y0008230D01*
X0062192Y0008030D01*
X0062387Y0008001D01*
X0062445Y0007993D01*
X0062445Y0007993D01*
X0062459Y0007991D01*
X0064077Y0007991D01*
X0064091Y0007993D01*
X0064091Y0007993D01*
X0064316Y0008026D01*
X0064316Y0008026D01*
X0064346Y0008030D01*
X0064756Y0008231D01*
X0064935Y0008411D01*
X0065149Y0008520D01*
X0065387Y0008483D01*
X0065486Y0008411D01*
X0065810Y0008088D01*
X0065859Y0008052D01*
X0066250Y0007853D01*
X0066308Y0007834D01*
X0066390Y0007821D01*
X0066442Y0007829D01*
X0066445Y0007832D01*
X0066451Y0007857D01*
X0066451Y0007873D01*
X0068451Y0007873D01*
X0068467Y0007823D01*
X0068471Y0007820D01*
X0068497Y0007818D01*
X0068595Y0007834D01*
X0068652Y0007853D01*
X0069044Y0008052D01*
X0069093Y0008088D01*
X0069267Y0008262D01*
X0069482Y0008371D01*
X0069720Y0008334D01*
X0069818Y0008262D01*
X0069993Y0008088D01*
X0070042Y0008052D01*
X0070433Y0007853D01*
X0070491Y0007834D01*
X0070573Y0007821D01*
X0070625Y0007829D01*
X0070628Y0007832D01*
X0070634Y0007857D01*
X0070634Y0008880D01*
X0070618Y0008930D01*
X0070602Y0008941D01*
X0068513Y0008941D01*
X0068463Y0008925D01*
X0068451Y0008909D01*
X0068451Y0007873D01*
X0066451Y0007873D01*
X0066451Y0010552D01*
X0066526Y0010781D01*
X0066721Y0010922D01*
X0066841Y0010941D01*
X0072245Y0010941D01*
X0072474Y0010867D01*
X0072615Y0010672D01*
X0072634Y0010552D01*
X0072634Y0007873D01*
X0072651Y0007823D01*
X0072654Y0007820D01*
X0072680Y0007818D01*
X0072719Y0007825D01*
X0072957Y0007787D01*
X0073137Y0007597D01*
X0073233Y0007378D01*
X0073405Y0007174D01*
X0073578Y0006968D01*
X0073579Y0006968D01*
X0073596Y0006946D01*
X0073619Y0006931D01*
X0073619Y0006931D01*
X0073737Y0006853D01*
X0074066Y0006634D01*
X0074442Y0006516D01*
X0074578Y0006474D01*
X0074578Y0006474D01*
X0074605Y0006465D01*
X0074887Y0006460D01*
X0075142Y0006455D01*
X0075142Y0006455D01*
X0075169Y0006455D01*
X0075196Y0006462D01*
X0075196Y0006462D01*
X0075687Y0006596D01*
X0075714Y0006603D01*
X0075735Y0006616D01*
X0075973Y0006639D01*
X0076180Y0006516D01*
X0076194Y0006498D01*
X0076201Y0006491D01*
X0076223Y0006459D01*
X0076484Y0006284D01*
X0076521Y0006277D01*
X0076521Y0006277D01*
X0076611Y0006259D01*
X0076714Y0006239D01*
X0099704Y0006239D01*
X0099807Y0006259D01*
X0099897Y0006277D01*
X0099897Y0006277D01*
X0099934Y0006284D01*
X0100196Y0006459D01*
X0100370Y0006720D01*
X0100378Y0006760D01*
X0100411Y0006924D01*
X0100416Y0006950D01*
X0100416Y0011065D01*
X0102820Y0011065D01*
X0102820Y0011049D01*
X0102841Y0010856D01*
X0102853Y0010809D01*
X0103021Y0010359D01*
X0103048Y0010311D01*
X0103334Y0009928D01*
X0103373Y0009889D01*
X0103755Y0009603D01*
X0103804Y0009577D01*
X0104254Y0009408D01*
X0104301Y0009397D01*
X0104494Y0009376D01*
X0104515Y0009375D01*
X0104628Y0009375D01*
X0104678Y0009391D01*
X0104689Y0009407D01*
X0104689Y0009436D01*
X0106689Y0009436D01*
X0106706Y0009386D01*
X0106722Y0009375D01*
X0106864Y0009375D01*
X0106885Y0009376D01*
X0107078Y0009397D01*
X0107125Y0009408D01*
X0107575Y0009577D01*
X0107623Y0009603D01*
X0108006Y0009889D01*
X0108045Y0009928D01*
X0108331Y0010311D01*
X0108357Y0010359D01*
X0108526Y0010809D01*
X0108537Y0010856D01*
X0108557Y0011041D01*
X0108543Y0011085D01*
X0108527Y0011097D01*
X0106751Y0011097D01*
X0106701Y0011081D01*
X0106689Y0011065D01*
X0106689Y0009436D01*
X0104689Y0009436D01*
X0104689Y0011035D01*
X0104673Y0011085D01*
X0104657Y0011097D01*
X0102881Y0011097D01*
X0102831Y0011081D01*
X0102820Y0011065D01*
X0100416Y0011065D01*
X0100416Y0013153D01*
X0102821Y0013153D01*
X0102836Y0013109D01*
X0102852Y0013097D01*
X0104628Y0013097D01*
X0104678Y0013113D01*
X0104689Y0013129D01*
X0104689Y0013159D01*
X0106689Y0013159D01*
X0106706Y0013109D01*
X0106722Y0013097D01*
X0108498Y0013097D01*
X0108548Y0013113D01*
X0108559Y0013129D01*
X0108558Y0013145D01*
X0108537Y0013338D01*
X0108526Y0013385D01*
X0108357Y0013835D01*
X0108331Y0013883D01*
X0108045Y0014266D01*
X0108006Y0014304D01*
X0107623Y0014591D01*
X0107575Y0014617D01*
X0107125Y0014786D01*
X0107078Y0014797D01*
X0106885Y0014818D01*
X0106864Y0014819D01*
X0106751Y0014819D01*
X0106701Y0014803D01*
X0106689Y0014787D01*
X0106689Y0013159D01*
X0104689Y0013159D01*
X0104689Y0014758D01*
X0104673Y0014808D01*
X0104657Y0014819D01*
X0104515Y0014819D01*
X0104494Y0014818D01*
X0104301Y0014797D01*
X0104254Y0014786D01*
X0103804Y0014617D01*
X0103755Y0014591D01*
X0103373Y0014304D01*
X0103334Y0014266D01*
X0103048Y0013883D01*
X0103021Y0013835D01*
X0102853Y0013385D01*
X0102841Y0013338D01*
X0102821Y0013153D01*
X0100416Y0013153D01*
X0100416Y0024156D01*
X0100490Y0024385D01*
X0100685Y0024527D01*
X0100806Y0024546D01*
X0105311Y0024546D01*
X0105540Y0024471D01*
G37*
G36*
X0083602Y0043357D02*
G01*
X0083728Y0043151D01*
X0083739Y0043060D01*
X0083739Y0036724D01*
X0083664Y0036495D01*
X0083469Y0036353D01*
X0083228Y0036353D01*
X0083034Y0036495D01*
X0082994Y0036563D01*
X0082969Y0036619D01*
X0082969Y0036619D01*
X0082957Y0036644D01*
X0082589Y0037072D01*
X0082115Y0037379D01*
X0081574Y0037540D01*
X0081246Y0037542D01*
X0081038Y0037544D01*
X0081038Y0037544D01*
X0081010Y0037544D01*
X0080983Y0037536D01*
X0080983Y0037536D01*
X0080494Y0037396D01*
X0080494Y0037396D01*
X0080467Y0037389D01*
X0080419Y0037358D01*
X0080091Y0037151D01*
X0079990Y0037087D01*
X0079971Y0037067D01*
X0079971Y0037067D01*
X0079634Y0036685D01*
X0079634Y0036685D01*
X0079616Y0036664D01*
X0079376Y0036153D01*
X0079372Y0036126D01*
X0079372Y0036126D01*
X0079318Y0035781D01*
X0079289Y0035596D01*
X0079363Y0035036D01*
X0079374Y0035011D01*
X0079374Y0035011D01*
X0079577Y0034548D01*
X0079590Y0034519D01*
X0079730Y0034353D01*
X0079935Y0034109D01*
X0079935Y0034109D01*
X0079953Y0034087D01*
X0080423Y0033775D01*
X0080449Y0033766D01*
X0080471Y0033756D01*
X0080646Y0033590D01*
X0080690Y0033353D01*
X0080586Y0033136D01*
X0080375Y0033021D01*
X0080304Y0033014D01*
X0076714Y0033014D01*
X0076611Y0032994D01*
X0076521Y0032976D01*
X0076521Y0032976D01*
X0076484Y0032968D01*
X0076232Y0032800D01*
X0076000Y0032735D01*
X0075774Y0032818D01*
X0075720Y0032870D01*
X0075552Y0033064D01*
X0075552Y0033064D01*
X0075534Y0033085D01*
X0075060Y0033392D01*
X0074520Y0033554D01*
X0074192Y0033556D01*
X0073983Y0033557D01*
X0073983Y0033557D01*
X0073955Y0033557D01*
X0073929Y0033550D01*
X0073929Y0033550D01*
X0073439Y0033410D01*
X0073439Y0033410D01*
X0073413Y0033402D01*
X0072935Y0033101D01*
X0072917Y0033080D01*
X0072917Y0033080D01*
X0072580Y0032699D01*
X0072580Y0032699D01*
X0072562Y0032678D01*
X0072322Y0032167D01*
X0072317Y0032140D01*
X0072317Y0032140D01*
X0072276Y0031873D01*
X0072235Y0031609D01*
X0072238Y0031582D01*
X0072238Y0031582D01*
X0072276Y0031290D01*
X0072308Y0031050D01*
X0072319Y0031024D01*
X0072319Y0031024D01*
X0072521Y0030567D01*
X0072535Y0030533D01*
X0072644Y0030403D01*
X0072881Y0030122D01*
X0072881Y0030122D01*
X0072898Y0030101D01*
X0072922Y0030086D01*
X0072922Y0030086D01*
X0073046Y0030003D01*
X0073368Y0029788D01*
X0073691Y0029687D01*
X0073881Y0029628D01*
X0073881Y0029628D01*
X0073907Y0029620D01*
X0074189Y0029615D01*
X0074444Y0029610D01*
X0074444Y0029610D01*
X0074471Y0029610D01*
X0074498Y0029617D01*
X0074498Y0029617D01*
X0074862Y0029716D01*
X0075016Y0029758D01*
X0075187Y0029863D01*
X0075409Y0029999D01*
X0075643Y0030056D01*
X0075866Y0029964D01*
X0075992Y0029758D01*
X0076002Y0029667D01*
X0076002Y0028716D01*
X0075928Y0028487D01*
X0075733Y0028346D01*
X0075501Y0028343D01*
X0075218Y0028428D01*
X0074890Y0028430D01*
X0074681Y0028431D01*
X0074681Y0028431D01*
X0074653Y0028431D01*
X0074225Y0028309D01*
X0074027Y0028305D01*
X0073998Y0028312D01*
X0070196Y0028312D01*
X0070146Y0028295D01*
X0070134Y0028279D01*
X0070134Y0027890D01*
X0070060Y0027661D01*
X0069865Y0027520D01*
X0069745Y0027500D01*
X0062204Y0027500D01*
X0062162Y0027487D01*
X0062162Y0027462D01*
X0062319Y0027141D01*
X0062356Y0027089D01*
X0062424Y0027021D01*
X0062534Y0026807D01*
X0062497Y0026574D01*
X0062497Y0026574D01*
X0062306Y0026164D01*
X0062282Y0025977D01*
X0062282Y0024693D01*
X0062284Y0024680D01*
X0062284Y0024680D01*
X0062303Y0024536D01*
X0062306Y0024506D01*
X0062442Y0024216D01*
X0062476Y0024144D01*
X0062505Y0023904D01*
X0062388Y0023694D01*
X0062170Y0023592D01*
X0061951Y0023629D01*
X0061650Y0023776D01*
X0061606Y0023782D01*
X0061595Y0023759D01*
X0061595Y0022662D01*
X0061558Y0022496D01*
X0061522Y0022420D01*
X0061435Y0021862D01*
X0061439Y0021835D01*
X0061439Y0021835D01*
X0061473Y0021576D01*
X0061509Y0021303D01*
X0061520Y0021277D01*
X0061520Y0021277D01*
X0061562Y0021181D01*
X0061595Y0021025D01*
X0061595Y0016102D01*
X0061649Y0015937D01*
X0061649Y0015696D01*
X0061553Y0015541D01*
X0061316Y0015303D01*
X0061280Y0015254D01*
X0061081Y0014863D01*
X0061066Y0014816D01*
X0061073Y0014769D01*
X0061076Y0014766D01*
X0061101Y0014760D01*
X0062206Y0014760D01*
X0062256Y0014777D01*
X0062268Y0014793D01*
X0062268Y0015829D01*
X0062248Y0015890D01*
X0062120Y0016067D01*
X0062120Y0016308D01*
X0062215Y0016463D01*
X0062312Y0016560D01*
X0062348Y0016612D01*
X0062539Y0017002D01*
X0062557Y0017059D01*
X0062593Y0017306D01*
X0062595Y0017334D01*
X0062595Y0019503D01*
X0062669Y0019732D01*
X0062864Y0019874D01*
X0063052Y0019875D01*
X0063054Y0019886D01*
X0063081Y0019881D01*
X0063108Y0019873D01*
X0063390Y0019868D01*
X0063644Y0019863D01*
X0063644Y0019863D01*
X0063672Y0019862D01*
X0063699Y0019870D01*
X0063699Y0019870D01*
X0063907Y0019926D01*
X0063968Y0019943D01*
X0064037Y0019955D01*
X0064062Y0019958D01*
X0064096Y0019959D01*
X0069557Y0019959D01*
X0069786Y0019885D01*
X0069832Y0019845D01*
X0070070Y0019607D01*
X0070180Y0019393D01*
X0070142Y0019155D01*
X0070071Y0019056D01*
X0069824Y0018809D01*
X0069624Y0018399D01*
X0069585Y0018132D01*
X0069585Y0016711D01*
X0069587Y0016697D01*
X0069587Y0016697D01*
X0069619Y0016482D01*
X0069625Y0016442D01*
X0069638Y0016415D01*
X0069638Y0016415D01*
X0069671Y0016347D01*
X0069826Y0016032D01*
X0069936Y0015922D01*
X0069992Y0015867D01*
X0070101Y0015652D01*
X0070064Y0015414D01*
X0069992Y0015316D01*
X0069870Y0015193D01*
X0069824Y0015148D01*
X0069816Y0015156D01*
X0069666Y0015045D01*
X0069426Y0015043D01*
X0069268Y0015158D01*
X0069260Y0015150D01*
X0068960Y0015449D01*
X0068960Y0015449D01*
X0068937Y0015472D01*
X0068527Y0015672D01*
X0068332Y0015701D01*
X0068274Y0015709D01*
X0068274Y0015709D01*
X0068260Y0015711D01*
X0066642Y0015711D01*
X0066628Y0015709D01*
X0066628Y0015709D01*
X0066403Y0015676D01*
X0066403Y0015676D01*
X0066373Y0015671D01*
X0066346Y0015658D01*
X0066346Y0015658D01*
X0066259Y0015615D01*
X0065963Y0015470D01*
X0065784Y0015291D01*
X0065570Y0015182D01*
X0065332Y0015219D01*
X0065233Y0015291D01*
X0064910Y0015614D01*
X0064861Y0015650D01*
X0064469Y0015849D01*
X0064412Y0015868D01*
X0064329Y0015881D01*
X0064277Y0015873D01*
X0064274Y0015870D01*
X0064268Y0015845D01*
X0064268Y0013150D01*
X0064194Y0012921D01*
X0063999Y0012779D01*
X0063878Y0012760D01*
X0061117Y0012760D01*
X0061067Y0012744D01*
X0061064Y0012741D01*
X0061062Y0012715D01*
X0061089Y0012633D01*
X0061089Y0012392D01*
X0060947Y0012197D01*
X0060718Y0012123D01*
X0060489Y0012197D01*
X0060443Y0012237D01*
X0060338Y0012342D01*
X0060311Y0012356D01*
X0060311Y0012356D01*
X0059899Y0012565D01*
X0059899Y0012565D01*
X0059872Y0012579D01*
X0059842Y0012584D01*
X0059842Y0012584D01*
X0059734Y0012601D01*
X0059519Y0012710D01*
X0059410Y0012925D01*
X0059421Y0013072D01*
X0059418Y0013072D01*
X0059509Y0013614D01*
X0059509Y0013614D01*
X0059511Y0013629D01*
X0059512Y0013678D01*
X0059432Y0014236D01*
X0059328Y0014464D01*
X0059210Y0014725D01*
X0059210Y0014725D01*
X0059198Y0014750D01*
X0058830Y0015178D01*
X0058413Y0015448D01*
X0058379Y0015470D01*
X0058379Y0015470D01*
X0058356Y0015485D01*
X0058329Y0015493D01*
X0058306Y0015504D01*
X0058129Y0015667D01*
X0058082Y0015904D01*
X0058183Y0016122D01*
X0058304Y0016211D01*
X0058314Y0016215D01*
X0058700Y0016395D01*
X0058705Y0016384D01*
X0058878Y0016437D01*
X0059106Y0016358D01*
X0059147Y0016323D01*
X0059217Y0016252D01*
X0059269Y0016215D01*
X0059571Y0016068D01*
X0059615Y0016062D01*
X0059626Y0016084D01*
X0059626Y0023741D01*
X0059613Y0023784D01*
X0059588Y0023784D01*
X0059267Y0023627D01*
X0059215Y0023590D01*
X0059147Y0023521D01*
X0058933Y0023412D01*
X0058700Y0023448D01*
X0058700Y0023448D01*
X0058699Y0023449D01*
X0058699Y0023449D01*
X0058325Y0023623D01*
X0058317Y0023627D01*
X0058290Y0023639D01*
X0058103Y0023664D01*
X0057807Y0023664D01*
X0057578Y0023738D01*
X0057531Y0023778D01*
X0055809Y0025501D01*
X0055786Y0025526D01*
X0055745Y0025575D01*
X0055687Y0025643D01*
X0055555Y0025720D01*
X0055526Y0025738D01*
X0055429Y0025806D01*
X0055429Y0025806D01*
X0055401Y0025826D01*
X0055368Y0025834D01*
X0055367Y0025835D01*
X0055191Y0025999D01*
X0055145Y0026236D01*
X0055181Y0026358D01*
X0055182Y0026361D01*
X0055250Y0026502D01*
X0055259Y0026555D01*
X0055342Y0027043D01*
X0055342Y0027043D01*
X0055344Y0027058D01*
X0055345Y0027107D01*
X0055265Y0027666D01*
X0055031Y0028179D01*
X0055025Y0028186D01*
X0054966Y0028411D01*
X0055054Y0028636D01*
X0055257Y0028765D01*
X0055355Y0028778D01*
X0056798Y0028778D01*
X0056832Y0028777D01*
X0056984Y0028763D01*
X0057132Y0028803D01*
X0057165Y0028810D01*
X0057282Y0028831D01*
X0057282Y0028831D01*
X0057316Y0028837D01*
X0057345Y0028854D01*
X0057367Y0028862D01*
X0057387Y0028871D01*
X0057420Y0028880D01*
X0057546Y0028968D01*
X0057574Y0028986D01*
X0057677Y0029046D01*
X0057707Y0029063D01*
X0057805Y0029180D01*
X0057828Y0029205D01*
X0059235Y0030611D01*
X0062162Y0030611D01*
X0062319Y0030291D01*
X0062322Y0030286D01*
X0062324Y0030281D01*
X0062333Y0030262D01*
X0062330Y0030260D01*
X0062395Y0030057D01*
X0062330Y0029856D01*
X0062332Y0029855D01*
X0062326Y0029842D01*
X0062323Y0029833D01*
X0062318Y0029826D01*
X0062170Y0029524D01*
X0062164Y0029480D01*
X0062186Y0029469D01*
X0064978Y0029469D01*
X0065028Y0029485D01*
X0065040Y0029501D01*
X0065040Y0030588D01*
X0065024Y0030638D01*
X0065007Y0030650D01*
X0062204Y0030650D01*
X0062162Y0030636D01*
X0062162Y0030611D01*
X0059235Y0030611D01*
X0061489Y0032866D01*
X0061704Y0032975D01*
X0061942Y0032937D01*
X0062112Y0032767D01*
X0062124Y0032695D01*
X0062157Y0032633D01*
X0062186Y0032619D01*
X0066619Y0032619D01*
X0066848Y0032544D01*
X0066989Y0032349D01*
X0067008Y0032229D01*
X0067008Y0029531D01*
X0067025Y0029481D01*
X0067041Y0029469D01*
X0069352Y0029469D01*
X0069402Y0029485D01*
X0069414Y0029501D01*
X0069414Y0029922D01*
X0069488Y0030151D01*
X0069683Y0030292D01*
X0069804Y0030312D01*
X0070769Y0030312D01*
X0070819Y0030328D01*
X0070831Y0030344D01*
X0070831Y0031380D01*
X0070811Y0031443D01*
X0070802Y0031655D01*
X0070831Y0031775D01*
X0070831Y0034469D01*
X0070906Y0034698D01*
X0071100Y0034840D01*
X0071221Y0034859D01*
X0073983Y0034859D01*
X0074032Y0034875D01*
X0074035Y0034878D01*
X0074037Y0034904D01*
X0074018Y0034961D01*
X0073819Y0035353D01*
X0073783Y0035402D01*
X0073544Y0035642D01*
X0073434Y0035856D01*
X0073472Y0036094D01*
X0073543Y0036193D01*
X0073552Y0036201D01*
X0073641Y0036290D01*
X0073841Y0036700D01*
X0073873Y0036920D01*
X0073878Y0036953D01*
X0073878Y0036953D01*
X0073880Y0036967D01*
X0073880Y0037750D01*
X0073955Y0037979D01*
X0074168Y0038126D01*
X0074298Y0038161D01*
X0074554Y0038231D01*
X0075035Y0038526D01*
X0075080Y0038576D01*
X0075395Y0038924D01*
X0075414Y0038945D01*
X0075524Y0039172D01*
X0075659Y0039451D01*
X0075826Y0039625D01*
X0076063Y0039667D01*
X0076283Y0039558D01*
X0076301Y0039530D01*
X0076563Y0039355D01*
X0076600Y0039348D01*
X0076600Y0039348D01*
X0076689Y0039330D01*
X0076793Y0039310D01*
X0081673Y0039310D01*
X0081776Y0039330D01*
X0081865Y0039348D01*
X0081865Y0039348D01*
X0081903Y0039355D01*
X0082164Y0039530D01*
X0082338Y0039791D01*
X0082353Y0039862D01*
X0082370Y0039950D01*
X0082384Y0040021D01*
X0082384Y0042047D01*
X0082468Y0042288D01*
X0082573Y0042421D01*
X0082573Y0042421D01*
X0082584Y0042435D01*
X0082594Y0042454D01*
X0082980Y0043188D01*
X0082980Y0043188D01*
X0082988Y0043204D01*
X0082991Y0043212D01*
X0083145Y0043393D01*
X0083379Y0043449D01*
X0083602Y0043357D01*
G37*
G36*
X0074145Y0020573D02*
G01*
X0074510Y0020459D01*
X0074618Y0020426D01*
X0074618Y0020426D01*
X0074644Y0020417D01*
X0074927Y0020412D01*
X0075181Y0020407D01*
X0075181Y0020407D01*
X0075209Y0020407D01*
X0075510Y0020489D01*
X0075751Y0020478D01*
X0075939Y0020327D01*
X0076002Y0020113D01*
X0076002Y0016708D01*
X0075928Y0016479D01*
X0075733Y0016338D01*
X0075501Y0016335D01*
X0075218Y0016420D01*
X0074890Y0016422D01*
X0074681Y0016423D01*
X0074681Y0016423D01*
X0074653Y0016423D01*
X0074626Y0016416D01*
X0074626Y0016416D01*
X0074177Y0016287D01*
X0073936Y0016296D01*
X0073746Y0016444D01*
X0073681Y0016690D01*
X0073681Y0016697D01*
X0073683Y0016711D01*
X0073683Y0018132D01*
X0073666Y0018250D01*
X0073648Y0018372D01*
X0073648Y0018372D01*
X0073644Y0018402D01*
X0073593Y0018506D01*
X0073469Y0018758D01*
X0073443Y0018811D01*
X0073330Y0018924D01*
X0073198Y0019055D01*
X0073089Y0019270D01*
X0073126Y0019508D01*
X0073198Y0019606D01*
X0073294Y0019703D01*
X0073444Y0019853D01*
X0073645Y0020263D01*
X0073649Y0020293D01*
X0073656Y0020316D01*
X0073795Y0020513D01*
X0074023Y0020591D01*
X0074145Y0020573D01*
G37*
G36*
X0023159Y0029818D02*
G01*
X0023539Y0029534D01*
X0023587Y0029508D01*
X0024037Y0029339D01*
X0024085Y0029328D01*
X0024202Y0029315D01*
X0024421Y0029216D01*
X0024541Y0029007D01*
X0024545Y0028868D01*
X0024488Y0028501D01*
X0024491Y0028473D01*
X0024491Y0028473D01*
X0024533Y0028154D01*
X0024560Y0027951D01*
X0024561Y0027941D01*
X0024559Y0027941D01*
X0024550Y0027718D01*
X0024400Y0027529D01*
X0024168Y0027465D01*
X0024008Y0027507D01*
X0023977Y0027522D01*
X0023930Y0027538D01*
X0023884Y0027530D01*
X0023880Y0027527D01*
X0023874Y0027502D01*
X0023874Y0023184D01*
X0023891Y0023134D01*
X0023894Y0023131D01*
X0023920Y0023129D01*
X0023977Y0023148D01*
X0024369Y0023347D01*
X0024418Y0023383D01*
X0024657Y0023623D01*
X0024872Y0023732D01*
X0025110Y0023694D01*
X0025208Y0023623D01*
X0025306Y0023525D01*
X0025716Y0023325D01*
X0025746Y0023321D01*
X0025756Y0023317D01*
X0025953Y0023179D01*
X0026030Y0022951D01*
X0025959Y0022721D01*
X0025916Y0022669D01*
X0025155Y0021908D01*
X0024940Y0021799D01*
X0024879Y0021794D01*
X0019834Y0021794D01*
X0019605Y0021868D01*
X0019558Y0021908D01*
X0018489Y0022977D01*
X0018479Y0022990D01*
X0018470Y0023007D01*
X0018326Y0023141D01*
X0018316Y0023151D01*
X0018261Y0023205D01*
X0018247Y0023215D01*
X0018231Y0023229D01*
X0018227Y0023232D01*
X0018181Y0023276D01*
X0018174Y0023282D01*
X0019918Y0023282D01*
X0019934Y0023232D01*
X0019937Y0023230D01*
X0019963Y0023228D01*
X0020020Y0023246D01*
X0020412Y0023446D01*
X0020461Y0023481D01*
X0020571Y0023592D01*
X0020786Y0023701D01*
X0021024Y0023663D01*
X0021122Y0023592D01*
X0021331Y0023383D01*
X0021380Y0023347D01*
X0021772Y0023148D01*
X0021819Y0023133D01*
X0021865Y0023140D01*
X0021868Y0023143D01*
X0021874Y0023168D01*
X0021874Y0024273D01*
X0021858Y0024323D01*
X0021842Y0024335D01*
X0020785Y0024335D01*
X0020556Y0024410D01*
X0020523Y0024434D01*
X0019979Y0024434D01*
X0019930Y0024417D01*
X0019918Y0024401D01*
X0019918Y0023282D01*
X0018174Y0023282D01*
X0018171Y0023284D01*
X0018171Y0023284D01*
X0018145Y0023309D01*
X0018112Y0023322D01*
X0018099Y0023330D01*
X0017945Y0023515D01*
X0017918Y0023659D01*
X0017918Y0026044D01*
X0017992Y0026273D01*
X0018187Y0026414D01*
X0018308Y0026434D01*
X0021007Y0026434D01*
X0021236Y0026359D01*
X0021269Y0026335D01*
X0021813Y0026335D01*
X0021863Y0026351D01*
X0021874Y0026368D01*
X0021874Y0027487D01*
X0021858Y0027536D01*
X0021829Y0027557D01*
X0021775Y0027633D01*
X0021656Y0027469D01*
X0021604Y0027437D01*
X0021380Y0027323D01*
X0021331Y0027287D01*
X0021221Y0027177D01*
X0021006Y0027068D01*
X0020768Y0027105D01*
X0020670Y0027177D01*
X0020461Y0027386D01*
X0020412Y0027421D01*
X0020382Y0027437D01*
X0020211Y0027607D01*
X0020174Y0027845D01*
X0020283Y0028060D01*
X0020498Y0028169D01*
X0020559Y0028174D01*
X0021427Y0028174D01*
X0021656Y0028099D01*
X0021710Y0028024D01*
X0021829Y0028188D01*
X0021909Y0028233D01*
X0021958Y0028253D01*
X0022225Y0028431D01*
X0022278Y0028485D01*
X0022457Y0028752D01*
X0022485Y0028821D01*
X0022532Y0029056D01*
X0022536Y0029094D01*
X0022536Y0029507D01*
X0022610Y0029736D01*
X0022805Y0029877D01*
X0023046Y0029877D01*
X0023159Y0029818D01*
G37*
G36*
X0009791Y0032183D02*
G01*
X0009811Y0032170D01*
X0009848Y0032163D01*
X0009876Y0032151D01*
X0010059Y0031995D01*
X0010117Y0031791D01*
X0010117Y0031271D01*
X0010114Y0031225D01*
X0010097Y0031086D01*
X0010103Y0031057D01*
X0010103Y0031057D01*
X0010139Y0030857D01*
X0010141Y0030845D01*
X0010176Y0030615D01*
X0010188Y0030589D01*
X0010193Y0030561D01*
X0010207Y0030535D01*
X0010300Y0030355D01*
X0010306Y0030344D01*
X0010394Y0030160D01*
X0010394Y0030160D01*
X0010407Y0030134D01*
X0010423Y0030117D01*
X0010429Y0030108D01*
X0010439Y0030088D01*
X0010456Y0030068D01*
X0010604Y0029920D01*
X0010615Y0029909D01*
X0010749Y0029764D01*
X0010749Y0029764D01*
X0010769Y0029742D01*
X0010793Y0029729D01*
X0010821Y0029703D01*
X0013211Y0027313D01*
X0013320Y0027098D01*
X0013325Y0027037D01*
X0013325Y0026882D01*
X0013286Y0026711D01*
X0013187Y0026510D01*
X0013148Y0026243D01*
X0013148Y0025888D01*
X0013074Y0025658D01*
X0012879Y0025517D01*
X0012638Y0025517D01*
X0012443Y0025658D01*
X0012403Y0025726D01*
X0012239Y0026087D01*
X0012239Y0026087D01*
X0012228Y0026112D01*
X0011912Y0026480D01*
X0011878Y0026519D01*
X0011878Y0026519D01*
X0011859Y0026540D01*
X0011386Y0026847D01*
X0010845Y0027009D01*
X0010517Y0027011D01*
X0010308Y0027012D01*
X0010308Y0027012D01*
X0010281Y0027012D01*
X0010254Y0027005D01*
X0010254Y0027005D01*
X0009765Y0026865D01*
X0009765Y0026865D01*
X0009738Y0026857D01*
X0009261Y0026556D01*
X0009242Y0026535D01*
X0009242Y0026535D01*
X0008905Y0026154D01*
X0008905Y0026154D01*
X0008887Y0026133D01*
X0008875Y0026108D01*
X0008875Y0026108D01*
X0008838Y0026030D01*
X0008647Y0025622D01*
X0008646Y0025612D01*
X0008512Y0025422D01*
X0008278Y0025343D01*
X0007143Y0025343D01*
X0006979Y0025380D01*
X0006939Y0025398D01*
X0006939Y0025398D01*
X0006912Y0025411D01*
X0006725Y0025436D01*
X0006693Y0025436D01*
X0006081Y0025436D01*
X0005852Y0025510D01*
X0005710Y0025705D01*
X0005691Y0025825D01*
X0005691Y0029473D01*
X0005766Y0029702D01*
X0005961Y0029844D01*
X0006081Y0029863D01*
X0007039Y0029863D01*
X0007063Y0029861D01*
X0007077Y0029861D01*
X0007102Y0029858D01*
X0007127Y0029861D01*
X0007139Y0029863D01*
X0007211Y0029872D01*
X0007642Y0029929D01*
X0007642Y0029929D01*
X0007668Y0029932D01*
X0008195Y0030151D01*
X0008648Y0030498D01*
X0008995Y0030951D01*
X0009214Y0031478D01*
X0009220Y0031524D01*
X0009251Y0031760D01*
X0009266Y0031873D01*
X0009369Y0032091D01*
X0009581Y0032205D01*
X0009791Y0032183D01*
G37*
G36*
X0017488Y0045654D02*
G01*
X0017488Y0045655D01*
X0017718Y0045609D01*
X0020210Y0045609D01*
X0020439Y0045534D01*
X0020581Y0045339D01*
X0020581Y0045099D01*
X0020486Y0044944D01*
X0020300Y0044757D01*
X0020300Y0044757D01*
X0020277Y0044734D01*
X0020077Y0044324D01*
X0020038Y0044058D01*
X0020038Y0042440D01*
X0020040Y0042425D01*
X0020040Y0042425D01*
X0020073Y0042200D01*
X0020077Y0042170D01*
X0020091Y0042143D01*
X0020091Y0042143D01*
X0020137Y0042050D01*
X0020238Y0041844D01*
X0020274Y0041770D01*
X0020314Y0041598D01*
X0020314Y0040983D01*
X0020239Y0040754D01*
X0020044Y0040612D01*
X0019924Y0040593D01*
X0017915Y0040593D01*
X0017811Y0040572D01*
X0017722Y0040555D01*
X0017722Y0040555D01*
X0017685Y0040547D01*
X0017423Y0040373D01*
X0017249Y0040112D01*
X0017241Y0040074D01*
X0017241Y0040074D01*
X0017227Y0040000D01*
X0017203Y0039881D01*
X0017203Y0036576D01*
X0017224Y0036474D01*
X0017241Y0036385D01*
X0017249Y0036346D01*
X0017423Y0036085D01*
X0017685Y0035910D01*
X0017722Y0035903D01*
X0017722Y0035903D01*
X0017811Y0035885D01*
X0017915Y0035865D01*
X0021614Y0035865D01*
X0021717Y0035885D01*
X0021806Y0035903D01*
X0021806Y0035903D01*
X0021844Y0035910D01*
X0022105Y0036085D01*
X0022237Y0036282D01*
X0022426Y0036431D01*
X0022561Y0036455D01*
X0022881Y0036455D01*
X0023110Y0036381D01*
X0023156Y0036341D01*
X0023482Y0036016D01*
X0023509Y0036002D01*
X0023509Y0036002D01*
X0023778Y0035865D01*
X0023948Y0035778D01*
X0023978Y0035773D01*
X0023978Y0035773D01*
X0024319Y0035719D01*
X0024319Y0035719D01*
X0024334Y0035717D01*
X0026612Y0035717D01*
X0026627Y0035719D01*
X0026627Y0035719D01*
X0026968Y0035773D01*
X0026968Y0035773D01*
X0026998Y0035778D01*
X0027168Y0035865D01*
X0027437Y0036002D01*
X0027437Y0036002D01*
X0027464Y0036016D01*
X0027834Y0036385D01*
X0027851Y0036420D01*
X0028057Y0036824D01*
X0028057Y0036824D01*
X0028071Y0036851D01*
X0028078Y0036895D01*
X0028130Y0037223D01*
X0028130Y0037223D01*
X0028132Y0037238D01*
X0028132Y0038422D01*
X0028207Y0038652D01*
X0028246Y0038698D01*
X0028849Y0039301D01*
X0029064Y0039410D01*
X0029302Y0039373D01*
X0029472Y0039202D01*
X0029510Y0038964D01*
X0029478Y0038861D01*
X0029432Y0038762D01*
X0029408Y0038576D01*
X0029408Y0037291D01*
X0029410Y0037279D01*
X0029410Y0037279D01*
X0029429Y0037134D01*
X0029432Y0037105D01*
X0029515Y0036927D01*
X0029607Y0036730D01*
X0029623Y0036695D01*
X0029684Y0036634D01*
X0029794Y0036420D01*
X0029756Y0036182D01*
X0029684Y0036083D01*
X0029623Y0036022D01*
X0029609Y0035992D01*
X0029609Y0035992D01*
X0029486Y0035727D01*
X0029432Y0035613D01*
X0029408Y0035426D01*
X0029408Y0034142D01*
X0029410Y0034129D01*
X0029410Y0034129D01*
X0029417Y0034072D01*
X0029432Y0033955D01*
X0029498Y0033814D01*
X0029603Y0033590D01*
X0029623Y0033545D01*
X0029684Y0033485D01*
X0029794Y0033270D01*
X0029756Y0033032D01*
X0029684Y0032934D01*
X0029623Y0032873D01*
X0029609Y0032842D01*
X0029609Y0032842D01*
X0029484Y0032574D01*
X0029432Y0032463D01*
X0029408Y0032277D01*
X0029408Y0030992D01*
X0029410Y0030979D01*
X0029410Y0030979D01*
X0029429Y0030835D01*
X0029432Y0030805D01*
X0029576Y0030498D01*
X0029605Y0030259D01*
X0029488Y0030049D01*
X0029275Y0029948D01*
X0029266Y0029946D01*
X0029238Y0029946D01*
X0029211Y0029939D01*
X0029211Y0029939D01*
X0028739Y0029804D01*
X0028695Y0029791D01*
X0028672Y0029777D01*
X0028654Y0029768D01*
X0028414Y0029743D01*
X0028205Y0029863D01*
X0028107Y0030083D01*
X0028142Y0030260D01*
X0028131Y0030264D01*
X0028310Y0030740D01*
X0028321Y0030787D01*
X0028341Y0030972D01*
X0028327Y0031016D01*
X0028310Y0031028D01*
X0024863Y0031028D01*
X0024634Y0031102D01*
X0024492Y0031297D01*
X0024473Y0031418D01*
X0024473Y0033090D01*
X0026473Y0033090D01*
X0026489Y0033040D01*
X0026505Y0033028D01*
X0028281Y0033028D01*
X0028331Y0033044D01*
X0028343Y0033060D01*
X0028342Y0033076D01*
X0028321Y0033269D01*
X0028310Y0033316D01*
X0028141Y0033766D01*
X0028114Y0033814D01*
X0027828Y0034197D01*
X0027789Y0034236D01*
X0027407Y0034522D01*
X0027359Y0034548D01*
X0026908Y0034717D01*
X0026861Y0034728D01*
X0026668Y0034749D01*
X0026647Y0034750D01*
X0026535Y0034750D01*
X0026485Y0034734D01*
X0026473Y0034718D01*
X0026473Y0033090D01*
X0024473Y0033090D01*
X0024473Y0034689D01*
X0024457Y0034739D01*
X0024440Y0034750D01*
X0024298Y0034750D01*
X0024277Y0034749D01*
X0024085Y0034728D01*
X0024037Y0034717D01*
X0023587Y0034548D01*
X0023539Y0034522D01*
X0023157Y0034236D01*
X0023118Y0034197D01*
X0022831Y0033814D01*
X0022805Y0033766D01*
X0022651Y0033357D01*
X0022501Y0033168D01*
X0022269Y0033104D01*
X0022070Y0033169D01*
X0021958Y0033244D01*
X0021888Y0033273D01*
X0021653Y0033320D01*
X0021615Y0033323D01*
X0020826Y0033323D01*
X0020776Y0033307D01*
X0020764Y0033291D01*
X0020764Y0030138D01*
X0020690Y0029909D01*
X0020495Y0029768D01*
X0020374Y0029749D01*
X0017054Y0029749D01*
X0017004Y0029732D01*
X0016993Y0029716D01*
X0016993Y0029494D01*
X0016918Y0029265D01*
X0016723Y0029123D01*
X0016482Y0029123D01*
X0016317Y0029229D01*
X0016240Y0029312D01*
X0016240Y0029312D01*
X0016220Y0029333D01*
X0016196Y0029347D01*
X0016168Y0029373D01*
X0013946Y0031594D01*
X0013837Y0031809D01*
X0013837Y0031810D01*
X0016993Y0031810D01*
X0017009Y0031760D01*
X0017025Y0031749D01*
X0018702Y0031749D01*
X0018752Y0031765D01*
X0018764Y0031781D01*
X0018764Y0033262D01*
X0018748Y0033312D01*
X0018732Y0033323D01*
X0017913Y0033323D01*
X0017875Y0033320D01*
X0017640Y0033273D01*
X0017570Y0033244D01*
X0017304Y0033066D01*
X0017250Y0033012D01*
X0017072Y0032745D01*
X0017043Y0032676D01*
X0016996Y0032441D01*
X0016993Y0032403D01*
X0016993Y0031810D01*
X0013837Y0031810D01*
X0013875Y0032047D01*
X0014005Y0032194D01*
X0014199Y0032323D01*
X0014231Y0032345D01*
X0014405Y0032606D01*
X0014420Y0032678D01*
X0014439Y0032773D01*
X0014451Y0032836D01*
X0014451Y0036141D01*
X0014417Y0036313D01*
X0014413Y0036334D01*
X0014413Y0036334D01*
X0014405Y0036371D01*
X0014231Y0036633D01*
X0013970Y0036807D01*
X0013932Y0036815D01*
X0013932Y0036815D01*
X0013828Y0036835D01*
X0013740Y0036853D01*
X0013720Y0036853D01*
X0013701Y0036855D01*
X0013702Y0036861D01*
X0013498Y0036927D01*
X0013356Y0037122D01*
X0013337Y0037243D01*
X0013337Y0040906D01*
X0013411Y0041135D01*
X0013606Y0041276D01*
X0013847Y0041276D01*
X0013904Y0041253D01*
X0014280Y0041061D01*
X0014327Y0041046D01*
X0014373Y0041053D01*
X0014376Y0041056D01*
X0014382Y0041082D01*
X0014382Y0041097D01*
X0016382Y0041097D01*
X0016399Y0041047D01*
X0016402Y0041045D01*
X0016428Y0041043D01*
X0016485Y0041061D01*
X0016876Y0041261D01*
X0016925Y0041296D01*
X0017236Y0041607D01*
X0017272Y0041656D01*
X0017471Y0042048D01*
X0017490Y0042105D01*
X0017503Y0042188D01*
X0017495Y0042239D01*
X0017492Y0042242D01*
X0017466Y0042249D01*
X0016444Y0042249D01*
X0016394Y0042232D01*
X0016382Y0042216D01*
X0016382Y0041097D01*
X0014382Y0041097D01*
X0014382Y0043859D01*
X0014457Y0044088D01*
X0014652Y0044229D01*
X0014772Y0044249D01*
X0017451Y0044249D01*
X0017501Y0044265D01*
X0017503Y0044268D01*
X0017505Y0044294D01*
X0017490Y0044392D01*
X0017471Y0044450D01*
X0017272Y0044841D01*
X0017236Y0044890D01*
X0017126Y0045000D01*
X0017017Y0045215D01*
X0017051Y0045446D01*
X0017051Y0045447D01*
X0017218Y0045620D01*
X0017456Y0045662D01*
X0017488Y0045654D01*
G37*
G36*
X0046614Y0049402D02*
G01*
X0046713Y0049330D01*
X0046774Y0049269D01*
X0046805Y0049255D01*
X0046805Y0049255D01*
X0047096Y0049119D01*
X0047183Y0049078D01*
X0047370Y0049054D01*
X0048012Y0049054D01*
X0048655Y0049054D01*
X0048667Y0049055D01*
X0048667Y0049055D01*
X0048745Y0049066D01*
X0048813Y0049074D01*
X0048813Y0049074D01*
X0048841Y0049078D01*
X0048842Y0049074D01*
X0049053Y0049067D01*
X0049243Y0048920D01*
X0049311Y0048688D01*
X0049306Y0048640D01*
X0049281Y0048479D01*
X0049285Y0048452D01*
X0049285Y0048452D01*
X0049342Y0048012D01*
X0049355Y0047920D01*
X0049582Y0047403D01*
X0049717Y0047242D01*
X0049927Y0046992D01*
X0049927Y0046992D01*
X0049945Y0046971D01*
X0050415Y0046658D01*
X0050655Y0046583D01*
X0050927Y0046498D01*
X0050927Y0046498D01*
X0050954Y0046490D01*
X0051236Y0046485D01*
X0051490Y0046480D01*
X0051490Y0046480D01*
X0051518Y0046480D01*
X0051545Y0046487D01*
X0051545Y0046487D01*
X0051898Y0046583D01*
X0052063Y0046628D01*
X0052249Y0046742D01*
X0052483Y0046799D01*
X0052706Y0046707D01*
X0052751Y0046661D01*
X0052767Y0046643D01*
X0052895Y0046490D01*
X0052895Y0046490D01*
X0052913Y0046469D01*
X0052936Y0046453D01*
X0052936Y0046453D01*
X0052954Y0046441D01*
X0053383Y0046156D01*
X0053779Y0046032D01*
X0053895Y0045996D01*
X0053895Y0045996D01*
X0053922Y0045988D01*
X0054204Y0045982D01*
X0054458Y0045978D01*
X0054458Y0045978D01*
X0054486Y0045977D01*
X0054513Y0045985D01*
X0054513Y0045985D01*
X0054985Y0046113D01*
X0055031Y0046126D01*
X0055512Y0046421D01*
X0055541Y0046453D01*
X0055872Y0046819D01*
X0055890Y0046839D01*
X0056136Y0047347D01*
X0056142Y0047382D01*
X0056228Y0047889D01*
X0056228Y0047889D01*
X0056230Y0047904D01*
X0056230Y0047920D01*
X0056230Y0047938D01*
X0056231Y0047953D01*
X0056151Y0048511D01*
X0056129Y0048559D01*
X0056102Y0048798D01*
X0056221Y0049008D01*
X0056440Y0049107D01*
X0056593Y0049094D01*
X0056605Y0049091D01*
X0056632Y0049078D01*
X0056662Y0049074D01*
X0056662Y0049074D01*
X0056771Y0049060D01*
X0056819Y0049054D01*
X0057461Y0049054D01*
X0058103Y0049054D01*
X0058116Y0049055D01*
X0058116Y0049055D01*
X0058260Y0049074D01*
X0058260Y0049074D01*
X0058290Y0049078D01*
X0058700Y0049269D01*
X0058719Y0049289D01*
X0058946Y0049358D01*
X0059174Y0049280D01*
X0059312Y0049083D01*
X0059329Y0048969D01*
X0059329Y0046139D01*
X0059255Y0045910D01*
X0059147Y0045809D01*
X0059084Y0045769D01*
X0059066Y0045748D01*
X0059066Y0045748D01*
X0058729Y0045367D01*
X0058729Y0045367D01*
X0058711Y0045346D01*
X0058699Y0045321D01*
X0058699Y0045321D01*
X0058653Y0045224D01*
X0058471Y0044835D01*
X0058466Y0044808D01*
X0058466Y0044808D01*
X0058427Y0044556D01*
X0058384Y0044278D01*
X0058457Y0043718D01*
X0058468Y0043692D01*
X0058468Y0043692D01*
X0058538Y0043534D01*
X0058645Y0043290D01*
X0058647Y0043286D01*
X0058671Y0043046D01*
X0058550Y0042838D01*
X0058329Y0042741D01*
X0058290Y0042739D01*
X0057341Y0042739D01*
X0057112Y0042814D01*
X0057046Y0042874D01*
X0056977Y0042954D01*
X0056977Y0042954D01*
X0056959Y0042975D01*
X0056485Y0043282D01*
X0055944Y0043444D01*
X0055617Y0043446D01*
X0055408Y0043447D01*
X0055408Y0043447D01*
X0055380Y0043448D01*
X0055353Y0043440D01*
X0055353Y0043440D01*
X0054864Y0043300D01*
X0054864Y0043300D01*
X0054837Y0043293D01*
X0054360Y0042991D01*
X0054341Y0042971D01*
X0054341Y0042971D01*
X0054005Y0042589D01*
X0054005Y0042589D01*
X0053986Y0042568D01*
X0053974Y0042543D01*
X0053974Y0042543D01*
X0053910Y0042405D01*
X0053746Y0042057D01*
X0053742Y0042030D01*
X0053742Y0042030D01*
X0053700Y0041761D01*
X0053659Y0041500D01*
X0053663Y0041472D01*
X0053663Y0041472D01*
X0053717Y0041056D01*
X0053733Y0040940D01*
X0053744Y0040915D01*
X0053744Y0040915D01*
X0053947Y0040454D01*
X0053960Y0040423D01*
X0054125Y0040227D01*
X0054305Y0040013D01*
X0054305Y0040013D01*
X0054323Y0039991D01*
X0054793Y0039678D01*
X0054819Y0039670D01*
X0054820Y0039670D01*
X0054885Y0039650D01*
X0055081Y0039510D01*
X0055158Y0039282D01*
X0055086Y0039052D01*
X0055044Y0039002D01*
X0052123Y0036081D01*
X0051908Y0035972D01*
X0051847Y0035967D01*
X0049879Y0035967D01*
X0049650Y0036041D01*
X0049584Y0036102D01*
X0049530Y0036164D01*
X0049530Y0036164D01*
X0049512Y0036186D01*
X0049039Y0036493D01*
X0048498Y0036654D01*
X0048170Y0036656D01*
X0047961Y0036658D01*
X0047961Y0036658D01*
X0047934Y0036658D01*
X0047498Y0036533D01*
X0047257Y0036542D01*
X0047062Y0036698D01*
X0047048Y0036719D01*
X0047037Y0036745D01*
X0046750Y0037078D01*
X0046687Y0037151D01*
X0046687Y0037151D01*
X0046668Y0037172D01*
X0046195Y0037479D01*
X0045654Y0037641D01*
X0045326Y0037643D01*
X0045117Y0037644D01*
X0045117Y0037644D01*
X0045090Y0037644D01*
X0045063Y0037637D01*
X0045063Y0037637D01*
X0044574Y0037497D01*
X0044574Y0037497D01*
X0044547Y0037489D01*
X0044070Y0037188D01*
X0044051Y0037167D01*
X0044051Y0037167D01*
X0043979Y0037085D01*
X0043771Y0036963D01*
X0043687Y0036954D01*
X0039131Y0036954D01*
X0039097Y0036955D01*
X0039084Y0036956D01*
X0038944Y0036968D01*
X0038911Y0036960D01*
X0038911Y0036960D01*
X0038797Y0036929D01*
X0038763Y0036921D01*
X0038613Y0036895D01*
X0038583Y0036878D01*
X0038562Y0036870D01*
X0038541Y0036860D01*
X0038508Y0036851D01*
X0038414Y0036786D01*
X0038383Y0036764D01*
X0038354Y0036745D01*
X0038221Y0036669D01*
X0038132Y0036563D01*
X0038123Y0036552D01*
X0038100Y0036527D01*
X0037753Y0036180D01*
X0037538Y0036070D01*
X0037477Y0036065D01*
X0036977Y0036065D01*
X0036748Y0036140D01*
X0036607Y0036335D01*
X0036607Y0036576D01*
X0036656Y0036674D01*
X0036677Y0036695D01*
X0036786Y0036929D01*
X0036855Y0037078D01*
X0036855Y0037078D01*
X0036868Y0037105D01*
X0036892Y0037291D01*
X0036892Y0038576D01*
X0036882Y0038652D01*
X0036871Y0038733D01*
X0036871Y0038733D01*
X0036868Y0038762D01*
X0036756Y0039002D01*
X0036691Y0039141D01*
X0036691Y0039141D01*
X0036677Y0039172D01*
X0036616Y0039233D01*
X0036507Y0039447D01*
X0036544Y0039685D01*
X0036616Y0039784D01*
X0036677Y0039845D01*
X0036694Y0039881D01*
X0036855Y0040227D01*
X0036868Y0040254D01*
X0036892Y0040441D01*
X0036892Y0041725D01*
X0036886Y0041770D01*
X0036871Y0041883D01*
X0036871Y0041883D01*
X0036868Y0041912D01*
X0036764Y0042134D01*
X0036691Y0042291D01*
X0036691Y0042291D01*
X0036677Y0042322D01*
X0036616Y0042382D01*
X0036507Y0042597D01*
X0036533Y0042763D01*
X0043347Y0042763D01*
X0043350Y0042736D01*
X0043350Y0042736D01*
X0043388Y0042451D01*
X0043420Y0042204D01*
X0043431Y0042178D01*
X0043431Y0042178D01*
X0043636Y0041713D01*
X0043647Y0041687D01*
X0043828Y0041472D01*
X0043993Y0041276D01*
X0043993Y0041276D01*
X0044010Y0041255D01*
X0044034Y0041240D01*
X0044034Y0041240D01*
X0044104Y0041193D01*
X0044480Y0040942D01*
X0044876Y0040818D01*
X0044993Y0040782D01*
X0044993Y0040782D01*
X0045019Y0040774D01*
X0045301Y0040769D01*
X0045556Y0040764D01*
X0045556Y0040764D01*
X0045583Y0040764D01*
X0045610Y0040771D01*
X0045610Y0040771D01*
X0045906Y0040852D01*
X0046128Y0040912D01*
X0046609Y0041207D01*
X0046638Y0041240D01*
X0046969Y0041605D01*
X0046988Y0041626D01*
X0047234Y0042134D01*
X0047240Y0042173D01*
X0047325Y0042676D01*
X0047325Y0042676D01*
X0047328Y0042690D01*
X0047328Y0042739D01*
X0047248Y0043298D01*
X0047118Y0043584D01*
X0047026Y0043786D01*
X0047026Y0043786D01*
X0047014Y0043812D01*
X0046646Y0044239D01*
X0046172Y0044546D01*
X0045632Y0044708D01*
X0045304Y0044710D01*
X0045095Y0044711D01*
X0045095Y0044711D01*
X0045067Y0044711D01*
X0045041Y0044704D01*
X0045041Y0044704D01*
X0044551Y0044564D01*
X0044551Y0044564D01*
X0044525Y0044556D01*
X0044047Y0044255D01*
X0044029Y0044234D01*
X0044029Y0044234D01*
X0043692Y0043853D01*
X0043692Y0043853D01*
X0043674Y0043832D01*
X0043434Y0043321D01*
X0043429Y0043294D01*
X0043429Y0043294D01*
X0043379Y0042971D01*
X0043347Y0042763D01*
X0036533Y0042763D01*
X0036544Y0042835D01*
X0036616Y0042934D01*
X0036677Y0042994D01*
X0036701Y0043046D01*
X0036855Y0043377D01*
X0036868Y0043404D01*
X0036892Y0043591D01*
X0036892Y0044875D01*
X0036868Y0045062D01*
X0036677Y0045471D01*
X0036657Y0045491D01*
X0036588Y0045718D01*
X0036666Y0045946D01*
X0036863Y0046084D01*
X0036977Y0046101D01*
X0040037Y0046101D01*
X0040266Y0046026D01*
X0040312Y0045987D01*
X0040475Y0045824D01*
X0040505Y0045810D01*
X0040505Y0045810D01*
X0040637Y0045748D01*
X0040884Y0045633D01*
X0041071Y0045609D01*
X0041713Y0045609D01*
X0042355Y0045609D01*
X0042368Y0045610D01*
X0042368Y0045610D01*
X0042512Y0045629D01*
X0042512Y0045629D01*
X0042542Y0045633D01*
X0042789Y0045748D01*
X0042921Y0045810D01*
X0042921Y0045810D01*
X0042952Y0045824D01*
X0043271Y0046144D01*
X0043356Y0046326D01*
X0043449Y0046526D01*
X0043462Y0046553D01*
X0043487Y0046740D01*
X0043487Y0048025D01*
X0043482Y0048063D01*
X0043466Y0048182D01*
X0043466Y0048182D01*
X0043462Y0048211D01*
X0043271Y0048621D01*
X0043249Y0048643D01*
X0043179Y0048872D01*
X0043257Y0049100D01*
X0043455Y0049238D01*
X0043696Y0049233D01*
X0043733Y0049218D01*
X0044034Y0049078D01*
X0044220Y0049054D01*
X0044863Y0049054D01*
X0045505Y0049054D01*
X0045518Y0049055D01*
X0045518Y0049055D01*
X0045662Y0049074D01*
X0045662Y0049074D01*
X0045692Y0049078D01*
X0045877Y0049165D01*
X0046070Y0049255D01*
X0046070Y0049255D01*
X0046101Y0049269D01*
X0046162Y0049330D01*
X0046376Y0049439D01*
X0046614Y0049402D01*
G37*
G36*
X0009353Y0043951D02*
G01*
X0009544Y0043804D01*
X0009613Y0043584D01*
X0009613Y0042440D01*
X0009615Y0042425D01*
X0009615Y0042425D01*
X0009648Y0042200D01*
X0009652Y0042170D01*
X0009666Y0042143D01*
X0009666Y0042143D01*
X0009750Y0041971D01*
X0009790Y0041800D01*
X0009790Y0037178D01*
X0009715Y0036949D01*
X0009520Y0036807D01*
X0009280Y0036807D01*
X0009085Y0036949D01*
X0009040Y0037029D01*
X0009005Y0037113D01*
X0009005Y0037113D01*
X0008995Y0037137D01*
X0008648Y0037590D01*
X0008195Y0037937D01*
X0007668Y0038155D01*
X0007642Y0038159D01*
X0007642Y0038159D01*
X0007404Y0038190D01*
X0007389Y0038192D01*
X0007171Y0038296D01*
X0007069Y0038458D01*
X0007067Y0038462D01*
X0007067Y0038524D01*
X0006081Y0038524D01*
X0005852Y0038599D01*
X0005710Y0038793D01*
X0005691Y0038914D01*
X0005691Y0042071D01*
X0005766Y0042300D01*
X0005961Y0042442D01*
X0006081Y0042461D01*
X0007067Y0042461D01*
X0007067Y0042494D01*
X0007068Y0042494D01*
X0007072Y0042522D01*
X0007078Y0042521D01*
X0007142Y0042717D01*
X0007337Y0042858D01*
X0007406Y0042874D01*
X0007642Y0042905D01*
X0007642Y0042905D01*
X0007668Y0042909D01*
X0008195Y0043127D01*
X0008648Y0043474D01*
X0008732Y0043584D01*
X0008914Y0043821D01*
X0009112Y0043957D01*
X0009353Y0043951D01*
G37*
G36*
X0113007Y0059117D02*
G01*
X0113149Y0058922D01*
X0113168Y0058802D01*
X0113168Y0052295D01*
X0113093Y0052066D01*
X0112898Y0051925D01*
X0112723Y0051909D01*
X0112459Y0051947D01*
X0111601Y0051947D01*
X0111586Y0051945D01*
X0111572Y0051944D01*
X0111571Y0051948D01*
X0111349Y0051984D01*
X0111180Y0052155D01*
X0111154Y0052221D01*
X0111147Y0052244D01*
X0111143Y0052272D01*
X0110910Y0052786D01*
X0110623Y0053119D01*
X0110560Y0053192D01*
X0110559Y0053192D01*
X0110541Y0053213D01*
X0110068Y0053520D01*
X0109527Y0053682D01*
X0109199Y0053684D01*
X0108990Y0053685D01*
X0108990Y0053685D01*
X0108963Y0053685D01*
X0108936Y0053678D01*
X0108936Y0053678D01*
X0108447Y0053538D01*
X0108447Y0053538D01*
X0108420Y0053530D01*
X0108396Y0053515D01*
X0108396Y0053515D01*
X0107971Y0053247D01*
X0107737Y0053188D01*
X0107514Y0053277D01*
X0107468Y0053322D01*
X0107410Y0053389D01*
X0107410Y0053389D01*
X0107392Y0053410D01*
X0106918Y0053717D01*
X0106377Y0053879D01*
X0106050Y0053881D01*
X0105841Y0053882D01*
X0105841Y0053882D01*
X0105813Y0053882D01*
X0105786Y0053875D01*
X0105786Y0053875D01*
X0105297Y0053735D01*
X0105297Y0053735D01*
X0105270Y0053727D01*
X0104793Y0053426D01*
X0104774Y0053405D01*
X0104774Y0053405D01*
X0104438Y0053024D01*
X0104438Y0053024D01*
X0104419Y0053003D01*
X0104407Y0052978D01*
X0104407Y0052978D01*
X0104356Y0052869D01*
X0104179Y0052492D01*
X0104175Y0052465D01*
X0104175Y0052465D01*
X0104144Y0052265D01*
X0104093Y0051934D01*
X0104096Y0051907D01*
X0104096Y0051907D01*
X0104134Y0051620D01*
X0104166Y0051375D01*
X0104177Y0051349D01*
X0104177Y0051349D01*
X0104376Y0050896D01*
X0104393Y0050858D01*
X0104532Y0050693D01*
X0104738Y0050447D01*
X0104738Y0050447D01*
X0104756Y0050426D01*
X0104875Y0050347D01*
X0105025Y0050158D01*
X0105035Y0049917D01*
X0105005Y0049841D01*
X0104985Y0049803D01*
X0104906Y0049535D01*
X0104865Y0049247D01*
X0104865Y0039611D01*
X0104888Y0039394D01*
X0104890Y0039383D01*
X0104890Y0039383D01*
X0104905Y0039313D01*
X0104933Y0039187D01*
X0104962Y0039082D01*
X0105159Y0038736D01*
X0105293Y0038581D01*
X0105387Y0038359D01*
X0105333Y0038124D01*
X0105151Y0037966D01*
X0104999Y0037936D01*
X0093581Y0037936D01*
X0093352Y0038010D01*
X0093210Y0038205D01*
X0093191Y0038325D01*
X0093191Y0053124D01*
X0093195Y0053180D01*
X0093205Y0053245D01*
X0093249Y0053546D01*
X0093355Y0053762D01*
X0093568Y0053874D01*
X0093807Y0053840D01*
X0093979Y0053672D01*
X0094024Y0053490D01*
X0094024Y0050159D01*
X0094028Y0050140D01*
X0094056Y0050000D01*
X0094070Y0049929D01*
X0094160Y0049794D01*
X0094218Y0049708D01*
X0094283Y0049476D01*
X0094218Y0049275D01*
X0094080Y0049068D01*
X0094072Y0049031D01*
X0094072Y0049031D01*
X0094068Y0049008D01*
X0094034Y0048838D01*
X0094034Y0040021D01*
X0094048Y0039950D01*
X0094066Y0039862D01*
X0094080Y0039791D01*
X0094254Y0039530D01*
X0094515Y0039355D01*
X0094553Y0039348D01*
X0094553Y0039348D01*
X0094642Y0039330D01*
X0094746Y0039310D01*
X0099625Y0039310D01*
X0099729Y0039330D01*
X0099818Y0039348D01*
X0099818Y0039348D01*
X0099856Y0039355D01*
X0100117Y0039530D01*
X0100291Y0039791D01*
X0100305Y0039862D01*
X0100323Y0039950D01*
X0100337Y0040021D01*
X0100337Y0048838D01*
X0100309Y0048982D01*
X0100337Y0049221D01*
X0100500Y0049398D01*
X0100691Y0049447D01*
X0102391Y0049447D01*
X0102494Y0049468D01*
X0102584Y0049486D01*
X0102584Y0049486D01*
X0102621Y0049493D01*
X0102883Y0049668D01*
X0103057Y0049929D01*
X0103071Y0050000D01*
X0103099Y0050140D01*
X0103103Y0050159D01*
X0103103Y0058188D01*
X0103076Y0058324D01*
X0103064Y0058381D01*
X0103064Y0058381D01*
X0103057Y0058419D01*
X0102946Y0058585D01*
X0102880Y0058817D01*
X0102964Y0059043D01*
X0103164Y0059177D01*
X0103270Y0059191D01*
X0112778Y0059191D01*
X0113007Y0059117D01*
G37*
G36*
X0071437Y0054736D02*
G01*
X0071524Y0054679D01*
X0071920Y0054555D01*
X0072036Y0054519D01*
X0072036Y0054519D01*
X0072063Y0054510D01*
X0072345Y0054505D01*
X0072599Y0054501D01*
X0072599Y0054501D01*
X0072627Y0054500D01*
X0072654Y0054507D01*
X0072654Y0054507D01*
X0072986Y0054598D01*
X0073172Y0054648D01*
X0073283Y0054717D01*
X0073517Y0054773D01*
X0073740Y0054681D01*
X0073866Y0054476D01*
X0073876Y0054385D01*
X0073876Y0047453D01*
X0073802Y0047224D01*
X0073607Y0047082D01*
X0073366Y0047082D01*
X0073310Y0047105D01*
X0073032Y0047247D01*
X0072975Y0047266D01*
X0072892Y0047279D01*
X0072840Y0047270D01*
X0072837Y0047267D01*
X0072831Y0047242D01*
X0072831Y0044548D01*
X0072757Y0044319D01*
X0072562Y0044177D01*
X0072441Y0044158D01*
X0071221Y0044158D01*
X0070992Y0044232D01*
X0070850Y0044427D01*
X0070831Y0044548D01*
X0070831Y0047227D01*
X0070815Y0047276D01*
X0070811Y0047279D01*
X0070781Y0047281D01*
X0070558Y0047374D01*
X0070432Y0047579D01*
X0070451Y0047819D01*
X0070607Y0048002D01*
X0071063Y0048282D01*
X0071087Y0048296D01*
X0071277Y0048507D01*
X0071447Y0048694D01*
X0071465Y0048715D01*
X0071711Y0049223D01*
X0071722Y0049288D01*
X0071803Y0049765D01*
X0071803Y0049765D01*
X0071805Y0049779D01*
X0071806Y0049828D01*
X0071726Y0050387D01*
X0071511Y0050858D01*
X0071504Y0050875D01*
X0071504Y0050875D01*
X0071492Y0050901D01*
X0071183Y0051260D01*
X0071142Y0051307D01*
X0071142Y0051307D01*
X0071124Y0051328D01*
X0070650Y0051635D01*
X0070109Y0051797D01*
X0069781Y0051799D01*
X0069573Y0051800D01*
X0069573Y0051800D01*
X0069545Y0051800D01*
X0069518Y0051793D01*
X0069518Y0051793D01*
X0069029Y0051653D01*
X0069029Y0051653D01*
X0069002Y0051645D01*
X0068525Y0051344D01*
X0068523Y0051347D01*
X0068324Y0051265D01*
X0068294Y0051264D01*
X0067775Y0051264D01*
X0067725Y0051248D01*
X0067713Y0051232D01*
X0067713Y0050196D01*
X0067753Y0050074D01*
X0067809Y0049995D01*
X0067828Y0049875D01*
X0067824Y0049852D01*
X0067828Y0049825D01*
X0067828Y0049825D01*
X0067858Y0049596D01*
X0067814Y0049359D01*
X0067639Y0049194D01*
X0067471Y0049156D01*
X0066250Y0049156D01*
X0065272Y0049156D01*
X0065042Y0049230D01*
X0064901Y0049425D01*
X0064882Y0049546D01*
X0064882Y0049830D01*
X0064956Y0050059D01*
X0064983Y0050091D01*
X0065002Y0050112D01*
X0065210Y0050232D01*
X0065467Y0050198D01*
X0065512Y0050175D01*
X0065570Y0050157D01*
X0065652Y0050144D01*
X0065704Y0050152D01*
X0065707Y0050155D01*
X0065713Y0050180D01*
X0065713Y0052875D01*
X0065787Y0053104D01*
X0065982Y0053245D01*
X0066103Y0053264D01*
X0068864Y0053264D01*
X0068914Y0053281D01*
X0068917Y0053284D01*
X0068919Y0053310D01*
X0068900Y0053367D01*
X0068701Y0053758D01*
X0068665Y0053807D01*
X0068426Y0054047D01*
X0068316Y0054262D01*
X0068354Y0054500D01*
X0068425Y0054598D01*
X0068514Y0054687D01*
X0068729Y0054797D01*
X0068790Y0054802D01*
X0071221Y0054802D01*
X0071437Y0054736D01*
G37*
G36*
X0013288Y0059117D02*
G01*
X0013430Y0058922D01*
X0013430Y0058681D01*
X0013335Y0058526D01*
X0013313Y0058504D01*
X0013135Y0058238D01*
X0013106Y0058168D01*
X0013059Y0057933D01*
X0013056Y0057895D01*
X0013056Y0057557D01*
X0012981Y0057327D01*
X0012786Y0057186D01*
X0012554Y0057183D01*
X0012545Y0057186D01*
X0012383Y0057234D01*
X0012055Y0057236D01*
X0011846Y0057238D01*
X0011846Y0057238D01*
X0011818Y0057238D01*
X0011792Y0057230D01*
X0011792Y0057230D01*
X0011302Y0057090D01*
X0011302Y0057090D01*
X0011276Y0057083D01*
X0010798Y0056782D01*
X0010780Y0056761D01*
X0010780Y0056761D01*
X0010443Y0056379D01*
X0010443Y0056379D01*
X0010425Y0056358D01*
X0010413Y0056333D01*
X0010413Y0056333D01*
X0010388Y0056281D01*
X0010185Y0055848D01*
X0010181Y0055820D01*
X0010181Y0055820D01*
X0010137Y0055541D01*
X0010098Y0055290D01*
X0010102Y0055262D01*
X0010102Y0055262D01*
X0010126Y0055077D01*
X0010171Y0054730D01*
X0010182Y0054705D01*
X0010182Y0054705D01*
X0010360Y0054301D01*
X0010399Y0054214D01*
X0010572Y0054007D01*
X0010744Y0053803D01*
X0010744Y0053803D01*
X0010762Y0053781D01*
X0010785Y0053766D01*
X0010785Y0053766D01*
X0010866Y0053712D01*
X0011232Y0053469D01*
X0011558Y0053367D01*
X0011744Y0053309D01*
X0011744Y0053309D01*
X0011770Y0053300D01*
X0012053Y0053295D01*
X0012307Y0053291D01*
X0012307Y0053291D01*
X0012335Y0053290D01*
X0012361Y0053297D01*
X0012361Y0053297D01*
X0012826Y0053424D01*
X0012879Y0053438D01*
X0012992Y0053507D01*
X0013226Y0053564D01*
X0013412Y0053499D01*
X0013633Y0053351D01*
X0013703Y0053323D01*
X0013938Y0053276D01*
X0013976Y0053272D01*
X0014569Y0053272D01*
X0014619Y0053288D01*
X0014630Y0053305D01*
X0014630Y0053334D01*
X0016630Y0053334D01*
X0016647Y0053284D01*
X0016663Y0053272D01*
X0017285Y0053272D01*
X0017322Y0053276D01*
X0017558Y0053323D01*
X0017627Y0053351D01*
X0017894Y0053530D01*
X0017947Y0053583D01*
X0018126Y0053850D01*
X0018155Y0053920D01*
X0018201Y0054155D01*
X0018205Y0054193D01*
X0018205Y0054687D01*
X0022967Y0054687D01*
X0022968Y0054671D01*
X0022989Y0054478D01*
X0023000Y0054431D01*
X0023169Y0053981D01*
X0023196Y0053933D01*
X0023482Y0053550D01*
X0023521Y0053512D01*
X0023903Y0053225D01*
X0023951Y0053199D01*
X0024402Y0053030D01*
X0024449Y0053019D01*
X0024642Y0052998D01*
X0024663Y0052997D01*
X0024776Y0052997D01*
X0024825Y0053013D01*
X0024837Y0053029D01*
X0024837Y0053058D01*
X0026837Y0053058D01*
X0026853Y0053008D01*
X0026870Y0052997D01*
X0027012Y0052997D01*
X0027033Y0052998D01*
X0027226Y0053019D01*
X0027273Y0053030D01*
X0027723Y0053199D01*
X0027771Y0053225D01*
X0028153Y0053512D01*
X0028192Y0053550D01*
X0028479Y0053933D01*
X0028505Y0053981D01*
X0028674Y0054431D01*
X0028685Y0054478D01*
X0028705Y0054663D01*
X0028691Y0054707D01*
X0028675Y0054719D01*
X0026899Y0054719D01*
X0026849Y0054703D01*
X0026837Y0054687D01*
X0026837Y0053058D01*
X0024837Y0053058D01*
X0024837Y0054657D01*
X0024821Y0054707D01*
X0024805Y0054719D01*
X0023029Y0054719D01*
X0022979Y0054703D01*
X0022967Y0054687D01*
X0018205Y0054687D01*
X0018205Y0054982D01*
X0018189Y0055032D01*
X0018173Y0055044D01*
X0016692Y0055044D01*
X0016642Y0055028D01*
X0016630Y0055011D01*
X0016630Y0053334D01*
X0014630Y0053334D01*
X0014630Y0056654D01*
X0014705Y0056883D01*
X0014900Y0057025D01*
X0015020Y0057044D01*
X0018143Y0057044D01*
X0018193Y0057060D01*
X0018205Y0057076D01*
X0018205Y0057895D01*
X0018201Y0057933D01*
X0018155Y0058168D01*
X0018126Y0058238D01*
X0017947Y0058504D01*
X0017926Y0058526D01*
X0017817Y0058741D01*
X0017854Y0058979D01*
X0018025Y0059149D01*
X0018201Y0059191D01*
X0024372Y0059191D01*
X0024601Y0059117D01*
X0024743Y0058922D01*
X0024743Y0058681D01*
X0024601Y0058486D01*
X0024462Y0058422D01*
X0024402Y0058408D01*
X0023951Y0058239D01*
X0023903Y0058213D01*
X0023521Y0057926D01*
X0023482Y0057888D01*
X0023196Y0057505D01*
X0023169Y0057457D01*
X0023000Y0057007D01*
X0022989Y0056960D01*
X0022969Y0056775D01*
X0022983Y0056731D01*
X0023000Y0056719D01*
X0028646Y0056719D01*
X0028696Y0056735D01*
X0028707Y0056751D01*
X0028706Y0056767D01*
X0028685Y0056960D01*
X0028674Y0057007D01*
X0028625Y0057139D01*
X0029865Y0057139D01*
X0029872Y0057092D01*
X0029875Y0057089D01*
X0029900Y0057083D01*
X0031006Y0057083D01*
X0031056Y0057099D01*
X0031067Y0057116D01*
X0031067Y0057145D01*
X0033067Y0057145D01*
X0033084Y0057095D01*
X0033100Y0057083D01*
X0034219Y0057083D01*
X0034269Y0057099D01*
X0034271Y0057103D01*
X0034273Y0057128D01*
X0034255Y0057186D01*
X0034055Y0057577D01*
X0034020Y0057626D01*
X0033709Y0057937D01*
X0033660Y0057973D01*
X0033268Y0058172D01*
X0033211Y0058191D01*
X0033128Y0058204D01*
X0033076Y0058196D01*
X0033073Y0058193D01*
X0033067Y0058167D01*
X0033067Y0057145D01*
X0031067Y0057145D01*
X0031067Y0058152D01*
X0031051Y0058202D01*
X0031048Y0058204D01*
X0031022Y0058206D01*
X0030924Y0058191D01*
X0030866Y0058172D01*
X0030475Y0057973D01*
X0030426Y0057937D01*
X0030115Y0057626D01*
X0030080Y0057577D01*
X0029880Y0057186D01*
X0029865Y0057139D01*
X0028625Y0057139D01*
X0028505Y0057457D01*
X0028479Y0057505D01*
X0028192Y0057888D01*
X0028153Y0057926D01*
X0027771Y0058213D01*
X0027723Y0058239D01*
X0027273Y0058408D01*
X0027212Y0058422D01*
X0027007Y0058548D01*
X0026914Y0058770D01*
X0026970Y0059005D01*
X0027153Y0059161D01*
X0027303Y0059191D01*
X0049203Y0059191D01*
X0049302Y0059159D01*
X0049418Y0059191D01*
X0065642Y0059191D01*
X0065741Y0059159D01*
X0065857Y0059191D01*
X0071931Y0059191D01*
X0072160Y0059117D01*
X0072301Y0058922D01*
X0072301Y0058681D01*
X0072160Y0058486D01*
X0072038Y0058427D01*
X0071595Y0058300D01*
X0071595Y0058300D01*
X0071568Y0058293D01*
X0071091Y0057992D01*
X0071072Y0057971D01*
X0071072Y0057971D01*
X0070735Y0057589D01*
X0070735Y0057589D01*
X0070717Y0057568D01*
X0070705Y0057543D01*
X0070703Y0057540D01*
X0070515Y0057390D01*
X0070378Y0057365D01*
X0068791Y0057365D01*
X0068562Y0057439D01*
X0068515Y0057479D01*
X0068199Y0057795D01*
X0067789Y0057995D01*
X0067594Y0058023D01*
X0067536Y0058032D01*
X0067536Y0058032D01*
X0067522Y0058034D01*
X0066745Y0058034D01*
X0066520Y0058107D01*
X0066506Y0058123D01*
X0066374Y0058200D01*
X0066345Y0058218D01*
X0066315Y0058239D01*
X0066220Y0058306D01*
X0066187Y0058315D01*
X0066166Y0058324D01*
X0066144Y0058332D01*
X0066115Y0058349D01*
X0066081Y0058355D01*
X0066081Y0058355D01*
X0065964Y0058376D01*
X0065931Y0058383D01*
X0065783Y0058423D01*
X0065785Y0058429D01*
X0065754Y0058443D01*
X0065676Y0058413D01*
X0065631Y0058409D01*
X0065597Y0058408D01*
X0049463Y0058408D01*
X0049429Y0058409D01*
X0049384Y0058413D01*
X0049315Y0058443D01*
X0049275Y0058428D01*
X0049277Y0058423D01*
X0049129Y0058383D01*
X0049096Y0058376D01*
X0048979Y0058355D01*
X0048979Y0058355D01*
X0048945Y0058349D01*
X0048916Y0058332D01*
X0048894Y0058324D01*
X0048873Y0058315D01*
X0048840Y0058306D01*
X0048745Y0058239D01*
X0048715Y0058218D01*
X0048686Y0058200D01*
X0048554Y0058123D01*
X0048456Y0058006D01*
X0048455Y0058006D01*
X0048432Y0057981D01*
X0047158Y0056706D01*
X0047133Y0056683D01*
X0047015Y0056585D01*
X0046958Y0056486D01*
X0046826Y0056365D01*
X0046833Y0056356D01*
X0046805Y0056337D01*
X0046774Y0056322D01*
X0046713Y0056262D01*
X0046498Y0056152D01*
X0046260Y0056190D01*
X0046162Y0056262D01*
X0046101Y0056322D01*
X0046070Y0056337D01*
X0046070Y0056337D01*
X0045719Y0056501D01*
X0045692Y0056513D01*
X0045505Y0056538D01*
X0044863Y0056538D01*
X0044220Y0056538D01*
X0044208Y0056536D01*
X0044208Y0056536D01*
X0044063Y0056517D01*
X0044063Y0056517D01*
X0044034Y0056513D01*
X0043931Y0056465D01*
X0043655Y0056337D01*
X0043655Y0056337D01*
X0043624Y0056322D01*
X0043563Y0056262D01*
X0043349Y0056152D01*
X0043111Y0056190D01*
X0043012Y0056262D01*
X0042952Y0056322D01*
X0042921Y0056337D01*
X0042921Y0056337D01*
X0042569Y0056501D01*
X0042542Y0056513D01*
X0042355Y0056538D01*
X0041713Y0056538D01*
X0041071Y0056538D01*
X0041058Y0056536D01*
X0041058Y0056536D01*
X0040914Y0056517D01*
X0040914Y0056517D01*
X0040884Y0056513D01*
X0040475Y0056322D01*
X0040469Y0056334D01*
X0040296Y0056281D01*
X0040068Y0056359D01*
X0040027Y0056395D01*
X0039957Y0056465D01*
X0039905Y0056502D01*
X0039603Y0056650D01*
X0039559Y0056656D01*
X0039548Y0056633D01*
X0039548Y0052201D01*
X0039473Y0051972D01*
X0039278Y0051831D01*
X0039158Y0051812D01*
X0036641Y0051812D01*
X0036591Y0051795D01*
X0036579Y0051779D01*
X0036579Y0050208D01*
X0036581Y0050180D01*
X0036618Y0049930D01*
X0036636Y0049873D01*
X0036825Y0049487D01*
X0036859Y0049249D01*
X0036747Y0049036D01*
X0036531Y0048929D01*
X0036311Y0048962D01*
X0035974Y0049119D01*
X0035947Y0049131D01*
X0035761Y0049156D01*
X0033739Y0049156D01*
X0033510Y0049230D01*
X0033368Y0049425D01*
X0033349Y0049546D01*
X0033349Y0050213D01*
X0033423Y0050442D01*
X0033512Y0050530D01*
X0033526Y0050540D01*
X0033555Y0050554D01*
X0033600Y0050600D01*
X0033855Y0050854D01*
X0033855Y0050854D01*
X0033877Y0050877D01*
X0034078Y0051287D01*
X0034117Y0051554D01*
X0034117Y0052975D01*
X0034113Y0052997D01*
X0034081Y0053214D01*
X0034081Y0053214D01*
X0034077Y0053244D01*
X0034059Y0053281D01*
X0033980Y0053441D01*
X0033876Y0053654D01*
X0033852Y0053678D01*
X0033780Y0053749D01*
X0033733Y0053842D01*
X0036579Y0053842D01*
X0036595Y0053792D01*
X0036612Y0053780D01*
X0037517Y0053780D01*
X0037567Y0053796D01*
X0037579Y0053812D01*
X0037579Y0056615D01*
X0037565Y0056658D01*
X0037540Y0056658D01*
X0037220Y0056501D01*
X0037168Y0056464D01*
X0036862Y0056158D01*
X0036826Y0056106D01*
X0036635Y0055716D01*
X0036617Y0055659D01*
X0036581Y0055412D01*
X0036579Y0055384D01*
X0036579Y0053842D01*
X0033733Y0053842D01*
X0033671Y0053964D01*
X0033708Y0054202D01*
X0033780Y0054301D01*
X0034020Y0054540D01*
X0034055Y0054589D01*
X0034255Y0054981D01*
X0034270Y0055028D01*
X0034263Y0055074D01*
X0034260Y0055077D01*
X0034234Y0055083D01*
X0029916Y0055083D01*
X0029866Y0055067D01*
X0029863Y0055063D01*
X0029861Y0055038D01*
X0029880Y0054981D01*
X0030080Y0054589D01*
X0030115Y0054540D01*
X0030355Y0054300D01*
X0030464Y0054086D01*
X0030426Y0053848D01*
X0030355Y0053749D01*
X0030323Y0053717D01*
X0030266Y0053660D01*
X0030051Y0053551D01*
X0029990Y0053546D01*
X0029936Y0053546D01*
X0029902Y0053547D01*
X0029889Y0053548D01*
X0029749Y0053561D01*
X0029716Y0053552D01*
X0029716Y0053552D01*
X0029601Y0053521D01*
X0029568Y0053514D01*
X0029418Y0053487D01*
X0029388Y0053470D01*
X0029366Y0053462D01*
X0029346Y0053452D01*
X0029313Y0053444D01*
X0029285Y0053424D01*
X0029285Y0053424D01*
X0029187Y0053356D01*
X0029159Y0053338D01*
X0029026Y0053261D01*
X0029004Y0053235D01*
X0028928Y0053144D01*
X0028905Y0053119D01*
X0028063Y0052277D01*
X0028038Y0052254D01*
X0027921Y0052156D01*
X0027895Y0052112D01*
X0027716Y0051951D01*
X0027477Y0051925D01*
X0027419Y0051946D01*
X0027419Y0051945D01*
X0027390Y0051955D01*
X0027363Y0051969D01*
X0027332Y0051974D01*
X0027332Y0051974D01*
X0026991Y0052028D01*
X0026991Y0052028D01*
X0026976Y0052030D01*
X0024698Y0052030D01*
X0024683Y0052028D01*
X0024683Y0052028D01*
X0024342Y0051974D01*
X0024342Y0051974D01*
X0024312Y0051969D01*
X0024285Y0051955D01*
X0024285Y0051955D01*
X0023873Y0051745D01*
X0023873Y0051745D01*
X0023846Y0051731D01*
X0023476Y0051362D01*
X0023462Y0051334D01*
X0023462Y0051334D01*
X0023320Y0051056D01*
X0023239Y0050896D01*
X0023178Y0050509D01*
X0023178Y0050501D01*
X0023086Y0050280D01*
X0022881Y0050154D01*
X0022678Y0050160D01*
X0022421Y0050237D01*
X0022283Y0050238D01*
X0021901Y0050240D01*
X0021672Y0050316D01*
X0021579Y0050413D01*
X0021536Y0050479D01*
X0021514Y0050511D01*
X0021253Y0050685D01*
X0021216Y0050693D01*
X0021216Y0050693D01*
X0021126Y0050710D01*
X0021023Y0050731D01*
X0017718Y0050731D01*
X0017615Y0050710D01*
X0017525Y0050693D01*
X0017525Y0050693D01*
X0017488Y0050685D01*
X0017227Y0050511D01*
X0017052Y0050249D01*
X0017045Y0050212D01*
X0017045Y0050212D01*
X0017027Y0050123D01*
X0017006Y0050019D01*
X0017006Y0048293D01*
X0016932Y0048063D01*
X0016737Y0047922D01*
X0016496Y0047922D01*
X0016405Y0047965D01*
X0016151Y0048130D01*
X0016151Y0048130D01*
X0016128Y0048145D01*
X0015587Y0048306D01*
X0015260Y0048308D01*
X0015051Y0048310D01*
X0015051Y0048310D01*
X0015023Y0048310D01*
X0014996Y0048302D01*
X0014996Y0048302D01*
X0014751Y0048232D01*
X0014510Y0048241D01*
X0014321Y0048389D01*
X0014254Y0048607D01*
X0014254Y0050019D01*
X0014234Y0050123D01*
X0014216Y0050212D01*
X0014216Y0050212D01*
X0014209Y0050249D01*
X0014034Y0050511D01*
X0013773Y0050685D01*
X0013735Y0050693D01*
X0013735Y0050693D01*
X0013646Y0050710D01*
X0013543Y0050731D01*
X0010238Y0050731D01*
X0010134Y0050710D01*
X0010045Y0050693D01*
X0010045Y0050693D01*
X0010007Y0050685D01*
X0009905Y0050616D01*
X0009880Y0050600D01*
X0009663Y0050534D01*
X0008740Y0050534D01*
X0008502Y0050614D01*
X0008500Y0050616D01*
X0008363Y0050815D01*
X0008370Y0051056D01*
X0008500Y0051235D01*
X0008627Y0051333D01*
X0008627Y0051333D01*
X0008648Y0051348D01*
X0008995Y0051801D01*
X0009214Y0052328D01*
X0009288Y0052894D01*
X0009270Y0053030D01*
X0009217Y0053435D01*
X0009217Y0053435D01*
X0009214Y0053460D01*
X0008995Y0053987D01*
X0008648Y0054440D01*
X0008195Y0054787D01*
X0007668Y0055006D01*
X0007642Y0055009D01*
X0007642Y0055009D01*
X0007127Y0055077D01*
X0007102Y0055080D01*
X0007077Y0055077D01*
X0006562Y0055009D01*
X0006562Y0055009D01*
X0006536Y0055006D01*
X0006407Y0054952D01*
X0006230Y0054879D01*
X0005990Y0054860D01*
X0005785Y0054986D01*
X0005693Y0055209D01*
X0005691Y0055239D01*
X0005691Y0058802D01*
X0005766Y0059031D01*
X0005961Y0059172D01*
X0006081Y0059191D01*
X0013059Y0059191D01*
X0013288Y0059117D01*
G37*
M02*
