G75*
G70*
%OFA0B0*%
%FSLAX25Y25*%
%IPPOS*%
%LPD*%
%AMOC8*
5,1,8,0,0,1.08239X$1,22.5*
%
%ADD19C,0.00787*%
%ADD38C,0.00472*%
%ADD42C,0.00591*%
X0000000Y0000000D02*
%LPD*%
G01*
D19*
X0113563Y0060296D02*
X0005295Y0060296D01*
X0005295Y0005571D01*
X0113563Y0005571D01*
X0113563Y0060296D01*
X0004902Y0004469D02*
%LPD*%
G01*
D38*
X0073800Y0042461D02*
X0050965Y0042461D01*
X0073800Y0042461D02*
X0073800Y0059646D01*
X0050965Y0042461D02*
X0050965Y0059548D01*
D42*
X0072491Y0056789D02*
X0071741Y0054164D01*
X0070991Y0056039D01*
X0070241Y0054164D01*
X0069491Y0056789D01*
X0067992Y0054164D02*
X0067992Y0056789D01*
X0067992Y0058101D02*
X0068179Y0057914D01*
X0067992Y0057726D01*
X0067804Y0057914D01*
X0067992Y0058101D01*
X0067992Y0057726D01*
X0066679Y0056789D02*
X0065179Y0056789D01*
X0066117Y0058101D02*
X0066117Y0054727D01*
X0065929Y0054352D01*
X0065554Y0054164D01*
X0065179Y0054164D01*
X0063867Y0054164D02*
X0063867Y0058101D01*
X0062180Y0054164D02*
X0062180Y0056227D01*
X0062367Y0056602D01*
X0062742Y0056789D01*
X0063305Y0056789D01*
X0063680Y0056602D01*
X0063867Y0056414D01*
X0059743Y0054164D02*
X0060118Y0054352D01*
X0060305Y0054539D01*
X0060493Y0054914D01*
X0060493Y0056039D01*
X0060305Y0056414D01*
X0060118Y0056602D01*
X0059743Y0056789D01*
X0059180Y0056789D01*
X0058805Y0056602D01*
X0058618Y0056414D01*
X0058430Y0056039D01*
X0058430Y0054914D01*
X0058618Y0054539D01*
X0058805Y0054352D01*
X0059180Y0054164D01*
X0059743Y0054164D01*
X0055056Y0056789D02*
X0055056Y0054164D01*
X0056743Y0056789D02*
X0056743Y0054727D01*
X0056556Y0054352D01*
X0056181Y0054164D01*
X0055618Y0054164D01*
X0055243Y0054352D01*
X0055056Y0054539D01*
X0053743Y0056789D02*
X0052244Y0056789D01*
X0053181Y0058101D02*
X0053181Y0054727D01*
X0052993Y0054352D01*
X0052619Y0054164D01*
X0052244Y0054164D01*
X0070429Y0047826D02*
X0071741Y0049701D01*
X0072679Y0047826D02*
X0072679Y0051763D01*
X0071179Y0051763D01*
X0070804Y0051575D01*
X0070616Y0051388D01*
X0070429Y0051013D01*
X0070429Y0050450D01*
X0070616Y0050075D01*
X0070804Y0049888D01*
X0071179Y0049701D01*
X0072679Y0049701D01*
X0067429Y0049888D02*
X0068742Y0049888D01*
X0068742Y0047826D02*
X0068742Y0051763D01*
X0066867Y0051763D01*
X0065742Y0051763D02*
X0063305Y0051763D01*
X0064617Y0050263D01*
X0064055Y0050263D01*
X0063680Y0050075D01*
X0063492Y0049888D01*
X0063305Y0049513D01*
X0063305Y0048576D01*
X0063492Y0048201D01*
X0063680Y0048013D01*
X0064055Y0047826D01*
X0065179Y0047826D01*
X0065554Y0048013D01*
X0065742Y0048201D01*
X0060868Y0051763D02*
X0060493Y0051763D01*
X0060118Y0051575D01*
X0059930Y0051388D01*
X0059743Y0051013D01*
X0059555Y0050263D01*
X0059555Y0049326D01*
X0059743Y0048576D01*
X0059930Y0048201D01*
X0060118Y0048013D01*
X0060493Y0047826D01*
X0060868Y0047826D01*
X0061242Y0048013D01*
X0061430Y0048201D01*
X0061617Y0048576D01*
X0061805Y0049326D01*
X0061805Y0050263D01*
X0061617Y0051013D01*
X0061430Y0051388D01*
X0061242Y0051575D01*
X0060868Y0051763D01*
X0058243Y0051763D02*
X0055806Y0051763D01*
X0057118Y0050263D01*
X0056556Y0050263D01*
X0056181Y0050075D01*
X0055993Y0049888D01*
X0055806Y0049513D01*
X0055806Y0048576D01*
X0055993Y0048201D01*
X0056181Y0048013D01*
X0056556Y0047826D01*
X0057680Y0047826D01*
X0058055Y0048013D01*
X0058243Y0048201D01*
X0054493Y0051763D02*
X0052056Y0051763D01*
X0053368Y0050263D01*
X0052806Y0050263D01*
X0052431Y0050075D01*
X0052244Y0049888D01*
X0052056Y0049513D01*
X0052056Y0048576D01*
X0052244Y0048201D01*
X0052431Y0048013D01*
X0052806Y0047826D01*
X0053931Y0047826D01*
X0054306Y0048013D01*
X0054493Y0048201D01*
X0104602Y0041664D02*
X0103665Y0037727D01*
X0102915Y0040539D01*
X0102165Y0037727D01*
X0101227Y0041664D01*
X0098415Y0039790D02*
X0097853Y0039602D01*
X0097665Y0039415D01*
X0097478Y0039040D01*
X0097478Y0038477D01*
X0097665Y0038102D01*
X0097853Y0037915D01*
X0098228Y0037727D01*
X0099728Y0037727D01*
X0099728Y0041664D01*
X0098415Y0041664D01*
X0098040Y0041477D01*
X0097853Y0041289D01*
X0097665Y0040914D01*
X0097665Y0040539D01*
X0097853Y0040165D01*
X0098040Y0039977D01*
X0098415Y0039790D01*
X0099728Y0039790D01*
X0095041Y0041664D02*
X0094291Y0041664D01*
X0093916Y0041477D01*
X0093541Y0041102D01*
X0093353Y0040352D01*
X0093353Y0039040D01*
X0093541Y0038290D01*
X0093916Y0037915D01*
X0094291Y0037727D01*
X0095041Y0037727D01*
X0095416Y0037915D01*
X0095791Y0038290D01*
X0095978Y0039040D01*
X0095978Y0040352D01*
X0095791Y0041102D01*
X0095416Y0041477D01*
X0095041Y0041664D01*
X0087917Y0041664D02*
X0087542Y0041664D01*
X0087167Y0041477D01*
X0086979Y0041289D01*
X0086792Y0040914D01*
X0086604Y0040165D01*
X0086604Y0039227D01*
X0086792Y0038477D01*
X0086979Y0038102D01*
X0087167Y0037915D01*
X0087542Y0037727D01*
X0087917Y0037727D01*
X0088292Y0037915D01*
X0088479Y0038102D01*
X0088667Y0038477D01*
X0088854Y0039227D01*
X0088854Y0040165D01*
X0088667Y0040914D01*
X0088479Y0041289D01*
X0088292Y0041477D01*
X0087917Y0041664D01*
X0084917Y0038102D02*
X0084730Y0037915D01*
X0084917Y0037727D01*
X0085104Y0037915D01*
X0084917Y0038102D01*
X0084917Y0037727D01*
X0081167Y0041664D02*
X0083042Y0041664D01*
X0083230Y0039790D01*
X0083042Y0039977D01*
X0082667Y0040165D01*
X0081730Y0040165D01*
X0081355Y0039977D01*
X0081167Y0039790D01*
X0080980Y0039415D01*
X0080980Y0038477D01*
X0081167Y0038102D01*
X0081355Y0037915D01*
X0081730Y0037727D01*
X0082667Y0037727D01*
X0083042Y0037915D01*
X0083230Y0038102D01*
D19*
X0113563Y0059587D02*
X0005296Y0059587D01*
X0005296Y0059587D02*
X0005296Y0004863D01*
X0005296Y0004863D02*
X0113563Y0004863D01*
X0113563Y0004863D02*
X0113563Y0059587D01*
D38*
X0045011Y0050296D02*
X0043730Y0050296D01*
X0045011Y0054312D02*
X0043730Y0054312D01*
D42*
X0049489Y0027599D02*
X0049489Y0026713D01*
X0049489Y0006930D02*
X0067796Y0006930D01*
X0067796Y0027599D02*
X0067796Y0026713D01*
X0067796Y0006930D02*
X0067796Y0007815D01*
X0049489Y0027599D02*
X0067796Y0027599D01*
X0049489Y0006930D02*
X0049489Y0007422D01*
X0049489Y0007422D02*
X0044174Y0007422D01*
D38*
X0025296Y0046260D02*
X0018367Y0046260D01*
X0018367Y0058347D02*
X0027933Y0058347D01*
X0020324Y0018504D02*
X0021173Y0018504D01*
X0020324Y0021339D02*
X0021173Y0021339D01*
X0070231Y0046280D02*
X0069022Y0046280D01*
X0070231Y0043288D02*
X0069022Y0043288D01*
X0009745Y0033445D02*
X0009745Y0034655D01*
X0012737Y0033445D02*
X0012737Y0034655D01*
X0019174Y0017500D02*
X0021733Y0017500D01*
X0019174Y0005217D02*
X0012579Y0005217D01*
X0019174Y0005217D02*
X0021733Y0005217D01*
X0019174Y0017500D02*
X0016615Y0017500D01*
X0009784Y0042392D02*
X0009784Y0041543D01*
X0012619Y0042392D02*
X0012619Y0041543D01*
X0027737Y0043877D02*
X0020059Y0043877D01*
X0027737Y0043877D02*
X0041319Y0043877D01*
X0027737Y0023720D02*
X0035414Y0023720D01*
X0027737Y0023720D02*
X0020059Y0023720D01*
M02*
