G75*
G70*
%OFA0B0*%
%FSLAX25Y25*%
%IPPOS*%
%LPD*%
%AMOC8*
5,1,8,0,0,1.08239X$1,22.5*
%
%ADD10C,0.02756*%
%ADD13R,0.00984X0.04331*%
%ADD14R,0.00984X0.03858*%
%ADD16R,1.08661X0.00984*%
%ADD18R,0.00984X0.03740*%
%ADD20R,0.00984X0.24803*%
%ADD21R,0.00984X0.34449*%
%ADD25C,0.05118*%
%ADD29R,0.07500X0.07874*%
%ADD30O,0.07500X0.07874*%
%ADD31C,0.02362*%
%ADD32C,0.01969*%
%ADD33C,0.00984*%
%ADD35C,0.07874*%
%ADD40R,0.05709X0.01772*%
%ADD41R,0.04803X0.02559*%
X0000000Y0000000D02*
%LPD*%
G01*
D10*
X0111791Y0011674D03*
X0111791Y0023485D03*
X0111791Y0019548D03*
X0111791Y0015611D03*
D13*
X0005591Y0058327D03*
D14*
X0005591Y0041240D03*
D20*
X0005591Y0017776D03*
D16*
X0059429Y0060000D03*
X0059429Y0005866D03*
D21*
X0113268Y0043268D03*
D18*
X0113268Y0007244D03*
D10*
X0007102Y0049666D03*
X0007102Y0045729D03*
X0007102Y0032752D03*
X0007102Y0036752D03*
X0007102Y0053603D03*
X0004902Y0004469D02*
%LPD*%
G01*
D25*
X0096083Y0016083D03*
X0088209Y0027894D03*
X0080335Y0016083D03*
D10*
X0111792Y0010965D03*
X0111792Y0022776D03*
X0111792Y0018839D03*
X0111792Y0014902D03*
D20*
X0005591Y0017067D03*
D14*
X0005591Y0040532D03*
D16*
X0059430Y0059292D03*
D13*
X0005591Y0057619D03*
D21*
X0113268Y0042560D03*
D16*
X0059430Y0005158D03*
D18*
X0113268Y0006536D03*
D10*
X0007102Y0048957D03*
X0007102Y0045020D03*
X0007102Y0032044D03*
X0007102Y0036044D03*
X0007102Y0052894D03*
D29*
X0098563Y0054174D03*
D30*
X0088563Y0054174D03*
X0078563Y0054174D03*
G36*
G01*
X0084607Y0011828D02*
X0084607Y0013186D01*
G75*
G02*
X0085187Y0013767I0000581J0000000D01*
G01*
X0086349Y0013767D01*
G75*
G02*
X0086930Y0013186I0000000J-000581D01*
G01*
X0086930Y0011828D01*
G75*
G02*
X0086349Y0011247I-000581J0000000D01*
G01*
X0085187Y0011247D01*
G75*
G02*
X0084607Y0011828I0000000J0000581D01*
G01*
G37*
G36*
G01*
X0088426Y0011828D02*
X0088426Y0013186D01*
G75*
G02*
X0089006Y0013767I0000581J0000000D01*
G01*
X0090168Y0013767D01*
G75*
G02*
X0090748Y0013186I0000000J-000581D01*
G01*
X0090748Y0011828D01*
G75*
G02*
X0090168Y0011247I-000581J0000000D01*
G01*
X0089006Y0011247D01*
G75*
G02*
X0088426Y0011828I0000000J0000581D01*
G01*
G37*
G36*
G01*
X0099075Y0027117D02*
X0099075Y0028475D01*
G75*
G02*
X0099656Y0029056I0000581J0000000D01*
G01*
X0100817Y0029056D01*
G75*
G02*
X0101398Y0028475I0000000J-000581D01*
G01*
X0101398Y0027117D01*
G75*
G02*
X0100817Y0026536I-000581J0000000D01*
G01*
X0099656Y0026536D01*
G75*
G02*
X0099075Y0027117I0000000J0000581D01*
G01*
G37*
G36*
G01*
X0102894Y0027117D02*
X0102894Y0028475D01*
G75*
G02*
X0103475Y0029056I0000581J0000000D01*
G01*
X0104636Y0029056D01*
G75*
G02*
X0105217Y0028475I0000000J-000581D01*
G01*
X0105217Y0027117D01*
G75*
G02*
X0104636Y0026536I-000581J0000000D01*
G01*
X0103475Y0026536D01*
G75*
G02*
X0102894Y0027117I0000000J0000581D01*
G01*
G37*
G36*
G01*
X0049193Y0053313D02*
X0049193Y0051295D01*
G75*
G02*
X0048332Y0050434I-000861J0000000D01*
G01*
X0046610Y0050434D01*
G75*
G02*
X0045748Y0051295I0000000J0000861D01*
G01*
X0045748Y0053313D01*
G75*
G02*
X0046610Y0054174I0000861J0000000D01*
G01*
X0048332Y0054174D01*
G75*
G02*
X0049193Y0053313I0000000J-000861D01*
G01*
G37*
G36*
G01*
X0042993Y0053313D02*
X0042993Y0051295D01*
G75*
G02*
X0042131Y0050434I-000861J0000000D01*
G01*
X0040409Y0050434D01*
G75*
G02*
X0039548Y0051295I0000000J0000861D01*
G01*
X0039548Y0053313D01*
G75*
G02*
X0040409Y0054174I0000861J0000000D01*
G01*
X0042131Y0054174D01*
G75*
G02*
X0042993Y0053313I0000000J-000861D01*
G01*
G37*
G36*
G01*
X0090748Y0008987D02*
X0090748Y0007628D01*
G75*
G02*
X0090168Y0007048I-000581J0000000D01*
G01*
X0089006Y0007048D01*
G75*
G02*
X0088426Y0007628I0000000J0000581D01*
G01*
X0088426Y0008987D01*
G75*
G02*
X0089006Y0009567I0000581J0000000D01*
G01*
X0090168Y0009567D01*
G75*
G02*
X0090748Y0008987I0000000J-000581D01*
G01*
G37*
G36*
G01*
X0086930Y0008987D02*
X0086930Y0007628D01*
G75*
G02*
X0086349Y0007048I-000581J0000000D01*
G01*
X0085187Y0007048D01*
G75*
G02*
X0084607Y0007628I0000000J0000581D01*
G01*
X0084607Y0008987D01*
G75*
G02*
X0085187Y0009567I0000581J0000000D01*
G01*
X0086349Y0009567D01*
G75*
G02*
X0086930Y0008987I0000000J-000581D01*
G01*
G37*
G36*
G01*
X0031047Y0047983D02*
X0031047Y0049341D01*
G75*
G02*
X0031627Y0049922I0000581J0000000D01*
G01*
X0032789Y0049922D01*
G75*
G02*
X0033369Y0049341I0000000J-000581D01*
G01*
X0033369Y0047983D01*
G75*
G02*
X0032789Y0047402I-000581J0000000D01*
G01*
X0031627Y0047402D01*
G75*
G02*
X0031047Y0047983I0000000J0000581D01*
G01*
G37*
G36*
G01*
X0034865Y0047983D02*
X0034865Y0049341D01*
G75*
G02*
X0035446Y0049922I0000581J0000000D01*
G01*
X0036608Y0049922D01*
G75*
G02*
X0037188Y0049341I0000000J-000581D01*
G01*
X0037188Y0047983D01*
G75*
G02*
X0036608Y0047402I-000581J0000000D01*
G01*
X0035446Y0047402D01*
G75*
G02*
X0034865Y0047983I0000000J0000581D01*
G01*
G37*
G36*
G01*
X0039134Y0046113D02*
X0039134Y0047471D01*
G75*
G02*
X0039715Y0048052I0000581J0000000D01*
G01*
X0040876Y0048052D01*
G75*
G02*
X0041457Y0047471I0000000J-000581D01*
G01*
X0041457Y0046113D01*
G75*
G02*
X0040876Y0045532I-000581J0000000D01*
G01*
X0039715Y0045532D01*
G75*
G02*
X0039134Y0046113I0000000J0000581D01*
G01*
G37*
G36*
G01*
X0042953Y0046113D02*
X0042953Y0047471D01*
G75*
G02*
X0043534Y0048052I0000581J0000000D01*
G01*
X0044695Y0048052D01*
G75*
G02*
X0045276Y0047471I0000000J-000581D01*
G01*
X0045276Y0046113D01*
G75*
G02*
X0044695Y0045532I-000581J0000000D01*
G01*
X0043534Y0045532D01*
G75*
G02*
X0042953Y0046113I0000000J0000581D01*
G01*
G37*
G36*
G01*
X0010522Y0053445D02*
X0011880Y0053445D01*
G75*
G02*
X0012461Y0052865I0000000J-000581D01*
G01*
X0012461Y0051703D01*
G75*
G02*
X0011880Y0051123I-000581J0000000D01*
G01*
X0010522Y0051123D01*
G75*
G02*
X0009941Y0051703I0000000J0000581D01*
G01*
X0009941Y0052865D01*
G75*
G02*
X0010522Y0053445I0000581J0000000D01*
G01*
G37*
G36*
G01*
X0010522Y0049626D02*
X0011880Y0049626D01*
G75*
G02*
X0012461Y0049046I0000000J-000581D01*
G01*
X0012461Y0047884D01*
G75*
G02*
X0011880Y0047304I-000581J0000000D01*
G01*
X0010522Y0047304D01*
G75*
G02*
X0009941Y0047884I0000000J0000581D01*
G01*
X0009941Y0049046D01*
G75*
G02*
X0010522Y0049626I0000581J0000000D01*
G01*
G37*
G36*
G01*
X0060040Y0035857D02*
X0060040Y0034499D01*
G75*
G02*
X0059459Y0033918I-000581J0000000D01*
G01*
X0058298Y0033918D01*
G75*
G02*
X0057717Y0034499I0000000J0000581D01*
G01*
X0057717Y0035857D01*
G75*
G02*
X0058298Y0036438I0000581J0000000D01*
G01*
X0059459Y0036438D01*
G75*
G02*
X0060040Y0035857I0000000J-000581D01*
G01*
G37*
G36*
G01*
X0056221Y0035857D02*
X0056221Y0034499D01*
G75*
G02*
X0055640Y0033918I-000581J0000000D01*
G01*
X0054479Y0033918D01*
G75*
G02*
X0053898Y0034499I0000000J0000581D01*
G01*
X0053898Y0035857D01*
G75*
G02*
X0054479Y0036438I0000581J0000000D01*
G01*
X0055640Y0036438D01*
G75*
G02*
X0056221Y0035857I0000000J-000581D01*
G01*
G37*
G36*
G01*
X0053898Y0030562D02*
X0053898Y0031920D01*
G75*
G02*
X0054479Y0032500I0000581J0000000D01*
G01*
X0055640Y0032500D01*
G75*
G02*
X0056221Y0031920I0000000J-000581D01*
G01*
X0056221Y0030562D01*
G75*
G02*
X0055640Y0029981I-000581J0000000D01*
G01*
X0054479Y0029981D01*
G75*
G02*
X0053898Y0030562I0000000J0000581D01*
G01*
G37*
G36*
G01*
X0057717Y0030562D02*
X0057717Y0031920D01*
G75*
G02*
X0058298Y0032500I0000581J0000000D01*
G01*
X0059459Y0032500D01*
G75*
G02*
X0060040Y0031920I0000000J-000581D01*
G01*
X0060040Y0030562D01*
G75*
G02*
X0059459Y0029981I-000581J0000000D01*
G01*
X0058298Y0029981D01*
G75*
G02*
X0057717Y0030562I0000000J0000581D01*
G01*
G37*
G36*
G01*
X0101378Y0033002D02*
X0101378Y0031644D01*
G75*
G02*
X0100798Y0031063I-000581J0000000D01*
G01*
X0099636Y0031063D01*
G75*
G02*
X0099056Y0031644I0000000J0000581D01*
G01*
X0099056Y0033002D01*
G75*
G02*
X0099636Y0033583I0000581J0000000D01*
G01*
X0100798Y0033583D01*
G75*
G02*
X0101378Y0033002I0000000J-000581D01*
G01*
G37*
G36*
G01*
X0097559Y0033002D02*
X0097559Y0031644D01*
G75*
G02*
X0096979Y0031063I-000581J0000000D01*
G01*
X0095817Y0031063D01*
G75*
G02*
X0095237Y0031644I0000000J0000581D01*
G01*
X0095237Y0033002D01*
G75*
G02*
X0095817Y0033583I0000581J0000000D01*
G01*
X0096979Y0033583D01*
G75*
G02*
X0097559Y0033002I0000000J-000581D01*
G01*
G37*
D40*
X0047028Y0009587D03*
X0047028Y0012146D03*
X0047028Y0014705D03*
X0047028Y0017264D03*
X0047028Y0019823D03*
X0047028Y0022382D03*
X0047028Y0024941D03*
X0070256Y0024941D03*
X0070256Y0022382D03*
X0070256Y0019823D03*
X0070256Y0017264D03*
X0070256Y0014705D03*
X0070256Y0012146D03*
X0070256Y0009587D03*
G36*
G01*
X0037205Y0053081D02*
X0037205Y0051723D01*
G75*
G02*
X0036624Y0051142I-000581J0000000D01*
G01*
X0035463Y0051142D01*
G75*
G02*
X0034882Y0051723I0000000J0000581D01*
G01*
X0034882Y0053081D01*
G75*
G02*
X0035463Y0053662I0000581J0000000D01*
G01*
X0036624Y0053662D01*
G75*
G02*
X0037205Y0053081I0000000J-000581D01*
G01*
G37*
G36*
G01*
X0033386Y0053081D02*
X0033386Y0051723D01*
G75*
G02*
X0032806Y0051142I-000581J0000000D01*
G01*
X0031644Y0051142D01*
G75*
G02*
X0031063Y0051723I0000000J0000581D01*
G01*
X0031063Y0053081D01*
G75*
G02*
X0031644Y0053662I0000581J0000000D01*
G01*
X0032806Y0053662D01*
G75*
G02*
X0033386Y0053081I0000000J-000581D01*
G01*
G37*
G36*
G01*
X0031063Y0055463D02*
X0031063Y0056821D01*
G75*
G02*
X0031644Y0057402I0000581J0000000D01*
G01*
X0032806Y0057402D01*
G75*
G02*
X0033386Y0056821I0000000J-000581D01*
G01*
X0033386Y0055463D01*
G75*
G02*
X0032806Y0054882I-000581J0000000D01*
G01*
X0031644Y0054882D01*
G75*
G02*
X0031063Y0055463I0000000J0000581D01*
G01*
G37*
G36*
G01*
X0034882Y0055463D02*
X0034882Y0056821D01*
G75*
G02*
X0035463Y0057402I0000581J0000000D01*
G01*
X0036624Y0057402D01*
G75*
G02*
X0037205Y0056821I0000000J-000581D01*
G01*
X0037205Y0055463D01*
G75*
G02*
X0036624Y0054882I-000581J0000000D01*
G01*
X0035463Y0054882D01*
G75*
G02*
X0034882Y0055463I0000000J0000581D01*
G01*
G37*
G36*
G01*
X0091300Y0046014D02*
X0091300Y0047373D01*
G75*
G02*
X0091880Y0047953I0000581J0000000D01*
G01*
X0093042Y0047953D01*
G75*
G02*
X0093622Y0047373I0000000J-000581D01*
G01*
X0093622Y0046014D01*
G75*
G02*
X0093042Y0045434I-000581J0000000D01*
G01*
X0091880Y0045434D01*
G75*
G02*
X0091300Y0046014I0000000J0000581D01*
G01*
G37*
G36*
G01*
X0095119Y0046014D02*
X0095119Y0047373D01*
G75*
G02*
X0095699Y0047953I0000581J0000000D01*
G01*
X0096861Y0047953D01*
G75*
G02*
X0097441Y0047373I0000000J-000581D01*
G01*
X0097441Y0046014D01*
G75*
G02*
X0096861Y0045434I-000581J0000000D01*
G01*
X0095699Y0045434D01*
G75*
G02*
X0095119Y0046014I0000000J0000581D01*
G01*
G37*
G36*
G01*
X0084607Y0016716D02*
X0084607Y0018075D01*
G75*
G02*
X0085187Y0018655I0000581J0000000D01*
G01*
X0086349Y0018655D01*
G75*
G02*
X0086930Y0018075I0000000J-000581D01*
G01*
X0086930Y0016716D01*
G75*
G02*
X0086349Y0016136I-000581J0000000D01*
G01*
X0085187Y0016136D01*
G75*
G02*
X0084607Y0016716I0000000J0000581D01*
G01*
G37*
G36*
G01*
X0088426Y0016716D02*
X0088426Y0018075D01*
G75*
G02*
X0089006Y0018655I0000581J0000000D01*
G01*
X0090168Y0018655D01*
G75*
G02*
X0090748Y0018075I0000000J-000581D01*
G01*
X0090748Y0016716D01*
G75*
G02*
X0090168Y0016136I-000581J0000000D01*
G01*
X0089006Y0016136D01*
G75*
G02*
X0088426Y0016716I0000000J0000581D01*
G01*
G37*
G36*
G01*
X0056792Y0039794D02*
X0056792Y0038436D01*
G75*
G02*
X0056211Y0037855I-000581J0000000D01*
G01*
X0055050Y0037855D01*
G75*
G02*
X0054469Y0038436I0000000J0000581D01*
G01*
X0054469Y0039794D01*
G75*
G02*
X0055050Y0040375I0000581J0000000D01*
G01*
X0056211Y0040375D01*
G75*
G02*
X0056792Y0039794I0000000J-000581D01*
G01*
G37*
G36*
G01*
X0052973Y0039794D02*
X0052973Y0038436D01*
G75*
G02*
X0052392Y0037855I-000581J0000000D01*
G01*
X0051231Y0037855D01*
G75*
G02*
X0050650Y0038436I0000000J0000581D01*
G01*
X0050650Y0039794D01*
G75*
G02*
X0051231Y0040375I0000581J0000000D01*
G01*
X0052392Y0040375D01*
G75*
G02*
X0052973Y0039794I0000000J-000581D01*
G01*
G37*
G36*
G01*
X0105119Y0047373D02*
X0105119Y0046014D01*
G75*
G02*
X0104538Y0045434I-000581J0000000D01*
G01*
X0103376Y0045434D01*
G75*
G02*
X0102796Y0046014I0000000J0000581D01*
G01*
X0102796Y0047373D01*
G75*
G02*
X0103376Y0047953I0000581J0000000D01*
G01*
X0104538Y0047953D01*
G75*
G02*
X0105119Y0047373I0000000J-000581D01*
G01*
G37*
G36*
G01*
X0101300Y0047373D02*
X0101300Y0046014D01*
G75*
G02*
X0100719Y0045434I-000581J0000000D01*
G01*
X0099558Y0045434D01*
G75*
G02*
X0098977Y0046014I0000000J0000581D01*
G01*
X0098977Y0047373D01*
G75*
G02*
X0099558Y0047953I0000581J0000000D01*
G01*
X0100719Y0047953D01*
G75*
G02*
X0101300Y0047373I0000000J-000581D01*
G01*
G37*
G36*
G01*
X0052658Y0031920D02*
X0052658Y0030562D01*
G75*
G02*
X0052077Y0029981I-000581J0000000D01*
G01*
X0050916Y0029981D01*
G75*
G02*
X0050335Y0030562I0000000J0000581D01*
G01*
X0050335Y0031920D01*
G75*
G02*
X0050916Y0032500I0000581J0000000D01*
G01*
X0052077Y0032500D01*
G75*
G02*
X0052658Y0031920I0000000J-000581D01*
G01*
G37*
G36*
G01*
X0048839Y0031920D02*
X0048839Y0030562D01*
G75*
G02*
X0048258Y0029981I-000581J0000000D01*
G01*
X0047097Y0029981D01*
G75*
G02*
X0046516Y0030562I0000000J0000581D01*
G01*
X0046516Y0031920D01*
G75*
G02*
X0047097Y0032500I0000581J0000000D01*
G01*
X0048258Y0032500D01*
G75*
G02*
X0048839Y0031920I0000000J-000581D01*
G01*
G37*
G36*
G01*
X0041408Y0007304D02*
X0040050Y0007304D01*
G75*
G02*
X0039469Y0007884I0000000J0000581D01*
G01*
X0039469Y0009046D01*
G75*
G02*
X0040050Y0009626I0000581J0000000D01*
G01*
X0041408Y0009626D01*
G75*
G02*
X0041989Y0009046I0000000J-000581D01*
G01*
X0041989Y0007884D01*
G75*
G02*
X0041408Y0007304I-000581J0000000D01*
G01*
G37*
G36*
G01*
X0041408Y0011123D02*
X0040050Y0011123D01*
G75*
G02*
X0039469Y0011703I0000000J0000581D01*
G01*
X0039469Y0012865D01*
G75*
G02*
X0040050Y0013445I0000581J0000000D01*
G01*
X0041408Y0013445D01*
G75*
G02*
X0041989Y0012865I0000000J-000581D01*
G01*
X0041989Y0011703D01*
G75*
G02*
X0041408Y0011123I-000581J0000000D01*
G01*
G37*
G36*
G01*
X0067520Y0035857D02*
X0067520Y0034499D01*
G75*
G02*
X0066939Y0033918I-000581J0000000D01*
G01*
X0065778Y0033918D01*
G75*
G02*
X0065197Y0034499I0000000J0000581D01*
G01*
X0065197Y0035857D01*
G75*
G02*
X0065778Y0036438I0000581J0000000D01*
G01*
X0066939Y0036438D01*
G75*
G02*
X0067520Y0035857I0000000J-000581D01*
G01*
G37*
G36*
G01*
X0063701Y0035857D02*
X0063701Y0034499D01*
G75*
G02*
X0063121Y0033918I-000581J0000000D01*
G01*
X0061959Y0033918D01*
G75*
G02*
X0061378Y0034499I0000000J0000581D01*
G01*
X0061378Y0035857D01*
G75*
G02*
X0061959Y0036438I0000581J0000000D01*
G01*
X0063121Y0036438D01*
G75*
G02*
X0063701Y0035857I0000000J-000581D01*
G01*
G37*
G36*
G01*
X0068859Y0034499D02*
X0068859Y0035857D01*
G75*
G02*
X0069439Y0036438I0000581J0000000D01*
G01*
X0070601Y0036438D01*
G75*
G02*
X0071182Y0035857I0000000J-000581D01*
G01*
X0071182Y0034499D01*
G75*
G02*
X0070601Y0033918I-000581J0000000D01*
G01*
X0069439Y0033918D01*
G75*
G02*
X0068859Y0034499I0000000J0000581D01*
G01*
G37*
G36*
G01*
X0072678Y0034499D02*
X0072678Y0035857D01*
G75*
G02*
X0073258Y0036438I0000581J0000000D01*
G01*
X0074420Y0036438D01*
G75*
G02*
X0075000Y0035857I0000000J-000581D01*
G01*
X0075000Y0034499D01*
G75*
G02*
X0074420Y0033918I-000581J0000000D01*
G01*
X0073258Y0033918D01*
G75*
G02*
X0072678Y0034499I0000000J0000581D01*
G01*
G37*
G36*
G01*
X0037668Y0007304D02*
X0036309Y0007304D01*
G75*
G02*
X0035729Y0007884I0000000J0000581D01*
G01*
X0035729Y0009046D01*
G75*
G02*
X0036309Y0009626I0000581J0000000D01*
G01*
X0037668Y0009626D01*
G75*
G02*
X0038248Y0009046I0000000J-000581D01*
G01*
X0038248Y0007884D01*
G75*
G02*
X0037668Y0007304I-000581J0000000D01*
G01*
G37*
G36*
G01*
X0037668Y0011123D02*
X0036309Y0011123D01*
G75*
G02*
X0035729Y0011703I0000000J0000581D01*
G01*
X0035729Y0012865D01*
G75*
G02*
X0036309Y0013445I0000581J0000000D01*
G01*
X0037668Y0013445D01*
G75*
G02*
X0038248Y0012865I0000000J-000581D01*
G01*
X0038248Y0011703D01*
G75*
G02*
X0037668Y0011123I-000581J0000000D01*
G01*
G37*
D41*
X0026989Y0056142D03*
X0026989Y0052402D03*
X0026989Y0048662D03*
X0016674Y0048662D03*
X0016674Y0056142D03*
G36*
G01*
X0061477Y0038436D02*
X0061477Y0039794D01*
G75*
G02*
X0062058Y0040375I0000581J0000000D01*
G01*
X0063219Y0040375D01*
G75*
G02*
X0063800Y0039794I0000000J-000581D01*
G01*
X0063800Y0038436D01*
G75*
G02*
X0063219Y0037855I-000581J0000000D01*
G01*
X0062058Y0037855D01*
G75*
G02*
X0061477Y0038436I0000000J0000581D01*
G01*
G37*
G36*
G01*
X0065296Y0038436D02*
X0065296Y0039794D01*
G75*
G02*
X0065876Y0040375I0000581J0000000D01*
G01*
X0067038Y0040375D01*
G75*
G02*
X0067619Y0039794I0000000J-000581D01*
G01*
X0067619Y0038436D01*
G75*
G02*
X0067038Y0037855I-000581J0000000D01*
G01*
X0065876Y0037855D01*
G75*
G02*
X0065296Y0038436I0000000J0000581D01*
G01*
G37*
G36*
G01*
X0048888Y0042540D02*
X0047530Y0042540D01*
G75*
G02*
X0046949Y0043121I0000000J0000581D01*
G01*
X0046949Y0044282D01*
G75*
G02*
X0047530Y0044863I0000581J0000000D01*
G01*
X0048888Y0044863D01*
G75*
G02*
X0049469Y0044282I0000000J-000581D01*
G01*
X0049469Y0043121D01*
G75*
G02*
X0048888Y0042540I-000581J0000000D01*
G01*
G37*
G36*
G01*
X0048888Y0046359D02*
X0047530Y0046359D01*
G75*
G02*
X0046949Y0046939I0000000J0000581D01*
G01*
X0046949Y0048101D01*
G75*
G02*
X0047530Y0048682I0000581J0000000D01*
G01*
X0048888Y0048682D01*
G75*
G02*
X0049469Y0048101I0000000J-000581D01*
G01*
X0049469Y0046939D01*
G75*
G02*
X0048888Y0046359I-000581J0000000D01*
G01*
G37*
G36*
G01*
X0040050Y0022107D02*
X0041408Y0022107D01*
G75*
G02*
X0041989Y0021526I0000000J-000581D01*
G01*
X0041989Y0020365D01*
G75*
G02*
X0041408Y0019784I-000581J0000000D01*
G01*
X0040050Y0019784D01*
G75*
G02*
X0039469Y0020365I0000000J0000581D01*
G01*
X0039469Y0021526D01*
G75*
G02*
X0040050Y0022107I0000581J0000000D01*
G01*
G37*
G36*
G01*
X0040050Y0018288D02*
X0041408Y0018288D01*
G75*
G02*
X0041989Y0017707I0000000J-000581D01*
G01*
X0041989Y0016546D01*
G75*
G02*
X0041408Y0015965I-000581J0000000D01*
G01*
X0040050Y0015965D01*
G75*
G02*
X0039469Y0016546I0000000J0000581D01*
G01*
X0039469Y0017707D01*
G75*
G02*
X0040050Y0018288I0000581J0000000D01*
G01*
G37*
G36*
G01*
X0083170Y0023062D02*
X0083170Y0021703D01*
G75*
G02*
X0082589Y0021123I-000581J0000000D01*
G01*
X0081428Y0021123D01*
G75*
G02*
X0080847Y0021703I0000000J0000581D01*
G01*
X0080847Y0023062D01*
G75*
G02*
X0081428Y0023642I0000581J0000000D01*
G01*
X0082589Y0023642D01*
G75*
G02*
X0083170Y0023062I0000000J-000581D01*
G01*
G37*
G36*
G01*
X0079351Y0023062D02*
X0079351Y0021703D01*
G75*
G02*
X0078770Y0021123I-000581J0000000D01*
G01*
X0077609Y0021123D01*
G75*
G02*
X0077028Y0021703I0000000J0000581D01*
G01*
X0077028Y0023062D01*
G75*
G02*
X0077609Y0023642I0000581J0000000D01*
G01*
X0078770Y0023642D01*
G75*
G02*
X0079351Y0023062I0000000J-000581D01*
G01*
G37*
G36*
G01*
X0090748Y0023062D02*
X0090748Y0021703D01*
G75*
G02*
X0090168Y0021123I-000581J0000000D01*
G01*
X0089006Y0021123D01*
G75*
G02*
X0088426Y0021703I0000000J0000581D01*
G01*
X0088426Y0023062D01*
G75*
G02*
X0089006Y0023642I0000581J0000000D01*
G01*
X0090168Y0023642D01*
G75*
G02*
X0090748Y0023062I0000000J-000581D01*
G01*
G37*
G36*
G01*
X0086930Y0023062D02*
X0086930Y0021703D01*
G75*
G02*
X0086349Y0021123I-000581J0000000D01*
G01*
X0085187Y0021123D01*
G75*
G02*
X0084607Y0021703I0000000J0000581D01*
G01*
X0084607Y0023062D01*
G75*
G02*
X0085187Y0023642I0000581J0000000D01*
G01*
X0086349Y0023642D01*
G75*
G02*
X0086930Y0023062I0000000J-000581D01*
G01*
G37*
G36*
G01*
X0036309Y0022107D02*
X0037668Y0022107D01*
G75*
G02*
X0038248Y0021526I0000000J-000581D01*
G01*
X0038248Y0020365D01*
G75*
G02*
X0037668Y0019784I-000581J0000000D01*
G01*
X0036309Y0019784D01*
G75*
G02*
X0035729Y0020365I0000000J0000581D01*
G01*
X0035729Y0021526D01*
G75*
G02*
X0036309Y0022107I0000581J0000000D01*
G01*
G37*
G36*
G01*
X0036309Y0018288D02*
X0037668Y0018288D01*
G75*
G02*
X0038248Y0017707I0000000J-000581D01*
G01*
X0038248Y0016546D01*
G75*
G02*
X0037668Y0015965I-000581J0000000D01*
G01*
X0036309Y0015965D01*
G75*
G02*
X0035729Y0016546I0000000J0000581D01*
G01*
X0035729Y0017707D01*
G75*
G02*
X0036309Y0018288I0000581J0000000D01*
G01*
G37*
G36*
G01*
X0070670Y0031920D02*
X0070670Y0030562D01*
G75*
G02*
X0070089Y0029981I-000581J0000000D01*
G01*
X0068928Y0029981D01*
G75*
G02*
X0068347Y0030562I0000000J0000581D01*
G01*
X0068347Y0031920D01*
G75*
G02*
X0068928Y0032500I0000581J0000000D01*
G01*
X0070089Y0032500D01*
G75*
G02*
X0070670Y0031920I0000000J-000581D01*
G01*
G37*
G36*
G01*
X0066851Y0031920D02*
X0066851Y0030562D01*
G75*
G02*
X0066270Y0029981I-000581J0000000D01*
G01*
X0065109Y0029981D01*
G75*
G02*
X0064528Y0030562I0000000J0000581D01*
G01*
X0064528Y0031920D01*
G75*
G02*
X0065109Y0032500I0000581J0000000D01*
G01*
X0066270Y0032500D01*
G75*
G02*
X0066851Y0031920I0000000J-000581D01*
G01*
G37*
G36*
G01*
X0032569Y0022107D02*
X0033928Y0022107D01*
G75*
G02*
X0034508Y0021526I0000000J-000581D01*
G01*
X0034508Y0020365D01*
G75*
G02*
X0033928Y0019784I-000581J0000000D01*
G01*
X0032569Y0019784D01*
G75*
G02*
X0031989Y0020365I0000000J0000581D01*
G01*
X0031989Y0021526D01*
G75*
G02*
X0032569Y0022107I0000581J0000000D01*
G01*
G37*
G36*
G01*
X0032569Y0018288D02*
X0033928Y0018288D01*
G75*
G02*
X0034508Y0017707I0000000J-000581D01*
G01*
X0034508Y0016546D01*
G75*
G02*
X0033928Y0015965I-000581J0000000D01*
G01*
X0032569Y0015965D01*
G75*
G02*
X0031989Y0016546I0000000J0000581D01*
G01*
X0031989Y0017707D01*
G75*
G02*
X0032569Y0018288I0000581J0000000D01*
G01*
G37*
G36*
G01*
X0032569Y0013445D02*
X0033928Y0013445D01*
G75*
G02*
X0034508Y0012865I0000000J-000581D01*
G01*
X0034508Y0011703D01*
G75*
G02*
X0033928Y0011123I-000581J0000000D01*
G01*
X0032569Y0011123D01*
G75*
G02*
X0031989Y0011703I0000000J0000581D01*
G01*
X0031989Y0012865D01*
G75*
G02*
X0032569Y0013445I0000581J0000000D01*
G01*
G37*
G36*
G01*
X0032569Y0009626D02*
X0033928Y0009626D01*
G75*
G02*
X0034508Y0009046I0000000J-000581D01*
G01*
X0034508Y0007884D01*
G75*
G02*
X0033928Y0007304I-000581J0000000D01*
G01*
X0032569Y0007304D01*
G75*
G02*
X0031989Y0007884I0000000J0000581D01*
G01*
X0031989Y0009046D01*
G75*
G02*
X0032569Y0009626I0000581J0000000D01*
G01*
G37*
G36*
G01*
X0017756Y0019252D02*
X0017756Y0020591D01*
G75*
G02*
X0018307Y0021142I0000551J0000000D01*
G01*
X0019410Y0021142D01*
G75*
G02*
X0019961Y0020591I0000000J-000551D01*
G01*
X0019961Y0019252D01*
G75*
G02*
X0019410Y0018701I-000551J0000000D01*
G01*
X0018307Y0018701D01*
G75*
G02*
X0017756Y0019252I0000000J0000551D01*
G01*
G37*
G36*
G01*
X0021536Y0019252D02*
X0021536Y0020591D01*
G75*
G02*
X0022087Y0021142I0000551J0000000D01*
G01*
X0023189Y0021142D01*
G75*
G02*
X0023740Y0020591I0000000J-000551D01*
G01*
X0023740Y0019252D01*
G75*
G02*
X0023189Y0018701I-000551J0000000D01*
G01*
X0022087Y0018701D01*
G75*
G02*
X0021536Y0019252I0000000J0000551D01*
G01*
G37*
G36*
G01*
X0072697Y0045512D02*
X0072697Y0044056D01*
G75*
G02*
X0072166Y0043524I-000531J0000000D01*
G01*
X0071103Y0043524D01*
G75*
G02*
X0070571Y0044056I0000000J0000531D01*
G01*
X0070571Y0045512D01*
G75*
G02*
X0071103Y0046044I0000531J0000000D01*
G01*
X0072166Y0046044D01*
G75*
G02*
X0072697Y0045512I0000000J-000531D01*
G01*
G37*
G36*
G01*
X0068682Y0045512D02*
X0068682Y0044056D01*
G75*
G02*
X0068150Y0043524I-000531J0000000D01*
G01*
X0067087Y0043524D01*
G75*
G02*
X0066556Y0044056I0000000J0000531D01*
G01*
X0066556Y0045512D01*
G75*
G02*
X0067087Y0046044I0000531J0000000D01*
G01*
X0068150Y0046044D01*
G75*
G02*
X0068682Y0045512I0000000J-000531D01*
G01*
G37*
G36*
G01*
X0011969Y0030979D02*
X0010512Y0030979D01*
G75*
G02*
X0009981Y0031511I0000000J0000531D01*
G01*
X0009981Y0032574D01*
G75*
G02*
X0010512Y0033105I0000531J0000000D01*
G01*
X0011969Y0033105D01*
G75*
G02*
X0012500Y0032574I0000000J-000531D01*
G01*
X0012500Y0031511D01*
G75*
G02*
X0011969Y0030979I-000531J0000000D01*
G01*
G37*
G36*
G01*
X0011969Y0034995D02*
X0010512Y0034995D01*
G75*
G02*
X0009981Y0035527I0000000J0000531D01*
G01*
X0009981Y0036590D01*
G75*
G02*
X0010512Y0037121I0000531J0000000D01*
G01*
X0011969Y0037121D01*
G75*
G02*
X0012500Y0036590I0000000J-000531D01*
G01*
X0012500Y0035527D01*
G75*
G02*
X0011969Y0034995I-000531J0000000D01*
G01*
G37*
G36*
G01*
X0012579Y0007028D02*
X0012579Y0008209D01*
G75*
G02*
X0013170Y0008800I0000591J0000000D01*
G01*
X0017796Y0008800D01*
G75*
G02*
X0018386Y0008209I0000000J-000591D01*
G01*
X0018386Y0007028D01*
G75*
G02*
X0017796Y0006438I-000591J0000000D01*
G01*
X0013170Y0006438D01*
G75*
G02*
X0012579Y0007028I0000000J0000591D01*
G01*
G37*
G36*
G01*
X0012579Y0014508D02*
X0012579Y0015689D01*
G75*
G02*
X0013170Y0016280I0000591J0000000D01*
G01*
X0017796Y0016280D01*
G75*
G02*
X0018386Y0015689I0000000J-000591D01*
G01*
X0018386Y0014508D01*
G75*
G02*
X0017796Y0013918I-000591J0000000D01*
G01*
X0013170Y0013918D01*
G75*
G02*
X0012579Y0014508I0000000J0000591D01*
G01*
G37*
G36*
G01*
X0019961Y0010768D02*
X0019961Y0011949D01*
G75*
G02*
X0020552Y0012540I0000591J0000000D01*
G01*
X0025178Y0012540D01*
G75*
G02*
X0025768Y0011949I0000000J-000591D01*
G01*
X0025768Y0010768D01*
G75*
G02*
X0025178Y0010178I-000591J0000000D01*
G01*
X0020552Y0010178D01*
G75*
G02*
X0019961Y0010768I0000000J0000591D01*
G01*
G37*
G36*
G01*
X0010532Y0044960D02*
X0011871Y0044960D01*
G75*
G02*
X0012422Y0044408I0000000J-000551D01*
G01*
X0012422Y0043306D01*
G75*
G02*
X0011871Y0042755I-000551J0000000D01*
G01*
X0010532Y0042755D01*
G75*
G02*
X0009981Y0043306I0000000J0000551D01*
G01*
X0009981Y0044408D01*
G75*
G02*
X0010532Y0044960I0000551J0000000D01*
G01*
G37*
G36*
G01*
X0010532Y0041180D02*
X0011871Y0041180D01*
G75*
G02*
X0012422Y0040629I0000000J-000551D01*
G01*
X0012422Y0039527D01*
G75*
G02*
X0011871Y0038975I-000551J0000000D01*
G01*
X0010532Y0038975D01*
G75*
G02*
X0009981Y0039527I0000000J0000551D01*
G01*
X0009981Y0040629D01*
G75*
G02*
X0010532Y0041180I0000551J0000000D01*
G01*
G37*
G36*
G01*
X0041319Y0041889D02*
X0041319Y0040708D01*
G75*
G02*
X0040729Y0040117I-000591J0000000D01*
G01*
X0035020Y0040117D01*
G75*
G02*
X0034430Y0040708I0000000J0000591D01*
G01*
X0034430Y0041889D01*
G75*
G02*
X0035020Y0042479I0000591J0000000D01*
G01*
X0040729Y0042479D01*
G75*
G02*
X0041319Y0041889I0000000J-000591D01*
G01*
G37*
G36*
G01*
X0041319Y0036889D02*
X0041319Y0035708D01*
G75*
G02*
X0040729Y0035117I-000591J0000000D01*
G01*
X0035020Y0035117D01*
G75*
G02*
X0034430Y0035708I0000000J0000591D01*
G01*
X0034430Y0036889D01*
G75*
G02*
X0035020Y0037479I0000591J0000000D01*
G01*
X0040729Y0037479D01*
G75*
G02*
X0041319Y0036889I0000000J-000591D01*
G01*
G37*
G36*
G01*
X0041319Y0031889D02*
X0041319Y0030708D01*
G75*
G02*
X0040729Y0030117I-000591J0000000D01*
G01*
X0035020Y0030117D01*
G75*
G02*
X0034430Y0030708I0000000J0000591D01*
G01*
X0034430Y0031889D01*
G75*
G02*
X0035020Y0032479I0000591J0000000D01*
G01*
X0040729Y0032479D01*
G75*
G02*
X0041319Y0031889I0000000J-000591D01*
G01*
G37*
G36*
G01*
X0041319Y0026889D02*
X0041319Y0025708D01*
G75*
G02*
X0040729Y0025117I-000591J0000000D01*
G01*
X0035020Y0025117D01*
G75*
G02*
X0034430Y0025708I0000000J0000591D01*
G01*
X0034430Y0026889D01*
G75*
G02*
X0035020Y0027479I0000591J0000000D01*
G01*
X0040729Y0027479D01*
G75*
G02*
X0041319Y0026889I0000000J-000591D01*
G01*
G37*
G36*
G01*
X0021044Y0026889D02*
X0021044Y0025708D01*
G75*
G02*
X0020453Y0025117I-000591J0000000D01*
G01*
X0014745Y0025117D01*
G75*
G02*
X0014154Y0025708I0000000J0000591D01*
G01*
X0014154Y0026889D01*
G75*
G02*
X0014745Y0027479I0000591J0000000D01*
G01*
X0020453Y0027479D01*
G75*
G02*
X0021044Y0026889I0000000J-000591D01*
G01*
G37*
G36*
G01*
X0021044Y0031889D02*
X0021044Y0030708D01*
G75*
G02*
X0020453Y0030117I-000591J0000000D01*
G01*
X0014745Y0030117D01*
G75*
G02*
X0014154Y0030708I0000000J0000591D01*
G01*
X0014154Y0031889D01*
G75*
G02*
X0014745Y0032479I0000591J0000000D01*
G01*
X0020453Y0032479D01*
G75*
G02*
X0021044Y0031889I0000000J-000591D01*
G01*
G37*
G36*
G01*
X0021044Y0036889D02*
X0021044Y0035708D01*
G75*
G02*
X0020453Y0035117I-000591J0000000D01*
G01*
X0014745Y0035117D01*
G75*
G02*
X0014154Y0035708I0000000J0000591D01*
G01*
X0014154Y0036889D01*
G75*
G02*
X0014745Y0037479I0000591J0000000D01*
G01*
X0020453Y0037479D01*
G75*
G02*
X0021044Y0036889I0000000J-000591D01*
G01*
G37*
G36*
G01*
X0021044Y0041889D02*
X0021044Y0040708D01*
G75*
G02*
X0020453Y0040117I-000591J0000000D01*
G01*
X0014745Y0040117D01*
G75*
G02*
X0014154Y0040708I0000000J0000591D01*
G01*
X0014154Y0041889D01*
G75*
G02*
X0014745Y0042479I0000591J0000000D01*
G01*
X0020453Y0042479D01*
G75*
G02*
X0021044Y0041889I0000000J-000591D01*
G01*
G37*
D31*
X0007658Y0040886D03*
X0067402Y0006438D03*
X0104203Y0023506D03*
X0038465Y0058463D03*
X0021241Y0058406D03*
X0047422Y0038095D03*
X0007658Y0007225D03*
X0006477Y0028288D03*
X0078721Y0037737D03*
X0014377Y0039356D03*
X0022914Y0022834D03*
X0104607Y0056044D03*
X0074923Y0017461D03*
X0112481Y0055847D03*
X0025670Y0007619D03*
X0109430Y0005945D03*
X0060414Y0014510D03*
X0102028Y0006017D03*
X0030493Y0007225D03*
X0069472Y0052819D03*
X0058248Y0027500D03*
X0022873Y0035198D03*
X0040138Y0015296D03*
X0047619Y0006241D03*
X0028327Y0035079D03*
X0055493Y0006536D03*
X0057343Y0048014D03*
X0069724Y0058664D03*
X0021701Y0052040D03*
X0007221Y0057590D03*
X0055650Y0041475D03*
X0063682Y0054510D03*
X0054240Y0047953D03*
X0027737Y0015591D03*
X0012089Y0055265D03*
X0020215Y0008012D03*
X0074963Y0022382D03*
X0028426Y0045553D03*
X0053354Y0027107D03*
X0010551Y0025040D03*
X0017295Y0010727D03*
X0074923Y0014451D03*
X0074923Y0026459D03*
X0058839Y0037500D03*
X0074923Y0011441D03*
X0081280Y0035571D03*
X0060374Y0044253D03*
X0063600Y0051501D03*
X0048204Y0034685D03*
X0109233Y0051713D03*
X0107067Y0022579D03*
X0074225Y0031585D03*
X0051272Y0048455D03*
X0074923Y0008430D03*
X0057521Y0013678D03*
X0043038Y0033351D03*
X0045360Y0035672D03*
X0106083Y0051910D03*
X0072381Y0056475D03*
X0045356Y0027738D03*
X0026478Y0028476D03*
X0045337Y0042739D03*
X0015293Y0046338D03*
X0010549Y0021930D03*
X0029508Y0027974D03*
X0015927Y0020055D03*
X0073763Y0040058D03*
X0022126Y0048268D03*
X0063426Y0021838D03*
X0110512Y0046103D03*
X0107461Y0043347D03*
X0107461Y0046103D03*
X0107461Y0040591D03*
X0110512Y0043347D03*
X0009988Y0009131D03*
X0069815Y0049828D03*
D32*
X0013655Y0040078D02*
X0011201Y0040078D01*
X0014377Y0039356D02*
X0013655Y0040078D01*
D33*
X0066359Y0035178D02*
X0070020Y0035178D01*
X0059412Y0046576D02*
X0061562Y0046576D01*
X0106922Y0014902D02*
X0111792Y0014902D01*
X0074981Y0037737D02*
X0080650Y0032067D01*
X0069646Y0040559D02*
X0069646Y0035551D01*
X0061562Y0046576D02*
X0065954Y0042185D01*
X0089757Y0032067D02*
X0106922Y0014902D01*
X0080650Y0032067D02*
X0089757Y0032067D01*
X0069646Y0035551D02*
X0070020Y0035178D01*
X0048445Y0051329D02*
X0048445Y0047973D01*
X0065954Y0042185D02*
X0068021Y0042185D01*
X0058348Y0045513D02*
X0059412Y0046576D01*
X0050906Y0045513D02*
X0058348Y0045513D01*
X0069666Y0037737D02*
X0074981Y0037737D01*
X0068021Y0042185D02*
X0069646Y0040559D01*
X0047471Y0052304D02*
X0048445Y0051329D01*
X0048445Y0047973D02*
X0050906Y0045513D01*
X0091280Y0014941D02*
X0095256Y0010965D01*
X0095256Y0010965D02*
X0111792Y0010965D01*
X0085768Y0014941D02*
X0091280Y0014941D01*
X0069902Y0019961D02*
X0083203Y0019961D01*
X0085768Y0013196D02*
X0085768Y0014941D01*
X0083203Y0019961D02*
X0085768Y0017396D01*
X0085768Y0017396D02*
X0085768Y0014941D01*
X0064585Y0055414D02*
X0070160Y0055414D01*
X0100237Y0023898D02*
X0100522Y0023613D01*
X0072343Y0048445D02*
X0085414Y0035375D01*
X0070160Y0055414D02*
X0072343Y0053231D01*
X0055630Y0041456D02*
X0055630Y0039115D01*
X0100217Y0027815D02*
X0100237Y0027796D01*
X0100217Y0032323D02*
X0100217Y0027815D01*
X0103879Y0020256D02*
X0109272Y0020256D01*
X0055650Y0041475D02*
X0055630Y0041456D01*
X0109272Y0020256D02*
X0111792Y0022776D01*
X0099341Y0035375D02*
X0100217Y0034499D01*
X0100217Y0034499D02*
X0100217Y0032323D01*
X0100522Y0023613D02*
X0103879Y0020256D01*
X0085414Y0035375D02*
X0099341Y0035375D01*
X0063682Y0054510D02*
X0064585Y0055414D01*
X0072343Y0053231D02*
X0072343Y0048445D01*
X0100237Y0027796D02*
X0100237Y0023898D01*
X0051812Y0055788D02*
X0042047Y0055788D01*
X0042047Y0055788D02*
X0041270Y0055010D01*
X0037628Y0048662D02*
X0041270Y0052304D01*
X0054240Y0047953D02*
X0054240Y0053359D01*
X0041270Y0055010D02*
X0041270Y0052304D01*
X0054240Y0053359D02*
X0051812Y0055788D01*
X0036027Y0048662D02*
X0037628Y0048662D01*
X0037874Y0031346D02*
X0027041Y0031346D01*
X0021002Y0043838D02*
X0011378Y0043838D01*
X0025729Y0032658D02*
X0025729Y0039111D01*
X0010462Y0045224D02*
X0007102Y0048584D01*
X0010462Y0044596D02*
X0010462Y0045224D01*
X0011201Y0043857D02*
X0010462Y0044596D01*
X0025729Y0039111D02*
X0021002Y0043838D01*
X0027041Y0031346D02*
X0025729Y0032658D01*
X0007102Y0048584D02*
X0007102Y0048957D01*
X0012158Y0055335D02*
X0016063Y0055335D01*
X0033248Y0020945D02*
X0031024Y0023170D01*
X0074963Y0022382D02*
X0077402Y0022382D01*
X0026949Y0023170D02*
X0025374Y0021595D01*
X0046536Y0017264D02*
X0044232Y0017264D01*
X0030000Y0015591D02*
X0026063Y0015591D01*
X0033248Y0012481D02*
X0033111Y0012481D01*
X0021536Y0015591D02*
X0018878Y0018249D01*
X0026063Y0015591D02*
X0021536Y0015591D01*
X0043131Y0018421D02*
X0040729Y0020823D01*
X0018878Y0018249D02*
X0018878Y0025019D01*
X0025374Y0021595D02*
X0025374Y0015689D01*
X0077402Y0022382D02*
X0078189Y0021595D01*
X0018878Y0025019D02*
X0017599Y0026298D01*
X0044232Y0017264D02*
X0043131Y0018366D01*
X0043131Y0018366D02*
X0043131Y0018421D01*
X0031024Y0023170D02*
X0026949Y0023170D01*
X0040729Y0020823D02*
X0040729Y0020945D01*
X0016063Y0055335D02*
X0016674Y0055945D01*
X0040729Y0020945D02*
X0033248Y0020945D01*
X0033111Y0012481D02*
X0030000Y0015591D01*
X0012089Y0055265D02*
X0012158Y0055335D01*
X0018858Y0025086D02*
X0017599Y0026346D01*
X0074923Y0014451D02*
X0074866Y0014508D01*
X0074866Y0014508D02*
X0069961Y0014508D01*
X0074923Y0026459D02*
X0073406Y0024941D01*
X0073406Y0024941D02*
X0069764Y0024941D01*
X0058878Y0037461D02*
X0058878Y0035178D01*
X0069764Y0024941D02*
X0069764Y0022382D01*
X0058839Y0037500D02*
X0058878Y0037461D01*
X0091083Y0033740D02*
X0092599Y0032225D01*
X0072233Y0011711D02*
X0071798Y0012146D01*
X0096300Y0032225D02*
X0096398Y0032323D01*
X0069764Y0011654D02*
X0069764Y0009587D01*
X0043014Y0041751D02*
X0043014Y0045691D01*
X0070256Y0012146D02*
X0069764Y0011654D01*
X0070059Y0010571D02*
X0070059Y0011949D01*
X0074923Y0011441D02*
X0074653Y0011711D01*
X0061574Y0044253D02*
X0066319Y0039508D01*
X0083111Y0033740D02*
X0091083Y0033740D01*
X0074653Y0011711D02*
X0072233Y0011711D01*
X0043014Y0045691D02*
X0044115Y0046792D01*
X0060374Y0044253D02*
X0060000Y0043878D01*
X0081280Y0035571D02*
X0083111Y0033740D01*
X0066319Y0039508D02*
X0066319Y0039056D01*
X0092599Y0032225D02*
X0096300Y0032225D01*
X0052083Y0043878D02*
X0048620Y0040416D01*
X0060000Y0043878D02*
X0052083Y0043878D01*
X0060374Y0044253D02*
X0061574Y0044253D01*
X0048620Y0040416D02*
X0044349Y0040416D01*
X0044349Y0040416D02*
X0043014Y0041751D01*
X0070059Y0011949D02*
X0070256Y0012146D01*
X0063600Y0051501D02*
X0063303Y0051501D01*
X0039429Y0056142D02*
X0036044Y0056142D01*
X0040709Y0057422D02*
X0039429Y0056142D01*
X0057382Y0057422D02*
X0040709Y0057422D01*
X0036044Y0052402D02*
X0036044Y0056142D01*
X0063303Y0051501D02*
X0057382Y0057422D01*
X0048204Y0034685D02*
X0048204Y0031767D01*
X0047678Y0031241D02*
X0047678Y0024941D01*
X0047678Y0024941D02*
X0046536Y0024941D01*
X0040178Y0008465D02*
X0036851Y0008465D01*
X0055198Y0014607D02*
X0050178Y0009587D01*
X0065747Y0026535D02*
X0065747Y0020334D01*
X0076581Y0030342D02*
X0075020Y0028780D01*
X0075020Y0028780D02*
X0067993Y0028780D01*
X0062678Y0017264D02*
X0057822Y0017264D01*
X0050178Y0009587D02*
X0047028Y0009587D01*
X0073985Y0035178D02*
X0076581Y0032581D01*
X0067993Y0028780D02*
X0065747Y0026535D01*
X0055198Y0014640D02*
X0055198Y0014607D01*
X0042166Y0008465D02*
X0043288Y0009587D01*
X0057822Y0017264D02*
X0055198Y0014640D01*
X0076581Y0032581D02*
X0076581Y0030342D01*
X0073839Y0035178D02*
X0073985Y0035178D01*
X0065747Y0020334D02*
X0062678Y0017264D01*
X0043288Y0009587D02*
X0047028Y0009587D01*
X0040729Y0008465D02*
X0042166Y0008465D01*
X0050002Y0012146D02*
X0064113Y0026258D01*
X0036989Y0012146D02*
X0050002Y0012146D01*
X0064113Y0026258D02*
X0064113Y0029975D01*
X0064113Y0029975D02*
X0065379Y0031241D01*
X0089587Y0008997D02*
X0089587Y0013196D01*
X0109233Y0051713D02*
X0107253Y0049733D01*
X0107253Y0049733D02*
X0107253Y0049695D01*
X0104251Y0046693D02*
X0103957Y0046693D01*
X0107253Y0049695D02*
X0104251Y0046693D01*
X0074225Y0031585D02*
X0073881Y0031241D01*
X0073881Y0031241D02*
X0069508Y0031241D01*
X0074948Y0008406D02*
X0085670Y0008406D01*
X0074923Y0008430D02*
X0074948Y0008406D01*
X0043038Y0038183D02*
X0039876Y0041346D01*
X0039876Y0041346D02*
X0037874Y0041346D01*
X0043038Y0033351D02*
X0043038Y0038183D01*
X0045360Y0035672D02*
X0045360Y0031678D01*
X0039980Y0026298D02*
X0037874Y0026298D01*
X0045360Y0031678D02*
X0039980Y0026298D01*
X0103456Y0049095D02*
X0102539Y0049095D01*
X0106083Y0051722D02*
X0103456Y0049095D01*
X0106083Y0051910D02*
X0106083Y0051722D01*
X0100138Y0046693D02*
X0096280Y0046693D01*
X0102539Y0049095D02*
X0100138Y0046693D01*
X0092461Y0048071D02*
X0098563Y0054174D01*
X0092461Y0046693D02*
X0092461Y0048071D01*
X0062479Y0035117D02*
X0062479Y0026935D01*
X0062479Y0026935D02*
X0050249Y0014705D01*
X0062540Y0039115D02*
X0062540Y0035178D01*
X0050249Y0014705D02*
X0046536Y0014705D01*
X0062540Y0035178D02*
X0062479Y0035117D01*
X0082008Y0022382D02*
X0085768Y0022382D01*
X0089587Y0021595D02*
X0089587Y0017396D01*
X0016182Y0048957D02*
X0012441Y0048957D01*
X0015293Y0046338D02*
X0015293Y0047281D01*
X0016477Y0048465D02*
X0016674Y0048465D01*
X0015293Y0047281D02*
X0016477Y0048465D01*
X0047247Y0042739D02*
X0048209Y0043701D01*
X0045337Y0042739D02*
X0047247Y0042739D01*
X0032208Y0048620D02*
X0034568Y0046260D01*
X0034568Y0046260D02*
X0039607Y0046260D01*
X0026989Y0048465D02*
X0031868Y0048465D01*
X0051496Y0031241D02*
X0051260Y0031477D01*
X0050571Y0022382D02*
X0051031Y0022842D01*
X0051031Y0022842D02*
X0051031Y0030775D01*
X0051260Y0031477D02*
X0051260Y0038825D01*
X0046536Y0022382D02*
X0050571Y0022382D01*
X0051031Y0030775D02*
X0051496Y0031241D01*
X0046536Y0019823D02*
X0051654Y0019823D01*
X0051654Y0019823D02*
X0055675Y0023845D01*
X0055059Y0031241D02*
X0055059Y0035178D01*
X0055675Y0030625D02*
X0055059Y0031241D01*
X0055675Y0023845D02*
X0055675Y0030625D01*
X0032028Y0055945D02*
X0032225Y0056142D01*
X0018445Y0052067D02*
X0022323Y0055945D01*
X0022323Y0055945D02*
X0032028Y0055945D01*
X0011674Y0052067D02*
X0018445Y0052067D01*
X0011201Y0052540D02*
X0011674Y0052067D01*
X0071634Y0042187D02*
X0071634Y0044784D01*
X0073763Y0040058D02*
X0071634Y0042187D01*
D35*
X0078563Y0050493D02*
X0088367Y0040689D01*
X0088367Y0040689D02*
X0105493Y0040689D01*
X0078563Y0054174D02*
X0078563Y0050493D01*
D33*
X0017351Y0031594D02*
X0017599Y0031346D01*
X0011278Y0032042D02*
X0007430Y0032042D01*
X0011241Y0028347D02*
X0012973Y0026615D01*
X0012973Y0026615D02*
X0012973Y0015000D01*
X0011241Y0032042D02*
X0011241Y0028347D01*
X0011278Y0031846D02*
X0017427Y0031846D01*
X0017059Y0035806D02*
X0017599Y0036346D01*
X0011278Y0036058D02*
X0017136Y0036058D01*
X0011402Y0007717D02*
X0009988Y0009131D01*
X0015483Y0007717D02*
X0011402Y0007717D01*
X0011278Y0036058D02*
X0007415Y0036058D01*
X0067619Y0047632D02*
X0067619Y0044784D01*
X0069815Y0049828D02*
X0067619Y0047632D01*
G36*
X0006396Y0014591D02*
G01*
X0006460Y0014453D01*
X0006489Y0014334D01*
X0006630Y0014059D01*
X0006776Y0013778D01*
X0006793Y0013745D01*
X0007229Y0013245D01*
X0007248Y0013232D01*
X0007248Y0013232D01*
X0007724Y0012897D01*
X0007771Y0012864D01*
X0007827Y0012842D01*
X0008317Y0012651D01*
X0008389Y0012623D01*
X0008412Y0012620D01*
X0008412Y0012620D01*
X0008644Y0012589D01*
X0008895Y0012556D01*
X0009241Y0012556D01*
X0009308Y0012564D01*
X0009710Y0012613D01*
X0009710Y0012613D01*
X0009733Y0012616D01*
X0009775Y0012632D01*
X0010168Y0012780D01*
X0010354Y0012850D01*
X0010373Y0012864D01*
X0010373Y0012864D01*
X0010881Y0013213D01*
X0010900Y0013226D01*
X0011341Y0013721D01*
X0011352Y0013742D01*
X0011359Y0013751D01*
X0011551Y0013897D01*
X0011792Y0013902D01*
X0011989Y0013765D01*
X0011999Y0013749D01*
X0011999Y0013749D01*
X0012018Y0013723D01*
X0012032Y0013694D01*
X0012055Y0013671D01*
X0012178Y0013548D01*
X0012357Y0013369D01*
X0012770Y0013168D01*
X0012800Y0013163D01*
X0012800Y0013163D01*
X0013025Y0013130D01*
X0013025Y0013130D01*
X0013039Y0013128D01*
X0016059Y0013128D01*
X0016288Y0013054D01*
X0016430Y0012859D01*
X0016430Y0012618D01*
X0016288Y0012423D01*
X0016267Y0012409D01*
X0016028Y0012258D01*
X0016028Y0012258D01*
X0016004Y0012243D01*
X0015986Y0012222D01*
X0015986Y0012222D01*
X0015649Y0011841D01*
X0015649Y0011841D01*
X0015631Y0011820D01*
X0015619Y0011795D01*
X0015619Y0011795D01*
X0015580Y0011712D01*
X0015391Y0011309D01*
X0015387Y0011282D01*
X0015387Y0011282D01*
X0015350Y0011048D01*
X0015304Y0010752D01*
X0015308Y0010724D01*
X0015308Y0010724D01*
X0015337Y0010497D01*
X0015377Y0010192D01*
X0015388Y0010166D01*
X0015388Y0010166D01*
X0015402Y0010136D01*
X0015426Y0009896D01*
X0015305Y0009688D01*
X0015084Y0009591D01*
X0015045Y0009589D01*
X0013039Y0009589D01*
X0013025Y0009587D01*
X0013025Y0009587D01*
X0012798Y0009554D01*
X0012798Y0009554D01*
X0012768Y0009549D01*
X0012741Y0009536D01*
X0012741Y0009536D01*
X0012456Y0009396D01*
X0012217Y0009362D01*
X0012004Y0009474D01*
X0011910Y0009636D01*
X0011902Y0009662D01*
X0011898Y0009690D01*
X0011887Y0009716D01*
X0011676Y0010178D01*
X0011676Y0010178D01*
X0011665Y0010204D01*
X0011347Y0010572D01*
X0011314Y0010610D01*
X0011314Y0010610D01*
X0011296Y0010631D01*
X0010823Y0010938D01*
X0010282Y0011100D01*
X0009954Y0011102D01*
X0009745Y0011103D01*
X0009745Y0011103D01*
X0009718Y0011103D01*
X0009691Y0011096D01*
X0009691Y0011096D01*
X0009202Y0010956D01*
X0009202Y0010956D01*
X0009175Y0010948D01*
X0008697Y0010647D01*
X0008679Y0010626D01*
X0008679Y0010626D01*
X0008342Y0010245D01*
X0008342Y0010245D01*
X0008324Y0010224D01*
X0008312Y0010199D01*
X0008312Y0010199D01*
X0008270Y0010109D01*
X0008084Y0009713D01*
X0008080Y0009686D01*
X0008080Y0009686D01*
X0008033Y0009386D01*
X0007997Y0009155D01*
X0008001Y0009128D01*
X0008001Y0009128D01*
X0008056Y0008707D01*
X0008070Y0008596D01*
X0008081Y0008570D01*
X0008081Y0008570D01*
X0008272Y0008137D01*
X0008298Y0008079D01*
X0008438Y0007912D01*
X0008643Y0007668D01*
X0008643Y0007668D01*
X0008661Y0007647D01*
X0009131Y0007334D01*
X0009404Y0007249D01*
X0009643Y0007174D01*
X0009643Y0007174D01*
X0009669Y0007166D01*
X0009839Y0007163D01*
X0009992Y0007160D01*
X0010220Y0007081D01*
X0010261Y0007046D01*
X0010444Y0006862D01*
X0010467Y0006837D01*
X0010565Y0006720D01*
X0010698Y0006644D01*
X0010726Y0006625D01*
X0010747Y0006611D01*
X0010798Y0006576D01*
X0010852Y0006538D01*
X0010885Y0006529D01*
X0010906Y0006519D01*
X0010927Y0006511D01*
X0010957Y0006494D01*
X0011074Y0006474D01*
X0011107Y0006468D01*
X0011141Y0006460D01*
X0011255Y0006430D01*
X0011255Y0006430D01*
X0011288Y0006421D01*
X0011441Y0006434D01*
X0011475Y0006436D01*
X0011680Y0006436D01*
X0011910Y0006361D01*
X0011992Y0006263D01*
X0011999Y0006269D01*
X0012018Y0006243D01*
X0012032Y0006214D01*
X0012055Y0006191D01*
X0012068Y0006178D01*
X0012209Y0006037D01*
X0012322Y0005924D01*
X0012432Y0005709D01*
X0012394Y0005471D01*
X0012224Y0005301D01*
X0012047Y0005258D01*
X0006081Y0005258D01*
X0005852Y0005333D01*
X0005710Y0005528D01*
X0005691Y0005648D01*
X0005691Y0014362D01*
X0005766Y0014591D01*
X0005961Y0014733D01*
X0006202Y0014733D01*
X0006396Y0014591D01*
G37*
G36*
X0077526Y0018605D02*
G01*
X0077668Y0018410D01*
X0077668Y0018169D01*
X0077616Y0018068D01*
X0077611Y0018062D01*
X0077595Y0018034D01*
X0077275Y0017480D01*
X0077259Y0017453D01*
X0077253Y0017433D01*
X0077253Y0017433D01*
X0077048Y0016803D01*
X0077048Y0016803D01*
X0077042Y0016783D01*
X0076975Y0016146D01*
X0076970Y0016101D01*
X0076872Y0015881D01*
X0076663Y0015760D01*
X0076424Y0015785D01*
X0076287Y0015887D01*
X0076250Y0015930D01*
X0076250Y0015930D01*
X0076232Y0015951D01*
X0075758Y0016258D01*
X0075218Y0016420D01*
X0074890Y0016422D01*
X0074681Y0016423D01*
X0074681Y0016423D01*
X0074653Y0016423D01*
X0074626Y0016416D01*
X0074626Y0016416D01*
X0074379Y0016345D01*
X0074138Y0016353D01*
X0074096Y0016376D01*
X0074080Y0016378D01*
X0073208Y0016378D01*
X0073195Y0016379D01*
X0073188Y0016380D01*
X0067324Y0016380D01*
X0067318Y0016379D01*
X0067304Y0016378D01*
X0066464Y0016378D01*
X0066414Y0016362D01*
X0066402Y0016346D01*
X0066402Y0016299D01*
X0066406Y0016261D01*
X0066453Y0016026D01*
X0066481Y0015956D01*
X0066547Y0015858D01*
X0066613Y0015642D01*
X0066613Y0013742D01*
X0066658Y0013511D01*
X0066645Y0013509D01*
X0066659Y0013340D01*
X0066658Y0013340D01*
X0066613Y0013110D01*
X0066613Y0011183D01*
X0066629Y0011100D01*
X0066658Y0010952D01*
X0066645Y0010950D01*
X0066659Y0010781D01*
X0066658Y0010781D01*
X0066613Y0010551D01*
X0066613Y0008624D01*
X0066658Y0008393D01*
X0066833Y0008132D01*
X0067094Y0007958D01*
X0067132Y0007950D01*
X0067132Y0007950D01*
X0067221Y0007932D01*
X0067324Y0007912D01*
X0072744Y0007912D01*
X0072973Y0007837D01*
X0073101Y0007679D01*
X0073209Y0007434D01*
X0073233Y0007378D01*
X0073324Y0007271D01*
X0073578Y0006968D01*
X0073579Y0006968D01*
X0073596Y0006946D01*
X0073619Y0006931D01*
X0073619Y0006931D01*
X0073722Y0006862D01*
X0074066Y0006634D01*
X0074432Y0006519D01*
X0074578Y0006474D01*
X0074578Y0006474D01*
X0074605Y0006465D01*
X0074887Y0006460D01*
X0075142Y0006455D01*
X0075142Y0006455D01*
X0075169Y0006455D01*
X0075196Y0006462D01*
X0075196Y0006462D01*
X0075612Y0006576D01*
X0075714Y0006603D01*
X0076195Y0006899D01*
X0076283Y0006996D01*
X0076492Y0007116D01*
X0076572Y0007125D01*
X0083666Y0007125D01*
X0083895Y0007050D01*
X0084015Y0006907D01*
X0084058Y0006820D01*
X0084081Y0006797D01*
X0084358Y0006520D01*
X0084358Y0006520D01*
X0084381Y0006498D01*
X0084791Y0006297D01*
X0084979Y0006270D01*
X0085044Y0006260D01*
X0085044Y0006260D01*
X0085058Y0006258D01*
X0086479Y0006258D01*
X0086493Y0006260D01*
X0086493Y0006260D01*
X0086718Y0006294D01*
X0086718Y0006294D01*
X0086748Y0006298D01*
X0086847Y0006347D01*
X0087004Y0006424D01*
X0087157Y0006499D01*
X0087180Y0006522D01*
X0087402Y0006744D01*
X0087616Y0006853D01*
X0087854Y0006816D01*
X0087953Y0006744D01*
X0088200Y0006498D01*
X0088610Y0006297D01*
X0088798Y0006270D01*
X0088863Y0006260D01*
X0088863Y0006260D01*
X0088876Y0006258D01*
X0090298Y0006258D01*
X0090312Y0006260D01*
X0090312Y0006260D01*
X0090537Y0006294D01*
X0090537Y0006294D01*
X0090567Y0006298D01*
X0090666Y0006347D01*
X0090823Y0006424D01*
X0090976Y0006499D01*
X0090999Y0006522D01*
X0091276Y0006799D01*
X0091276Y0006799D01*
X0091299Y0006822D01*
X0091499Y0007232D01*
X0091538Y0007499D01*
X0091538Y0009117D01*
X0091528Y0009180D01*
X0091503Y0009356D01*
X0091503Y0009356D01*
X0091498Y0009386D01*
X0091297Y0009795D01*
X0090983Y0010109D01*
X0090873Y0010324D01*
X0090869Y0010385D01*
X0090869Y0010429D01*
X0090943Y0010658D01*
X0090982Y0010705D01*
X0091299Y0011021D01*
X0091499Y0011431D01*
X0091538Y0011698D01*
X0091538Y0011930D01*
X0091612Y0012159D01*
X0091807Y0012301D01*
X0092048Y0012301D01*
X0092203Y0012206D01*
X0094299Y0010111D01*
X0094322Y0010085D01*
X0094420Y0009968D01*
X0094545Y0009896D01*
X0094552Y0009892D01*
X0094581Y0009873D01*
X0094706Y0009786D01*
X0094739Y0009777D01*
X0094760Y0009767D01*
X0094782Y0009759D01*
X0094811Y0009742D01*
X0094845Y0009736D01*
X0094845Y0009736D01*
X0094962Y0009716D01*
X0094995Y0009708D01*
X0095073Y0009688D01*
X0095143Y0009669D01*
X0095295Y0009682D01*
X0095329Y0009684D01*
X0109851Y0009684D01*
X0110080Y0009609D01*
X0110160Y0009531D01*
X0110246Y0009419D01*
X0110266Y0009404D01*
X0110678Y0009087D01*
X0110679Y0009087D01*
X0110699Y0009072D01*
X0110714Y0009066D01*
X0110872Y0008890D01*
X0110906Y0008731D01*
X0110906Y0008406D01*
X0112778Y0008406D01*
X0113007Y0008332D01*
X0113149Y0008137D01*
X0113168Y0008016D01*
X0113168Y0005648D01*
X0113093Y0005419D01*
X0112898Y0005277D01*
X0112778Y0005258D01*
X0020462Y0005258D01*
X0020432Y0005268D01*
X0020400Y0005258D01*
X0018919Y0005258D01*
X0018690Y0005333D01*
X0018548Y0005528D01*
X0018548Y0005769D01*
X0018643Y0005923D01*
X0018756Y0006037D01*
X0018879Y0006160D01*
X0019094Y0006270D01*
X0019323Y0006237D01*
X0019335Y0006231D01*
X0019358Y0006215D01*
X0019743Y0006095D01*
X0019871Y0006055D01*
X0019871Y0006055D01*
X0019897Y0006047D01*
X0020398Y0006038D01*
X0020407Y0006038D01*
X0020415Y0006035D01*
X0020434Y0006037D01*
X0020461Y0006037D01*
X0020488Y0006044D01*
X0020488Y0006044D01*
X0020914Y0006160D01*
X0021006Y0006185D01*
X0021454Y0006460D01*
X0021463Y0006466D01*
X0021487Y0006481D01*
X0021517Y0006514D01*
X0021847Y0006879D01*
X0021866Y0006899D01*
X0022112Y0007407D01*
X0022114Y0007420D01*
X0031043Y0007420D01*
X0031061Y0007362D01*
X0031261Y0006971D01*
X0031296Y0006922D01*
X0031607Y0006611D01*
X0031656Y0006576D01*
X0032047Y0006376D01*
X0032105Y0006357D01*
X0032187Y0006344D01*
X0032239Y0006353D01*
X0032242Y0006356D01*
X0032248Y0006381D01*
X0032248Y0007403D01*
X0032232Y0007453D01*
X0032216Y0007465D01*
X0031097Y0007465D01*
X0031047Y0007449D01*
X0031045Y0007445D01*
X0031043Y0007420D01*
X0022114Y0007420D01*
X0022119Y0007449D01*
X0022203Y0007949D01*
X0022203Y0007949D01*
X0022206Y0007964D01*
X0022206Y0008012D01*
X0022126Y0008571D01*
X0021900Y0009069D01*
X0021865Y0009231D01*
X0021865Y0011969D01*
X0021939Y0012198D01*
X0022134Y0012340D01*
X0022254Y0012359D01*
X0023475Y0012359D01*
X0023704Y0012284D01*
X0023846Y0012089D01*
X0023865Y0011969D01*
X0023865Y0009239D01*
X0023881Y0009189D01*
X0023897Y0009178D01*
X0025287Y0009178D01*
X0025318Y0009180D01*
X0025645Y0009232D01*
X0025703Y0009251D01*
X0026097Y0009451D01*
X0026146Y0009487D01*
X0026316Y0009658D01*
X0026531Y0009767D01*
X0026769Y0009729D01*
X0026886Y0009638D01*
X0027229Y0009245D01*
X0027248Y0009232D01*
X0027248Y0009232D01*
X0027580Y0008999D01*
X0027771Y0008864D01*
X0027827Y0008842D01*
X0028338Y0008643D01*
X0028389Y0008623D01*
X0028412Y0008620D01*
X0028412Y0008620D01*
X0028882Y0008558D01*
X0028895Y0008556D01*
X0029241Y0008556D01*
X0029255Y0008558D01*
X0029710Y0008613D01*
X0029710Y0008613D01*
X0029733Y0008616D01*
X0029775Y0008632D01*
X0030010Y0008721D01*
X0030354Y0008850D01*
X0030373Y0008864D01*
X0030373Y0008864D01*
X0030881Y0009213D01*
X0030900Y0009226D01*
X0030997Y0009335D01*
X0031205Y0009456D01*
X0031288Y0009465D01*
X0033859Y0009465D01*
X0034088Y0009391D01*
X0034229Y0009196D01*
X0034248Y0009075D01*
X0034248Y0006396D01*
X0034265Y0006347D01*
X0034268Y0006344D01*
X0034294Y0006342D01*
X0034392Y0006357D01*
X0034449Y0006376D01*
X0034841Y0006576D01*
X0034890Y0006611D01*
X0034999Y0006720D01*
X0035213Y0006829D01*
X0035451Y0006792D01*
X0035486Y0006771D01*
X0035503Y0006754D01*
X0035913Y0006553D01*
X0036108Y0006525D01*
X0036166Y0006516D01*
X0036166Y0006516D01*
X0036180Y0006514D01*
X0037798Y0006514D01*
X0037812Y0006516D01*
X0037812Y0006516D01*
X0038037Y0006550D01*
X0038037Y0006550D01*
X0038067Y0006554D01*
X0038476Y0006755D01*
X0038561Y0006840D01*
X0038583Y0006862D01*
X0038797Y0006971D01*
X0039035Y0006934D01*
X0039134Y0006862D01*
X0039243Y0006754D01*
X0039653Y0006553D01*
X0039848Y0006525D01*
X0039906Y0006516D01*
X0039906Y0006516D01*
X0039920Y0006514D01*
X0041538Y0006514D01*
X0041552Y0006516D01*
X0041552Y0006516D01*
X0041777Y0006550D01*
X0041777Y0006550D01*
X0041807Y0006554D01*
X0042216Y0006755D01*
X0042259Y0006797D01*
X0042516Y0007055D01*
X0042516Y0007055D01*
X0042539Y0007078D01*
X0042562Y0007125D01*
X0042720Y0007280D01*
X0042716Y0007286D01*
X0042773Y0007326D01*
X0042841Y0007373D01*
X0042870Y0007392D01*
X0043002Y0007468D01*
X0043101Y0007585D01*
X0043124Y0007610D01*
X0043408Y0007895D01*
X0043623Y0008004D01*
X0043833Y0007979D01*
X0043834Y0007979D01*
X0043866Y0007958D01*
X0043903Y0007950D01*
X0043903Y0007950D01*
X0043992Y0007933D01*
X0044096Y0007912D01*
X0049960Y0007912D01*
X0050063Y0007932D01*
X0050153Y0007950D01*
X0050153Y0007950D01*
X0050190Y0007958D01*
X0050451Y0008132D01*
X0050540Y0008264D01*
X0050698Y0008400D01*
X0050728Y0008408D01*
X0050853Y0008496D01*
X0050882Y0008514D01*
X0051014Y0008590D01*
X0051112Y0008707D01*
X0051135Y0008733D01*
X0055183Y0012780D01*
X0055397Y0012889D01*
X0055635Y0012852D01*
X0055804Y0012674D01*
X0055805Y0012675D01*
X0055810Y0012667D01*
X0055815Y0012661D01*
X0055820Y0012651D01*
X0055820Y0012651D01*
X0055831Y0012626D01*
X0055947Y0012488D01*
X0056176Y0012215D01*
X0056176Y0012215D01*
X0056194Y0012194D01*
X0056217Y0012178D01*
X0056217Y0012178D01*
X0056266Y0012146D01*
X0056664Y0011881D01*
X0057060Y0011757D01*
X0057176Y0011721D01*
X0057176Y0011721D01*
X0057203Y0011713D01*
X0057485Y0011707D01*
X0057739Y0011703D01*
X0057739Y0011703D01*
X0057767Y0011702D01*
X0057794Y0011710D01*
X0057794Y0011710D01*
X0058125Y0011800D01*
X0058312Y0011851D01*
X0058793Y0012146D01*
X0058822Y0012178D01*
X0059153Y0012544D01*
X0059171Y0012564D01*
X0059387Y0013009D01*
X0059405Y0013047D01*
X0059418Y0013072D01*
X0059424Y0013110D01*
X0059509Y0013614D01*
X0059509Y0013614D01*
X0059511Y0013629D01*
X0059512Y0013678D01*
X0059432Y0014236D01*
X0059312Y0014499D01*
X0059210Y0014725D01*
X0059210Y0014725D01*
X0059198Y0014750D01*
X0058830Y0015178D01*
X0058694Y0015266D01*
X0058542Y0015453D01*
X0058529Y0015694D01*
X0058660Y0015896D01*
X0058906Y0015983D01*
X0062605Y0015983D01*
X0062639Y0015981D01*
X0062791Y0015968D01*
X0062854Y0015985D01*
X0062939Y0016008D01*
X0062972Y0016015D01*
X0063089Y0016036D01*
X0063089Y0016036D01*
X0063123Y0016041D01*
X0063152Y0016059D01*
X0063174Y0016066D01*
X0063195Y0016076D01*
X0063228Y0016085D01*
X0063353Y0016173D01*
X0063382Y0016191D01*
X0063514Y0016267D01*
X0063612Y0016385D01*
X0063635Y0016410D01*
X0065737Y0018511D01*
X0065951Y0018620D01*
X0066189Y0018583D01*
X0066360Y0018412D01*
X0066402Y0018235D01*
X0066402Y0018212D01*
X0066418Y0018162D01*
X0066434Y0018150D01*
X0067304Y0018150D01*
X0067318Y0018149D01*
X0067324Y0018148D01*
X0073188Y0018148D01*
X0073195Y0018149D01*
X0073208Y0018150D01*
X0074049Y0018150D01*
X0074099Y0018166D01*
X0074111Y0018183D01*
X0074111Y0018229D01*
X0074109Y0018251D01*
X0074160Y0018487D01*
X0074340Y0018647D01*
X0074496Y0018679D01*
X0077297Y0018679D01*
X0077526Y0018605D01*
G37*
G36*
X0039088Y0015272D02*
G01*
X0039136Y0015237D01*
X0039528Y0015038D01*
X0039585Y0015019D01*
X0039793Y0014986D01*
X0040008Y0014877D01*
X0040117Y0014662D01*
X0040079Y0014424D01*
X0039909Y0014254D01*
X0039789Y0014215D01*
X0039680Y0014200D01*
X0039680Y0014200D01*
X0039650Y0014195D01*
X0039623Y0014182D01*
X0039623Y0014182D01*
X0039535Y0014139D01*
X0039241Y0013994D01*
X0039178Y0013931D01*
X0039134Y0013887D01*
X0038920Y0013778D01*
X0038682Y0013815D01*
X0038583Y0013887D01*
X0038582Y0013888D01*
X0038474Y0013995D01*
X0038065Y0014196D01*
X0038035Y0014200D01*
X0038035Y0014200D01*
X0037930Y0014215D01*
X0037714Y0014322D01*
X0037602Y0014535D01*
X0037637Y0014774D01*
X0037805Y0014946D01*
X0037925Y0014986D01*
X0038132Y0015019D01*
X0038190Y0015038D01*
X0038581Y0015237D01*
X0038630Y0015272D01*
X0038859Y0015347D01*
X0039088Y0015272D01*
G37*
G36*
X0009462Y0030687D02*
G01*
X0009508Y0030647D01*
X0009743Y0030412D01*
X0009774Y0030398D01*
X0009793Y0030385D01*
X0009938Y0030192D01*
X0009959Y0030065D01*
X0009959Y0028420D01*
X0009958Y0028386D01*
X0009944Y0028234D01*
X0009953Y0028201D01*
X0009984Y0028086D01*
X0009991Y0028053D01*
X0010011Y0027941D01*
X0010018Y0027902D01*
X0010035Y0027872D01*
X0010043Y0027851D01*
X0010052Y0027830D01*
X0010061Y0027797D01*
X0010128Y0027701D01*
X0010149Y0027672D01*
X0010167Y0027643D01*
X0010244Y0027511D01*
X0010232Y0027504D01*
X0010298Y0027339D01*
X0010240Y0027105D01*
X0010056Y0026950D01*
X0010017Y0026937D01*
X0009867Y0026894D01*
X0009765Y0026865D01*
X0009765Y0026865D01*
X0009738Y0026857D01*
X0009261Y0026556D01*
X0009242Y0026535D01*
X0009242Y0026535D01*
X0008905Y0026154D01*
X0008905Y0026154D01*
X0008887Y0026133D01*
X0008875Y0026108D01*
X0008875Y0026108D01*
X0008829Y0026009D01*
X0008647Y0025622D01*
X0008643Y0025594D01*
X0008643Y0025594D01*
X0008600Y0025319D01*
X0008560Y0025064D01*
X0008564Y0025037D01*
X0008564Y0025037D01*
X0008627Y0024552D01*
X0008633Y0024505D01*
X0008645Y0024479D01*
X0008645Y0024479D01*
X0008839Y0024036D01*
X0008861Y0023988D01*
X0008879Y0023967D01*
X0008879Y0023967D01*
X0009072Y0023736D01*
X0009163Y0023513D01*
X0009104Y0023279D01*
X0009066Y0023228D01*
X0008903Y0023043D01*
X0008903Y0023043D01*
X0008885Y0023023D01*
X0008873Y0022998D01*
X0008873Y0022998D01*
X0008825Y0022894D01*
X0008645Y0022512D01*
X0008641Y0022484D01*
X0008641Y0022484D01*
X0008613Y0022306D01*
X0008558Y0021954D01*
X0008562Y0021926D01*
X0008562Y0021926D01*
X0008610Y0021560D01*
X0008631Y0021394D01*
X0008643Y0021369D01*
X0008643Y0021369D01*
X0008830Y0020943D01*
X0008859Y0020878D01*
X0008981Y0020732D01*
X0009204Y0020467D01*
X0009204Y0020467D01*
X0009222Y0020446D01*
X0009692Y0020133D01*
X0010088Y0020009D01*
X0010204Y0019973D01*
X0010204Y0019973D01*
X0010231Y0019965D01*
X0010513Y0019959D01*
X0010767Y0019955D01*
X0010767Y0019955D01*
X0010795Y0019954D01*
X0010822Y0019962D01*
X0010822Y0019962D01*
X0011114Y0020041D01*
X0011199Y0020064D01*
X0011440Y0020053D01*
X0011628Y0019902D01*
X0011691Y0019688D01*
X0011691Y0017504D01*
X0011617Y0017275D01*
X0011422Y0017133D01*
X0011181Y0017133D01*
X0011008Y0017248D01*
X0010937Y0017329D01*
X0010922Y0017346D01*
X0010890Y0017369D01*
X0010398Y0017714D01*
X0010398Y0017714D01*
X0010379Y0017728D01*
X0009761Y0017969D01*
X0009738Y0017972D01*
X0009738Y0017972D01*
X0009268Y0018033D01*
X0009256Y0018035D01*
X0008909Y0018035D01*
X0008897Y0018034D01*
X0008897Y0018034D01*
X0008440Y0017978D01*
X0008440Y0017978D01*
X0008417Y0017976D01*
X0008395Y0017967D01*
X0008395Y0017967D01*
X0008299Y0017931D01*
X0007797Y0017741D01*
X0007777Y0017728D01*
X0007777Y0017728D01*
X0007512Y0017546D01*
X0007250Y0017366D01*
X0006809Y0016871D01*
X0006499Y0016285D01*
X0006493Y0016262D01*
X0006493Y0016262D01*
X0006459Y0016126D01*
X0006331Y0015922D01*
X0006108Y0015832D01*
X0005874Y0015891D01*
X0005719Y0016076D01*
X0005691Y0016221D01*
X0005691Y0029473D01*
X0005766Y0029702D01*
X0005961Y0029844D01*
X0006081Y0029863D01*
X0007039Y0029863D01*
X0007063Y0029861D01*
X0007077Y0029861D01*
X0007102Y0029858D01*
X0007127Y0029861D01*
X0007139Y0029863D01*
X0007334Y0029888D01*
X0007642Y0029929D01*
X0007642Y0029929D01*
X0007668Y0029932D01*
X0008195Y0030151D01*
X0008648Y0030498D01*
X0008663Y0030518D01*
X0008663Y0030518D01*
X0008732Y0030608D01*
X0008931Y0030745D01*
X0009042Y0030761D01*
X0009233Y0030761D01*
X0009462Y0030687D01*
G37*
G36*
X0041568Y0018052D02*
G01*
X0041710Y0017857D01*
X0041729Y0017737D01*
X0041729Y0016516D01*
X0041654Y0016287D01*
X0041459Y0016146D01*
X0041339Y0016126D01*
X0032638Y0016126D01*
X0032409Y0016201D01*
X0032268Y0016396D01*
X0032248Y0016516D01*
X0032248Y0017737D01*
X0032323Y0017966D01*
X0032518Y0018107D01*
X0032638Y0018126D01*
X0041339Y0018126D01*
X0041568Y0018052D01*
G37*
G36*
X0018438Y0042224D02*
G01*
X0018580Y0042029D01*
X0018599Y0041908D01*
X0018599Y0039179D01*
X0018615Y0039129D01*
X0018631Y0039117D01*
X0020563Y0039117D01*
X0020594Y0039120D01*
X0020921Y0039171D01*
X0020978Y0039190D01*
X0021372Y0039391D01*
X0021421Y0039427D01*
X0021734Y0039739D01*
X0021770Y0039788D01*
X0021971Y0040183D01*
X0021989Y0040237D01*
X0022130Y0040432D01*
X0022359Y0040507D01*
X0022588Y0040432D01*
X0022635Y0040393D01*
X0024334Y0038694D01*
X0024443Y0038479D01*
X0024448Y0038418D01*
X0024448Y0032731D01*
X0024446Y0032697D01*
X0024433Y0032544D01*
X0024442Y0032511D01*
X0024472Y0032396D01*
X0024480Y0032363D01*
X0024506Y0032213D01*
X0024523Y0032183D01*
X0024531Y0032161D01*
X0024541Y0032141D01*
X0024550Y0032108D01*
X0024611Y0032020D01*
X0024638Y0031982D01*
X0024656Y0031954D01*
X0024732Y0031821D01*
X0024850Y0031723D01*
X0024875Y0031700D01*
X0025698Y0030877D01*
X0025807Y0030662D01*
X0025769Y0030424D01*
X0025630Y0030271D01*
X0025302Y0030064D01*
X0025188Y0029993D01*
X0025170Y0029972D01*
X0025170Y0029972D01*
X0024833Y0029590D01*
X0024833Y0029590D01*
X0024814Y0029569D01*
X0024575Y0029059D01*
X0024570Y0029031D01*
X0024570Y0029031D01*
X0024534Y0028796D01*
X0024488Y0028501D01*
X0024561Y0027941D01*
X0024572Y0027916D01*
X0024572Y0027916D01*
X0024752Y0027506D01*
X0024788Y0027425D01*
X0024965Y0027214D01*
X0025134Y0027014D01*
X0025134Y0027014D01*
X0025151Y0026992D01*
X0025174Y0026977D01*
X0025175Y0026977D01*
X0025257Y0026922D01*
X0025621Y0026680D01*
X0025893Y0026595D01*
X0026133Y0026520D01*
X0026133Y0026520D01*
X0026160Y0026511D01*
X0026442Y0026506D01*
X0026697Y0026502D01*
X0026697Y0026502D01*
X0026724Y0026501D01*
X0026751Y0026508D01*
X0026751Y0026508D01*
X0027167Y0026622D01*
X0027269Y0026649D01*
X0027496Y0026789D01*
X0027730Y0026845D01*
X0027953Y0026753D01*
X0027998Y0026708D01*
X0028164Y0026511D01*
X0028164Y0026511D01*
X0028181Y0026490D01*
X0028205Y0026475D01*
X0028205Y0026475D01*
X0028253Y0026442D01*
X0028651Y0026177D01*
X0028953Y0026083D01*
X0029164Y0026017D01*
X0029164Y0026017D01*
X0029190Y0026009D01*
X0029472Y0026004D01*
X0029727Y0025999D01*
X0029727Y0025999D01*
X0029754Y0025999D01*
X0029781Y0026006D01*
X0029781Y0026006D01*
X0030154Y0026108D01*
X0030299Y0026147D01*
X0030780Y0026442D01*
X0030809Y0026475D01*
X0031140Y0026840D01*
X0031159Y0026861D01*
X0031405Y0027369D01*
X0031410Y0027401D01*
X0031496Y0027911D01*
X0031496Y0027911D01*
X0031498Y0027925D01*
X0031499Y0027974D01*
X0031419Y0028533D01*
X0031299Y0028796D01*
X0031197Y0029021D01*
X0031197Y0029021D01*
X0031185Y0029047D01*
X0030864Y0029420D01*
X0030771Y0029642D01*
X0030826Y0029877D01*
X0031008Y0030034D01*
X0031159Y0030064D01*
X0033566Y0030064D01*
X0033796Y0029990D01*
X0033874Y0029911D01*
X0033883Y0029893D01*
X0033905Y0029871D01*
X0033929Y0029847D01*
X0034208Y0029569D01*
X0034620Y0029367D01*
X0034650Y0029363D01*
X0034650Y0029363D01*
X0034875Y0029330D01*
X0034875Y0029330D01*
X0034889Y0029328D01*
X0040256Y0029328D01*
X0040485Y0029253D01*
X0040627Y0029058D01*
X0040627Y0028818D01*
X0040532Y0028662D01*
X0040252Y0028383D01*
X0040038Y0028274D01*
X0039977Y0028269D01*
X0034889Y0028269D01*
X0034875Y0028267D01*
X0034875Y0028267D01*
X0034648Y0028233D01*
X0034648Y0028233D01*
X0034618Y0028229D01*
X0034591Y0028215D01*
X0034591Y0028215D01*
X0034436Y0028140D01*
X0034206Y0028026D01*
X0034183Y0028004D01*
X0034071Y0027892D01*
X0033881Y0027701D01*
X0033679Y0027288D01*
X0033675Y0027259D01*
X0033675Y0027259D01*
X0033656Y0027127D01*
X0033640Y0027020D01*
X0033640Y0025577D01*
X0033642Y0025563D01*
X0033642Y0025563D01*
X0033675Y0025338D01*
X0033680Y0025306D01*
X0033883Y0024893D01*
X0034208Y0024569D01*
X0034620Y0024367D01*
X0034650Y0024363D01*
X0034650Y0024363D01*
X0034875Y0024330D01*
X0034875Y0024330D01*
X0034889Y0024328D01*
X0040860Y0024328D01*
X0040874Y0024330D01*
X0040874Y0024330D01*
X0041101Y0024363D01*
X0041101Y0024363D01*
X0041131Y0024368D01*
X0041169Y0024386D01*
X0041358Y0024479D01*
X0041543Y0024570D01*
X0041868Y0024895D01*
X0042069Y0025308D01*
X0042074Y0025338D01*
X0042074Y0025338D01*
X0042107Y0025563D01*
X0042107Y0025563D01*
X0042109Y0025577D01*
X0042109Y0026453D01*
X0042183Y0026682D01*
X0042223Y0026729D01*
X0042809Y0027315D01*
X0043024Y0027425D01*
X0043262Y0027387D01*
X0043442Y0027197D01*
X0043633Y0026763D01*
X0043657Y0026523D01*
X0043600Y0026389D01*
X0043430Y0026135D01*
X0043423Y0026098D01*
X0043423Y0026098D01*
X0043407Y0026017D01*
X0043384Y0025905D01*
X0043384Y0023978D01*
X0043418Y0023808D01*
X0043430Y0023748D01*
X0043417Y0023745D01*
X0043430Y0023577D01*
X0043430Y0023576D01*
X0043384Y0023346D01*
X0043384Y0022288D01*
X0043310Y0022059D01*
X0043115Y0021917D01*
X0042874Y0021917D01*
X0042679Y0022059D01*
X0042645Y0022116D01*
X0042630Y0022145D01*
X0042537Y0022335D01*
X0042515Y0022357D01*
X0042237Y0022634D01*
X0042237Y0022634D01*
X0042215Y0022657D01*
X0041805Y0022857D01*
X0041597Y0022888D01*
X0041552Y0022894D01*
X0041552Y0022894D01*
X0041538Y0022896D01*
X0039920Y0022896D01*
X0039906Y0022894D01*
X0039906Y0022894D01*
X0039680Y0022861D01*
X0039680Y0022861D01*
X0039650Y0022857D01*
X0039241Y0022656D01*
X0039189Y0022604D01*
X0039134Y0022549D01*
X0038920Y0022439D01*
X0038682Y0022477D01*
X0038583Y0022548D01*
X0038497Y0022634D01*
X0038474Y0022657D01*
X0038065Y0022857D01*
X0037856Y0022888D01*
X0037812Y0022894D01*
X0037812Y0022894D01*
X0037798Y0022896D01*
X0036180Y0022896D01*
X0036166Y0022894D01*
X0036165Y0022894D01*
X0035940Y0022861D01*
X0035940Y0022861D01*
X0035910Y0022857D01*
X0035501Y0022656D01*
X0035449Y0022604D01*
X0035394Y0022549D01*
X0035180Y0022439D01*
X0034942Y0022477D01*
X0034843Y0022548D01*
X0034757Y0022634D01*
X0034734Y0022657D01*
X0034324Y0022857D01*
X0034116Y0022888D01*
X0034071Y0022894D01*
X0034071Y0022894D01*
X0034057Y0022896D01*
X0033271Y0022896D01*
X0033042Y0022971D01*
X0032996Y0023010D01*
X0031982Y0024024D01*
X0031959Y0024049D01*
X0031951Y0024058D01*
X0031860Y0024167D01*
X0031728Y0024243D01*
X0031699Y0024261D01*
X0031642Y0024302D01*
X0031574Y0024349D01*
X0031541Y0024358D01*
X0031520Y0024368D01*
X0031499Y0024376D01*
X0031469Y0024393D01*
X0031436Y0024398D01*
X0031436Y0024398D01*
X0031318Y0024419D01*
X0031285Y0024426D01*
X0031170Y0024457D01*
X0031137Y0024466D01*
X0030985Y0024453D01*
X0030951Y0024451D01*
X0027022Y0024451D01*
X0026988Y0024453D01*
X0026870Y0024463D01*
X0026836Y0024466D01*
X0026688Y0024427D01*
X0026655Y0024419D01*
X0026619Y0024413D01*
X0026504Y0024393D01*
X0026475Y0024376D01*
X0026453Y0024368D01*
X0026432Y0024358D01*
X0026399Y0024349D01*
X0026274Y0024261D01*
X0026245Y0024243D01*
X0026142Y0024184D01*
X0026142Y0024184D01*
X0026113Y0024167D01*
X0026022Y0024058D01*
X0026014Y0024049D01*
X0025992Y0024024D01*
X0024520Y0022553D01*
X0024495Y0022530D01*
X0024378Y0022431D01*
X0024301Y0022299D01*
X0024283Y0022270D01*
X0024221Y0022183D01*
X0024029Y0022038D01*
X0023788Y0022033D01*
X0023725Y0022059D01*
X0023702Y0022071D01*
X0023680Y0022078D01*
X0023647Y0022073D01*
X0023644Y0022070D01*
X0023638Y0022044D01*
X0023638Y0017815D01*
X0023654Y0017765D01*
X0023658Y0017762D01*
X0023730Y0017757D01*
X0023728Y0017740D01*
X0023880Y0017716D01*
X0024050Y0017546D01*
X0024093Y0017369D01*
X0024093Y0017262D01*
X0024019Y0017033D01*
X0023824Y0016892D01*
X0023703Y0016873D01*
X0022228Y0016873D01*
X0021999Y0016947D01*
X0021953Y0016987D01*
X0021674Y0017265D01*
X0021565Y0017480D01*
X0021603Y0017718D01*
X0021626Y0017750D01*
X0021638Y0017799D01*
X0021638Y0022029D01*
X0021622Y0022079D01*
X0021618Y0022081D01*
X0021609Y0022082D01*
X0021574Y0022071D01*
X0021191Y0021876D01*
X0021142Y0021840D01*
X0020875Y0021573D01*
X0020660Y0021463D01*
X0020422Y0021501D01*
X0020324Y0021573D01*
X0020274Y0021622D01*
X0020165Y0021837D01*
X0020160Y0021898D01*
X0020160Y0023938D01*
X0020234Y0024167D01*
X0020429Y0024309D01*
X0020550Y0024328D01*
X0020584Y0024328D01*
X0020598Y0024330D01*
X0020598Y0024330D01*
X0020825Y0024363D01*
X0020825Y0024363D01*
X0020855Y0024368D01*
X0020893Y0024386D01*
X0021082Y0024479D01*
X0021268Y0024570D01*
X0021592Y0024895D01*
X0021794Y0025308D01*
X0021798Y0025338D01*
X0021798Y0025338D01*
X0021831Y0025563D01*
X0021831Y0025563D01*
X0021833Y0025577D01*
X0021833Y0027020D01*
X0021830Y0027041D01*
X0021798Y0027261D01*
X0021798Y0027261D01*
X0021793Y0027291D01*
X0021755Y0027369D01*
X0021605Y0027674D01*
X0021591Y0027703D01*
X0021490Y0027804D01*
X0021342Y0027952D01*
X0021266Y0028028D01*
X0020853Y0028229D01*
X0020823Y0028234D01*
X0020823Y0028234D01*
X0020598Y0028267D01*
X0020598Y0028267D01*
X0020584Y0028269D01*
X0014614Y0028269D01*
X0014600Y0028267D01*
X0014600Y0028267D01*
X0014372Y0028233D01*
X0014372Y0028233D01*
X0014343Y0028229D01*
X0014315Y0028215D01*
X0014315Y0028215D01*
X0014161Y0028140D01*
X0013930Y0028026D01*
X0013907Y0028004D01*
X0013881Y0027985D01*
X0013873Y0027996D01*
X0013713Y0027914D01*
X0013475Y0027952D01*
X0013376Y0028024D01*
X0012636Y0028764D01*
X0012527Y0028978D01*
X0012522Y0029039D01*
X0012522Y0030065D01*
X0012597Y0030294D01*
X0012688Y0030385D01*
X0012707Y0030398D01*
X0012738Y0030412D01*
X0012769Y0030443D01*
X0012779Y0030448D01*
X0012790Y0030456D01*
X0012791Y0030454D01*
X0012983Y0030552D01*
X0013221Y0030514D01*
X0013392Y0030344D01*
X0013403Y0030316D01*
X0013405Y0030306D01*
X0013418Y0030278D01*
X0013418Y0030278D01*
X0013523Y0030065D01*
X0013607Y0029893D01*
X0013630Y0029871D01*
X0013653Y0029847D01*
X0013932Y0029569D01*
X0014345Y0029367D01*
X0014375Y0029363D01*
X0014375Y0029363D01*
X0014600Y0029330D01*
X0014600Y0029330D01*
X0014614Y0029328D01*
X0020584Y0029328D01*
X0020598Y0029330D01*
X0020598Y0029330D01*
X0020825Y0029363D01*
X0020825Y0029363D01*
X0020855Y0029368D01*
X0020897Y0029388D01*
X0021091Y0029484D01*
X0021268Y0029570D01*
X0021592Y0029895D01*
X0021794Y0030308D01*
X0021798Y0030338D01*
X0021798Y0030338D01*
X0021831Y0030563D01*
X0021831Y0030563D01*
X0021833Y0030577D01*
X0021833Y0032020D01*
X0021829Y0032050D01*
X0021798Y0032261D01*
X0021798Y0032261D01*
X0021793Y0032291D01*
X0021779Y0032319D01*
X0021650Y0032583D01*
X0021591Y0032703D01*
X0021266Y0033028D01*
X0020853Y0033229D01*
X0020823Y0033234D01*
X0020823Y0033234D01*
X0020598Y0033267D01*
X0020598Y0033267D01*
X0020584Y0033269D01*
X0014614Y0033269D01*
X0014600Y0033267D01*
X0014600Y0033267D01*
X0014372Y0033233D01*
X0014372Y0033233D01*
X0014343Y0033229D01*
X0014217Y0033167D01*
X0014045Y0033127D01*
X0013415Y0033127D01*
X0013186Y0033202D01*
X0013095Y0033293D01*
X0013082Y0033312D01*
X0013068Y0033343D01*
X0012738Y0033673D01*
X0012686Y0033697D01*
X0012510Y0033861D01*
X0012464Y0034098D01*
X0012565Y0034316D01*
X0012686Y0034404D01*
X0012738Y0034428D01*
X0012973Y0034663D01*
X0013187Y0034772D01*
X0013248Y0034777D01*
X0013563Y0034777D01*
X0013792Y0034702D01*
X0013838Y0034663D01*
X0013856Y0034645D01*
X0013932Y0034569D01*
X0014345Y0034367D01*
X0014375Y0034363D01*
X0014375Y0034363D01*
X0014600Y0034330D01*
X0014600Y0034330D01*
X0014614Y0034328D01*
X0020584Y0034328D01*
X0020598Y0034330D01*
X0020598Y0034330D01*
X0020825Y0034363D01*
X0020825Y0034363D01*
X0020855Y0034368D01*
X0021268Y0034570D01*
X0021309Y0034612D01*
X0021569Y0034872D01*
X0021592Y0034895D01*
X0021794Y0035308D01*
X0021798Y0035338D01*
X0021798Y0035338D01*
X0021831Y0035563D01*
X0021831Y0035563D01*
X0021833Y0035577D01*
X0021833Y0037020D01*
X0021826Y0037065D01*
X0021798Y0037261D01*
X0021798Y0037261D01*
X0021793Y0037291D01*
X0021760Y0037358D01*
X0021615Y0037653D01*
X0021591Y0037703D01*
X0021486Y0037808D01*
X0021288Y0038005D01*
X0021266Y0038028D01*
X0020853Y0038229D01*
X0020823Y0038234D01*
X0020823Y0038234D01*
X0020598Y0038267D01*
X0020598Y0038267D01*
X0020584Y0038269D01*
X0014614Y0038269D01*
X0014600Y0038267D01*
X0014600Y0038267D01*
X0014372Y0038233D01*
X0014372Y0038233D01*
X0014343Y0038229D01*
X0013930Y0038026D01*
X0013907Y0038004D01*
X0013862Y0037958D01*
X0013606Y0037701D01*
X0013591Y0037672D01*
X0013591Y0037672D01*
X0013556Y0037600D01*
X0013389Y0037427D01*
X0013152Y0037386D01*
X0012931Y0037496D01*
X0012752Y0037675D01*
X0012643Y0037889D01*
X0012680Y0038127D01*
X0012799Y0038266D01*
X0012815Y0038278D01*
X0013119Y0038582D01*
X0013155Y0038631D01*
X0013350Y0039014D01*
X0013378Y0039101D01*
X0013389Y0039097D01*
X0013475Y0039267D01*
X0013690Y0039376D01*
X0013928Y0039339D01*
X0014220Y0039190D01*
X0014277Y0039171D01*
X0014604Y0039120D01*
X0014635Y0039117D01*
X0016537Y0039117D01*
X0016587Y0039133D01*
X0016599Y0039150D01*
X0016599Y0041908D01*
X0016673Y0042138D01*
X0016868Y0042279D01*
X0016989Y0042298D01*
X0018209Y0042298D01*
X0018438Y0042224D01*
G37*
G36*
X0112917Y0039772D02*
G01*
X0113104Y0039621D01*
X0113168Y0039408D01*
X0113168Y0025725D01*
X0113093Y0025496D01*
X0112898Y0025354D01*
X0112778Y0025335D01*
X0110906Y0025335D01*
X0110906Y0025010D01*
X0110832Y0024781D01*
X0110715Y0024676D01*
X0110699Y0024669D01*
X0110679Y0024654D01*
X0110678Y0024654D01*
X0110301Y0024364D01*
X0110246Y0024322D01*
X0109899Y0023869D01*
X0109680Y0023342D01*
X0109677Y0023317D01*
X0109670Y0023292D01*
X0109660Y0023295D01*
X0109576Y0023119D01*
X0109364Y0023004D01*
X0109125Y0023035D01*
X0108951Y0023201D01*
X0108938Y0023226D01*
X0108756Y0023626D01*
X0108756Y0023627D01*
X0108744Y0023652D01*
X0108498Y0023938D01*
X0108394Y0024058D01*
X0108394Y0024058D01*
X0108376Y0024079D01*
X0107902Y0024386D01*
X0107362Y0024548D01*
X0107034Y0024550D01*
X0106825Y0024551D01*
X0106825Y0024551D01*
X0106797Y0024552D01*
X0106771Y0024544D01*
X0106770Y0024544D01*
X0106281Y0024404D01*
X0106281Y0024404D01*
X0106254Y0024396D01*
X0105777Y0024095D01*
X0105759Y0024074D01*
X0105759Y0024074D01*
X0105422Y0023693D01*
X0105422Y0023693D01*
X0105403Y0023672D01*
X0105164Y0023161D01*
X0105159Y0023134D01*
X0105159Y0023134D01*
X0105114Y0022844D01*
X0105077Y0022604D01*
X0105080Y0022576D01*
X0105080Y0022576D01*
X0105112Y0022335D01*
X0105150Y0022044D01*
X0105157Y0022028D01*
X0105147Y0021791D01*
X0104998Y0021603D01*
X0104782Y0021538D01*
X0104571Y0021538D01*
X0104342Y0021612D01*
X0104295Y0021652D01*
X0101632Y0024315D01*
X0101523Y0024529D01*
X0101518Y0024590D01*
X0101518Y0025718D01*
X0101593Y0025947D01*
X0101632Y0025993D01*
X0101638Y0025999D01*
X0101721Y0026083D01*
X0101936Y0026192D01*
X0102174Y0026155D01*
X0102273Y0026083D01*
X0102512Y0025844D01*
X0102561Y0025808D01*
X0102953Y0025608D01*
X0103000Y0025593D01*
X0103046Y0025601D01*
X0103049Y0025604D01*
X0103056Y0025629D01*
X0103056Y0025644D01*
X0105056Y0025644D01*
X0105072Y0025594D01*
X0105075Y0025592D01*
X0105101Y0025590D01*
X0105158Y0025608D01*
X0105550Y0025808D01*
X0105599Y0025844D01*
X0105909Y0026154D01*
X0105945Y0026203D01*
X0106144Y0026595D01*
X0106163Y0026652D01*
X0106176Y0026735D01*
X0106168Y0026787D01*
X0106165Y0026790D01*
X0106140Y0026796D01*
X0105117Y0026796D01*
X0105067Y0026780D01*
X0105056Y0026763D01*
X0105056Y0025644D01*
X0103056Y0025644D01*
X0103056Y0028858D01*
X0105056Y0028858D01*
X0105072Y0028808D01*
X0105088Y0028796D01*
X0106124Y0028796D01*
X0106174Y0028812D01*
X0106177Y0028815D01*
X0106179Y0028841D01*
X0106163Y0028939D01*
X0106144Y0028997D01*
X0105945Y0029388D01*
X0105909Y0029437D01*
X0105599Y0029748D01*
X0105550Y0029784D01*
X0105158Y0029983D01*
X0105111Y0029998D01*
X0105065Y0029991D01*
X0105062Y0029988D01*
X0105056Y0029963D01*
X0105056Y0028858D01*
X0103056Y0028858D01*
X0103056Y0029947D01*
X0103039Y0029997D01*
X0103036Y0030000D01*
X0103010Y0030002D01*
X0102953Y0029983D01*
X0102561Y0029784D01*
X0102512Y0029748D01*
X0102273Y0029508D01*
X0102058Y0029399D01*
X0101820Y0029437D01*
X0101722Y0029508D01*
X0101709Y0029521D01*
X0101624Y0029606D01*
X0101624Y0029606D01*
X0101631Y0029613D01*
X0101519Y0029766D01*
X0101498Y0029890D01*
X0101498Y0030246D01*
X0101573Y0030475D01*
X0101612Y0030521D01*
X0101928Y0030838D01*
X0102129Y0031247D01*
X0102168Y0031514D01*
X0102168Y0033132D01*
X0102163Y0033165D01*
X0102133Y0033372D01*
X0102133Y0033372D01*
X0102128Y0033402D01*
X0102099Y0033461D01*
X0102024Y0033614D01*
X0101927Y0033811D01*
X0101613Y0034125D01*
X0101503Y0034339D01*
X0101498Y0034401D01*
X0101498Y0034426D01*
X0101500Y0034460D01*
X0101503Y0034498D01*
X0101513Y0034612D01*
X0101474Y0034760D01*
X0101466Y0034793D01*
X0101446Y0034910D01*
X0101440Y0034944D01*
X0101423Y0034973D01*
X0101415Y0034995D01*
X0101405Y0035016D01*
X0101396Y0035048D01*
X0101309Y0035174D01*
X0101290Y0035202D01*
X0101268Y0035240D01*
X0101214Y0035335D01*
X0101210Y0035338D01*
X0101126Y0035546D01*
X0101184Y0035780D01*
X0101369Y0035935D01*
X0101515Y0035963D01*
X0105516Y0035963D01*
X0105697Y0035919D01*
X0105826Y0035851D01*
X0106094Y0035772D01*
X0106382Y0035731D01*
X0107945Y0035731D01*
X0107950Y0035731D01*
X0107950Y0035731D01*
X0108049Y0035736D01*
X0108049Y0035736D01*
X0108054Y0035737D01*
X0108059Y0035737D01*
X0108059Y0035737D01*
X0108140Y0035746D01*
X0108140Y0035746D01*
X0108159Y0035748D01*
X0108177Y0035754D01*
X0108177Y0035754D01*
X0108521Y0035861D01*
X0108540Y0035867D01*
X0108759Y0035987D01*
X0108773Y0035994D01*
X0108773Y0035994D01*
X0108785Y0036001D01*
X0109018Y0036175D01*
X0112351Y0039509D01*
X0112424Y0039590D01*
X0112428Y0039594D01*
X0112428Y0039594D01*
X0112475Y0039652D01*
X0112676Y0039784D01*
X0112917Y0039772D01*
G37*
G36*
X0059718Y0032166D02*
G01*
X0059859Y0031971D01*
X0059878Y0031851D01*
X0059878Y0029089D01*
X0059895Y0029039D01*
X0059898Y0029037D01*
X0059924Y0029035D01*
X0059981Y0029053D01*
X0060372Y0029253D01*
X0060421Y0029288D01*
X0060532Y0029399D01*
X0060747Y0029508D01*
X0060984Y0029471D01*
X0061155Y0029300D01*
X0061197Y0029123D01*
X0061197Y0027627D01*
X0061123Y0027398D01*
X0061083Y0027351D01*
X0057622Y0023890D01*
X0057407Y0023781D01*
X0057170Y0023819D01*
X0056999Y0023989D01*
X0056957Y0024166D01*
X0056957Y0028835D01*
X0057031Y0029064D01*
X0057226Y0029205D01*
X0057467Y0029205D01*
X0057523Y0029182D01*
X0057776Y0029053D01*
X0057823Y0029038D01*
X0057869Y0029045D01*
X0057872Y0029048D01*
X0057878Y0029074D01*
X0057878Y0031851D01*
X0057953Y0032080D01*
X0058148Y0032222D01*
X0058268Y0032241D01*
X0059489Y0032241D01*
X0059718Y0032166D01*
G37*
G36*
X0020424Y0047222D02*
G01*
X0020469Y0047177D01*
X0020782Y0046805D01*
X0020782Y0046805D01*
X0020800Y0046784D01*
X0020823Y0046769D01*
X0020823Y0046769D01*
X0020832Y0046762D01*
X0021269Y0046471D01*
X0021620Y0046362D01*
X0021782Y0046311D01*
X0021782Y0046311D01*
X0021808Y0046303D01*
X0022090Y0046298D01*
X0022345Y0046293D01*
X0022345Y0046293D01*
X0022372Y0046293D01*
X0022399Y0046300D01*
X0022399Y0046300D01*
X0022695Y0046381D01*
X0022917Y0046441D01*
X0023398Y0046737D01*
X0023459Y0046804D01*
X0023668Y0046924D01*
X0023908Y0046898D01*
X0024007Y0046830D01*
X0024018Y0046813D01*
X0024279Y0046639D01*
X0024317Y0046631D01*
X0024317Y0046631D01*
X0024400Y0046615D01*
X0024509Y0046593D01*
X0026139Y0046593D01*
X0026368Y0046519D01*
X0026510Y0046324D01*
X0026512Y0046137D01*
X0026522Y0046135D01*
X0026435Y0045578D01*
X0026439Y0045550D01*
X0026439Y0045550D01*
X0026502Y0045062D01*
X0026508Y0045018D01*
X0026519Y0044992D01*
X0026519Y0044992D01*
X0026715Y0044548D01*
X0026736Y0044501D01*
X0026831Y0044388D01*
X0027081Y0044090D01*
X0027081Y0044090D01*
X0027099Y0044069D01*
X0027122Y0044054D01*
X0027122Y0044054D01*
X0027170Y0044022D01*
X0027569Y0043756D01*
X0027809Y0043681D01*
X0028081Y0043596D01*
X0028081Y0043596D01*
X0028107Y0043588D01*
X0028390Y0043583D01*
X0028644Y0043578D01*
X0028644Y0043578D01*
X0028672Y0043578D01*
X0028698Y0043585D01*
X0028698Y0043585D01*
X0029052Y0043681D01*
X0029216Y0043726D01*
X0029697Y0044022D01*
X0029726Y0044054D01*
X0030057Y0044419D01*
X0030076Y0044440D01*
X0030322Y0044948D01*
X0030327Y0044978D01*
X0030413Y0045490D01*
X0030413Y0045490D01*
X0030416Y0045505D01*
X0030416Y0045553D01*
X0030336Y0046112D01*
X0030310Y0046170D01*
X0030203Y0046406D01*
X0030176Y0046645D01*
X0030294Y0046855D01*
X0030514Y0046955D01*
X0030750Y0046906D01*
X0030784Y0046885D01*
X0030798Y0046875D01*
X0030821Y0046852D01*
X0031230Y0046652D01*
X0031425Y0046623D01*
X0031483Y0046615D01*
X0031483Y0046615D01*
X0031497Y0046613D01*
X0032241Y0046613D01*
X0032470Y0046538D01*
X0032517Y0046499D01*
X0033610Y0045405D01*
X0033633Y0045380D01*
X0033731Y0045263D01*
X0033864Y0045187D01*
X0033893Y0045168D01*
X0034018Y0045081D01*
X0034051Y0045072D01*
X0034072Y0045062D01*
X0034093Y0045054D01*
X0034123Y0045037D01*
X0034156Y0045031D01*
X0034156Y0045031D01*
X0034273Y0045011D01*
X0034307Y0045003D01*
X0034454Y0044964D01*
X0034579Y0044975D01*
X0034607Y0044977D01*
X0034641Y0044978D01*
X0038825Y0044978D01*
X0038996Y0044939D01*
X0039036Y0044919D01*
X0039318Y0044782D01*
X0039513Y0044753D01*
X0039571Y0044745D01*
X0039571Y0044745D01*
X0039585Y0044743D01*
X0041006Y0044743D01*
X0041020Y0044745D01*
X0041020Y0044745D01*
X0041276Y0044782D01*
X0041277Y0044771D01*
X0041468Y0044769D01*
X0041661Y0044625D01*
X0041733Y0044400D01*
X0041733Y0043559D01*
X0041658Y0043329D01*
X0041463Y0043188D01*
X0041222Y0043188D01*
X0041172Y0043208D01*
X0041156Y0043216D01*
X0041156Y0043216D01*
X0041128Y0043229D01*
X0041099Y0043234D01*
X0041099Y0043234D01*
X0040874Y0043267D01*
X0040874Y0043267D01*
X0040860Y0043269D01*
X0034889Y0043269D01*
X0034875Y0043267D01*
X0034875Y0043267D01*
X0034648Y0043233D01*
X0034648Y0043233D01*
X0034618Y0043229D01*
X0034206Y0043026D01*
X0033881Y0042701D01*
X0033679Y0042288D01*
X0033675Y0042259D01*
X0033675Y0042259D01*
X0033653Y0042104D01*
X0033640Y0042020D01*
X0033640Y0040577D01*
X0033642Y0040563D01*
X0033642Y0040563D01*
X0033661Y0040432D01*
X0033680Y0040306D01*
X0033693Y0040278D01*
X0033693Y0040278D01*
X0033737Y0040191D01*
X0033883Y0039893D01*
X0033905Y0039871D01*
X0033990Y0039786D01*
X0034208Y0039569D01*
X0034620Y0039367D01*
X0034650Y0039363D01*
X0034650Y0039363D01*
X0034875Y0039330D01*
X0034875Y0039330D01*
X0034889Y0039328D01*
X0039920Y0039328D01*
X0040149Y0039253D01*
X0040195Y0039214D01*
X0040264Y0039145D01*
X0040374Y0038930D01*
X0040336Y0038692D01*
X0040166Y0038522D01*
X0039989Y0038479D01*
X0038936Y0038479D01*
X0038886Y0038463D01*
X0038874Y0038447D01*
X0038874Y0034179D01*
X0038891Y0034129D01*
X0038907Y0034117D01*
X0040708Y0034117D01*
X0040937Y0034043D01*
X0041079Y0033848D01*
X0041093Y0033667D01*
X0041085Y0033614D01*
X0041083Y0033599D01*
X0040974Y0033384D01*
X0040760Y0033274D01*
X0040698Y0033269D01*
X0034889Y0033269D01*
X0034875Y0033267D01*
X0034875Y0033267D01*
X0034648Y0033233D01*
X0034648Y0033233D01*
X0034618Y0033229D01*
X0034591Y0033215D01*
X0034591Y0033215D01*
X0034450Y0033146D01*
X0034206Y0033026D01*
X0033921Y0032742D01*
X0033707Y0032632D01*
X0033646Y0032627D01*
X0027733Y0032627D01*
X0027504Y0032702D01*
X0027458Y0032741D01*
X0027125Y0033074D01*
X0027015Y0033289D01*
X0027011Y0033350D01*
X0027011Y0035253D01*
X0033482Y0035253D01*
X0033484Y0035240D01*
X0033502Y0035183D01*
X0033703Y0034788D01*
X0033739Y0034739D01*
X0034052Y0034427D01*
X0034101Y0034391D01*
X0034495Y0034190D01*
X0034553Y0034171D01*
X0034880Y0034120D01*
X0034910Y0034117D01*
X0036813Y0034117D01*
X0036863Y0034133D01*
X0036874Y0034150D01*
X0036874Y0035237D01*
X0036858Y0035286D01*
X0036842Y0035298D01*
X0033536Y0035298D01*
X0033486Y0035282D01*
X0033484Y0035279D01*
X0033482Y0035253D01*
X0027011Y0035253D01*
X0027011Y0037358D01*
X0033484Y0037358D01*
X0033492Y0037307D01*
X0033496Y0037304D01*
X0033521Y0037298D01*
X0036813Y0037298D01*
X0036863Y0037314D01*
X0036874Y0037331D01*
X0036874Y0038418D01*
X0036858Y0038468D01*
X0036842Y0038479D01*
X0034910Y0038479D01*
X0034880Y0038477D01*
X0034553Y0038425D01*
X0034495Y0038406D01*
X0034101Y0038206D01*
X0034052Y0038170D01*
X0033739Y0037857D01*
X0033703Y0037808D01*
X0033502Y0037414D01*
X0033484Y0037358D01*
X0027011Y0037358D01*
X0027011Y0039038D01*
X0027012Y0039072D01*
X0027023Y0039190D01*
X0027025Y0039224D01*
X0026986Y0039372D01*
X0026979Y0039405D01*
X0026978Y0039408D01*
X0026967Y0039470D01*
X0026958Y0039522D01*
X0026958Y0039522D01*
X0026952Y0039556D01*
X0026935Y0039585D01*
X0026927Y0039607D01*
X0026917Y0039628D01*
X0026909Y0039661D01*
X0026821Y0039786D01*
X0026803Y0039815D01*
X0026770Y0039871D01*
X0026726Y0039947D01*
X0026609Y0040045D01*
X0026584Y0040068D01*
X0021960Y0044692D01*
X0021937Y0044717D01*
X0021916Y0044743D01*
X0021839Y0044834D01*
X0021706Y0044911D01*
X0021677Y0044929D01*
X0021628Y0044964D01*
X0021552Y0045017D01*
X0021519Y0045026D01*
X0021498Y0045035D01*
X0021477Y0045043D01*
X0021447Y0045060D01*
X0021414Y0045066D01*
X0021414Y0045066D01*
X0021297Y0045087D01*
X0021263Y0045094D01*
X0021149Y0045125D01*
X0021116Y0045134D01*
X0021082Y0045131D01*
X0020963Y0045121D01*
X0020929Y0045119D01*
X0017514Y0045119D01*
X0017285Y0045194D01*
X0017144Y0045388D01*
X0017144Y0045629D01*
X0017164Y0045679D01*
X0017178Y0045707D01*
X0017178Y0045707D01*
X0017190Y0045732D01*
X0017202Y0045809D01*
X0017280Y0046268D01*
X0017391Y0046481D01*
X0017607Y0046589D01*
X0017664Y0046593D01*
X0019153Y0046593D01*
X0019262Y0046615D01*
X0019346Y0046631D01*
X0019346Y0046631D01*
X0019383Y0046639D01*
X0019644Y0046813D01*
X0019819Y0047074D01*
X0019821Y0047087D01*
X0019967Y0047258D01*
X0020202Y0047315D01*
X0020424Y0047222D01*
G37*
G36*
X0074152Y0044824D02*
G01*
X0080870Y0038106D01*
X0080979Y0037891D01*
X0080942Y0037653D01*
X0080771Y0037483D01*
X0080702Y0037456D01*
X0080494Y0037396D01*
X0080494Y0037396D01*
X0080467Y0037389D01*
X0080444Y0037374D01*
X0080018Y0037105D01*
X0079990Y0037087D01*
X0079971Y0037067D01*
X0079971Y0037067D01*
X0079634Y0036685D01*
X0079634Y0036685D01*
X0079616Y0036664D01*
X0079604Y0036639D01*
X0079604Y0036639D01*
X0079559Y0036542D01*
X0079376Y0036153D01*
X0079372Y0036126D01*
X0079360Y0036047D01*
X0079251Y0035832D01*
X0079036Y0035722D01*
X0078798Y0035759D01*
X0078699Y0035831D01*
X0075938Y0038591D01*
X0075916Y0038616D01*
X0075864Y0038678D01*
X0075817Y0038734D01*
X0075788Y0038751D01*
X0075736Y0038780D01*
X0075575Y0038959D01*
X0075550Y0039199D01*
X0075580Y0039288D01*
X0075648Y0039428D01*
X0075660Y0039453D01*
X0075695Y0039661D01*
X0075751Y0039994D01*
X0075751Y0039995D01*
X0075754Y0040009D01*
X0075754Y0040058D01*
X0075674Y0040617D01*
X0075440Y0041131D01*
X0075185Y0041427D01*
X0075090Y0041537D01*
X0075090Y0041537D01*
X0075072Y0041558D01*
X0074598Y0041865D01*
X0074058Y0042027D01*
X0073969Y0042027D01*
X0073764Y0042029D01*
X0073535Y0042104D01*
X0073491Y0042143D01*
X0073082Y0042552D01*
X0072972Y0042767D01*
X0073010Y0043005D01*
X0073082Y0043103D01*
X0073264Y0043286D01*
X0073285Y0043329D01*
X0073449Y0043681D01*
X0073449Y0043681D01*
X0073461Y0043708D01*
X0073487Y0043901D01*
X0073487Y0044548D01*
X0073561Y0044777D01*
X0073756Y0044919D01*
X0073997Y0044919D01*
X0074152Y0044824D01*
G37*
G36*
X0049705Y0039283D02*
G01*
X0049844Y0039085D01*
X0049861Y0038971D01*
X0049861Y0038306D01*
X0049863Y0038292D01*
X0049863Y0038292D01*
X0049896Y0038066D01*
X0049900Y0038036D01*
X0049939Y0037958D01*
X0049979Y0037786D01*
X0049979Y0036600D01*
X0049904Y0036371D01*
X0049709Y0036230D01*
X0049469Y0036230D01*
X0049377Y0036273D01*
X0049062Y0036477D01*
X0049062Y0036477D01*
X0049039Y0036493D01*
X0048498Y0036654D01*
X0048170Y0036656D01*
X0047961Y0036658D01*
X0047961Y0036658D01*
X0047934Y0036658D01*
X0047498Y0036533D01*
X0047257Y0036542D01*
X0047062Y0036698D01*
X0047048Y0036719D01*
X0047037Y0036745D01*
X0046759Y0037067D01*
X0046687Y0037151D01*
X0046687Y0037151D01*
X0046668Y0037172D01*
X0046195Y0037479D01*
X0045654Y0037641D01*
X0045326Y0037643D01*
X0045117Y0037644D01*
X0045117Y0037644D01*
X0045090Y0037644D01*
X0045063Y0037637D01*
X0045063Y0037637D01*
X0045050Y0037633D01*
X0044817Y0037566D01*
X0044576Y0037575D01*
X0044386Y0037724D01*
X0044320Y0037941D01*
X0044320Y0038110D01*
X0044321Y0038144D01*
X0044323Y0038159D01*
X0044335Y0038296D01*
X0044295Y0038444D01*
X0044288Y0038477D01*
X0044267Y0038594D01*
X0044267Y0038594D01*
X0044261Y0038628D01*
X0044260Y0038629D01*
X0044253Y0038852D01*
X0044387Y0039052D01*
X0044627Y0039134D01*
X0048547Y0039134D01*
X0048581Y0039133D01*
X0048733Y0039119D01*
X0048846Y0039150D01*
X0048881Y0039159D01*
X0048914Y0039166D01*
X0049031Y0039187D01*
X0049031Y0039187D01*
X0049065Y0039193D01*
X0049094Y0039210D01*
X0049116Y0039218D01*
X0049137Y0039228D01*
X0049170Y0039236D01*
X0049247Y0039291D01*
X0049478Y0039361D01*
X0049705Y0039283D01*
G37*
G36*
X0009025Y0043425D02*
G01*
X0009172Y0043234D01*
X0009189Y0043149D01*
X0009191Y0043149D01*
X0009208Y0043026D01*
X0009217Y0042954D01*
X0009262Y0042858D01*
X0009388Y0042588D01*
X0009417Y0042525D01*
X0009550Y0042392D01*
X0009659Y0042177D01*
X0009622Y0041940D01*
X0009550Y0041841D01*
X0009283Y0041574D01*
X0009247Y0041525D01*
X0009052Y0041142D01*
X0009045Y0041120D01*
X0009050Y0041087D01*
X0009053Y0041084D01*
X0009079Y0041078D01*
X0011811Y0041078D01*
X0012041Y0041003D01*
X0012182Y0040808D01*
X0012201Y0040688D01*
X0012201Y0039468D01*
X0012127Y0039238D01*
X0011932Y0039097D01*
X0011811Y0039078D01*
X0009094Y0039078D01*
X0009044Y0039062D01*
X0009042Y0039058D01*
X0009041Y0039048D01*
X0009052Y0039014D01*
X0009247Y0038631D01*
X0009283Y0038582D01*
X0009587Y0038278D01*
X0009649Y0038232D01*
X0009791Y0038038D01*
X0009791Y0037797D01*
X0009696Y0037641D01*
X0009508Y0037454D01*
X0009294Y0037344D01*
X0009233Y0037340D01*
X0009032Y0037340D01*
X0008803Y0037414D01*
X0008722Y0037492D01*
X0008663Y0037569D01*
X0008663Y0037569D01*
X0008648Y0037590D01*
X0008195Y0037937D01*
X0007668Y0038155D01*
X0007642Y0038159D01*
X0007642Y0038159D01*
X0007448Y0038184D01*
X0007389Y0038192D01*
X0007171Y0038296D01*
X0007069Y0038458D01*
X0007067Y0038462D01*
X0007067Y0038524D01*
X0006081Y0038524D01*
X0005852Y0038599D01*
X0005710Y0038793D01*
X0005691Y0038914D01*
X0005691Y0042071D01*
X0005766Y0042300D01*
X0005961Y0042442D01*
X0006081Y0042461D01*
X0007067Y0042461D01*
X0007067Y0042494D01*
X0007068Y0042494D01*
X0007072Y0042522D01*
X0007078Y0042521D01*
X0007142Y0042717D01*
X0007337Y0042858D01*
X0007406Y0042874D01*
X0007642Y0042905D01*
X0007642Y0042905D01*
X0007668Y0042909D01*
X0008195Y0043127D01*
X0008567Y0043413D01*
X0008794Y0043493D01*
X0009025Y0043425D01*
G37*
G36*
X0056919Y0056066D02*
G01*
X0056966Y0056026D01*
X0061537Y0051454D01*
X0061648Y0051229D01*
X0061683Y0050965D01*
X0061694Y0050940D01*
X0061694Y0050940D01*
X0061895Y0050483D01*
X0061910Y0050449D01*
X0062060Y0050270D01*
X0062255Y0050038D01*
X0062255Y0050038D01*
X0062273Y0050017D01*
X0062296Y0050001D01*
X0062296Y0050001D01*
X0062363Y0049957D01*
X0062743Y0049704D01*
X0063037Y0049612D01*
X0063255Y0049544D01*
X0063255Y0049544D01*
X0063282Y0049536D01*
X0063564Y0049531D01*
X0063819Y0049526D01*
X0063819Y0049526D01*
X0063846Y0049525D01*
X0063873Y0049533D01*
X0063873Y0049533D01*
X0064282Y0049644D01*
X0064391Y0049674D01*
X0064872Y0049969D01*
X0064901Y0050001D01*
X0065232Y0050367D01*
X0065251Y0050388D01*
X0065436Y0050771D01*
X0065485Y0050871D01*
X0065497Y0050896D01*
X0065513Y0050993D01*
X0065588Y0051437D01*
X0065588Y0051437D01*
X0065590Y0051452D01*
X0065591Y0051501D01*
X0065511Y0052060D01*
X0065277Y0052573D01*
X0065259Y0052594D01*
X0065259Y0052594D01*
X0065165Y0052704D01*
X0065072Y0052926D01*
X0065127Y0053160D01*
X0065171Y0053219D01*
X0065313Y0053376D01*
X0065332Y0053397D01*
X0065578Y0053905D01*
X0065588Y0053900D01*
X0065701Y0054057D01*
X0065931Y0054132D01*
X0069468Y0054132D01*
X0069697Y0054058D01*
X0069743Y0054018D01*
X0070947Y0052814D01*
X0071057Y0052599D01*
X0071061Y0052538D01*
X0071061Y0052036D01*
X0070987Y0051806D01*
X0070792Y0051665D01*
X0070560Y0051662D01*
X0070136Y0051789D01*
X0070109Y0051797D01*
X0069781Y0051799D01*
X0069573Y0051800D01*
X0069573Y0051800D01*
X0069545Y0051800D01*
X0069518Y0051793D01*
X0069518Y0051793D01*
X0069029Y0051653D01*
X0069029Y0051653D01*
X0069002Y0051645D01*
X0068525Y0051344D01*
X0068506Y0051323D01*
X0068506Y0051323D01*
X0068169Y0050942D01*
X0068169Y0050942D01*
X0068151Y0050921D01*
X0068139Y0050896D01*
X0068139Y0050896D01*
X0068139Y0050895D01*
X0067911Y0050410D01*
X0067907Y0050383D01*
X0067907Y0050383D01*
X0067840Y0049955D01*
X0067824Y0049852D01*
X0067828Y0049825D01*
X0067828Y0049810D01*
X0067751Y0049582D01*
X0067714Y0049539D01*
X0066764Y0048589D01*
X0066739Y0048566D01*
X0066622Y0048468D01*
X0066568Y0048375D01*
X0066545Y0048336D01*
X0066527Y0048307D01*
X0066439Y0048182D01*
X0066430Y0048149D01*
X0066421Y0048128D01*
X0066413Y0048106D01*
X0066396Y0048077D01*
X0066390Y0048043D01*
X0066390Y0048043D01*
X0066369Y0047926D01*
X0066362Y0047893D01*
X0066336Y0047797D01*
X0066322Y0047745D01*
X0066335Y0047596D01*
X0066336Y0047593D01*
X0066337Y0047559D01*
X0066337Y0046792D01*
X0066263Y0046563D01*
X0066223Y0046516D01*
X0065988Y0046282D01*
X0065974Y0046251D01*
X0065974Y0046251D01*
X0065830Y0045942D01*
X0065791Y0045859D01*
X0065766Y0045667D01*
X0065766Y0045126D01*
X0065692Y0044897D01*
X0065497Y0044755D01*
X0065256Y0044755D01*
X0065101Y0044850D01*
X0062520Y0047431D01*
X0062497Y0047456D01*
X0062470Y0047488D01*
X0062399Y0047573D01*
X0062266Y0047650D01*
X0062238Y0047668D01*
X0062176Y0047711D01*
X0062112Y0047756D01*
X0062079Y0047765D01*
X0062059Y0047774D01*
X0062037Y0047782D01*
X0062007Y0047799D01*
X0061974Y0047805D01*
X0061974Y0047805D01*
X0061857Y0047826D01*
X0061824Y0047833D01*
X0061709Y0047864D01*
X0061676Y0047873D01*
X0061575Y0047864D01*
X0061523Y0047859D01*
X0061489Y0047858D01*
X0059485Y0047858D01*
X0059451Y0047859D01*
X0059446Y0047860D01*
X0059299Y0047873D01*
X0059266Y0047864D01*
X0059151Y0047833D01*
X0059118Y0047826D01*
X0059118Y0047826D01*
X0058967Y0047799D01*
X0058938Y0047782D01*
X0058916Y0047774D01*
X0058895Y0047765D01*
X0058862Y0047756D01*
X0058798Y0047711D01*
X0058737Y0047668D01*
X0058708Y0047650D01*
X0058576Y0047573D01*
X0058504Y0047488D01*
X0058477Y0047456D01*
X0058454Y0047431D01*
X0057932Y0046908D01*
X0057717Y0046799D01*
X0057656Y0046794D01*
X0056489Y0046794D01*
X0056260Y0046869D01*
X0056119Y0047064D01*
X0056118Y0047302D01*
X0056124Y0047322D01*
X0056136Y0047347D01*
X0056151Y0047431D01*
X0056228Y0047889D01*
X0056228Y0047889D01*
X0056230Y0047904D01*
X0056231Y0047953D01*
X0056151Y0048511D01*
X0056046Y0048742D01*
X0055929Y0049000D01*
X0055929Y0049000D01*
X0055917Y0049025D01*
X0055616Y0049375D01*
X0055523Y0049597D01*
X0055521Y0049629D01*
X0055521Y0053286D01*
X0055523Y0053320D01*
X0055528Y0053376D01*
X0055536Y0053473D01*
X0055527Y0053506D01*
X0055527Y0053506D01*
X0055497Y0053621D01*
X0055489Y0053654D01*
X0055486Y0053674D01*
X0055463Y0053804D01*
X0055446Y0053834D01*
X0055438Y0053856D01*
X0055428Y0053876D01*
X0055419Y0053909D01*
X0055332Y0054035D01*
X0055313Y0054063D01*
X0055237Y0054196D01*
X0055120Y0054294D01*
X0055095Y0054317D01*
X0053937Y0055475D01*
X0053827Y0055690D01*
X0053865Y0055927D01*
X0054035Y0056098D01*
X0054212Y0056140D01*
X0056690Y0056140D01*
X0056919Y0056066D01*
G37*
G36*
X0113007Y0059117D02*
G01*
X0113149Y0058922D01*
X0113168Y0058802D01*
X0113168Y0047939D01*
X0113093Y0047710D01*
X0112898Y0047568D01*
X0112658Y0047568D01*
X0112483Y0047684D01*
X0112324Y0047868D01*
X0112324Y0047868D01*
X0112318Y0047874D01*
X0112237Y0047953D01*
X0112207Y0047981D01*
X0112207Y0047981D01*
X0112187Y0048001D01*
X0112159Y0048016D01*
X0111851Y0048177D01*
X0111834Y0048185D01*
X0111566Y0048264D01*
X0111278Y0048306D01*
X0108605Y0048306D01*
X0108376Y0048380D01*
X0108234Y0048575D01*
X0108234Y0048816D01*
X0108267Y0048890D01*
X0108290Y0048930D01*
X0108304Y0048953D01*
X0108365Y0049034D01*
X0108960Y0049628D01*
X0109174Y0049737D01*
X0109243Y0049742D01*
X0109309Y0049741D01*
X0109451Y0049738D01*
X0109451Y0049738D01*
X0109479Y0049738D01*
X0109506Y0049745D01*
X0109506Y0049745D01*
X0109900Y0049852D01*
X0110023Y0049886D01*
X0110504Y0050181D01*
X0110552Y0050234D01*
X0110864Y0050579D01*
X0110883Y0050600D01*
X0111060Y0050965D01*
X0111117Y0051083D01*
X0111129Y0051108D01*
X0111136Y0051150D01*
X0111220Y0051650D01*
X0111220Y0051650D01*
X0111223Y0051664D01*
X0111223Y0051713D01*
X0111143Y0052272D01*
X0110949Y0052700D01*
X0110921Y0052760D01*
X0110921Y0052760D01*
X0110910Y0052786D01*
X0110606Y0053139D01*
X0110560Y0053192D01*
X0110559Y0053192D01*
X0110541Y0053213D01*
X0110068Y0053520D01*
X0109527Y0053682D01*
X0109199Y0053684D01*
X0108990Y0053685D01*
X0108990Y0053685D01*
X0108963Y0053685D01*
X0108936Y0053678D01*
X0108936Y0053678D01*
X0108447Y0053538D01*
X0108447Y0053538D01*
X0108420Y0053530D01*
X0108396Y0053515D01*
X0108396Y0053515D01*
X0107971Y0053247D01*
X0107737Y0053188D01*
X0107514Y0053277D01*
X0107468Y0053322D01*
X0107410Y0053389D01*
X0107410Y0053389D01*
X0107392Y0053410D01*
X0106918Y0053717D01*
X0106377Y0053879D01*
X0106050Y0053881D01*
X0105841Y0053882D01*
X0105841Y0053882D01*
X0105813Y0053882D01*
X0105786Y0053875D01*
X0105786Y0053875D01*
X0105297Y0053735D01*
X0105297Y0053735D01*
X0105270Y0053727D01*
X0104793Y0053426D01*
X0104774Y0053405D01*
X0104774Y0053405D01*
X0104438Y0053024D01*
X0104438Y0053024D01*
X0104419Y0053003D01*
X0104179Y0052492D01*
X0104175Y0052465D01*
X0104175Y0052465D01*
X0104144Y0052268D01*
X0104093Y0051934D01*
X0104110Y0051797D01*
X0104113Y0051779D01*
X0104069Y0051543D01*
X0104002Y0051453D01*
X0103768Y0051220D01*
X0103554Y0051110D01*
X0103316Y0051148D01*
X0103145Y0051318D01*
X0103103Y0051495D01*
X0103103Y0058188D01*
X0103057Y0058419D01*
X0103036Y0058451D01*
X0102946Y0058585D01*
X0102880Y0058817D01*
X0102964Y0059043D01*
X0103164Y0059177D01*
X0103270Y0059191D01*
X0112778Y0059191D01*
X0113007Y0059117D01*
G37*
G36*
X0023544Y0054589D02*
G01*
X0023686Y0054395D01*
X0023686Y0054154D01*
X0023675Y0054125D01*
X0023638Y0054034D01*
X0023591Y0053799D01*
X0023587Y0053761D01*
X0023587Y0053464D01*
X0023603Y0053414D01*
X0023619Y0053402D01*
X0032835Y0053402D01*
X0033064Y0053328D01*
X0033206Y0053133D01*
X0033225Y0053012D01*
X0033225Y0051792D01*
X0033150Y0051563D01*
X0032956Y0051421D01*
X0032835Y0051402D01*
X0023649Y0051402D01*
X0023599Y0051386D01*
X0023587Y0051370D01*
X0023587Y0051043D01*
X0023591Y0051005D01*
X0023638Y0050770D01*
X0023666Y0050700D01*
X0023782Y0050527D01*
X0023848Y0050295D01*
X0023840Y0050234D01*
X0023834Y0050202D01*
X0023824Y0050152D01*
X0023706Y0049942D01*
X0023488Y0049841D01*
X0023251Y0049888D01*
X0023230Y0049901D01*
X0023133Y0049964D01*
X0022961Y0050075D01*
X0022421Y0050237D01*
X0022093Y0050239D01*
X0021884Y0050240D01*
X0021884Y0050240D01*
X0021856Y0050241D01*
X0021830Y0050233D01*
X0021830Y0050233D01*
X0021340Y0050093D01*
X0021340Y0050093D01*
X0021314Y0050085D01*
X0020836Y0049784D01*
X0020818Y0049763D01*
X0020818Y0049763D01*
X0020684Y0049612D01*
X0020547Y0049456D01*
X0020547Y0049456D01*
X0020339Y0049334D01*
X0020099Y0049357D01*
X0019919Y0049516D01*
X0019865Y0049714D01*
X0019865Y0050019D01*
X0019835Y0050167D01*
X0019826Y0050212D01*
X0019826Y0050212D01*
X0019819Y0050249D01*
X0019644Y0050511D01*
X0019579Y0050554D01*
X0019474Y0050625D01*
X0019324Y0050814D01*
X0019315Y0051055D01*
X0019415Y0051224D01*
X0022740Y0054550D01*
X0022955Y0054659D01*
X0023016Y0054664D01*
X0023315Y0054664D01*
X0023544Y0054589D01*
G37*
G36*
X0039985Y0059117D02*
G01*
X0040127Y0058922D01*
X0040127Y0058681D01*
X0039985Y0058486D01*
X0039951Y0058464D01*
X0039902Y0058436D01*
X0039902Y0058436D01*
X0039872Y0058419D01*
X0039774Y0058301D01*
X0039751Y0058276D01*
X0039013Y0057538D01*
X0038798Y0057429D01*
X0038737Y0057424D01*
X0038095Y0057424D01*
X0037866Y0057498D01*
X0037778Y0057587D01*
X0037768Y0057601D01*
X0037754Y0057630D01*
X0037716Y0057668D01*
X0037454Y0057929D01*
X0037454Y0057929D01*
X0037431Y0057952D01*
X0037021Y0058152D01*
X0036826Y0058181D01*
X0036768Y0058189D01*
X0036768Y0058189D01*
X0036754Y0058191D01*
X0035333Y0058191D01*
X0035319Y0058189D01*
X0035319Y0058189D01*
X0035094Y0058156D01*
X0035094Y0058156D01*
X0035064Y0058152D01*
X0034654Y0057951D01*
X0034632Y0057928D01*
X0034410Y0057706D01*
X0034196Y0057597D01*
X0033958Y0057634D01*
X0033859Y0057706D01*
X0033835Y0057730D01*
X0033612Y0057952D01*
X0033202Y0058152D01*
X0033007Y0058181D01*
X0032949Y0058189D01*
X0032949Y0058189D01*
X0032935Y0058191D01*
X0031514Y0058191D01*
X0031500Y0058189D01*
X0031500Y0058189D01*
X0031275Y0058156D01*
X0031275Y0058156D01*
X0031245Y0058152D01*
X0030836Y0057951D01*
X0030813Y0057928D01*
X0030663Y0057777D01*
X0030448Y0057668D01*
X0030210Y0057705D01*
X0030063Y0057836D01*
X0029981Y0057959D01*
X0029959Y0057991D01*
X0029698Y0058165D01*
X0029661Y0058173D01*
X0029661Y0058173D01*
X0029567Y0058191D01*
X0029468Y0058211D01*
X0024509Y0058211D01*
X0024410Y0058191D01*
X0024317Y0058173D01*
X0024317Y0058173D01*
X0024279Y0058165D01*
X0024018Y0057991D01*
X0023843Y0057730D01*
X0023836Y0057692D01*
X0023836Y0057692D01*
X0023806Y0057541D01*
X0023688Y0057330D01*
X0023469Y0057230D01*
X0023424Y0057227D01*
X0022396Y0057227D01*
X0022362Y0057228D01*
X0022341Y0057230D01*
X0022210Y0057242D01*
X0022177Y0057233D01*
X0022177Y0057233D01*
X0022062Y0057202D01*
X0022029Y0057195D01*
X0021878Y0057168D01*
X0021849Y0057151D01*
X0021827Y0057143D01*
X0021806Y0057134D01*
X0021773Y0057125D01*
X0021745Y0057105D01*
X0021745Y0057105D01*
X0021648Y0057037D01*
X0021619Y0057019D01*
X0021487Y0056942D01*
X0021465Y0056916D01*
X0021389Y0056825D01*
X0021366Y0056800D01*
X0020530Y0055964D01*
X0020315Y0055855D01*
X0020077Y0055893D01*
X0019907Y0056063D01*
X0019865Y0056240D01*
X0019865Y0057500D01*
X0019834Y0057653D01*
X0019826Y0057692D01*
X0019826Y0057692D01*
X0019819Y0057730D01*
X0019644Y0057991D01*
X0019383Y0058165D01*
X0019346Y0058173D01*
X0019346Y0058173D01*
X0019252Y0058191D01*
X0019153Y0058211D01*
X0014194Y0058211D01*
X0014095Y0058191D01*
X0014002Y0058173D01*
X0014002Y0058173D01*
X0013964Y0058165D01*
X0013703Y0057991D01*
X0013529Y0057730D01*
X0013521Y0057692D01*
X0013521Y0057692D01*
X0013513Y0057653D01*
X0013483Y0057500D01*
X0013483Y0057419D01*
X0013408Y0057190D01*
X0013213Y0057049D01*
X0012972Y0057049D01*
X0012942Y0057061D01*
X0012924Y0057073D01*
X0012383Y0057234D01*
X0012055Y0057236D01*
X0011846Y0057238D01*
X0011846Y0057238D01*
X0011818Y0057238D01*
X0011792Y0057230D01*
X0011792Y0057230D01*
X0011302Y0057090D01*
X0011302Y0057090D01*
X0011276Y0057083D01*
X0010798Y0056782D01*
X0010780Y0056761D01*
X0010780Y0056761D01*
X0010443Y0056379D01*
X0010443Y0056379D01*
X0010425Y0056358D01*
X0010185Y0055848D01*
X0010181Y0055820D01*
X0010181Y0055820D01*
X0010147Y0055603D01*
X0010098Y0055290D01*
X0010102Y0055262D01*
X0010102Y0055262D01*
X0010126Y0055077D01*
X0010171Y0054730D01*
X0010182Y0054705D01*
X0010182Y0054705D01*
X0010206Y0054652D01*
X0010230Y0054412D01*
X0010108Y0054204D01*
X0010021Y0054145D01*
X0009995Y0054132D01*
X0009713Y0053994D01*
X0009691Y0053971D01*
X0009613Y0053893D01*
X0009398Y0053783D01*
X0009160Y0053821D01*
X0009002Y0053971D01*
X0008995Y0053987D01*
X0008648Y0054440D01*
X0008195Y0054787D01*
X0007668Y0055006D01*
X0007642Y0055009D01*
X0007642Y0055009D01*
X0007127Y0055077D01*
X0007102Y0055080D01*
X0007077Y0055077D01*
X0006562Y0055009D01*
X0006562Y0055009D01*
X0006536Y0055006D01*
X0006433Y0054963D01*
X0006230Y0054879D01*
X0005990Y0054860D01*
X0005785Y0054986D01*
X0005693Y0055209D01*
X0005691Y0055239D01*
X0005691Y0058802D01*
X0005766Y0059031D01*
X0005961Y0059172D01*
X0006081Y0059191D01*
X0039756Y0059191D01*
X0039985Y0059117D01*
G37*
G36*
X0072160Y0059117D02*
G01*
X0072301Y0058922D01*
X0072301Y0058681D01*
X0072160Y0058486D01*
X0072038Y0058427D01*
X0071595Y0058300D01*
X0071595Y0058300D01*
X0071568Y0058293D01*
X0071091Y0057992D01*
X0071072Y0057971D01*
X0071072Y0057971D01*
X0070735Y0057589D01*
X0070735Y0057589D01*
X0070717Y0057568D01*
X0070477Y0057058D01*
X0070472Y0057025D01*
X0070470Y0057022D01*
X0070465Y0057004D01*
X0070462Y0057004D01*
X0070363Y0056810D01*
X0070149Y0056700D01*
X0070121Y0056697D01*
X0070121Y0056697D01*
X0070087Y0056695D01*
X0064658Y0056695D01*
X0064624Y0056697D01*
X0064506Y0056707D01*
X0064472Y0056710D01*
X0064324Y0056671D01*
X0064291Y0056663D01*
X0064255Y0056657D01*
X0064140Y0056637D01*
X0064111Y0056620D01*
X0064089Y0056612D01*
X0064068Y0056602D01*
X0064036Y0056593D01*
X0064008Y0056574D01*
X0064008Y0056574D01*
X0063975Y0056551D01*
X0063749Y0056480D01*
X0063541Y0056481D01*
X0063439Y0056482D01*
X0063439Y0056482D01*
X0063411Y0056482D01*
X0063385Y0056475D01*
X0063385Y0056475D01*
X0062895Y0056335D01*
X0062895Y0056335D01*
X0062869Y0056327D01*
X0062391Y0056026D01*
X0062373Y0056005D01*
X0062373Y0056005D01*
X0062036Y0055624D01*
X0062036Y0055624D01*
X0062018Y0055603D01*
X0062006Y0055578D01*
X0061933Y0055422D01*
X0061768Y0055246D01*
X0061531Y0055201D01*
X0061304Y0055312D01*
X0058340Y0058276D01*
X0058317Y0058301D01*
X0058317Y0058301D01*
X0058219Y0058419D01*
X0058189Y0058436D01*
X0058140Y0058464D01*
X0057979Y0058643D01*
X0057953Y0058883D01*
X0058074Y0059091D01*
X0058294Y0059189D01*
X0058335Y0059191D01*
X0071931Y0059191D01*
X0072160Y0059117D01*
G37*
G36*
X0111546Y0047205D02*
G01*
X0111729Y0046994D01*
X0111774Y0046788D01*
X0111774Y0040582D01*
X0111695Y0040314D01*
X0111629Y0040231D01*
X0108295Y0036898D01*
X0108050Y0036764D01*
X0107945Y0036752D01*
X0106382Y0036752D01*
X0106114Y0036831D01*
X0105931Y0037042D01*
X0105886Y0037249D01*
X0105886Y0045055D01*
X0105940Y0045281D01*
X0106044Y0045484D01*
X0106044Y0045484D01*
X0106062Y0045519D01*
X0106121Y0045890D01*
X0106121Y0046245D01*
X0106199Y0046513D01*
X0106266Y0046596D01*
X0106809Y0047139D01*
X0107054Y0047273D01*
X0107160Y0047284D01*
X0111278Y0047284D01*
X0111546Y0047205D01*
G37*
M02*
